<svg width="409" height="409" viewBox="0 0 409 409" fill="none" xmlns="http://www.w3.org/2000/svg">
<path d="M0 175.103V344.854C0 356.237 9.28238 365.823 21.1689 366.422C60.1677 368.42 143.949 376.488 191.719 408.92V195.873C144.907 164.159 63.8983 155.612 23.837 153.375C10.8561 152.656 0 162.641 0 175.103ZM385.195 153.375C345.182 155.65 264.332 164.135 218.16 195.785C217.361 195.873 217.281 195.953 217.281 196.112V409C265.243 376.735 348.848 368.451 387.831 366.438C399.734 365.783 409 356.197 409 344.854V175.103C409 162.641 398.136 152.656 385.195 153.375ZM281.188 76.6875C281.188 34.3496 246.838 0 204.5 0C162.162 0 127.812 34.3496 127.812 76.6875C127.812 119.025 162.162 153.375 204.5 153.375C246.838 153.375 281.188 119.025 281.188 76.6875Z" fill="#AE8FAF"/>
</svg>
