<svg width="76" height="76" viewBox="0 0 76 76" fill="none" xmlns="http://www.w3.org/2000/svg">
<g clip-path="url(#clip0_901_50)">
<path d="M27.689 7.45559H48.8985C49.5466 7.45559 50.0768 7.98582 50.0768 8.63389V14.5254H26.5106V8.63389C26.5106 7.98582 27.0409 7.45559 27.689 7.45559ZM19.4408 8.63389V14.5254H10.0143C4.81507 14.5254 0.587891 18.7526 0.587891 23.9519V38.0916H28.8673H47.7202H75.9996V23.9519C75.9996 18.7526 71.7724 14.5254 66.5731 14.5254H57.1466V8.63389C57.1466 4.08268 53.4497 0.385742 48.8985 0.385742H27.689C23.1377 0.385742 19.4408 4.08268 19.4408 8.63389ZM75.9996 42.8048H47.7202V47.518C47.7202 50.125 45.614 52.2313 43.0069 52.2313H33.5805C30.9735 52.2313 28.8673 50.125 28.8673 47.518V42.8048H0.587891V61.6577C0.587891 66.857 4.81507 71.0842 10.0143 71.0842H66.5731C71.7724 71.0842 75.9996 66.857 75.9996 61.6577V42.8048Z" fill="#AE8FAF"/>
</g>
<defs>
<clipPath id="clip0_901_50">
<rect width="75.4117" height="75.4117" fill="white" transform="translate(0.587891 0.385742)"/>
</clipPath>
</defs>
</svg>
