<svg width="66" height="59" viewBox="0 0 66 59" fill="none" xmlns="http://www.w3.org/2000/svg">
<g clip-path="url(#clip0_901_58)">
<path d="M0.488281 2.72966C0.488281 1.21697 1.70525 0 3.21794 0H8.39292C10.8951 0 13.113 1.45582 14.1479 3.63954H60.8933C63.8846 3.63954 66.0683 6.48294 65.2836 9.37183L60.6204 26.6938C59.6536 30.2651 56.4122 32.7559 52.7157 32.7559H19.903L20.5172 35.9974C20.7674 37.2826 21.8934 38.2152 23.2013 38.2152H55.9913C57.504 38.2152 58.721 39.4322 58.721 40.9449C58.721 42.4576 57.504 43.6745 55.9913 43.6745H23.2013C19.2661 43.6745 15.8881 40.8766 15.1602 37.021L9.29143 6.1986C9.21182 5.7664 8.83649 5.45932 8.39292 5.45932H3.21794C1.70525 5.45932 0.488281 4.24234 0.488281 2.72966ZM15.0465 52.7734C15.0465 52.0565 15.1877 51.3466 15.462 50.6842C15.7364 50.0219 16.1385 49.42 16.6455 48.9131C17.1524 48.4061 17.7542 48.004 18.4166 47.7297C19.0789 47.4553 19.7889 47.3141 20.5058 47.3141C21.2227 47.3141 21.9326 47.4553 22.595 47.7297C23.2573 48.004 23.8592 48.4061 24.3661 48.9131C24.873 49.42 25.2752 50.0219 25.5495 50.6842C25.8239 51.3466 25.9651 52.0565 25.9651 52.7734C25.9651 53.4903 25.8239 54.2002 25.5495 54.8626C25.2752 55.5249 24.873 56.1268 24.3661 56.6337C23.8592 57.1407 23.2573 57.5428 22.595 57.8172C21.9326 58.0915 21.2227 58.2327 20.5058 58.2327C19.7889 58.2327 19.0789 58.0915 18.4166 57.8172C17.7542 57.5428 17.1524 57.1407 16.6455 56.6337C16.1385 56.1268 15.7364 55.5249 15.462 54.8626C15.1877 54.2002 15.0465 53.4903 15.0465 52.7734ZM53.2617 47.3141C54.7096 47.3141 56.0982 47.8893 57.122 48.9131C58.1458 49.9369 58.721 51.3255 58.721 52.7734C58.721 54.2213 58.1458 55.6099 57.122 56.6337C56.0982 57.6575 54.7096 58.2327 53.2617 58.2327C51.8138 58.2327 50.4252 57.6575 49.4014 56.6337C48.3775 55.6099 47.8024 54.2213 47.8024 52.7734C47.8024 51.3255 48.3775 49.9369 49.4014 48.9131C50.4252 47.8893 51.8138 47.3141 53.2617 47.3141Z" fill="#AE8FAF"/>
</g>
<defs>
<clipPath id="clip0_901_58">
<rect width="65.5118" height="58.2327" fill="white" transform="translate(0.488281)"/>
</clipPath>
</defs>
</svg>
