<svg width="42" height="43" viewBox="0 0 42 43" fill="none" xmlns="http://www.w3.org/2000/svg">
<g clip-path="url(#clip0_1044_172)">
<path d="M20.7644 42.0816C9.29532 42.0816 0 32.7862 0 21.3171C0 9.84805 9.29532 0.552734 20.7644 0.552734C32.2335 0.552734 41.5288 9.84805 41.5288 21.3171C41.5288 32.7862 32.2335 42.0816 20.7644 42.0816ZM18.8177 21.3171C18.8177 21.966 19.1422 22.5744 19.6856 22.8664L27.4723 28.0575C28.3645 28.7226 29.5731 28.4792 30.1003 27.587C30.7654 26.6948 30.5221 25.4862 29.6298 24.886L22.7111 20.2789V10.2861C22.7111 9.20727 21.8432 8.33939 20.6914 8.33939C19.6856 8.33939 18.7447 9.20727 18.7447 10.2861L18.8177 21.3171Z" fill="#AE8FAF"/>
</g>
<defs>
<clipPath id="clip0_1044_172">
<rect width="41.5288" height="41.5288" fill="white" transform="translate(0 0.554688)"/>
</clipPath>
</defs>
</svg>
