<svg width="87" height="88" viewBox="0 0 87 88" fill="none" xmlns="http://www.w3.org/2000/svg">
<g clip-path="url(#clip0_939_40)">
<path d="M46.4056 0.601562H67.3963C69.5444 0.601562 71.608 1.46419 73.1303 2.98648L84.6151 14.4713C86.1374 15.9936 87 18.0571 87 20.2053V57.4337C87 61.916 83.3634 65.5525 78.8811 65.5525H46.4056C41.9233 65.5525 38.2868 61.916 38.2868 57.4337V8.72044C38.2868 4.23814 41.9233 0.601562 46.4056 0.601562ZM8.51755 22.2519H32.8742V33.0771H11.2238V76.3777H43.6993V70.9651H54.5245V79.084C54.5245 83.5663 50.8879 87.2029 46.4056 87.2029H8.51755C4.03526 87.2029 0.398682 83.5663 0.398682 79.084V30.3708C0.398682 25.8885 4.03526 22.2519 8.51755 22.2519Z" fill="#AE8FAF"/>
</g>
<defs>
<clipPath id="clip0_939_40">
<rect width="86.6013" height="86.6013" fill="white" transform="translate(0.398682 0.601562)"/>
</clipPath>
</defs>
</svg>
