<svg width="109" height="86" viewBox="0 0 109 86" fill="none" xmlns="http://www.w3.org/2000/svg">
<g clip-path="url(#clip0_1044_101)">
<path d="M105.666 25.5018L58.3059 11.2363C55.7251 10.459 52.9406 10.459 50.3616 11.2363L2.99954 25.5018C-0.997242 26.7052 -0.997242 31.8871 2.99954 33.0906L11.2563 35.5774C9.44465 37.773 8.33084 40.4513 8.22048 43.3843C6.58544 44.3032 5.43428 45.9611 5.43428 47.9403C5.43428 49.7347 6.39867 51.2444 7.78753 52.2099L3.45287 71.3326C3.07594 72.9955 4.36632 74.5735 6.10324 74.5735H15.63C17.3686 74.5735 18.659 72.9955 18.2821 71.3326L13.9474 52.2099C15.3362 51.2444 16.3006 49.7347 16.3006 47.9403C16.3006 46.0143 15.2021 44.403 13.6418 43.4675C13.7708 40.9673 15.0748 38.7568 17.1547 37.3552L50.3599 47.3577C51.8981 47.8204 54.849 48.398 58.3042 47.3577L105.666 33.0922C109.665 31.8871 109.665 26.7069 105.666 25.5018ZM59.9002 52.4496C55.0562 53.9078 50.9287 53.1021 48.7639 52.4496L24.1414 45.0339L21.7338 63.9202C21.7338 69.8045 36.3287 74.5735 54.3329 74.5735C72.3371 74.5735 86.932 69.8045 86.932 63.9202L84.5244 45.0322L59.9002 52.4496Z" fill="#AE8FAF"/>
</g>
<defs>
<clipPath id="clip0_1044_101">
<rect width="108.664" height="85.2263" fill="white"/>
</clipPath>
</defs>
</svg>
