<svg width="85" height="98" viewBox="0 0 85 98" fill="none" xmlns="http://www.w3.org/2000/svg">
<g clip-path="url(#clip0_939_44)">
<path d="M75.89 6.66504H9.18619C6.77379 6.66504 4.46019 7.62336 2.75436 9.32919C1.04853 11.035 0.09021 13.3486 0.09021 15.761L0.09021 82.4649C0.09021 84.8773 1.04853 87.1909 2.75436 88.8967C4.46019 90.6025 6.77379 91.5608 9.18619 91.5608H35.195V62.6982H23.2565V49.1129H35.195V38.7587C35.195 26.9813 42.2065 20.4758 52.9454 20.4758C58.0885 20.4758 63.4664 21.3929 63.4664 21.3929V32.9524H57.5408C51.7023 32.9524 49.8812 36.5757 49.8812 40.2917V49.1129H62.915L60.8305 62.6982H49.8812V91.5608H75.89C78.3024 91.5608 80.616 90.6025 82.3219 88.8967C84.0277 87.1909 84.986 84.8773 84.986 82.4649V15.761C84.986 13.3486 84.0277 11.035 82.3219 9.32919C80.616 7.62336 78.3024 6.66504 75.89 6.66504Z" fill="#AE8FAF"/>
</g>
<defs>
<clipPath id="clip0_939_44">
<rect width="84.8958" height="97.0238" fill="white" transform="translate(0.09021 0.601562)"/>
</clipPath>
</defs>
</svg>
