<svg width="40" height="45" viewBox="0 0 40 45" fill="none" xmlns="http://www.w3.org/2000/svg">
<g clip-path="url(#clip0_1044_168)">
<path d="M33.5586 2.77246H5.82422C2.76044 2.77246 0.277344 5.25555 0.277344 8.31934V36.0537C0.277344 39.1175 2.76044 41.6006 5.82422 41.6006H33.5586C36.6224 41.6006 39.1055 39.1175 39.1055 36.0537V8.31934C39.1055 5.25555 36.618 2.77246 33.5586 2.77246ZM30.7505 27.8634L29.7434 32.2307C29.6019 32.8482 29.0587 33.2803 28.4225 33.2803C17.4935 33.2803 8.60112 24.3879 8.60112 13.4502C8.60112 12.8151 9.03308 12.2724 9.65069 12.1311L14.0171 11.1231C14.6536 10.9755 15.3068 11.3059 15.5711 11.9085L17.5879 16.613C17.8236 17.1669 17.6644 17.8116 17.1986 18.1921L14.8639 20.1064C16.3364 23.1061 18.7762 25.545 21.7775 27.0184L23.686 24.6861C24.0625 24.2188 24.7131 24.0577 25.2669 24.2975L29.9679 26.3125C30.5685 26.572 30.8978 27.2307 30.7505 27.8634Z" fill="#AE8FAF"/>
</g>
<defs>
<clipPath id="clip0_1044_168">
<rect width="38.8281" height="44.375" fill="white" transform="translate(0.277344)"/>
</clipPath>
</defs>
</svg>
