<svg width="98" height="77" viewBox="0 0 98 77" fill="none" xmlns="http://www.w3.org/2000/svg">
<g clip-path="url(#clip0_1044_99)">
<path d="M14.6696 33.5588C20.0637 33.5588 24.4493 29.2592 24.4493 23.9708C24.4493 18.6825 20.0637 14.3829 14.6696 14.3829C9.27545 14.3829 4.88986 18.6825 4.88986 23.9708C4.88986 29.2592 9.27545 33.5588 14.6696 33.5588ZM83.1276 33.5588C88.5217 33.5588 92.9073 29.2592 92.9073 23.9708C92.9073 18.6825 88.5217 14.3829 83.1276 14.3829C77.7335 14.3829 73.3479 18.6825 73.3479 23.9708C73.3479 29.2592 77.7335 33.5588 83.1276 33.5588ZM88.0175 38.3528H78.2378C75.5483 38.3528 73.1187 39.4165 71.3461 41.1393C77.5043 44.4501 81.8746 50.4276 82.822 57.5287H92.9073C95.612 57.5287 97.7972 55.3864 97.7972 52.7347V47.9407C97.7972 42.6524 93.4116 38.3528 88.0175 38.3528ZM48.8986 38.3528C58.3574 38.3528 66.0131 30.8472 66.0131 21.5739C66.0131 12.3005 58.3574 4.79492 48.8986 4.79492C39.4398 4.79492 31.7841 12.3005 31.7841 21.5739C31.7841 30.8472 39.4398 38.3528 48.8986 38.3528ZM60.6343 43.1468H59.366C56.1875 44.6449 52.6577 45.5438 48.8986 45.5438C45.1395 45.5438 41.6249 44.6449 38.4312 43.1468H37.1629C27.4443 43.1468 19.5594 50.8771 19.5594 60.4051V64.7197C19.5594 68.6897 22.8448 71.9107 26.8942 71.9107H70.903C74.9524 71.9107 78.2378 68.6897 78.2378 64.7197V60.4051C78.2378 50.8771 70.3529 43.1468 60.6343 43.1468ZM26.4511 41.1393C24.6785 39.4165 22.2489 38.3528 19.5594 38.3528H9.77972C4.38559 38.3528 0 42.6524 0 47.9407V52.7347C0 55.3864 2.18516 57.5287 4.88986 57.5287H14.9599C15.9226 50.4276 20.2929 44.4501 26.4511 41.1393Z" fill="#AE8FAF"/>
</g>
<defs>
<clipPath id="clip0_1044_99">
<rect width="97.7972" height="76.7037" fill="white"/>
</clipPath>
</defs>
</svg>
