<svg width="73" height="65" viewBox="0 0 73 65" fill="none" xmlns="http://www.w3.org/2000/svg">
<g clip-path="url(#clip0_901_52)">
<path d="M0 12.1658H73C73 7.69201 69.3627 4.05469 64.8889 4.05469H8.11111C3.63733 4.05469 0 7.69201 0 12.1658ZM0 16.2214V52.7213C0 57.1951 3.63733 60.8325 8.11111 60.8325H64.8889C69.3627 60.8325 73 57.1951 73 52.7213V16.2214H0ZM8.11111 51.3653C8.11111 47.6266 11.1401 44.6102 14.8661 44.6102H29.745C33.4837 44.6102 36.5 47.6392 36.5 51.3653C36.5 52.113 35.8917 52.7213 35.1439 52.7213H9.46719C8.71944 52.7213 8.11111 52.113 8.11111 51.3653ZM22.3056 24.3325C24.4568 24.3325 26.5199 25.187 28.041 26.7082C29.5621 28.2293 30.4167 30.2924 30.4167 32.4436C30.4167 34.5948 29.5621 36.6579 28.041 38.179C26.5199 39.7001 24.4568 40.5547 22.3056 40.5547C20.1544 40.5547 18.0913 39.7001 16.5701 38.179C15.049 36.6579 14.1944 34.5948 14.1944 32.4436C14.1944 30.2924 15.049 28.2293 16.5701 26.7082C18.0913 25.187 20.1544 24.3325 22.3056 24.3325ZM44.6111 26.3602C44.6111 25.245 45.5236 24.3325 46.6389 24.3325H62.8611C63.9764 24.3325 64.8889 25.245 64.8889 26.3602C64.8889 27.4755 63.9764 28.388 62.8611 28.388H46.6389C45.5236 28.388 44.6111 27.4755 44.6111 26.3602ZM44.6111 34.4713C44.6111 33.3561 45.5236 32.4436 46.6389 32.4436H62.8611C63.9764 32.4436 64.8889 33.3561 64.8889 34.4713C64.8889 35.5866 63.9764 36.4991 62.8611 36.4991H46.6389C45.5236 36.4991 44.6111 35.5866 44.6111 34.4713ZM44.6111 42.5825C44.6111 41.4672 45.5236 40.5547 46.6389 40.5547H62.8611C63.9764 40.5547 64.8889 41.4672 64.8889 42.5825C64.8889 43.6977 63.9764 44.6102 62.8611 44.6102H46.6389C45.5236 44.6102 44.6111 43.6977 44.6111 42.5825Z" fill="#AE8FAF"/>
</g>
<defs>
<clipPath id="clip0_901_52">
<rect width="73" height="64.8889" fill="white"/>
</clipPath>
</defs>
</svg>
