<svg width="43" height="48" viewBox="0 0 43 48" fill="none" xmlns="http://www.w3.org/2000/svg">
<g clip-path="url(#clip0_568_43)">
<path d="M21.2555 18.9322C20.2545 18.9326 19.2761 19.2251 18.444 19.7728C17.6119 20.3205 16.9634 21.0987 16.5806 22.0092C16.1978 22.9196 16.0979 23.9213 16.2934 24.8877C16.4889 25.8541 16.9711 26.7417 17.679 27.4383C18.387 28.1349 19.2888 28.6092 20.2706 28.8013C21.2524 28.9934 22.27 28.8946 23.1947 28.5175C24.1195 28.1403 24.9099 27.5017 25.4659 26.6824C26.022 25.8631 26.3188 24.8999 26.3188 23.9146C26.3178 22.5931 25.784 21.3261 24.8346 20.3919C23.8852 19.4577 22.5979 18.9327 21.2555 18.9322V18.9322ZM33.0893 15.1025C32.8316 14.4597 32.4425 13.8759 31.9461 13.3872C31.4497 12.8986 30.8566 12.5156 30.2036 12.2619C28.2109 11.4876 23.4664 11.6613 21.2555 11.6613C19.0445 11.6613 14.3047 11.481 12.3063 12.2619C11.6533 12.5156 11.0603 12.8986 10.5639 13.3872C10.0675 13.8759 9.67839 14.4597 9.42072 15.1025C8.63503 17.064 8.81058 21.7391 8.81058 23.9136C8.81058 26.0882 8.63503 30.7576 9.42452 32.7257C9.68219 33.3685 10.0713 33.9523 10.5677 34.441C11.0641 34.9296 11.6571 35.3126 12.3101 35.5662C14.3028 36.3406 19.0474 36.1669 21.2593 36.1669C23.4712 36.1669 28.209 36.3471 30.2074 35.5662C30.8604 35.3126 31.4535 34.9296 31.9499 34.441C32.4463 33.9523 32.8354 33.3685 33.093 32.7257C33.8854 30.7641 33.7032 26.0891 33.7032 23.9146C33.7032 21.74 33.8854 17.0715 33.093 15.1034L33.0893 15.1025ZM21.2555 31.574C19.7165 31.574 18.2121 31.1248 16.9326 30.2831C15.653 29.4415 14.6557 28.2453 14.0667 26.8457C13.4778 25.4461 13.3237 23.9061 13.624 22.4203C13.9242 20.9345 14.6653 19.5697 15.7535 18.4985C16.8416 17.4273 18.2281 16.6978 19.7375 16.4023C21.2468 16.1067 22.8113 16.2584 24.2331 16.8382C25.6549 17.4179 26.8702 18.3996 27.7251 19.6592C28.5801 20.9188 29.0365 22.3997 29.0365 23.9146C29.0377 24.9208 28.8373 25.9173 28.4467 26.8471C28.0561 27.777 27.483 28.6218 26.7603 29.3333C26.0375 30.0448 25.1792 30.609 24.2346 30.9935C23.29 31.3779 22.2776 31.5752 21.2555 31.574V31.574ZM29.3572 17.7216C28.998 17.7218 28.6467 17.6171 28.3479 17.4208C28.0491 17.2244 27.8162 16.9453 27.6786 16.6186C27.541 16.2919 27.5049 15.9324 27.5748 15.5856C27.6448 15.2387 27.8177 14.9201 28.0717 14.6699C28.3256 14.4198 28.6493 14.2494 29.0016 14.1804C29.3539 14.1113 29.7192 14.1467 30.0511 14.282C30.383 14.4173 30.6667 14.6464 30.8663 14.9404C31.0659 15.2345 31.1725 15.5802 31.1725 15.9338C31.1735 16.1686 31.1274 16.4014 31.0368 16.6186C30.9462 16.8359 30.8129 17.0334 30.6446 17.1998C30.4764 17.3663 30.2763 17.4984 30.056 17.5886C29.8358 17.6788 29.5996 17.7252 29.361 17.7254L29.3572 17.7216ZM37.9562 2.99121H4.55474C3.34675 2.99121 2.18823 3.46359 1.33405 4.30442C0.479873 5.14525 0 6.28567 0 7.47478L0 40.3543C0 41.5434 0.479873 42.6839 1.33405 43.5247C2.18823 44.3655 3.34675 44.8379 4.55474 44.8379H37.9562C39.1642 44.8379 40.3227 44.3655 41.1769 43.5247C42.0311 42.6839 42.5109 41.5434 42.5109 40.3543V7.47478C42.5109 6.28567 42.0311 5.14525 41.1769 4.30442C40.3227 3.46359 39.1642 2.99121 37.9562 2.99121V2.99121ZM36.3317 30.0795C36.2093 32.4735 35.6541 34.5948 33.8787 36.3378C32.1033 38.0808 29.9503 38.6384 27.5211 38.7524C25.015 38.8916 17.5016 38.8916 14.9955 38.7524C12.5635 38.6319 10.4161 38.0845 8.63788 36.3378C6.85963 34.5911 6.30073 32.4688 6.18496 30.0795C6.04357 27.6116 6.04357 20.2147 6.18496 17.7496C6.30737 15.3556 6.85584 13.2343 8.63788 11.4913C10.4199 9.74833 12.573 9.19722 14.9955 9.08327C17.5016 8.94409 25.015 8.94409 27.5211 9.08327C29.9531 9.20376 32.1071 9.75113 33.8787 11.4979C35.6503 13.2446 36.2159 15.3668 36.3317 17.7608C36.473 20.2193 36.473 27.6098 36.3317 30.0795Z" fill="#AE8FAF"/>
</g>
<defs>
<clipPath id="clip0_568_43">
<rect width="42.5109" height="47.8248" fill="white"/>
</clipPath>
</defs>
</svg>
