<svg width="43" height="49" viewBox="0 0 43 49" fill="none" xmlns="http://www.w3.org/2000/svg">
<g clip-path="url(#clip0_568_41)">
<path d="M39.9627 3.44531H3.51529C1.84521 3.44531 0.488281 4.79973 0.488281 6.46238V42.2749C0.488281 43.9376 1.84521 45.292 3.51529 45.292H39.9627C41.6328 45.292 42.9992 43.9376 42.9992 42.2749V6.46238C42.9992 4.79973 41.6328 3.44531 39.9627 3.44531ZM13.3364 39.3139H7.03572V19.3433H13.3459V39.3139H13.3364ZM10.1861 16.6158C8.16492 16.6158 6.5328 14.9999 6.5328 13.0196C6.5328 11.0394 8.16492 9.42341 10.1861 9.42341C12.1978 9.42341 13.8394 11.0394 13.8394 13.0196C13.8394 15.0092 12.2073 16.6158 10.1861 16.6158V16.6158ZM36.9547 39.3139H30.654V29.5995C30.654 27.283 30.6065 24.3033 27.3802 24.3033C24.097 24.3033 23.5941 26.8253 23.5941 29.4314V39.3139H17.2934V19.3433H23.3379V22.0708H23.4233C24.2678 20.5016 26.327 18.8483 29.3919 18.8483C35.7686 18.8483 36.9547 22.9862 36.9547 28.3665V39.3139V39.3139Z" fill="#AE8FAF"/>
</g>
<defs>
<clipPath id="clip0_568_41">
<rect width="42.5109" height="47.8248" fill="white" transform="translate(0.48877 0.457031)"/>
</clipPath>
</defs>
</svg>
