<svg width="85" height="98" viewBox="0 0 85 98" fill="none" xmlns="http://www.w3.org/2000/svg">
<g clip-path="url(#clip0_939_49)">
<path d="M78.8318 6.66504H6.04504C2.70984 6.66504 0 9.41278 0 12.7859V85.44C0 88.8131 2.70984 91.5608 6.04504 91.5608H78.8318C82.167 91.5608 84.8958 88.8131 84.8958 85.44V12.7859C84.8958 9.41278 82.167 6.66504 78.8318 6.66504ZM25.6582 79.4329H13.0755V38.9179H25.6772V79.4329H25.6582ZM19.3669 33.3845C15.3305 33.3845 12.0711 30.1061 12.0711 26.0887C12.0711 22.0714 15.3305 18.793 19.3669 18.793C23.3842 18.793 26.6626 22.0714 26.6626 26.0887C26.6626 30.1251 23.4032 33.3845 19.3669 33.3845ZM72.8247 79.4329H60.2419V59.7249C60.2419 55.0253 60.1472 48.9803 53.7042 48.9803C47.1475 48.9803 46.1431 54.0968 46.1431 59.3838V79.4329H33.5604V38.9179H45.6315V44.4513H45.802C47.4886 41.2677 51.6007 37.9135 57.7216 37.9135C70.4559 37.9135 72.8247 46.3083 72.8247 57.2235V79.4329Z" fill="#AE8FAF"/>
</g>
<defs>
<clipPath id="clip0_939_49">
<rect width="84.8958" height="97.0238" fill="white" transform="translate(0 0.601562)"/>
</clipPath>
</defs>
</svg>
