<svg width="522" height="101" viewBox="0 0 522 101" fill="none" xmlns="http://www.w3.org/2000/svg">
<path d="M125.616 75H127.156V86H125.616L125.561 83.954C125.202 84.6507 124.7 85.2153 124.054 85.648C123.409 86.0733 122.639 86.286 121.744 86.286C120.938 86.286 120.182 86.1357 119.478 85.835C118.774 85.527 118.155 85.1053 117.619 84.57C117.084 84.0347 116.666 83.415 116.365 82.711C116.065 82.007 115.914 81.2517 115.914 80.445C115.914 79.653 116.061 78.9087 116.354 78.212C116.655 77.5153 117.066 76.903 117.586 76.375C118.114 75.847 118.723 75.4363 119.412 75.143C120.109 74.8423 120.853 74.692 121.645 74.692C122.562 74.692 123.361 74.912 124.043 75.352C124.725 75.7847 125.268 76.353 125.671 77.057L125.616 75ZM121.711 84.79C122.496 84.79 123.171 84.5993 123.735 84.218C124.3 83.8293 124.733 83.3087 125.033 82.656C125.341 82.0033 125.495 81.2847 125.495 80.5C125.495 79.6933 125.341 78.9673 125.033 78.322C124.725 77.6693 124.289 77.1523 123.724 76.771C123.16 76.3897 122.489 76.199 121.711 76.199C120.934 76.199 120.223 76.3933 119.577 76.782C118.939 77.1633 118.43 77.6803 118.048 78.333C117.674 78.9857 117.487 79.708 117.487 80.5C117.487 81.2993 117.682 82.0253 118.07 82.678C118.459 83.3233 118.972 83.8367 119.61 84.218C120.256 84.5993 120.956 84.79 121.711 84.79ZM145.346 69.5H146.886V86H145.346V83.943C144.965 84.647 144.44 85.2153 143.773 85.648C143.113 86.0733 142.328 86.286 141.419 86.286C140.62 86.286 139.872 86.1357 139.175 85.835C138.478 85.5343 137.862 85.12 137.327 84.592C136.799 84.0567 136.385 83.4407 136.084 82.744C135.783 82.0473 135.633 81.2993 135.633 80.5C135.633 79.7007 135.783 78.9527 136.084 78.256C136.385 77.552 136.799 76.936 137.327 76.408C137.862 75.8727 138.478 75.4547 139.175 75.154C139.872 74.8533 140.62 74.703 141.419 74.703C142.328 74.703 143.113 74.9193 143.773 75.352C144.44 75.7773 144.965 76.3383 145.346 77.035V69.5ZM141.43 84.79C142.215 84.79 142.889 84.5993 143.454 84.218C144.019 83.8293 144.451 83.3087 144.752 82.656C145.06 82.0033 145.214 81.2847 145.214 80.5C145.214 79.6933 145.06 78.9673 144.752 78.322C144.444 77.6693 144.008 77.1523 143.443 76.771C142.878 76.3897 142.207 76.199 141.43 76.199C140.653 76.199 139.945 76.3933 139.307 76.782C138.669 77.1633 138.159 77.6803 137.778 78.333C137.397 78.9857 137.206 79.708 137.206 80.5C137.206 81.2993 137.4 82.0253 137.789 82.678C138.178 83.3233 138.691 83.8367 139.329 84.218C139.974 84.5993 140.675 84.79 141.43 84.79ZM161.883 86H159.925L155.91 74.967H157.549L160.904 84.196L164.259 74.967H165.898L161.883 86ZM179.281 86.286C178.269 86.286 177.345 86.0257 176.509 85.505C175.68 84.9843 175.016 84.2877 174.518 83.415C174.026 82.535 173.781 81.5633 173.781 80.5C173.781 79.6933 173.924 78.9417 174.21 78.245C174.496 77.541 174.888 76.925 175.387 76.397C175.893 75.8617 176.479 75.4437 177.147 75.143C177.814 74.8423 178.525 74.692 179.281 74.692C180.293 74.692 181.213 74.9523 182.042 75.473C182.878 75.9937 183.541 76.694 184.033 77.574C184.531 78.454 184.781 79.4293 184.781 80.5C184.781 81.2993 184.638 82.0473 184.352 82.744C184.066 83.4407 183.67 84.0567 183.164 84.592C182.665 85.12 182.082 85.5343 181.415 85.835C180.755 86.1357 180.043 86.286 179.281 86.286ZM179.281 84.746C180.029 84.746 180.7 84.5517 181.294 84.163C181.895 83.767 182.368 83.2463 182.713 82.601C183.065 81.9557 183.241 81.2553 183.241 80.5C183.241 79.73 183.065 79.0223 182.713 78.377C182.361 77.7243 181.884 77.2037 181.283 76.815C180.689 76.4263 180.021 76.232 179.281 76.232C178.533 76.232 177.858 76.43 177.257 76.826C176.663 77.2147 176.19 77.7317 175.838 78.377C175.493 79.0223 175.321 79.73 175.321 80.5C175.321 81.292 175.5 82.0107 175.86 82.656C176.219 83.294 176.699 83.8037 177.301 84.185C177.902 84.559 178.562 84.746 179.281 84.746ZM202.431 75H203.971V86.407C203.971 87.111 203.817 87.771 203.509 88.387C203.209 89.003 202.798 89.542 202.277 90.004C201.764 90.4733 201.177 90.84 200.517 91.104C199.857 91.368 199.172 91.5 198.46 91.5C197.698 91.5 196.961 91.324 196.249 90.972C195.538 90.6273 194.918 90.1653 194.39 89.586C193.87 89.0067 193.499 88.365 193.279 87.661L194.698 87.012C194.838 87.562 195.098 88.057 195.479 88.497C195.868 88.9443 196.323 89.2963 196.843 89.553C197.371 89.817 197.91 89.949 198.46 89.949C198.966 89.949 199.454 89.8537 199.923 89.663C200.4 89.4797 200.825 89.2267 201.199 88.904C201.581 88.5813 201.881 88.2037 202.101 87.771C202.321 87.3457 202.431 86.891 202.431 86.407V83.976C202.05 84.6653 201.533 85.2227 200.88 85.648C200.235 86.0733 199.483 86.286 198.625 86.286C197.855 86.286 197.129 86.1357 196.447 85.835C195.773 85.5343 195.179 85.12 194.665 84.592C194.152 84.0567 193.749 83.4407 193.455 82.744C193.169 82.0473 193.026 81.2993 193.026 80.5C193.026 79.7007 193.169 78.9527 193.455 78.256C193.749 77.552 194.152 76.936 194.665 76.408C195.179 75.8727 195.773 75.4547 196.447 75.154C197.129 74.8533 197.855 74.703 198.625 74.703C199.483 74.703 200.235 74.9157 200.88 75.341C201.533 75.759 202.05 76.3163 202.431 77.013V75ZM198.636 84.79C199.399 84.79 200.055 84.592 200.605 84.196C201.163 83.8 201.592 83.2757 201.892 82.623C202.193 81.9703 202.343 81.2627 202.343 80.5C202.343 79.7153 202.189 79.0003 201.881 78.355C201.581 77.7023 201.152 77.1817 200.594 76.793C200.037 76.397 199.384 76.199 198.636 76.199C197.888 76.199 197.206 76.3933 196.59 76.782C195.982 77.1633 195.498 77.6803 195.138 78.333C194.779 78.9857 194.599 79.708 194.599 80.5C194.599 81.292 194.783 82.0143 195.149 82.667C195.516 83.3123 196.004 83.8293 196.612 84.218C197.228 84.5993 197.903 84.79 198.636 84.79ZM222.704 75H224.244V86H222.704L222.649 83.954C222.29 84.6507 221.788 85.2153 221.142 85.648C220.497 86.0733 219.727 86.286 218.832 86.286C218.026 86.286 217.27 86.1357 216.566 85.835C215.862 85.527 215.243 85.1053 214.707 84.57C214.172 84.0347 213.754 83.415 213.453 82.711C213.153 82.007 213.002 81.2517 213.002 80.445C213.002 79.653 213.149 78.9087 213.442 78.212C213.743 77.5153 214.154 76.903 214.674 76.375C215.202 75.847 215.811 75.4363 216.5 75.143C217.197 74.8423 217.941 74.692 218.733 74.692C219.65 74.692 220.449 74.912 221.131 75.352C221.813 75.7847 222.356 76.353 222.759 77.057L222.704 75ZM218.799 84.79C219.584 84.79 220.259 84.5993 220.823 84.218C221.388 83.8293 221.821 83.3087 222.121 82.656C222.429 82.0033 222.583 81.2847 222.583 80.5C222.583 79.6933 222.429 78.9673 222.121 78.322C221.813 77.6693 221.377 77.1523 220.812 76.771C220.248 76.3897 219.577 76.199 218.799 76.199C218.022 76.199 217.311 76.3933 216.665 76.782C216.027 77.1633 215.518 77.6803 215.136 78.333C214.762 78.9857 214.575 79.708 214.575 80.5C214.575 81.2993 214.77 82.0253 215.158 82.678C215.547 83.3233 216.06 83.8367 216.698 84.218C217.344 84.5993 218.044 84.79 218.799 84.79ZM242.434 69.5H243.974V86H242.434V83.943C242.052 84.647 241.528 85.2153 240.861 85.648C240.201 86.0733 239.416 86.286 238.507 86.286C237.707 86.286 236.959 86.1357 236.263 85.835C235.566 85.5343 234.95 85.12 234.415 84.592C233.887 84.0567 233.472 83.4407 233.172 82.744C232.871 82.0473 232.721 81.2993 232.721 80.5C232.721 79.7007 232.871 78.9527 233.172 78.256C233.472 77.552 233.887 76.936 234.415 76.408C234.95 75.8727 235.566 75.4547 236.263 75.154C236.959 74.8533 237.707 74.703 238.507 74.703C239.416 74.703 240.201 74.9193 240.861 75.352C241.528 75.7773 242.052 76.3383 242.434 77.035V69.5ZM238.518 84.79C239.302 84.79 239.977 84.5993 240.542 84.218C241.106 83.8293 241.539 83.3087 241.84 82.656C242.148 82.0033 242.302 81.2847 242.302 80.5C242.302 79.6933 242.148 78.9673 241.84 78.322C241.532 77.6693 241.095 77.1523 240.531 76.771C239.966 76.3897 239.295 76.199 238.518 76.199C237.74 76.199 237.033 76.3933 236.395 76.782C235.757 77.1633 235.247 77.6803 234.866 78.333C234.484 78.9857 234.294 79.708 234.294 80.5C234.294 81.2993 234.488 82.0253 234.877 82.678C235.265 83.3233 235.779 83.8367 236.417 84.218C237.062 84.5993 237.762 84.79 238.518 84.79ZM262.721 75H264.261V86H262.721L262.666 83.954C262.307 84.6507 261.805 85.2153 261.159 85.648C260.514 86.0733 259.744 86.286 258.849 86.286C258.043 86.286 257.287 86.1357 256.583 85.835C255.879 85.527 255.26 85.1053 254.724 84.57C254.189 84.0347 253.771 83.415 253.47 82.711C253.17 82.007 253.019 81.2517 253.019 80.445C253.019 79.653 253.166 78.9087 253.459 78.212C253.76 77.5153 254.171 76.903 254.691 76.375C255.219 75.847 255.828 75.4363 256.517 75.143C257.214 74.8423 257.958 74.692 258.75 74.692C259.667 74.692 260.466 74.912 261.148 75.352C261.83 75.7847 262.373 76.353 262.776 77.057L262.721 75ZM258.816 84.79C259.601 84.79 260.276 84.5993 260.84 84.218C261.405 83.8293 261.838 83.3087 262.138 82.656C262.446 82.0033 262.6 81.2847 262.6 80.5C262.6 79.6933 262.446 78.9673 262.138 78.322C261.83 77.6693 261.394 77.1523 260.829 76.771C260.265 76.3897 259.594 76.199 258.816 76.199C258.039 76.199 257.328 76.3933 256.682 76.782C256.044 77.1633 255.535 77.6803 255.153 78.333C254.779 78.9857 254.592 79.708 254.592 80.5C254.592 81.2993 254.787 82.0253 255.175 82.678C255.564 83.3233 256.077 83.8367 256.715 84.218C257.361 84.5993 258.061 84.79 258.816 84.79ZM277.011 86.209C276.41 86.1943 275.823 86.0843 275.251 85.879C274.679 85.6737 274.181 85.395 273.755 85.043C273.33 84.691 273.026 84.2913 272.842 83.844L274.173 83.272C274.291 83.558 274.507 83.822 274.822 84.064C275.145 84.2987 275.512 84.4893 275.922 84.636C276.333 84.7753 276.74 84.845 277.143 84.845C277.591 84.845 278.009 84.7717 278.397 84.625C278.786 84.4783 279.101 84.2693 279.343 83.998C279.593 83.7193 279.717 83.393 279.717 83.019C279.717 82.6157 279.585 82.3003 279.321 82.073C279.057 81.8383 278.724 81.655 278.32 81.523C277.917 81.3837 277.503 81.2517 277.077 81.127C276.3 80.9143 275.614 80.6797 275.02 80.423C274.426 80.1663 273.961 79.84 273.623 79.444C273.293 79.0407 273.128 78.5237 273.128 77.893C273.128 77.2257 273.315 76.65 273.689 76.166C274.071 75.6747 274.566 75.297 275.174 75.033C275.79 74.7617 276.447 74.626 277.143 74.626C278.038 74.626 278.852 74.8203 279.585 75.209C280.326 75.5977 280.861 76.1147 281.191 76.76L279.948 77.497C279.816 77.1963 279.607 76.936 279.321 76.716C279.035 76.496 278.709 76.3237 278.342 76.199C277.983 76.0743 277.616 76.0083 277.242 76.001C276.773 75.9937 276.337 76.0633 275.933 76.21C275.53 76.3493 275.204 76.5583 274.954 76.837C274.712 77.1157 274.591 77.4567 274.591 77.86C274.591 78.2633 274.712 78.5713 274.954 78.784C275.196 78.9893 275.523 79.158 275.933 79.29C276.351 79.4147 276.821 79.5613 277.341 79.73C278.009 79.9427 278.636 80.1847 279.222 80.456C279.809 80.7273 280.282 81.0647 280.641 81.468C281.001 81.8713 281.177 82.381 281.169 82.997C281.169 83.657 280.971 84.2327 280.575 84.724C280.179 85.2153 279.666 85.593 279.035 85.857C278.405 86.1137 277.73 86.231 277.011 86.209Z" fill="#828282"/>
<path d="M130.962 52.5742C128.871 52.5742 126.905 52.162 125.065 51.3374C123.224 50.4982 121.605 49.3497 120.206 47.8921C118.822 46.4197 117.732 44.7117 116.937 42.7682C116.157 40.8246 115.767 38.7486 115.767 36.54C115.767 34.3314 116.157 32.2554 116.937 30.3118C117.732 28.3683 118.822 26.6677 120.206 25.21C121.605 23.7377 123.224 22.5892 125.065 21.7647C126.905 20.9254 128.871 20.5058 130.962 20.5058C133.465 20.5058 135.769 21.0874 137.875 22.2506C139.98 23.4137 141.725 24.9597 143.109 26.8886L141.011 28.037C139.848 26.4616 138.368 25.21 136.572 24.2824C134.79 23.3548 132.92 22.891 130.962 22.891C129.166 22.891 127.494 23.2518 125.948 23.9732C124.402 24.6947 123.04 25.6886 121.863 26.9548C120.699 28.2063 119.786 29.6566 119.124 31.3057C118.476 32.9548 118.152 34.6995 118.152 36.54C118.152 38.4247 118.483 40.1915 119.146 41.8406C119.809 43.4749 120.729 44.9252 121.907 46.1915C123.085 47.443 124.447 48.4221 125.993 49.1289C127.539 49.8356 129.195 50.189 130.962 50.189C133.008 50.189 134.908 49.7178 136.66 48.7755C138.427 47.8332 139.877 46.6037 141.011 45.0872L143.109 46.2135C141.725 48.1424 139.98 49.6884 137.875 50.8515C135.769 52 133.465 52.5742 130.962 52.5742ZM147.929 43.4528V29.9143H150.314V43.0774C150.314 44.3878 150.631 45.5804 151.264 46.6553C151.912 47.7301 152.773 48.5841 153.848 49.2172C154.923 49.8503 156.108 50.1669 157.404 50.1669C158.714 50.1669 159.9 49.8503 160.96 49.2172C162.035 48.5841 162.889 47.7301 163.522 46.6553C164.17 45.5804 164.493 44.3878 164.493 43.0774V29.9143H166.879V52H164.493V48.5767C163.698 49.7841 162.646 50.7558 161.335 51.492C160.039 52.2135 158.611 52.5742 157.051 52.5742C155.372 52.5742 153.841 52.1693 152.457 51.3595C151.073 50.535 149.968 49.4307 149.144 48.0467C148.334 46.6626 147.929 45.1313 147.929 43.4528ZM174.517 63.0429H172.132V29.9143H174.517V34.464C175.298 32.9327 176.387 31.6959 177.786 30.7536C179.199 29.8112 180.885 29.3401 182.844 29.3401C184.448 29.3401 185.95 29.6419 187.349 30.2456C188.748 30.8493 189.977 31.6885 191.037 32.7634C192.112 33.8235 192.951 35.0529 193.555 36.4517C194.159 37.8504 194.461 39.3523 194.461 40.9571C194.461 42.562 194.159 44.0712 193.555 45.4847C192.951 46.8982 192.112 48.1424 191.037 49.2172C189.977 50.2773 188.748 51.1092 187.349 51.7129C185.95 52.3166 184.448 52.6184 182.844 52.6184C180.885 52.6184 179.199 52.1472 177.786 51.2049C176.387 50.2626 175.298 49.0258 174.517 47.4945V63.0429ZM182.821 31.6812C181.143 31.6812 179.693 32.1008 178.471 32.94C177.263 33.7646 176.328 34.8762 175.666 36.275C175.018 37.6737 174.694 39.2345 174.694 40.9571C174.694 42.6504 175.018 44.2037 175.666 45.6172C176.314 47.0307 177.241 48.1644 178.448 49.0184C179.671 49.8577 181.128 50.2773 182.821 50.2773C184.485 50.2773 186.009 49.865 187.393 49.0405C188.792 48.216 189.918 47.1043 190.772 45.7056C191.626 44.2921 192.053 42.7093 192.053 40.9571C192.053 39.2639 191.634 37.7179 190.794 36.3192C189.97 34.9057 188.858 33.7793 187.459 32.94C186.075 32.1008 184.529 31.6812 182.821 31.6812ZM198.407 43.4528V29.9143H200.792V43.0774C200.792 44.3878 201.109 45.5804 201.742 46.6553C202.39 47.7301 203.251 48.5841 204.326 49.2172C205.401 49.8503 206.586 50.1669 207.882 50.1669C209.192 50.1669 210.378 49.8503 211.438 49.2172C212.512 48.5841 213.366 47.7301 214 46.6553C214.647 45.5804 214.971 44.3878 214.971 43.0774V29.9143H217.357V52H214.971V48.5767C214.176 49.7841 213.124 50.7558 211.813 51.492C210.517 52.2135 209.089 52.5742 207.528 52.5742C205.85 52.5742 204.319 52.1693 202.935 51.3595C201.551 50.535 200.446 49.4307 199.622 48.0467C198.812 46.6626 198.407 45.1313 198.407 43.4528ZM223.214 52V18.8714H225.599V52H223.214ZM231.996 29.9143H234.382V52H231.996V29.9143ZM233.211 25.7401C232.799 25.7401 232.445 25.6076 232.151 25.3426C231.871 25.0628 231.731 24.7168 231.731 24.3045C231.731 23.8923 231.871 23.5536 232.151 23.2886C232.445 23.0088 232.799 22.869 233.211 22.869C233.609 22.869 233.947 23.0088 234.227 23.2886C234.521 23.5536 234.669 23.8923 234.669 24.3045C234.669 24.7168 234.529 25.0628 234.249 25.3426C233.969 25.6076 233.623 25.7401 233.211 25.7401ZM240.995 52V18.8714H243.38V52H240.995ZM249.777 52V18.8714H252.162V52H249.777ZM268.148 52.5742C266.116 52.5742 264.261 52.0515 262.582 51.0061C260.918 49.9608 259.586 48.562 258.585 46.8099C257.598 45.043 257.105 43.0921 257.105 40.9571C257.105 39.3375 257.392 37.8283 257.966 36.4296C258.541 35.0161 259.328 33.7793 260.33 32.7192C261.345 31.6443 262.523 30.8051 263.863 30.2014C265.203 29.5977 266.631 29.2959 268.148 29.2959C269.753 29.2959 271.232 29.6125 272.587 30.2456C273.956 30.864 275.134 31.74 276.121 32.8738C277.107 34.0075 277.866 35.3474 278.396 36.8934C278.926 38.4247 279.169 40.1032 279.124 41.9289H259.601C259.763 43.5044 260.234 44.9179 261.014 46.1694C261.809 47.4062 262.825 48.3853 264.062 49.1068C265.299 49.8135 266.661 50.1742 268.148 50.189C269.782 50.189 271.255 49.762 272.565 48.908C273.875 48.0393 274.928 46.854 275.723 45.3522L278.131 45.9043C277.247 47.8626 275.915 49.4675 274.133 50.719C272.351 51.9558 270.356 52.5742 268.148 52.5742ZM259.534 39.897H276.717C276.629 38.3805 276.187 36.9891 275.392 35.7228C274.612 34.4419 273.588 33.4186 272.322 32.6529C271.056 31.8873 269.664 31.5045 268.148 31.5045C266.631 31.5045 265.247 31.8799 263.996 32.6308C262.744 33.3818 261.721 34.3977 260.926 35.6787C260.145 36.9449 259.682 38.351 259.534 39.897ZM303.809 52.5742C302.086 52.5742 300.562 52.162 299.237 51.3374C297.912 50.4982 296.881 49.4086 296.145 48.0687C295.409 46.7142 295.041 45.2786 295.041 43.762C295.041 42.7903 295.144 41.9584 295.35 41.2663C295.556 40.5596 295.917 39.8529 296.432 39.1461C296.947 38.4394 297.669 37.6148 298.596 36.6725C299.524 35.7302 300.709 34.5302 302.152 33.0726C301.284 32.1891 300.569 31.4603 300.01 30.8861C299.45 30.2971 299.016 29.7818 298.707 29.3401C298.412 28.8984 298.199 28.4493 298.066 27.9928C297.949 27.5364 297.89 26.999 297.89 26.3806C297.89 25.2763 298.162 24.2751 298.707 23.3769C299.252 22.4641 299.973 21.7426 300.871 21.2125C301.769 20.6825 302.749 20.4174 303.809 20.4174C304.913 20.4174 305.914 20.6898 306.812 21.2346C307.725 21.7647 308.447 22.4788 308.977 23.3769C309.507 24.2604 309.772 25.2616 309.772 26.3806C309.772 27.0137 309.706 27.5659 309.573 28.037C309.455 28.5082 309.234 28.972 308.91 29.4284C308.601 29.8849 308.167 30.4002 307.607 30.9744C307.063 31.5339 306.371 32.2333 305.531 33.0726L314.542 42.0835L319.18 37.4455V40.8246L316.177 43.8283L322.714 50.3215L321.013 52L314.542 45.551C313.07 47.0086 311.855 48.2013 310.898 49.1289C309.956 50.0417 309.131 50.7485 308.425 51.2491C307.733 51.7497 307.033 52.0957 306.326 52.2871C305.634 52.4785 304.795 52.5742 303.809 52.5742ZM303.809 50.189C304.618 50.189 305.303 50.1006 305.863 49.9239C306.422 49.7473 306.989 49.4381 307.563 48.9963C308.137 48.5399 308.829 47.8921 309.639 47.0528C310.464 46.2135 311.531 45.1313 312.842 43.8062L303.809 34.7732C302.469 36.1277 301.379 37.2247 300.54 38.0639C299.701 38.9032 299.06 39.6099 298.619 40.1841C298.177 40.7437 297.868 41.3032 297.691 41.8627C297.529 42.4074 297.448 43.0627 297.448 43.8283C297.448 45.0062 297.735 46.081 298.309 47.0528C298.884 48.0098 299.649 48.7755 300.606 49.3497C301.578 49.9092 302.645 50.189 303.809 50.189ZM303.809 31.6149C304.854 30.5842 305.642 29.8039 306.172 29.2738C306.717 28.729 307.085 28.2579 307.276 27.8603C307.468 27.4628 307.563 26.9622 307.563 26.3585C307.563 25.2984 307.195 24.4076 306.459 23.6861C305.723 22.9647 304.839 22.6039 303.809 22.6039C302.763 22.6039 301.887 22.9794 301.18 23.7303C300.474 24.4812 300.12 25.3573 300.12 26.3585C300.12 26.9622 300.223 27.4701 300.43 27.8824C300.636 28.2947 301.004 28.7658 301.534 29.2959C302.064 29.826 302.822 30.599 303.809 31.6149ZM339.932 52L345.917 21.08H347.485L356.474 44.7338L365.441 21.08H367.009L373.016 52H370.587L365.728 26.9548L357.18 49.5706H355.723L347.198 26.9548L342.339 52H339.932ZM387.549 52.5742C385.517 52.5742 383.662 52.0515 381.983 51.0061C380.319 49.9608 378.987 48.562 377.986 46.8099C376.999 45.043 376.506 43.0921 376.506 40.9571C376.506 39.3375 376.793 37.8283 377.367 36.4296C377.941 35.0161 378.729 33.7793 379.73 32.7192C380.746 31.6443 381.924 30.8051 383.264 30.2014C384.604 29.5977 386.032 29.2959 387.549 29.2959C389.154 29.2959 390.633 29.6125 391.988 30.2456C393.357 30.864 394.535 31.74 395.522 32.8738C396.508 34.0075 397.266 35.3474 397.796 36.8934C398.326 38.4247 398.569 40.1032 398.525 41.9289H379.001C379.163 43.5044 379.635 44.9179 380.415 46.1694C381.21 47.4062 382.226 48.3853 383.463 49.1068C384.7 49.8135 386.062 50.1742 387.549 50.189C389.183 50.189 390.655 49.762 391.966 48.908C393.276 48.0393 394.329 46.854 395.124 45.3522L397.531 45.9043C396.648 47.8626 395.315 49.4675 393.534 50.719C391.752 51.9558 389.757 52.5742 387.549 52.5742ZM378.935 39.897H396.118C396.03 38.3805 395.588 36.9891 394.793 35.7228C394.012 34.4419 392.989 33.4186 391.723 32.6529C390.457 31.8873 389.065 31.5045 387.549 31.5045C386.032 31.5045 384.648 31.8799 383.397 32.6308C382.145 33.3818 381.122 34.3977 380.327 35.6787C379.546 36.9449 379.082 38.351 378.935 39.897ZM421.796 18.8714H424.181V52H421.796V47.4503C421.03 48.9963 419.941 50.2405 418.527 51.1828C417.114 52.1104 415.428 52.5742 413.47 52.5742C411.865 52.5742 410.363 52.2724 408.964 51.6687C407.565 51.065 406.329 50.2331 405.254 49.173C404.194 48.0982 403.362 46.8614 402.758 45.4626C402.154 44.0639 401.853 42.562 401.853 40.9571C401.853 39.3523 402.154 37.8504 402.758 36.4517C403.362 35.0382 404.194 33.8014 405.254 32.7413C406.329 31.6664 407.565 30.8272 408.964 30.2235C410.363 29.6198 411.865 29.318 413.47 29.318C415.428 29.318 417.114 29.7891 418.527 30.7315C419.941 31.6591 421.03 32.8885 421.796 34.4198V18.8714ZM413.492 50.2331C415.185 50.2331 416.635 49.8209 417.843 48.9963C419.065 48.1571 420 47.0307 420.648 45.6172C421.295 44.2037 421.619 42.6504 421.619 40.9571C421.619 39.2197 421.288 37.6517 420.625 36.2529C419.978 34.8394 419.043 33.7204 417.821 32.8959C416.613 32.0566 415.17 31.637 413.492 31.637C411.799 31.637 410.253 32.0566 408.854 32.8959C407.47 33.7351 406.358 34.8615 405.519 36.275C404.694 37.6885 404.282 39.2492 404.282 40.9571C404.282 42.6946 404.702 44.2626 405.541 45.6614C406.395 47.0602 407.521 48.1718 408.92 48.9963C410.319 49.8209 411.843 50.2331 413.492 50.2331ZM440.183 52.5742C438.151 52.5742 436.296 52.0515 434.618 51.0061C432.954 49.9608 431.621 48.562 430.62 46.8099C429.634 45.043 429.141 43.0921 429.141 40.9571C429.141 39.3375 429.428 37.8283 430.002 36.4296C430.576 35.0161 431.364 33.7793 432.365 32.7192C433.381 31.6443 434.559 30.8051 435.899 30.2014C437.239 29.5977 438.667 29.2959 440.183 29.2959C441.788 29.2959 443.268 29.6125 444.623 30.2456C445.992 30.864 447.17 31.74 448.156 32.8738C449.143 34.0075 449.901 35.3474 450.431 36.8934C450.961 38.4247 451.204 40.1032 451.16 41.9289H431.636C431.798 43.5044 432.269 44.9179 433.05 46.1694C433.845 47.4062 434.861 48.3853 436.098 49.1068C437.334 49.8135 438.696 50.1742 440.183 50.189C441.818 50.189 443.29 49.762 444.601 48.908C445.911 48.0393 446.964 46.854 447.759 45.3522L450.166 45.9043C449.283 47.8626 447.95 49.4675 446.169 50.719C444.387 51.9558 442.392 52.5742 440.183 52.5742ZM431.57 39.897H448.753C448.664 38.3805 448.223 36.9891 447.427 35.7228C446.647 34.4419 445.624 33.4186 444.358 32.6529C443.091 31.8873 441.7 31.5045 440.183 31.5045C438.667 31.5045 437.283 31.8799 436.031 32.6308C434.78 33.3818 433.756 34.3977 432.961 35.6787C432.181 36.9449 431.717 38.351 431.57 39.897ZM455.985 29.9143H458.37V52H455.985V29.9143ZM457.2 25.7401C456.787 25.7401 456.434 25.6076 456.14 25.3426C455.86 25.0628 455.72 24.7168 455.72 24.3045C455.72 23.8923 455.86 23.5536 456.14 23.2886C456.434 23.0088 456.787 22.869 457.2 22.869C457.597 22.869 457.936 23.0088 458.216 23.2886C458.51 23.5536 458.657 23.8923 458.657 24.3045C458.657 24.7168 458.517 25.0628 458.238 25.3426C457.958 25.6076 457.612 25.7401 457.2 25.7401ZM464.724 52V29.9143H467.11V33.2934C467.905 32.0713 468.957 31.0996 470.268 30.3781C471.578 29.6566 473.007 29.2959 474.553 29.2959C475.421 29.2959 476.253 29.4063 477.048 29.6272L476.054 31.9683C475.421 31.7916 474.803 31.7032 474.199 31.7032C472.903 31.7032 471.718 32.0198 470.643 32.6529C469.569 33.286 468.707 34.14 468.059 35.2149C467.426 36.2897 467.11 37.4823 467.11 38.7927V52H464.724ZM489.522 52.5742C487.491 52.5742 485.635 52.0515 483.957 51.0061C482.293 49.9608 480.961 48.562 479.959 46.8099C478.973 45.043 478.48 43.0921 478.48 40.9571C478.48 39.3375 478.767 37.8283 479.341 36.4296C479.915 35.0161 480.703 33.7793 481.704 32.7192C482.72 31.6443 483.898 30.8051 485.238 30.2014C486.578 29.5977 488.006 29.2959 489.522 29.2959C491.554 29.2959 493.402 29.8186 495.066 30.864C496.744 31.9094 498.077 33.3155 499.063 35.0824C500.065 36.8492 500.565 38.8075 500.565 40.9571C500.565 42.562 500.278 44.0639 499.704 45.4626C499.13 46.8614 498.335 48.0982 497.319 49.173C496.318 50.2331 495.147 51.065 493.807 51.6687C492.482 52.2724 491.054 52.5742 489.522 52.5742ZM489.522 50.189C491.157 50.189 492.622 49.762 493.918 48.908C495.228 48.054 496.266 46.9277 497.032 45.5289C497.797 44.1301 498.18 42.6062 498.18 40.9571C498.18 39.2934 497.797 37.7547 497.032 36.3412C496.266 34.9278 495.228 33.8014 493.918 32.9621C492.607 32.1081 491.142 31.6812 489.522 31.6812C487.888 31.6812 486.416 32.1081 485.105 32.9621C483.795 33.8161 482.757 34.9498 481.991 36.3633C481.24 37.7621 480.865 39.2934 480.865 40.9571C480.865 42.6798 481.255 44.2406 482.035 45.6393C482.831 47.0234 483.883 48.1276 485.194 48.9522C486.504 49.7767 487.947 50.189 489.522 50.189ZM512.409 52.4196C511.187 52.4049 509.987 52.1914 508.81 51.7791C507.646 51.3522 506.63 50.7853 505.762 50.0785C504.893 49.3718 504.289 48.5694 503.951 47.6712L506.049 46.7657C506.299 47.4283 506.778 48.0246 507.484 48.5546C508.206 49.0847 509.016 49.5043 509.914 49.8135C510.827 50.108 511.717 50.2552 512.586 50.2552C513.573 50.2552 514.5 50.0859 515.369 49.7473C516.238 49.4086 516.944 48.9301 517.489 48.3117C518.034 47.6933 518.306 46.9645 518.306 46.1252C518.306 45.2418 518.019 44.5498 517.445 44.0491C516.871 43.5338 516.135 43.1215 515.236 42.8123C514.353 42.4884 513.44 42.1866 512.498 41.9068C510.878 41.4357 509.472 40.9571 508.279 40.4713C507.102 39.9707 506.189 39.3375 505.541 38.5719C504.893 37.8063 504.569 36.7977 504.569 35.5462C504.569 34.2505 504.945 33.1241 505.695 32.167C506.446 31.21 507.433 30.4738 508.655 29.9585C509.877 29.4284 511.187 29.1634 512.586 29.1634C514.397 29.1634 516.039 29.5609 517.511 30.356C518.998 31.1511 520.044 32.1965 520.647 33.4922L518.704 34.6406C518.409 33.9633 517.946 33.3818 517.313 32.8959C516.679 32.41 515.958 32.0345 515.148 31.7695C514.338 31.5045 513.521 31.3646 512.697 31.3499C511.666 31.3351 510.702 31.4971 509.803 31.8358C508.92 32.1597 508.206 32.6382 507.661 33.2713C507.116 33.8897 506.844 34.6406 506.844 35.5241C506.844 36.4075 507.094 37.0848 507.595 37.556C508.095 38.0271 508.795 38.4099 509.693 38.7044C510.591 38.9842 511.629 39.3154 512.807 39.6983C514.176 40.1253 515.45 40.6038 516.628 41.1338C517.82 41.6492 518.778 42.297 519.499 43.0774C520.235 43.8577 520.596 44.8663 520.581 46.1031C520.581 47.3988 520.191 48.5252 519.411 49.4822C518.645 50.4393 517.636 51.1755 516.385 51.6908C515.148 52.2061 513.823 52.4491 512.409 52.4196Z" fill="#494949"/>
<path d="M71.3962 29.8079C71.3962 32.2282 69.4342 34.1901 67.014 34.1901C64.5938 34.1901 62.6318 32.2282 62.6318 29.8079C62.6318 27.3877 64.5938 25.4258 67.014 25.4258C69.4342 25.4258 71.3962 27.3877 71.3962 29.8079Z" fill="#AE8FAF"/>
<path d="M35.1638 29.8079C35.1638 32.2282 33.2018 34.1901 30.7816 34.1901C28.3614 34.1901 26.3994 32.2282 26.3994 29.8079C26.3994 27.3877 28.3614 25.4258 30.7816 25.4258C33.2018 25.4258 35.1638 27.3877 35.1638 29.8079Z" fill="#AE8FAF"/>
<path d="M27.5635 81.5153L27.5635 62.2943V44.3586C27.5635 42.1155 30.4227 41.1686 31.7616 42.9681C36.8583 49.8182 40.7732 55.0798 46.2711 62.469C47.2101 63.7311 49.1063 63.7215 50.0287 62.4473L63.6835 43.5854C65.0403 41.7112 68.0038 42.7474 67.8972 45.0586L67.6885 49.583L67.2595 81.5153L66.6734 76.8269L65.7943 67.4501L64.8574 54.3764C64.7079 52.2904 62.0983 51.443 60.7518 53.0432L49.5296 66.38C48.1677 68.1959 47.7137 67.2879 46.8057 66.38L34.9392 52.6444C33.6161 51.1129 31.1038 51.8813 30.8637 53.8909L27.5635 81.5153Z" fill="#494949"/>
<path d="M30.5208 9.13436L30.5181 9.13562C25.1787 11.5704 20.4788 14.903 16.4207 19.1319L16.4207 19.1319L16.4175 19.1354C12.4025 23.4066 9.24295 28.339 6.93859 33.9292L6.93857 33.9292L6.937 33.9331C4.67234 39.5734 3.54168 45.6163 3.54168 52.0574C3.54168 58.4566 4.67248 64.4576 6.93745 70.0559L6.93812 70.0576C9.24236 75.6901 12.402 80.6442 16.4175 84.916L16.4191 84.9178C20.4774 89.1897 25.1783 92.5233 30.5192 94.9162C35.8672 97.3548 41.5781 98.5731 47.6467 98.5731C54.9108 98.5731 61.6064 96.8844 67.725 93.5042C73.8296 90.1318 79.0353 85.5944 83.0528 79.9527L83.0735 79.9237L83.0894 79.8918L83.4099 79.2508L82.6759 78.7218L82.1952 79.2025L82.1713 79.2263L82.1513 79.2534C78.2023 84.5736 72.5599 88.1412 67.0352 91.5378C61.4814 94.4572 53.7473 96.2307 47.6467 96.2307C42.1199 96.2307 36.2224 95.0878 31.4706 92.8786C26.7045 90.6628 21.2929 86.6893 17.6952 82.7987L17.6935 82.7969C14.0945 78.9468 10.9667 74.0852 8.9583 69.0222L8.95782 69.021C6.95347 64.0102 5.93529 57.6785 5.93529 52.0574C5.93529 46.2844 7.24457 40.1434 9.29631 35.0766C11.3527 30.0407 14.442 24.8007 18.0321 20.9598C21.6691 17.114 26.7396 13.5414 31.4667 11.3657C36.2324 9.23408 42.2176 7.86445 47.6467 7.86445C54.0581 7.86445 61.2972 9.37269 66.7573 12.332L66.7586 12.3326C72.3176 15.3228 78.5788 19.7972 81.987 24.5354L82.1241 24.7261H82.359H82.5193H83.4083L82.8926 24.0019C78.8768 18.3627 73.8319 13.8782 67.7229 10.546C61.6046 7.20874 54.9098 5.54168 47.6467 5.54168C41.5789 5.54168 35.8686 6.73856 30.5208 9.13436Z" fill="#494949" stroke="#494949" stroke-width="0.916636"/>
</svg>
