<svg width="1629" height="298" viewBox="0 0 1629 298" fill="none" xmlns="http://www.w3.org/2000/svg">
<path d="M373.199 233H375.899V258H373.199L373.124 252.875C372.274 254.608 371.057 256.008 369.474 257.075C367.907 258.125 366.024 258.65 363.824 258.65C362.007 258.65 360.299 258.308 358.699 257.625C357.116 256.925 355.716 255.975 354.499 254.775C353.282 253.558 352.332 252.158 351.649 250.575C350.966 248.975 350.624 247.258 350.624 245.425C350.624 243.608 350.957 241.908 351.624 240.325C352.307 238.742 353.249 237.35 354.449 236.15C355.649 234.933 357.041 233.992 358.624 233.325C360.207 232.642 361.899 232.3 363.699 232.3C365.916 232.3 367.832 232.842 369.449 233.925C371.082 234.992 372.357 236.392 373.274 238.125L373.199 233ZM363.799 256C365.716 256 367.357 255.533 368.724 254.6C370.107 253.65 371.166 252.375 371.899 250.775C372.632 249.175 372.999 247.417 372.999 245.5C372.999 243.533 372.624 241.758 371.874 240.175C371.141 238.575 370.082 237.308 368.699 236.375C367.332 235.425 365.699 234.95 363.799 234.95C361.866 234.95 360.107 235.425 358.524 236.375C356.957 237.325 355.707 238.6 354.774 240.2C353.841 241.8 353.374 243.567 353.374 245.5C353.374 247.467 353.849 249.242 354.799 250.825C355.766 252.408 357.041 253.667 358.624 254.6C360.207 255.533 361.932 256 363.799 256ZM417.721 220.5H420.421V258H417.721V252.85C416.854 254.6 415.621 256.008 414.021 257.075C412.421 258.125 410.512 258.65 408.296 258.65C406.479 258.65 404.779 258.308 403.196 257.625C401.612 256.942 400.212 256 398.996 254.8C397.796 253.583 396.854 252.183 396.171 250.6C395.487 249.017 395.146 247.317 395.146 245.5C395.146 243.683 395.487 241.983 396.171 240.4C396.854 238.8 397.796 237.4 398.996 236.2C400.212 234.983 401.612 234.033 403.196 233.35C404.779 232.667 406.479 232.325 408.296 232.325C410.512 232.325 412.421 232.858 414.021 233.925C415.621 234.975 416.854 236.367 417.721 238.1V220.5ZM408.321 256C410.237 256 411.879 255.533 413.246 254.6C414.629 253.65 415.687 252.375 416.421 250.775C417.154 249.175 417.521 247.417 417.521 245.5C417.521 243.533 417.146 241.758 416.396 240.175C415.662 238.575 414.604 237.308 413.221 236.375C411.854 235.425 410.221 234.95 408.321 234.95C406.404 234.95 404.654 235.425 403.071 236.375C401.504 237.325 400.246 238.6 399.296 240.2C398.362 241.8 397.896 243.567 397.896 245.5C397.896 247.467 398.371 249.242 399.321 250.825C400.287 252.408 401.562 253.667 403.146 254.6C404.729 255.533 406.454 256 408.321 256ZM453.559 258H450.159L441.034 232.925H443.909L451.859 254.8L459.809 232.925H462.684L453.559 258ZM493.271 258.65C490.971 258.65 488.871 258.058 486.971 256.875C485.087 255.692 483.579 254.108 482.446 252.125C481.329 250.125 480.771 247.917 480.771 245.5C480.771 243.667 481.096 241.958 481.746 240.375C482.396 238.775 483.287 237.375 484.421 236.175C485.571 234.958 486.904 234.008 488.421 233.325C489.937 232.642 491.554 232.3 493.271 232.3C495.571 232.3 497.662 232.892 499.546 234.075C501.446 235.258 502.954 236.85 504.071 238.85C505.204 240.85 505.771 243.067 505.771 245.5C505.771 247.317 505.446 249.017 504.796 250.6C504.146 252.183 503.246 253.583 502.096 254.8C500.962 256 499.637 256.942 498.121 257.625C496.621 258.308 495.004 258.65 493.271 258.65ZM493.271 255.95C495.121 255.95 496.779 255.467 498.246 254.5C499.729 253.533 500.904 252.258 501.771 250.675C502.637 249.092 503.071 247.367 503.071 245.5C503.071 243.617 502.637 241.875 501.771 240.275C500.904 238.675 499.729 237.4 498.246 236.45C496.762 235.483 495.104 235 493.271 235C491.421 235 489.754 235.483 488.271 236.45C486.787 237.417 485.612 238.7 484.746 240.3C483.896 241.883 483.471 243.617 483.471 245.5C483.471 247.45 483.912 249.217 484.796 250.8C485.696 252.367 486.887 253.617 488.371 254.55C489.854 255.483 491.487 255.95 493.271 255.95ZM546.286 233H548.986V259.05C548.986 260.6 548.644 262.058 547.961 263.425C547.294 264.808 546.386 266.025 545.236 267.075C544.086 268.142 542.777 268.975 541.311 269.575C539.861 270.192 538.361 270.5 536.811 270.5C535.077 270.5 533.402 270.092 531.786 269.275C530.169 268.475 528.769 267.4 527.586 266.05C526.419 264.7 525.611 263.225 525.161 261.625L527.661 260.475C527.961 261.825 528.577 263.05 529.511 264.15C530.444 265.267 531.552 266.15 532.836 266.8C534.136 267.45 535.461 267.775 536.811 267.775C538.011 267.775 539.177 267.542 540.311 267.075C541.444 266.608 542.461 265.967 543.361 265.15C544.261 264.35 544.969 263.425 545.486 262.375C546.019 261.325 546.286 260.217 546.286 259.05V252.925C545.402 254.625 544.177 256.008 542.611 257.075C541.044 258.125 539.219 258.65 537.136 258.65C535.402 258.65 533.769 258.308 532.236 257.625C530.702 256.942 529.361 256 528.211 254.8C527.061 253.583 526.152 252.183 525.486 250.6C524.836 249.017 524.511 247.317 524.511 245.5C524.511 243.683 524.836 241.983 525.486 240.4C526.152 238.8 527.061 237.4 528.211 236.2C529.361 234.983 530.702 234.033 532.236 233.35C533.769 232.667 535.402 232.325 537.136 232.325C539.219 232.325 541.044 232.85 542.611 233.9C544.177 234.933 545.402 236.317 546.286 238.05V233ZM537.161 256C539.027 256 540.627 255.517 541.961 254.55C543.311 253.583 544.344 252.3 545.061 250.7C545.794 249.1 546.161 247.367 546.161 245.5C546.161 243.583 545.794 241.833 545.061 240.25C544.327 238.65 543.286 237.367 541.936 236.4C540.586 235.433 538.994 234.95 537.161 234.95C535.327 234.95 533.661 235.425 532.161 236.375C530.661 237.325 529.469 238.6 528.586 240.2C527.702 241.8 527.261 243.567 527.261 245.5C527.261 247.45 527.711 249.217 528.611 250.8C529.511 252.383 530.711 253.65 532.211 254.6C533.711 255.533 535.361 256 537.161 256ZM592.144 233H594.844V258H592.144L592.069 252.875C591.219 254.608 590.003 256.008 588.419 257.075C586.853 258.125 584.969 258.65 582.769 258.65C580.953 258.65 579.244 258.308 577.644 257.625C576.061 256.925 574.661 255.975 573.444 254.775C572.228 253.558 571.278 252.158 570.594 250.575C569.911 248.975 569.569 247.258 569.569 245.425C569.569 243.608 569.903 241.908 570.569 240.325C571.253 238.742 572.194 237.35 573.394 236.15C574.594 234.933 575.986 233.992 577.569 233.325C579.153 232.642 580.844 232.3 582.644 232.3C584.861 232.3 586.778 232.842 588.394 233.925C590.028 234.992 591.303 236.392 592.219 238.125L592.144 233ZM582.744 256C584.661 256 586.303 255.533 587.669 254.6C589.053 253.65 590.111 252.375 590.844 250.775C591.578 249.175 591.944 247.417 591.944 245.5C591.944 243.533 591.569 241.758 590.819 240.175C590.086 238.575 589.028 237.308 587.644 236.375C586.278 235.425 584.644 234.95 582.744 234.95C580.811 234.95 579.053 235.425 577.469 236.375C575.903 237.325 574.653 238.6 573.719 240.2C572.786 241.8 572.319 243.567 572.319 245.5C572.319 247.467 572.794 249.242 573.744 250.825C574.711 252.408 575.986 253.667 577.569 254.6C579.153 255.533 580.878 256 582.744 256ZM636.666 220.5H639.366V258H636.666V252.85C635.799 254.6 634.566 256.008 632.966 257.075C631.366 258.125 629.457 258.65 627.241 258.65C625.424 258.65 623.724 258.308 622.141 257.625C620.557 256.942 619.157 256 617.941 254.8C616.741 253.583 615.799 252.183 615.116 250.6C614.432 249.017 614.091 247.317 614.091 245.5C614.091 243.683 614.432 241.983 615.116 240.4C615.799 238.8 616.741 237.4 617.941 236.2C619.157 234.983 620.557 234.033 622.141 233.35C623.724 232.667 625.424 232.325 627.241 232.325C629.457 232.325 631.366 232.858 632.966 233.925C634.566 234.975 635.799 236.367 636.666 238.1V220.5ZM627.266 256C629.182 256 630.824 255.533 632.191 254.6C633.574 253.65 634.632 252.375 635.366 250.775C636.099 249.175 636.466 247.417 636.466 245.5C636.466 243.533 636.091 241.758 635.341 240.175C634.607 238.575 633.549 237.308 632.166 236.375C630.799 235.425 629.166 234.95 627.266 234.95C625.349 234.95 623.599 235.425 622.016 236.375C620.449 237.325 619.191 238.6 618.241 240.2C617.307 241.8 616.841 243.567 616.841 245.5C616.841 247.467 617.316 249.242 618.266 250.825C619.232 252.408 620.507 253.667 622.091 254.6C623.674 255.533 625.399 256 627.266 256ZM682.554 233H685.254V258H682.554L682.479 252.875C681.629 254.608 680.413 256.008 678.829 257.075C677.263 258.125 675.379 258.65 673.179 258.65C671.363 258.65 669.654 258.308 668.054 257.625C666.471 256.925 665.071 255.975 663.854 254.775C662.638 253.558 661.688 252.158 661.004 250.575C660.321 248.975 659.979 247.258 659.979 245.425C659.979 243.608 660.313 241.908 660.979 240.325C661.663 238.742 662.604 237.35 663.804 236.15C665.004 234.933 666.396 233.992 667.979 233.325C669.563 232.642 671.254 232.3 673.054 232.3C675.271 232.3 677.188 232.842 678.804 233.925C680.438 234.992 681.713 236.392 682.629 238.125L682.554 233ZM673.154 256C675.071 256 676.713 255.533 678.079 254.6C679.463 253.65 680.521 252.375 681.254 250.775C681.988 249.175 682.354 247.417 682.354 245.5C682.354 243.533 681.979 241.758 681.229 240.175C680.496 238.575 679.438 237.308 678.054 236.375C676.688 235.425 675.054 234.95 673.154 234.95C671.221 234.95 669.463 235.425 667.879 236.375C666.313 237.325 665.063 238.6 664.129 240.2C663.196 241.8 662.729 243.567 662.729 245.5C662.729 247.467 663.204 249.242 664.154 250.825C665.121 252.408 666.396 253.667 667.979 254.6C669.563 255.533 671.288 256 673.154 256ZM714.314 258.475C712.931 258.458 711.573 258.217 710.239 257.75C708.923 257.267 707.773 256.625 706.789 255.825C705.806 255.025 705.123 254.117 704.739 253.1L707.114 252.075C707.398 252.825 707.939 253.5 708.739 254.1C709.556 254.7 710.473 255.175 711.489 255.525C712.523 255.858 713.531 256.025 714.514 256.025C715.631 256.025 716.681 255.833 717.664 255.45C718.648 255.067 719.448 254.525 720.064 253.825C720.681 253.125 720.989 252.3 720.989 251.35C720.989 250.35 720.664 249.567 720.014 249C719.364 248.417 718.531 247.95 717.514 247.6C716.514 247.233 715.481 246.892 714.414 246.575C712.581 246.042 710.989 245.5 709.639 244.95C708.306 244.383 707.273 243.667 706.539 242.8C705.806 241.933 705.439 240.792 705.439 239.375C705.439 237.908 705.864 236.633 706.714 235.55C707.564 234.467 708.681 233.633 710.064 233.05C711.448 232.45 712.931 232.15 714.514 232.15C716.564 232.15 718.423 232.6 720.089 233.5C721.773 234.4 722.956 235.583 723.639 237.05L721.439 238.35C721.106 237.583 720.581 236.925 719.864 236.375C719.148 235.825 718.331 235.4 717.414 235.1C716.498 234.8 715.573 234.642 714.639 234.625C713.473 234.608 712.381 234.792 711.364 235.175C710.364 235.542 709.556 236.083 708.939 236.8C708.323 237.5 708.014 238.35 708.014 239.35C708.014 240.35 708.298 241.117 708.864 241.65C709.431 242.183 710.223 242.617 711.239 242.95C712.256 243.267 713.431 243.642 714.764 244.075C716.314 244.558 717.756 245.1 719.089 245.7C720.439 246.283 721.523 247.017 722.339 247.9C723.173 248.783 723.581 249.925 723.564 251.325C723.564 252.792 723.123 254.067 722.239 255.15C721.373 256.233 720.231 257.067 718.814 257.65C717.414 258.233 715.914 258.508 714.314 258.475Z" fill="#494949"/>
<path d="M389.76 153.82C383.133 153.82 376.903 152.513 371.07 149.9C365.237 147.24 360.103 143.6 355.67 138.98C351.283 134.313 347.83 128.9 345.31 122.74C342.837 116.58 341.6 110 341.6 103C341.6 96 342.837 89.42 345.31 83.26C347.83 77.1 351.283 71.71 355.67 67.09C360.103 62.4233 365.237 58.7833 371.07 56.17C376.903 53.51 383.133 52.18 389.76 52.18C397.693 52.18 404.997 54.0233 411.67 57.71C418.343 61.3967 423.873 66.2967 428.26 72.41L421.61 76.05C417.923 71.0567 413.233 67.09 407.54 64.15C401.893 61.21 395.967 59.74 389.76 59.74C384.067 59.74 378.77 60.8833 373.87 63.17C368.97 65.4567 364.653 68.6067 360.92 72.62C357.233 76.5867 354.34 81.1833 352.24 86.41C350.187 91.6367 349.16 97.1667 349.16 103C349.16 108.973 350.21 114.573 352.31 119.8C354.41 124.98 357.327 129.577 361.06 133.59C364.793 137.557 369.11 140.66 374.01 142.9C378.91 145.14 384.16 146.26 389.76 146.26C396.247 146.26 402.267 144.767 407.82 141.78C413.42 138.793 418.017 134.897 421.61 130.09L428.26 133.66C423.873 139.773 418.343 144.673 411.67 148.36C404.997 152 397.693 153.82 389.76 153.82ZM443.538 124.91V82H451.098V123.72C451.098 127.873 452.101 131.653 454.108 135.06C456.161 138.467 458.891 141.173 462.298 143.18C465.704 145.187 469.461 146.19 473.568 146.19C477.721 146.19 481.478 145.187 484.838 143.18C488.244 141.173 490.951 138.467 492.958 135.06C495.011 131.653 496.038 127.873 496.038 123.72V82H503.598V152H496.038V141.15C493.518 144.977 490.181 148.057 486.028 150.39C481.921 152.677 477.394 153.82 472.448 153.82C467.128 153.82 462.274 152.537 457.888 149.97C453.501 147.357 450.001 143.857 447.388 139.47C444.821 135.083 443.538 130.23 443.538 124.91ZM527.808 187H520.248V82H527.808V96.42C530.281 91.5667 533.734 87.6467 538.168 84.66C542.648 81.6733 547.991 80.18 554.198 80.18C559.284 80.18 564.044 81.1367 568.478 83.05C572.911 84.9633 576.808 87.6233 580.168 91.03C583.574 94.39 586.234 98.2867 588.148 102.72C590.061 107.153 591.018 111.913 591.018 117C591.018 122.087 590.061 126.87 588.148 131.35C586.234 135.83 583.574 139.773 580.168 143.18C576.808 146.54 572.911 149.177 568.478 151.09C564.044 153.003 559.284 153.96 554.198 153.96C547.991 153.96 542.648 152.467 538.168 149.48C533.734 146.493 530.281 142.573 527.808 137.72V187ZM554.128 87.6C548.808 87.6 544.211 88.93 540.338 91.59C536.511 94.2033 533.548 97.7267 531.448 102.16C529.394 106.593 528.368 111.54 528.368 117C528.368 122.367 529.394 127.29 531.448 131.77C533.501 136.25 536.441 139.843 540.268 142.55C544.141 145.21 548.761 146.54 554.128 146.54C559.401 146.54 564.231 145.233 568.618 142.62C573.051 140.007 576.621 136.483 579.328 132.05C582.034 127.57 583.388 122.553 583.388 117C583.388 111.633 582.058 106.733 579.398 102.3C576.784 97.82 573.261 94.25 568.828 91.59C564.441 88.93 559.541 87.6 554.128 87.6ZM603.526 124.91V82H611.086V123.72C611.086 127.873 612.089 131.653 614.096 135.06C616.149 138.467 618.879 141.173 622.286 143.18C625.692 145.187 629.449 146.19 633.556 146.19C637.709 146.19 641.466 145.187 644.826 143.18C648.232 141.173 650.939 138.467 652.946 135.06C654.999 131.653 656.026 127.873 656.026 123.72V82H663.586V152H656.026V141.15C653.506 144.977 650.169 148.057 646.016 150.39C641.909 152.677 637.382 153.82 632.436 153.82C627.116 153.82 622.262 152.537 617.876 149.97C613.489 147.357 609.989 143.857 607.376 139.47C604.809 135.083 603.526 130.23 603.526 124.91ZM682.15 152V47H689.71V152H682.15ZM709.986 82H717.546V152H709.986V82ZM713.836 68.77C712.529 68.77 711.409 68.35 710.476 67.51C709.589 66.6233 709.146 65.5267 709.146 64.22C709.146 62.9133 709.589 61.84 710.476 61C711.409 60.1133 712.529 59.67 713.836 59.67C715.096 59.67 716.169 60.1133 717.056 61C717.989 61.84 718.456 62.9133 718.456 64.22C718.456 65.5267 718.013 66.6233 717.126 67.51C716.239 68.35 715.143 68.77 713.836 68.77ZM738.505 152V47H746.065V152H738.505ZM766.341 152V47H773.901V152H766.341ZM824.567 153.82C818.127 153.82 812.247 152.163 806.927 148.85C801.654 145.537 797.431 141.103 794.257 135.55C791.131 129.95 789.567 123.767 789.567 117C789.567 111.867 790.477 107.083 792.297 102.65C794.117 98.17 796.614 94.25 799.787 90.89C803.007 87.4833 806.741 84.8233 810.987 82.91C815.234 80.9967 819.761 80.04 824.567 80.04C829.654 80.04 834.344 81.0433 838.637 83.05C842.977 85.01 846.711 87.7867 849.837 91.38C852.964 94.9733 855.367 99.22 857.047 104.12C858.727 108.973 859.497 114.293 859.357 120.08H797.477C797.991 125.073 799.484 129.553 801.957 133.52C804.477 137.44 807.697 140.543 811.617 142.83C815.537 145.07 819.854 146.213 824.567 146.26C829.747 146.26 834.414 144.907 838.567 142.2C842.721 139.447 846.057 135.69 848.577 130.93L856.207 132.68C853.407 138.887 849.184 143.973 843.537 147.94C837.891 151.86 831.567 153.82 824.567 153.82ZM797.267 113.64H851.727C851.447 108.833 850.047 104.423 847.527 100.41C845.054 96.35 841.811 93.1067 837.797 90.68C833.784 88.2533 829.374 87.04 824.567 87.04C819.761 87.04 815.374 88.23 811.407 90.61C807.441 92.99 804.197 96.21 801.677 100.27C799.204 104.283 797.734 108.74 797.267 113.64ZM937.593 153.82C932.133 153.82 927.303 152.513 923.103 149.9C918.903 147.24 915.636 143.787 913.303 139.54C910.97 135.247 909.803 130.697 909.803 125.89C909.803 122.81 910.13 120.173 910.783 117.98C911.436 115.74 912.58 113.5 914.213 111.26C915.846 109.02 918.133 106.407 921.073 103.42C924.013 100.433 927.77 96.63 932.343 92.01C929.59 89.21 927.326 86.9 925.553 85.08C923.78 83.2133 922.403 81.58 921.423 80.18C920.49 78.78 919.813 77.3567 919.393 75.91C919.02 74.4633 918.833 72.76 918.833 70.8C918.833 67.3 919.696 64.1267 921.423 61.28C923.15 58.3867 925.436 56.1 928.283 54.42C931.13 52.74 934.233 51.9 937.593 51.9C941.093 51.9 944.266 52.7633 947.113 54.49C950.006 56.17 952.293 58.4333 953.973 61.28C955.653 64.08 956.493 67.2533 956.493 70.8C956.493 72.8067 956.283 74.5567 955.863 76.05C955.49 77.5433 954.79 79.0133 953.763 80.46C952.783 81.9067 951.406 83.54 949.633 85.36C947.906 87.1333 945.713 89.35 943.053 92.01L971.613 120.57L986.313 105.87V116.58L976.793 126.1L997.513 146.68L992.123 152L971.613 131.56C966.946 136.18 963.096 139.96 960.063 142.9C957.076 145.793 954.463 148.033 952.223 149.62C950.03 151.207 947.813 152.303 945.573 152.91C943.38 153.517 940.72 153.82 937.593 153.82ZM937.593 146.26C940.16 146.26 942.33 145.98 944.103 145.42C945.876 144.86 947.673 143.88 949.493 142.48C951.313 141.033 953.506 138.98 956.073 136.32C958.686 133.66 962.07 130.23 966.223 126.03L937.593 97.4C933.346 101.693 929.893 105.17 927.233 107.83C924.573 110.49 922.543 112.73 921.143 114.55C919.743 116.323 918.763 118.097 918.203 119.87C917.69 121.597 917.433 123.673 917.433 126.1C917.433 129.833 918.343 133.24 920.163 136.32C921.983 139.353 924.41 141.78 927.443 143.6C930.523 145.373 933.906 146.26 937.593 146.26ZM937.593 87.39C940.906 84.1233 943.403 81.65 945.083 79.97C946.81 78.2433 947.976 76.75 948.583 75.49C949.19 74.23 949.493 72.6433 949.493 70.73C949.493 67.37 948.326 64.5467 945.993 62.26C943.66 59.9733 940.86 58.83 937.593 58.83C934.28 58.83 931.503 60.02 929.263 62.4C927.023 64.78 925.903 67.5567 925.903 70.73C925.903 72.6433 926.23 74.2533 926.883 75.56C927.536 76.8667 928.703 78.36 930.383 80.04C932.063 81.72 934.466 84.17 937.593 87.39ZM1052.08 152L1071.05 54H1076.02L1104.51 128.97L1132.93 54H1137.9L1156.94 152H1149.24L1133.84 72.62L1106.75 144.3H1102.13L1075.11 72.62L1059.71 152H1052.08ZM1203 153.82C1196.56 153.82 1190.68 152.163 1185.36 148.85C1180.09 145.537 1175.87 141.103 1172.69 135.55C1169.57 129.95 1168 123.767 1168 117C1168 111.867 1168.91 107.083 1170.73 102.65C1172.55 98.17 1175.05 94.25 1178.22 90.89C1181.44 87.4833 1185.18 84.8233 1189.42 82.91C1193.67 80.9967 1198.2 80.04 1203 80.04C1208.09 80.04 1212.78 81.0433 1217.07 83.05C1221.41 85.01 1225.15 87.7867 1228.27 91.38C1231.4 94.9733 1233.8 99.22 1235.48 104.12C1237.16 108.973 1237.93 114.293 1237.79 120.08H1175.91C1176.43 125.073 1177.92 129.553 1180.39 133.52C1182.91 137.44 1186.13 140.543 1190.05 142.83C1193.97 145.07 1198.29 146.213 1203 146.26C1208.18 146.26 1212.85 144.907 1217 142.2C1221.16 139.447 1224.49 135.69 1227.01 130.93L1234.64 132.68C1231.84 138.887 1227.62 143.973 1221.97 147.94C1216.33 151.86 1210 153.82 1203 153.82ZM1175.7 113.64H1230.16C1229.88 108.833 1228.48 104.423 1225.96 100.41C1223.49 96.35 1220.25 93.1067 1216.23 90.68C1212.22 88.2533 1207.81 87.04 1203 87.04C1198.2 87.04 1193.81 88.23 1189.84 90.61C1185.88 92.99 1182.63 96.21 1180.11 100.27C1177.64 104.283 1176.17 108.74 1175.7 113.64ZM1311.55 47H1319.11V152H1311.55V137.58C1309.12 142.48 1305.67 146.423 1301.19 149.41C1296.71 152.35 1291.37 153.82 1285.16 153.82C1280.07 153.82 1275.31 152.863 1270.88 150.95C1266.45 149.037 1262.53 146.4 1259.12 143.04C1255.76 139.633 1253.12 135.713 1251.21 131.28C1249.3 126.847 1248.34 122.087 1248.34 117C1248.34 111.913 1249.3 107.153 1251.21 102.72C1253.12 98.24 1255.76 94.32 1259.12 90.96C1262.53 87.5533 1266.45 84.8933 1270.88 82.98C1275.31 81.0667 1280.07 80.11 1285.16 80.11C1291.37 80.11 1296.71 81.6033 1301.19 84.59C1305.67 87.53 1309.12 91.4267 1311.55 96.28V47ZM1285.23 146.4C1290.6 146.4 1295.19 145.093 1299.02 142.48C1302.89 139.82 1305.86 136.25 1307.91 131.77C1309.96 127.29 1310.99 122.367 1310.99 117C1310.99 111.493 1309.94 106.523 1307.84 102.09C1305.79 97.61 1302.82 94.0633 1298.95 91.45C1295.12 88.79 1290.55 87.46 1285.23 87.46C1279.86 87.46 1274.96 88.79 1270.53 91.45C1266.14 94.11 1262.62 97.68 1259.96 102.16C1257.35 106.64 1256.04 111.587 1256.04 117C1256.04 122.507 1257.37 127.477 1260.03 131.91C1262.74 136.343 1266.31 139.867 1270.74 142.48C1275.17 145.093 1280 146.4 1285.23 146.4ZM1369.83 153.82C1363.39 153.82 1357.51 152.163 1352.19 148.85C1346.92 145.537 1342.69 141.103 1339.52 135.55C1336.39 129.95 1334.83 123.767 1334.83 117C1334.83 111.867 1335.74 107.083 1337.56 102.65C1339.38 98.17 1341.88 94.25 1345.05 90.89C1348.27 87.4833 1352 84.8233 1356.25 82.91C1360.5 80.9967 1365.02 80.04 1369.83 80.04C1374.92 80.04 1379.61 81.0433 1383.9 83.05C1388.24 85.01 1391.97 87.7867 1395.1 91.38C1398.23 94.9733 1400.63 99.22 1402.31 104.12C1403.99 108.973 1404.76 114.293 1404.62 120.08H1342.74C1343.25 125.073 1344.75 129.553 1347.22 133.52C1349.74 137.44 1352.96 140.543 1356.88 142.83C1360.8 145.07 1365.12 146.213 1369.83 146.26C1375.01 146.26 1379.68 144.907 1383.83 142.2C1387.98 139.447 1391.32 135.69 1393.84 130.93L1401.47 132.68C1398.67 138.887 1394.45 143.973 1388.8 147.94C1383.15 151.86 1376.83 153.82 1369.83 153.82ZM1342.53 113.64H1396.99C1396.71 108.833 1395.31 104.423 1392.79 100.41C1390.32 96.35 1387.07 93.1067 1383.06 90.68C1379.05 88.2533 1374.64 87.04 1369.83 87.04C1365.02 87.04 1360.64 88.23 1356.67 90.61C1352.7 92.99 1349.46 96.21 1346.94 100.27C1344.47 104.283 1343 108.74 1342.53 113.64ZM1419.91 82H1427.47V152H1419.91V82ZM1423.76 68.77C1422.46 68.77 1421.34 68.35 1420.4 67.51C1419.52 66.6233 1419.07 65.5267 1419.07 64.22C1419.07 62.9133 1419.52 61.84 1420.4 61C1421.34 60.1133 1422.46 59.67 1423.76 59.67C1425.02 59.67 1426.1 60.1133 1426.98 61C1427.92 61.84 1428.38 62.9133 1428.38 64.22C1428.38 65.5267 1427.94 66.6233 1427.05 67.51C1426.17 68.35 1425.07 68.77 1423.76 68.77ZM1447.61 152V82H1455.17V92.71C1457.69 88.8367 1461.03 85.7567 1465.18 83.47C1469.33 81.1833 1473.86 80.04 1478.76 80.04C1481.51 80.04 1484.15 80.39 1486.67 81.09L1483.52 88.51C1481.51 87.95 1479.55 87.67 1477.64 87.67C1473.53 87.67 1469.78 88.6733 1466.37 90.68C1462.96 92.6867 1460.23 95.3933 1458.18 98.8C1456.17 102.207 1455.17 105.987 1455.17 110.14V152H1447.61ZM1526.21 153.82C1519.77 153.82 1513.89 152.163 1508.57 148.85C1503.29 145.537 1499.07 141.103 1495.9 135.55C1492.77 129.95 1491.21 123.767 1491.21 117C1491.21 111.867 1492.12 107.083 1493.94 102.65C1495.76 98.17 1498.25 94.25 1501.43 90.89C1504.65 87.4833 1508.38 84.8233 1512.63 82.91C1516.87 80.9967 1521.4 80.04 1526.21 80.04C1532.65 80.04 1538.5 81.6967 1543.78 85.01C1549.1 88.3233 1553.32 92.78 1556.45 98.38C1559.62 103.98 1561.21 110.187 1561.21 117C1561.21 122.087 1560.3 126.847 1558.48 131.28C1556.66 135.713 1554.14 139.633 1550.92 143.04C1547.74 146.4 1544.03 149.037 1539.79 150.95C1535.59 152.863 1531.06 153.82 1526.21 153.82ZM1526.21 146.26C1531.39 146.26 1536.03 144.907 1540.14 142.2C1544.29 139.493 1547.58 135.923 1550.01 131.49C1552.43 127.057 1553.65 122.227 1553.65 117C1553.65 111.727 1552.43 106.85 1550.01 102.37C1547.58 97.89 1544.29 94.32 1540.14 91.66C1535.98 88.9533 1531.34 87.6 1526.21 87.6C1521.03 87.6 1516.36 88.9533 1512.21 91.66C1508.05 94.3667 1504.76 97.96 1502.34 102.44C1499.96 106.873 1498.77 111.727 1498.77 117C1498.77 122.46 1500 127.407 1502.48 131.84C1505 136.227 1508.33 139.727 1512.49 142.34C1516.64 144.953 1521.21 146.26 1526.21 146.26ZM1598.75 153.33C1594.87 153.283 1591.07 152.607 1587.34 151.3C1583.65 149.947 1580.43 148.15 1577.68 145.91C1574.92 143.67 1573.01 141.127 1571.94 138.28L1578.59 135.41C1579.38 137.51 1580.9 139.4 1583.14 141.08C1585.42 142.76 1587.99 144.09 1590.84 145.07C1593.73 146.003 1596.55 146.47 1599.31 146.47C1602.43 146.47 1605.37 145.933 1608.13 144.86C1610.88 143.787 1613.12 142.27 1614.85 140.31C1616.57 138.35 1617.44 136.04 1617.44 133.38C1617.44 130.58 1616.53 128.387 1614.71 126.8C1612.89 125.167 1610.55 123.86 1607.71 122.88C1604.91 121.853 1602.01 120.897 1599.03 120.01C1593.89 118.517 1589.44 117 1585.66 115.46C1581.92 113.873 1579.03 111.867 1576.98 109.44C1574.92 107.013 1573.9 103.817 1573.9 99.85C1573.9 95.7433 1575.09 92.1733 1577.47 89.14C1579.85 86.1067 1582.97 83.7733 1586.85 82.14C1590.72 80.46 1594.87 79.62 1599.31 79.62C1605.05 79.62 1610.25 80.88 1614.92 83.4C1619.63 85.92 1622.94 89.2333 1624.86 93.34L1618.7 96.98C1617.76 94.8333 1616.29 92.99 1614.29 91.45C1612.28 89.91 1609.99 88.72 1607.43 87.88C1604.86 87.04 1602.27 86.5967 1599.66 86.55C1596.39 86.5033 1593.33 87.0167 1590.49 88.09C1587.69 89.1167 1585.42 90.6333 1583.7 92.64C1581.97 94.6 1581.11 96.98 1581.11 99.78C1581.11 102.58 1581.9 104.727 1583.49 106.22C1585.07 107.713 1587.29 108.927 1590.14 109.86C1592.98 110.747 1596.27 111.797 1600.01 113.01C1604.35 114.363 1608.38 115.88 1612.12 117.56C1615.9 119.193 1618.93 121.247 1621.22 123.72C1623.55 126.193 1624.69 129.39 1624.65 133.31C1624.65 137.417 1623.41 140.987 1620.94 144.02C1618.51 147.053 1615.31 149.387 1611.35 151.02C1607.43 152.653 1603.23 153.423 1598.75 153.33Z" fill="#494949"/>
<path d="M211.244 88.1958C211.244 95.3566 205.439 101.162 198.278 101.162C191.117 101.162 185.312 95.3566 185.312 88.1958C185.312 81.035 191.117 75.23 198.278 75.23C205.439 75.23 211.244 81.035 211.244 88.1958Z" fill="#AE8FAF"/>
<path d="M104.041 88.1958C104.041 95.3566 98.2365 101.162 91.0756 101.162C83.9148 101.162 78.1099 95.3566 78.1099 88.1958C78.1099 81.035 83.9148 75.23 91.0756 75.23C98.2365 75.23 104.041 81.035 104.041 88.1958Z" fill="#AE8FAF"/>
<path d="M81.5538 241.186L81.5537 184.316V131.248C81.5537 124.612 90.0134 121.81 93.9749 127.134C109.055 147.402 120.638 162.97 136.905 184.833C139.683 188.567 145.294 188.538 148.023 184.768L188.424 128.96C192.439 123.415 201.207 126.481 200.891 133.319L200.274 146.706L199.005 241.186L197.271 227.314L194.67 199.571L191.898 160.889C191.455 154.717 183.734 152.209 179.75 156.944L146.546 196.404C142.517 201.777 141.173 199.091 138.487 196.404L103.377 155.764C99.4619 151.233 92.0286 153.506 91.3183 159.452L81.5538 241.186Z" fill="#494949"/>
<path d="M140.885 0C121.499 0 103.275 3.82244 86.21 11.4674C69.1455 19.2488 54.1287 29.8971 41.1596 43.4122C28.3271 57.0638 18.2249 72.8314 10.853 90.715C3.61768 108.735 0 128.052 0 148.666C0 169.144 3.61768 188.324 10.853 206.208C18.2249 224.228 28.3271 240.064 41.1596 253.715C54.1287 267.367 69.1455 278.015 86.21 285.66C103.275 293.442 121.499 297.332 140.885 297.332C164.093 297.332 185.457 291.94 204.979 281.155C224.501 270.37 241.133 255.87 253.965 237.85L255 235.781L253.448 237.332C240.497 254.781 222.018 266.435 204.2 277.389C186.044 286.945 160.816 292.73 140.885 292.73C122.865 292.73 103.61 289.008 88.0471 281.772C72.4842 274.537 54.8603 261.595 43.1199 248.899C31.3795 236.339 21.1823 220.49 14.6295 203.972C8.07672 187.59 4.76744 166.959 4.76744 148.666C4.76744 129.827 9.03599 109.816 15.7253 93.2973C22.4146 76.9154 32.4753 59.8339 44.2157 47.2744C56.0926 34.7149 72.6207 23.0712 88.0471 15.9724C103.61 9.01008 123.138 4.53877 140.885 4.53877C161.772 4.53877 185.392 9.44526 203.276 19.1379C221.296 28.8306 241.736 43.4026 252.931 58.9655H253.448C240.616 40.9453 224.501 26.6207 204.979 15.9724C185.457 5.32414 164.093 0 140.885 0Z" fill="#494949"/>
</svg>
