<svg width="230" height="114" viewBox="0 0 230 114" fill="none" xmlns="http://www.w3.org/2000/svg">
<path d="M9.6 92.325C8.41667 92.325 7.30417 92.0917 6.2625 91.625C5.22083 91.15 4.30417 90.5 3.5125 89.675C2.72917 88.8417 2.1125 87.8792 1.6625 86.7875C1.22083 85.6875 1 84.5083 1 83.25C1 82 1.22083 80.8292 1.6625 79.7375C2.1125 78.6375 2.72917 77.6708 3.5125 76.8375C4.30417 76.0042 5.22083 75.3542 6.2625 74.8875C7.30417 74.4125 8.41667 74.175 9.6 74.175C11.0167 74.175 12.3208 74.5042 13.5125 75.1625C14.7042 75.8208 15.6917 76.7 16.475 77.8L15.825 78.15C15.1167 77.1583 14.2042 76.375 13.0875 75.8C11.9792 75.2167 10.8167 74.925 9.6 74.925C8.5 74.925 7.475 75.1458 6.525 75.5875C5.575 76.0292 4.74167 76.6375 4.025 77.4125C3.30833 78.1792 2.75 79.0667 2.35 80.075C1.95 81.075 1.75 82.1333 1.75 83.25C1.75 84.4 1.95417 85.4792 2.3625 86.4875C2.77083 87.4875 3.33333 88.3708 4.05 89.1375C4.775 89.9042 5.60833 90.5042 6.55 90.9375C7.5 91.3625 8.51667 91.575 9.6 91.575C10.875 91.575 12.0583 91.2792 13.15 90.6875C14.25 90.0958 15.1417 89.325 15.825 88.375L16.475 88.725C15.6917 89.825 14.7042 90.7 13.5125 91.35C12.3208 92 11.0167 92.325 9.6 92.325ZM19.4746 87.0875V79.5H20.2246V87.0875C20.2246 87.9125 20.4246 88.6667 20.8246 89.35C21.2329 90.025 21.7746 90.5667 22.4496 90.975C23.1329 91.375 23.8871 91.575 24.7121 91.575C25.5371 91.575 26.2871 91.375 26.9621 90.975C27.6454 90.5667 28.1871 90.025 28.5871 89.35C28.9954 88.6667 29.1996 87.9125 29.1996 87.0875V79.5H29.9496V92H29.1996V89.7875C28.7413 90.5458 28.1163 91.1583 27.3246 91.625C26.5329 92.0917 25.6621 92.325 24.7121 92.325C23.7454 92.325 22.8663 92.0917 22.0746 91.625C21.2829 91.15 20.6496 90.5167 20.1746 89.725C19.7079 88.9333 19.4746 88.0542 19.4746 87.0875ZM33.9502 98.25H33.2002V79.5H33.9502V82.425C34.4002 81.45 35.0585 80.6667 35.9252 80.075C36.8002 79.475 37.8419 79.175 39.0502 79.175C39.9585 79.175 40.8085 79.3458 41.6002 79.6875C42.3919 80.0292 43.0877 80.5042 43.6877 81.1125C44.296 81.7125 44.771 82.4083 45.1127 83.2C45.4544 83.9917 45.6252 84.8417 45.6252 85.75C45.6252 86.6583 45.4544 87.5125 45.1127 88.3125C44.771 89.1125 44.296 89.8167 43.6877 90.425C43.0877 91.025 42.3919 91.4958 41.6002 91.8375C40.8085 92.1792 39.9585 92.35 39.0502 92.35C37.8419 92.35 36.8002 92.0542 35.9252 91.4625C35.0585 90.8625 34.4002 90.075 33.9502 89.1V98.25ZM39.0502 79.925C37.9919 79.925 37.0835 80.1875 36.3252 80.7125C35.5752 81.2292 35.0002 81.9292 34.6002 82.8125C34.2002 83.6875 34.0002 84.6667 34.0002 85.75C34.0002 86.8167 34.196 87.7958 34.5877 88.6875C34.9794 89.5708 35.5502 90.2792 36.3002 90.8125C37.0585 91.3375 37.9752 91.6 39.0502 91.6C40.0919 91.6 41.0544 91.3417 41.9377 90.825C42.821 90.3083 43.5294 89.6083 44.0627 88.725C44.6044 87.8417 44.8752 86.85 44.8752 85.75C44.8752 84.6833 44.6127 83.7083 44.0877 82.825C43.571 81.9417 42.871 81.2375 41.9877 80.7125C41.1044 80.1875 40.1252 79.925 39.0502 79.925ZM48.123 87.0875V79.5H48.873V87.0875C48.873 87.9125 49.073 88.6667 49.473 89.35C49.8814 90.025 50.423 90.5667 51.098 90.975C51.7814 91.375 52.5355 91.575 53.3605 91.575C54.1855 91.575 54.9355 91.375 55.6105 90.975C56.2939 90.5667 56.8355 90.025 57.2355 89.35C57.6439 88.6667 57.848 87.9125 57.848 87.0875V79.5H58.598V92H57.848V89.7875C57.3897 90.5458 56.7647 91.1583 55.973 91.625C55.1814 92.0917 54.3105 92.325 53.3605 92.325C52.3939 92.325 51.5147 92.0917 50.723 91.625C49.9314 91.15 49.298 90.5167 48.823 89.725C48.3564 88.9333 48.123 88.0542 48.123 87.0875ZM62.1172 92V73.25H62.8672V92H62.1172ZM66.627 79.5H67.377V92H66.627V79.5ZM67.0145 76.875C66.8561 76.875 66.7186 76.825 66.602 76.725C66.4936 76.6167 66.4395 76.4833 66.4395 76.325C66.4395 76.1583 66.4936 76.025 66.602 75.925C66.7186 75.825 66.8561 75.775 67.0145 75.775C67.1645 75.775 67.2936 75.825 67.402 75.925C67.5103 76.025 67.5645 76.1542 67.5645 76.3125C67.5645 76.4792 67.5103 76.6167 67.402 76.725C67.2936 76.825 67.1645 76.875 67.0145 76.875ZM71.2832 92V73.25H72.0332V92H71.2832ZM75.793 92V73.25H76.543V92H75.793ZM85.8027 92.325C84.6527 92.325 83.6027 92.0292 82.6527 91.4375C81.7111 90.8458 80.9569 90.0542 80.3902 89.0625C79.8319 88.0625 79.5527 86.9583 79.5527 85.75C79.5527 84.8333 79.7152 83.9792 80.0402 83.1875C80.3652 82.3875 80.8111 81.6875 81.3777 81.0875C81.9527 80.4792 82.6194 80.0042 83.3777 79.6625C84.1361 79.3208 84.9444 79.15 85.8027 79.15C86.6944 79.15 87.5152 79.3167 88.2652 79.65C89.0152 79.9833 89.6694 80.4583 90.2277 81.075C90.7861 81.6917 91.2194 82.4292 91.5277 83.2875C91.8444 84.1375 92.0111 85.0833 92.0277 86.125H80.3027C80.3861 87.1667 80.6819 88.1 81.1902 88.925C81.7069 89.7417 82.3652 90.3875 83.1652 90.8625C83.9652 91.3375 84.8444 91.575 85.8027 91.575C86.8694 91.575 87.8277 91.2917 88.6777 90.725C89.5277 90.1583 90.2027 89.375 90.7027 88.375L91.4527 88.55C90.9527 89.6583 90.1986 90.5667 89.1902 91.275C88.1819 91.975 87.0527 92.325 85.8027 92.325ZM80.3027 85.375H91.2777C91.2444 84.4 90.9777 83.4958 90.4777 82.6625C89.9777 81.8292 89.3194 81.1625 88.5027 80.6625C87.6861 80.1542 86.7861 79.9 85.8027 79.9C84.8111 79.9 83.9111 80.1458 83.1027 80.6375C82.3027 81.1292 81.6527 81.7917 81.1527 82.625C80.6527 83.45 80.3694 84.3667 80.3027 85.375ZM126.857 92L130.232 74.5H130.557L135.932 88.65L141.282 74.5H141.607L145.007 92H144.232L141.257 76.65L136.107 90.275H135.732L130.582 76.65L127.607 92H126.857ZM153.493 92.325C152.343 92.325 151.293 92.0292 150.343 91.4375C149.401 90.8458 148.647 90.0542 148.081 89.0625C147.522 88.0625 147.243 86.9583 147.243 85.75C147.243 84.8333 147.406 83.9792 147.731 83.1875C148.056 82.3875 148.501 81.6875 149.068 81.0875C149.643 80.4792 150.31 80.0042 151.068 79.6625C151.826 79.3208 152.635 79.15 153.493 79.15C154.385 79.15 155.206 79.3167 155.956 79.65C156.706 79.9833 157.36 80.4583 157.918 81.075C158.476 81.6917 158.91 82.4292 159.218 83.2875C159.535 84.1375 159.701 85.0833 159.718 86.125H147.993C148.076 87.1667 148.372 88.1 148.881 88.925C149.397 89.7417 150.056 90.3875 150.856 90.8625C151.656 91.3375 152.535 91.575 153.493 91.575C154.56 91.575 155.518 91.2917 156.368 90.725C157.218 90.1583 157.893 89.375 158.393 88.375L159.143 88.55C158.643 89.6583 157.889 90.5667 156.881 91.275C155.872 91.975 154.743 92.325 153.493 92.325ZM147.993 85.375H158.968C158.935 84.4 158.668 83.4958 158.168 82.6625C157.668 81.8292 157.01 81.1625 156.193 80.6625C155.376 80.1542 154.476 79.9 153.493 79.9C152.501 79.9 151.601 80.1458 150.793 80.6375C149.993 81.1292 149.343 81.7917 148.843 82.625C148.343 83.45 148.06 84.3667 147.993 85.375ZM173.389 73.25H174.139V92H173.389V89.075C172.939 90.05 172.281 90.8375 171.414 91.4375C170.547 92.0292 169.506 92.325 168.289 92.325C167.381 92.325 166.531 92.1542 165.739 91.8125C164.947 91.4708 164.247 91 163.639 90.4C163.039 89.7917 162.568 89.0917 162.226 88.3C161.885 87.5083 161.714 86.6583 161.714 85.75C161.714 84.8333 161.885 83.9792 162.226 83.1875C162.568 82.3875 163.039 81.6875 163.639 81.0875C164.247 80.4792 164.947 80.0042 165.739 79.6625C166.531 79.3208 167.381 79.15 168.289 79.15C169.506 79.15 170.547 79.45 171.414 80.05C172.281 80.6417 172.939 81.425 173.389 82.4V73.25ZM168.289 91.575C169.364 91.575 170.276 91.3125 171.026 90.7875C171.785 90.2625 172.36 89.5583 172.751 88.675C173.143 87.7917 173.339 86.8167 173.339 85.75C173.339 84.6583 173.139 83.6708 172.739 82.7875C172.339 81.9042 171.76 81.2042 171.001 80.6875C170.251 80.1625 169.347 79.9 168.289 79.9C167.222 79.9 166.247 80.1625 165.364 80.6875C164.481 81.2125 163.776 81.9208 163.251 82.8125C162.726 83.6958 162.464 84.675 162.464 85.75C162.464 86.8417 162.731 87.8292 163.264 88.7125C163.806 89.5875 164.518 90.2833 165.401 90.8C166.285 91.3167 167.247 91.575 168.289 91.575ZM183.387 92.325C182.237 92.325 181.187 92.0292 180.237 91.4375C179.295 90.8458 178.541 90.0542 177.974 89.0625C177.416 88.0625 177.137 86.9583 177.137 85.75C177.137 84.8333 177.299 83.9792 177.624 83.1875C177.949 82.3875 178.395 81.6875 178.962 81.0875C179.537 80.4792 180.203 80.0042 180.962 79.6625C181.72 79.3208 182.528 79.15 183.387 79.15C184.278 79.15 185.099 79.3167 185.849 79.65C186.599 79.9833 187.253 80.4583 187.812 81.075C188.37 81.6917 188.803 82.4292 189.112 83.2875C189.428 84.1375 189.595 85.0833 189.612 86.125H177.887C177.97 87.1667 178.266 88.1 178.774 88.925C179.291 89.7417 179.949 90.3875 180.749 90.8625C181.549 91.3375 182.428 91.575 183.387 91.575C184.453 91.575 185.412 91.2917 186.262 90.725C187.112 90.1583 187.787 89.375 188.287 88.375L189.037 88.55C188.537 89.6583 187.783 90.5667 186.774 91.275C185.766 91.975 184.637 92.325 183.387 92.325ZM177.887 85.375H188.862C188.828 84.4 188.562 83.4958 188.062 82.6625C187.562 81.8292 186.903 81.1625 186.087 80.6625C185.27 80.1542 184.37 79.9 183.387 79.9C182.395 79.9 181.495 80.1458 180.687 80.6375C179.887 81.1292 179.237 81.7917 178.737 82.625C178.237 83.45 177.953 84.3667 177.887 85.375ZM192.602 79.5H193.352V92H192.602V79.5ZM192.989 76.875C192.831 76.875 192.693 76.825 192.577 76.725C192.468 76.6167 192.414 76.4833 192.414 76.325C192.414 76.1583 192.468 76.025 192.577 75.925C192.693 75.825 192.831 75.775 192.989 75.775C193.139 75.775 193.268 75.825 193.377 75.925C193.485 76.025 193.539 76.1542 193.539 76.3125C193.539 76.4792 193.485 76.6167 193.377 76.725C193.268 76.825 193.139 76.875 192.989 76.875ZM197.111 92V79.5H197.861V81.6875C198.32 80.9208 198.945 80.3083 199.736 79.85C200.528 79.3833 201.399 79.15 202.349 79.15C202.84 79.15 203.311 79.2125 203.761 79.3375L203.436 80.0375C203.07 79.9458 202.707 79.9 202.349 79.9C201.524 79.9 200.77 80.1042 200.086 80.5125C199.411 80.9125 198.87 81.45 198.461 82.125C198.061 82.8 197.861 83.5542 197.861 84.3875V92H197.111ZM211.027 92.325C209.877 92.325 208.827 92.0292 207.877 91.4375C206.936 90.8458 206.182 90.0542 205.615 89.0625C205.057 88.0625 204.777 86.9583 204.777 85.75C204.777 84.8333 204.94 83.9792 205.265 83.1875C205.59 82.3875 206.036 81.6875 206.602 81.0875C207.177 80.4792 207.844 80.0042 208.602 79.6625C209.361 79.3208 210.169 79.15 211.027 79.15C212.177 79.15 213.223 79.4458 214.165 80.0375C215.115 80.6292 215.869 81.425 216.427 82.425C216.994 83.425 217.277 84.5333 217.277 85.75C217.277 86.6583 217.115 87.5083 216.79 88.3C216.465 89.0917 216.015 89.7917 215.44 90.4C214.873 91 214.211 91.4708 213.452 91.8125C212.702 92.1542 211.894 92.325 211.027 92.325ZM211.027 91.575C212.061 91.575 212.99 91.3083 213.815 90.775C214.648 90.2333 215.307 89.5208 215.79 88.6375C216.282 87.7542 216.527 86.7917 216.527 85.75C216.527 84.7 216.282 83.7333 215.79 82.85C215.307 81.9583 214.648 81.2458 213.815 80.7125C212.99 80.1708 212.061 79.9 211.027 79.9C209.986 79.9 209.048 80.1708 208.215 80.7125C207.39 81.2458 206.736 81.9583 206.252 82.85C205.769 83.7333 205.527 84.7 205.527 85.75C205.527 86.8333 205.777 87.8167 206.277 88.7C206.777 89.575 207.444 90.275 208.277 90.8C209.111 91.3167 210.027 91.575 211.027 91.575ZM224.267 92.25C223.55 92.25 222.85 92.1292 222.167 91.8875C221.492 91.6458 220.904 91.3208 220.404 90.9125C219.904 90.5042 219.567 90.05 219.392 89.55L220.092 89.25C220.25 89.7 220.558 90.0958 221.017 90.4375C221.483 90.7708 222.008 91.0333 222.592 91.225C223.183 91.4083 223.742 91.5 224.267 91.5C224.917 91.5 225.525 91.3875 226.092 91.1625C226.658 90.9292 227.117 90.6083 227.467 90.2C227.817 89.7917 227.992 89.3167 227.992 88.775C227.992 88.2083 227.808 87.7625 227.442 87.4375C227.083 87.1042 226.617 86.8333 226.042 86.625C225.475 86.4167 224.883 86.2167 224.267 86.025C223.308 85.725 222.492 85.4417 221.817 85.175C221.15 84.9083 220.642 84.5792 220.292 84.1875C219.942 83.7875 219.767 83.2417 219.767 82.55C219.767 81.8417 219.979 81.2292 220.404 80.7125C220.829 80.1875 221.383 79.7833 222.067 79.5C222.75 79.2167 223.483 79.075 224.267 79.075C225.308 79.075 226.246 79.3083 227.079 79.775C227.921 80.2333 228.492 80.825 228.792 81.55L228.142 81.925C227.967 81.4833 227.671 81.1083 227.254 80.8C226.846 80.4833 226.375 80.2417 225.842 80.075C225.317 79.9083 224.792 79.825 224.267 79.825C223.608 79.825 222.992 79.9375 222.417 80.1625C221.85 80.3792 221.392 80.6917 221.042 81.1C220.692 81.5083 220.517 81.9917 220.517 82.55C220.517 83.125 220.662 83.5667 220.954 83.875C221.254 84.175 221.683 84.4208 222.242 84.6125C222.8 84.8042 223.475 85.025 224.267 85.275C225.05 85.525 225.779 85.7875 226.454 86.0625C227.137 86.3375 227.687 86.6875 228.104 87.1125C228.529 87.5292 228.742 88.0833 228.742 88.775C228.742 89.4833 228.529 90.1 228.104 90.625C227.687 91.1417 227.137 91.5417 226.454 91.825C225.771 92.1083 225.042 92.25 224.267 92.25Z" fill="black"/>
<path d="M106.098 92.325C105.132 92.325 104.286 92.0958 103.561 91.6375C102.836 91.1708 102.273 90.5667 101.873 89.825C101.473 89.0833 101.273 88.3 101.273 87.475C101.273 86.925 101.332 86.4542 101.448 86.0625C101.573 85.6625 101.79 85.2583 102.098 84.85C102.407 84.4417 102.84 83.9583 103.398 83.4C103.965 82.8333 104.69 82.1083 105.573 81.225C105.032 80.675 104.59 80.225 104.248 79.875C103.907 79.525 103.644 79.225 103.461 78.975C103.278 78.725 103.148 78.475 103.073 78.225C103.007 77.975 102.973 77.675 102.973 77.325C102.973 76.75 103.115 76.225 103.398 75.75C103.682 75.2667 104.061 74.8833 104.536 74.6C105.011 74.3167 105.532 74.175 106.098 74.175C106.673 74.175 107.198 74.3167 107.673 74.6C108.157 74.8833 108.54 75.2625 108.823 75.7375C109.107 76.2125 109.248 76.7417 109.248 77.325C109.248 77.6833 109.211 77.9958 109.136 78.2625C109.061 78.5208 108.928 78.7792 108.736 79.0375C108.544 79.2875 108.278 79.5833 107.936 79.925C107.603 80.2667 107.173 80.7 106.648 81.225L112.373 86.95L114.823 84.525V85.575L112.873 87.525L116.848 91.475L116.323 92L112.373 88.075C111.482 88.9667 110.753 89.6917 110.186 90.25C109.628 90.8083 109.144 91.2375 108.736 91.5375C108.336 91.8375 107.936 92.0417 107.536 92.15C107.144 92.2667 106.665 92.325 106.098 92.325ZM106.098 91.575C106.607 91.575 107.036 91.5208 107.386 91.4125C107.744 91.3042 108.103 91.1083 108.461 90.825C108.828 90.5333 109.273 90.1208 109.798 89.5875C110.323 89.0542 111.007 88.3583 111.848 87.5L106.098 81.75C105.232 82.625 104.528 83.3292 103.986 83.8625C103.453 84.3958 103.044 84.8458 102.761 85.2125C102.486 85.5708 102.298 85.925 102.198 86.275C102.098 86.6167 102.048 87.0333 102.048 87.525C102.048 88.275 102.228 88.9583 102.586 89.575C102.944 90.1833 103.428 90.6708 104.036 91.0375C104.653 91.3958 105.34 91.575 106.098 91.575ZM106.098 80.7C106.765 80.0417 107.269 79.5375 107.611 79.1875C107.961 78.8375 108.194 78.5375 108.311 78.2875C108.436 78.0292 108.498 77.7083 108.498 77.325C108.498 76.6583 108.265 76.0917 107.798 75.625C107.332 75.1583 106.765 74.925 106.098 74.925C105.415 74.925 104.848 75.1708 104.398 75.6625C103.948 76.1458 103.723 76.7 103.723 77.325C103.723 77.7167 103.786 78.0417 103.911 78.3C104.044 78.5583 104.282 78.8625 104.623 79.2125C104.965 79.5542 105.457 80.05 106.098 80.7Z" fill="#814A97"/>
<path d="M66.0918 104.032C66.2546 104.416 66.4548 104.887 66.6924 105.443C66.9333 106 67.1807 106.573 67.4346 107.162C67.6917 107.751 67.9391 108.324 68.1768 108.881C68.4176 109.438 68.6211 109.906 68.7871 110.287C68.8359 110.408 68.932 110.517 69.0752 110.614C69.1501 110.663 69.2233 110.704 69.2949 110.736C69.3698 110.769 69.43 110.8 69.4756 110.829C69.5081 110.852 69.5293 110.875 69.5391 110.897C69.5456 110.91 69.5488 110.924 69.5488 110.937C69.5488 110.946 69.5456 110.958 69.5391 110.971C69.5293 110.99 69.5098 111 69.4805 111H67.8301C67.8008 111 67.7715 110.99 67.7422 110.971C67.7096 110.948 67.6901 110.924 67.6836 110.897C67.6771 110.888 67.6738 110.878 67.6738 110.868C67.6738 110.839 67.6934 110.808 67.7324 110.775C67.7617 110.746 67.7975 110.715 67.8398 110.683C67.8822 110.65 67.9131 110.606 67.9326 110.551C67.9424 110.525 67.9473 110.495 67.9473 110.463C67.9473 110.408 67.9342 110.347 67.9082 110.282L67.1855 108.612H64.3389C64.2217 108.892 64.1045 109.172 63.9873 109.452C63.8734 109.729 63.7578 110.006 63.6406 110.282C63.6113 110.347 63.5951 110.406 63.5918 110.458C63.5885 110.481 63.5869 110.504 63.5869 110.526C63.5869 110.559 63.5918 110.59 63.6016 110.619C63.6113 110.661 63.6276 110.697 63.6504 110.727C63.6732 110.753 63.6895 110.78 63.6992 110.81C63.7025 110.836 63.7041 110.854 63.7041 110.863C63.7041 110.873 63.7008 110.884 63.6943 110.897C63.6715 110.966 63.6357 111 63.5869 111H62.3271C62.2946 111 62.2718 110.99 62.2588 110.971C62.2588 110.967 62.2555 110.959 62.249 110.946C62.249 110.94 62.2523 110.924 62.2588 110.897C62.2783 110.855 62.3337 110.813 62.4248 110.771C62.4736 110.748 62.5257 110.723 62.5811 110.697C62.6396 110.668 62.6982 110.634 62.7568 110.595C62.8773 110.51 62.9652 110.408 63.0205 110.287L65.7891 104.032H66.0918ZM67.0146 108.217L65.7402 105.243C65.5319 105.741 65.3236 106.238 65.1152 106.732C64.9102 107.227 64.7051 107.722 64.5 108.217H67.0146ZM79.9574 107.138C79.9639 107.245 79.9672 107.349 79.9672 107.45C79.9672 107.991 79.8679 108.476 79.6693 108.905C79.4285 109.42 79.0932 109.843 78.6635 110.175C77.9343 110.735 77.0456 111.021 75.9975 111.034H75.6068C75.418 111.034 75.2406 111.033 75.0746 111.029H74.5033C74.2331 111.029 74.0281 111.024 73.8881 111.015H73.7709C73.6407 111.015 73.4714 111.024 73.2631 111.044C73.1947 111.044 73.1605 111.008 73.1605 110.937C73.1605 110.855 73.2419 110.785 73.4047 110.727C73.5674 110.668 73.6488 110.533 73.6488 110.321V104.838C73.6488 104.63 73.5674 104.498 73.4047 104.442C73.2419 104.384 73.1605 104.312 73.1605 104.228C73.1605 104.159 73.1947 104.125 73.2631 104.125C73.3998 104.128 73.5382 104.13 73.6781 104.13C73.8148 104.13 73.9548 104.128 74.098 104.125C74.378 104.115 74.6514 104.107 74.9184 104.101H75.2064C75.7045 104.101 76.2058 104.114 76.7104 104.14C77.3061 104.175 77.8432 104.296 78.3217 104.501C78.7709 104.7 79.1436 105.006 79.4398 105.419C79.7361 105.829 79.9086 106.402 79.9574 107.138ZM74.5814 104.589V110.512C74.9851 110.587 75.3725 110.624 75.7436 110.624C75.8868 110.624 76.0268 110.619 76.1635 110.609C76.6615 110.57 77.1026 110.45 77.4867 110.248C77.9457 110.007 78.307 109.639 78.5707 109.145C78.8116 108.689 78.932 108.109 78.932 107.406V107.245C78.919 106.718 78.8246 106.277 78.6488 105.922C78.4763 105.564 78.2468 105.277 77.9604 105.062C77.5404 104.75 77.031 104.566 76.432 104.511C76.227 104.494 76.0202 104.486 75.8119 104.486C75.4115 104.486 75.0014 104.521 74.5814 104.589ZM85.1414 104.833L87.2117 110.136L89.4285 105.595C89.4708 105.51 89.492 105.434 89.492 105.365C89.492 105.307 89.4773 105.255 89.448 105.209C89.3862 105.111 89.2902 104.984 89.16 104.828L88.9207 104.55L89.5262 104.091C89.5522 104.068 89.5799 104.057 89.6092 104.057C89.6417 104.057 89.6775 104.073 89.7166 104.105L90.117 104.516C90.2016 104.604 90.2439 104.711 90.2439 104.838C90.2439 104.91 90.2309 104.986 90.2049 105.067C90.1268 105.299 90.0112 105.57 89.8582 105.883L87.4656 110.844C87.4428 110.899 87.4201 110.941 87.3973 110.971C87.3712 110.99 87.3452 111 87.3191 111H86.5818C86.5493 111 86.5232 110.987 86.5037 110.961C86.4939 110.951 86.476 110.914 86.45 110.849C86.4272 110.784 86.4109 110.736 86.4012 110.707L84.5555 105.58C84.4253 105.235 84.3309 104.994 84.2723 104.857C84.2137 104.737 84.1176 104.628 83.9842 104.53C83.9061 104.481 83.8296 104.442 83.7547 104.413C83.6831 104.381 83.6245 104.348 83.5789 104.315C83.5496 104.299 83.5301 104.276 83.5203 104.247C83.5105 104.234 83.5057 104.219 83.5057 104.203C83.5057 104.193 83.5089 104.184 83.5154 104.174C83.5285 104.154 83.548 104.145 83.574 104.145H85.2293C85.2586 104.145 85.2879 104.154 85.3172 104.174C85.3465 104.2 85.366 104.224 85.3758 104.247C85.379 104.257 85.3807 104.265 85.3807 104.271C85.3807 104.304 85.3628 104.337 85.327 104.369C85.2944 104.398 85.257 104.431 85.2146 104.467C85.1756 104.499 85.1463 104.54 85.1268 104.589C85.1137 104.621 85.1072 104.656 85.1072 104.691C85.1072 104.737 85.1186 104.784 85.1414 104.833ZM97.2492 104.369C96.2499 104.372 95.5516 104.688 95.1545 105.316C94.7574 105.941 94.5588 106.693 94.5588 107.572C94.5588 108.454 94.8078 109.208 95.3059 109.833C95.8039 110.455 96.4517 110.769 97.2492 110.775H97.2736C98.0516 110.775 98.6913 110.443 99.1926 109.779C99.6874 109.122 99.9348 108.396 99.9348 107.602V107.572C99.9283 106.762 99.7167 106.026 99.3 105.365C98.8833 104.701 98.1997 104.369 97.2492 104.369ZM97.2492 103.939H97.298C98.3495 103.939 99.2365 104.262 99.9592 104.906C100.633 105.508 100.97 106.303 100.97 107.289C100.97 107.377 100.967 107.466 100.96 107.558C100.892 108.677 100.503 109.547 99.7932 110.165C99.0868 110.78 98.2355 111.116 97.2395 111.171C97.1646 111.174 97.0897 111.176 97.0148 111.176C96.1099 111.176 95.3091 110.863 94.6125 110.238C93.8964 109.6 93.5383 108.765 93.5383 107.733C93.5383 107.675 93.5399 107.616 93.5432 107.558C93.5822 106.448 93.9403 105.57 94.6174 104.926C95.2977 104.281 96.175 103.952 97.2492 103.939ZM108.156 111.181C107.157 111.181 106.271 110.862 105.5 110.224C104.728 109.586 104.342 108.703 104.342 107.577C104.342 106.48 104.717 105.601 105.465 104.94C106.217 104.276 107.114 103.944 108.156 103.944C108.53 103.944 108.927 103.987 109.347 104.071C109.77 104.153 110.172 104.315 110.553 104.56L110.436 105.585C110.423 105.644 110.391 105.673 110.338 105.673H110.324C110.285 105.67 110.242 105.624 110.197 105.536C109.985 105.084 109.722 104.783 109.406 104.633C109.093 104.483 108.677 104.408 108.156 104.408C107.43 104.408 106.784 104.66 106.217 105.165C105.651 105.67 105.368 106.474 105.368 107.577C105.368 108.287 105.631 108.972 106.159 109.633C106.689 110.294 107.355 110.644 108.156 110.683C108.234 110.686 108.309 110.688 108.38 110.688C108.752 110.688 109.064 110.639 109.318 110.541C109.621 110.424 109.875 110.186 110.08 109.828V108.91C110.073 108.809 110.021 108.731 109.923 108.676C109.836 108.63 109.707 108.573 109.538 108.505C109.368 108.433 109.284 108.363 109.284 108.295C109.284 108.227 109.318 108.192 109.386 108.192H111.344C111.413 108.192 111.447 108.227 111.447 108.295C111.447 108.38 111.365 108.451 111.203 108.51C111.04 108.568 110.959 108.702 110.959 108.91V110.81C110.457 110.832 109.974 110.902 109.508 111.02C109.274 111.081 109.043 111.124 108.815 111.146C108.587 111.169 108.367 111.181 108.156 111.181ZM118.594 104.032C118.757 104.416 118.957 104.887 119.194 105.443C119.435 106 119.683 106.573 119.937 107.162C120.194 107.751 120.441 108.324 120.679 108.881C120.92 109.438 121.123 109.906 121.289 110.287C121.338 110.408 121.434 110.517 121.577 110.614C121.652 110.663 121.725 110.704 121.797 110.736C121.872 110.769 121.932 110.8 121.978 110.829C122.01 110.852 122.031 110.875 122.041 110.897C122.048 110.91 122.051 110.924 122.051 110.937C122.051 110.946 122.048 110.958 122.041 110.971C122.031 110.99 122.012 111 121.982 111H120.332C120.303 111 120.273 110.99 120.244 110.971C120.212 110.948 120.192 110.924 120.186 110.897C120.179 110.888 120.176 110.878 120.176 110.868C120.176 110.839 120.195 110.808 120.234 110.775C120.264 110.746 120.299 110.715 120.342 110.683C120.384 110.65 120.415 110.606 120.435 110.551C120.444 110.525 120.449 110.495 120.449 110.463C120.449 110.408 120.436 110.347 120.41 110.282L119.688 108.612H116.841C116.724 108.892 116.606 109.172 116.489 109.452C116.375 109.729 116.26 110.006 116.143 110.282C116.113 110.347 116.097 110.406 116.094 110.458C116.09 110.481 116.089 110.504 116.089 110.526C116.089 110.559 116.094 110.59 116.104 110.619C116.113 110.661 116.13 110.697 116.152 110.727C116.175 110.753 116.191 110.78 116.201 110.81C116.204 110.836 116.206 110.854 116.206 110.863C116.206 110.873 116.203 110.884 116.196 110.897C116.174 110.966 116.138 111 116.089 111H114.829C114.797 111 114.774 110.99 114.761 110.971C114.761 110.967 114.757 110.959 114.751 110.946C114.751 110.94 114.754 110.924 114.761 110.897C114.78 110.855 114.836 110.813 114.927 110.771C114.976 110.748 115.028 110.723 115.083 110.697C115.142 110.668 115.2 110.634 115.259 110.595C115.379 110.51 115.467 110.408 115.522 110.287L118.291 104.032H118.594ZM119.517 108.217L118.242 105.243C118.034 105.741 117.826 106.238 117.617 106.732C117.412 107.227 117.207 107.722 117.002 108.217H119.517ZM132.459 107.138C132.466 107.245 132.469 107.349 132.469 107.45C132.469 107.991 132.37 108.476 132.171 108.905C131.93 109.42 131.595 109.843 131.165 110.175C130.436 110.735 129.548 111.021 128.499 111.034H128.109C127.92 111.034 127.743 111.033 127.577 111.029H127.005C126.735 111.029 126.53 111.024 126.39 111.015H126.273C126.143 111.015 125.973 111.024 125.765 111.044C125.697 111.044 125.662 111.008 125.662 110.937C125.662 110.855 125.744 110.785 125.907 110.727C126.069 110.668 126.151 110.533 126.151 110.321V104.838C126.151 104.63 126.069 104.498 125.907 104.442C125.744 104.384 125.662 104.312 125.662 104.228C125.662 104.159 125.697 104.125 125.765 104.125C125.902 104.128 126.04 104.13 126.18 104.13C126.317 104.13 126.457 104.128 126.6 104.125C126.88 104.115 127.153 104.107 127.42 104.101H127.708C128.206 104.101 128.708 104.114 129.212 104.14C129.808 104.175 130.345 104.296 130.824 104.501C131.273 104.7 131.646 105.006 131.942 105.419C132.238 105.829 132.411 106.402 132.459 107.138ZM127.083 104.589V110.512C127.487 110.587 127.874 110.624 128.246 110.624C128.389 110.624 128.529 110.619 128.665 110.609C129.163 110.57 129.605 110.45 129.989 110.248C130.448 110.007 130.809 109.639 131.073 109.145C131.314 108.689 131.434 108.109 131.434 107.406V107.245C131.421 106.718 131.327 106.277 131.151 105.922C130.978 105.564 130.749 105.277 130.462 105.062C130.042 104.75 129.533 104.566 128.934 104.511C128.729 104.494 128.522 104.486 128.314 104.486C127.913 104.486 127.503 104.521 127.083 104.589ZM139.821 104.032C139.984 104.416 140.184 104.887 140.422 105.443C140.663 106 140.91 106.573 141.164 107.162C141.421 107.751 141.668 108.324 141.906 108.881C142.147 109.438 142.35 109.906 142.516 110.287C142.565 110.408 142.661 110.517 142.804 110.614C142.879 110.663 142.953 110.704 143.024 110.736C143.099 110.769 143.159 110.8 143.205 110.829C143.237 110.852 143.259 110.875 143.268 110.897C143.275 110.91 143.278 110.924 143.278 110.937C143.278 110.946 143.275 110.958 143.268 110.971C143.259 110.99 143.239 111 143.21 111H141.559C141.53 111 141.501 110.99 141.471 110.971C141.439 110.948 141.419 110.924 141.413 110.897C141.406 110.888 141.403 110.878 141.403 110.868C141.403 110.839 141.423 110.808 141.462 110.775C141.491 110.746 141.527 110.715 141.569 110.683C141.611 110.65 141.642 110.606 141.662 110.551C141.672 110.525 141.677 110.495 141.677 110.463C141.677 110.408 141.664 110.347 141.637 110.282L140.915 108.612H138.068C137.951 108.892 137.834 109.172 137.717 109.452C137.603 109.729 137.487 110.006 137.37 110.282C137.341 110.347 137.324 110.406 137.321 110.458C137.318 110.481 137.316 110.504 137.316 110.526C137.316 110.559 137.321 110.59 137.331 110.619C137.341 110.661 137.357 110.697 137.38 110.727C137.402 110.753 137.419 110.78 137.429 110.81C137.432 110.836 137.433 110.854 137.433 110.863C137.433 110.873 137.43 110.884 137.424 110.897C137.401 110.966 137.365 111 137.316 111H136.056C136.024 111 136.001 110.99 135.988 110.971C135.988 110.967 135.985 110.959 135.978 110.946C135.978 110.94 135.982 110.924 135.988 110.897C136.008 110.855 136.063 110.813 136.154 110.771C136.203 110.748 136.255 110.723 136.31 110.697C136.369 110.668 136.428 110.634 136.486 110.595C136.607 110.51 136.694 110.408 136.75 110.287L139.518 104.032H139.821ZM140.744 108.217L139.47 105.243C139.261 105.741 139.053 106.238 138.845 106.732C138.639 107.227 138.434 107.722 138.229 108.217H140.744ZM148.975 110.731C149.238 110.715 149.491 110.647 149.732 110.526C149.976 110.403 150.171 110.224 150.318 109.989C150.471 109.745 150.547 109.451 150.547 109.105V109.052C150.537 108.684 150.397 108.402 150.127 108.207C150.003 108.116 149.854 108.044 149.678 107.992C149.333 107.898 148.98 107.831 148.618 107.792C148.26 107.753 147.92 107.655 147.598 107.499C147.308 107.362 147.092 107.162 146.948 106.898C146.805 106.632 146.734 106.342 146.734 106.029C146.734 105.417 146.947 104.918 147.373 104.53C147.809 104.127 148.36 103.925 149.024 103.925H149.17C149.896 103.957 150.513 104.138 151.021 104.467L150.904 105.492C150.897 105.551 150.866 105.58 150.811 105.58H150.791C150.749 105.577 150.708 105.531 150.669 105.443C150.529 105.15 150.326 104.901 150.059 104.696C149.792 104.488 149.504 104.377 149.195 104.364H149.116C148.817 104.364 148.55 104.418 148.316 104.525C148.163 104.604 148.041 104.69 147.949 104.784C147.865 104.875 147.79 104.988 147.725 105.121C147.673 105.229 147.632 105.354 147.603 105.497C147.58 105.601 147.569 105.701 147.569 105.795C147.569 105.922 147.588 106.039 147.627 106.146C147.696 106.365 147.813 106.532 147.979 106.649C148.106 106.744 148.244 106.809 148.394 106.845C148.475 106.868 148.574 106.89 148.692 106.913C148.809 106.933 148.931 106.952 149.058 106.972C149.243 107.001 149.439 107.032 149.644 107.064C149.852 107.094 150.054 107.138 150.249 107.196C150.575 107.3 150.817 107.439 150.977 107.611C151.094 107.745 151.19 107.891 151.265 108.051C151.353 108.266 151.397 108.502 151.397 108.759C151.397 109.455 151.113 110.035 150.547 110.497C150.254 110.738 149.93 110.915 149.575 111.029C149.289 111.12 148.983 111.173 148.657 111.186C148.586 111.189 148.516 111.19 148.447 111.19C147.995 111.19 147.562 111.127 147.149 111L146.685 109.711C146.678 109.695 146.675 109.678 146.675 109.662C146.675 109.63 146.686 109.597 146.709 109.564C146.735 109.522 146.769 109.501 146.812 109.501C146.851 109.511 146.891 109.558 146.934 109.643C147.142 110.095 147.404 110.398 147.72 110.551C147.98 110.678 148.311 110.741 148.711 110.741C148.796 110.741 148.884 110.738 148.975 110.731Z" fill="black"/>
<line x1="52.0043" y1="98.5" x2="168.004" y2="99.5" stroke="#814A97" stroke-opacity="0.66"/>
<path d="M87.3067 67.1605L87.3067 39.5V12L110 42.5L131.5 12V25.5L130.5 67.1605L128.252 38.5V24.3978L111.5 44C110 46 109.5 45 108.5 44L91.6309 24.4741L87.3067 67.1605Z" fill="#5A5A5A"/>
<path d="M89 61.7921L89 35.5044V9.36914L110 43L131 9.36914V22.1992L130.05 61.7921L127.913 34.554V21.1516L110 43H109L93.1096 21.2241L89 61.7921Z" fill="#5A5A5A" fill-opacity="0.2"/>
<path d="M91.0085 4.00427C91.0085 6.21577 89.2158 8.00854 87.0043 8.00854C84.7928 8.00854 83 6.21577 83 4.00427C83 1.79277 84.7928 0 87.0043 0C89.2158 0 91.0085 1.79277 91.0085 4.00427Z" fill="#A981B9" fill-opacity="0.8"/>
<path d="M136.009 4.00427C136.009 6.21577 134.216 8.00854 132.004 8.00854C129.793 8.00854 128 6.21577 128 4.00427C128 1.79277 129.793 0 132.004 0C134.216 0 136.009 1.79277 136.009 4.00427Z" fill="#A981B9" fill-opacity="0.8"/>
<path d="M93.0085 4.00427C93.0085 6.21577 91.2158 8.00854 89.0043 8.00854C86.7928 8.00854 85 6.21577 85 4.00427C85 1.79277 86.7928 0 89.0043 0C91.2158 0 93.0085 1.79277 93.0085 4.00427Z" fill="#A981B9" fill-opacity="0.2"/>
<path d="M134.009 4.00427C134.009 6.21577 132.216 8.00854 130.004 8.00854C127.793 8.00854 126 6.21577 126 4.00427C126 1.79277 127.793 0 130.004 0C132.216 0 134.009 1.79277 134.009 4.00427Z" fill="#A981B9" fill-opacity="0.2"/>
<path d="M87.3067 67.1605L87.3067 39.5V12L110 42.5L131.5 12V25.5L130.5 67.1605L128.252 38.5V24.3978L111.5 44C110 46 109.5 45 108.5 44L91.6309 24.4741L87.3067 67.1605Z" fill="#5A5A5A"/>
<path d="M89 61.7921L89 35.5044V9.36914L110 43L131 9.36914V22.1992L130.05 61.7921L127.913 34.554V21.1516L110 43H109L93.1096 21.2241L89 61.7921Z" fill="#5A5A5A" fill-opacity="0.2"/>
<path d="M91.0085 4.00427C91.0085 6.21577 89.2158 8.00854 87.0043 8.00854C84.7928 8.00854 83 6.21577 83 4.00427C83 1.79277 84.7928 0 87.0043 0C89.2158 0 91.0085 1.79277 91.0085 4.00427Z" fill="#A981B9" fill-opacity="0.8"/>
<path d="M136.009 4.00427C136.009 6.21577 134.216 8.00854 132.004 8.00854C129.793 8.00854 128 6.21577 128 4.00427C128 1.79277 129.793 0 132.004 0C134.216 0 136.009 1.79277 136.009 4.00427Z" fill="#A981B9" fill-opacity="0.8"/>
<path d="M93.0085 4.00427C93.0085 6.21577 91.2158 8.00854 89.0043 8.00854C86.7928 8.00854 85 6.21577 85 4.00427C85 1.79277 86.7928 0 89.0043 0C91.2158 0 93.0085 1.79277 93.0085 4.00427Z" fill="#A981B9" fill-opacity="0.2"/>
<path d="M134.009 4.00427C134.009 6.21577 132.216 8.00854 130.004 8.00854C127.793 8.00854 126 6.21577 126 4.00427C126 1.79277 127.793 0 130.004 0C132.216 0 134.009 1.79277 134.009 4.00427Z" fill="#A981B9" fill-opacity="0.2"/>
</svg>
