<svg width="199" height="80" viewBox="0 0 199 80" fill="none" xmlns="http://www.w3.org/2000/svg">
<path d="M71.6 33.325C70.4167 33.325 69.3042 33.0917 68.2625 32.625C67.2208 32.15 66.3042 31.5 65.5125 30.675C64.7292 29.8417 64.1125 28.8792 63.6625 27.7875C63.2208 26.6875 63 25.5083 63 24.25C63 23 63.2208 21.8292 63.6625 20.7375C64.1125 19.6375 64.7292 18.6708 65.5125 17.8375C66.3042 17.0042 67.2208 16.3542 68.2625 15.8875C69.3042 15.4125 70.4167 15.175 71.6 15.175C73.0167 15.175 74.3208 15.5042 75.5125 16.1625C76.7042 16.8208 77.6917 17.7 78.475 18.8L77.825 19.15C77.1167 18.1583 76.2042 17.375 75.0875 16.8C73.9792 16.2167 72.8167 15.925 71.6 15.925C70.5 15.925 69.475 16.1458 68.525 16.5875C67.575 17.0292 66.7417 17.6375 66.025 18.4125C65.3083 19.1792 64.75 20.0667 64.35 21.075C63.95 22.075 63.75 23.1333 63.75 24.25C63.75 25.4 63.9542 26.4792 64.3625 27.4875C64.7708 28.4875 65.3333 29.3708 66.05 30.1375C66.775 30.9042 67.6083 31.5042 68.55 31.9375C69.5 32.3625 70.5167 32.575 71.6 32.575C72.875 32.575 74.0583 32.2792 75.15 31.6875C76.25 31.0958 77.1417 30.325 77.825 29.375L78.475 29.725C77.6917 30.825 76.7042 31.7 75.5125 32.35C74.3208 33 73.0167 33.325 71.6 33.325ZM82.9746 28.0875V20.5H83.7246V28.0875C83.7246 28.9125 83.9246 29.6667 84.3246 30.35C84.7329 31.025 85.2746 31.5667 85.9496 31.975C86.6329 32.375 87.3871 32.575 88.2121 32.575C89.0371 32.575 89.7871 32.375 90.4621 31.975C91.1454 31.5667 91.6871 31.025 92.0871 30.35C92.4954 29.6667 92.6996 28.9125 92.6996 28.0875V20.5H93.4496V33H92.6996V30.7875C92.2413 31.5458 91.6163 32.1583 90.8246 32.625C90.0329 33.0917 89.1621 33.325 88.2121 33.325C87.2454 33.325 86.3663 33.0917 85.5746 32.625C84.7829 32.15 84.1496 31.5167 83.6746 30.725C83.2079 29.9333 82.9746 29.0542 82.9746 28.0875ZM98.9502 39.25H98.2002V20.5H98.9502V23.425C99.4002 22.45 100.059 21.6667 100.925 21.075C101.8 20.475 102.842 20.175 104.05 20.175C104.959 20.175 105.809 20.3458 106.6 20.6875C107.392 21.0292 108.088 21.5042 108.688 22.1125C109.296 22.7125 109.771 23.4083 110.113 24.2C110.454 24.9917 110.625 25.8417 110.625 26.75C110.625 27.6583 110.454 28.5125 110.113 29.3125C109.771 30.1125 109.296 30.8167 108.688 31.425C108.088 32.025 107.392 32.4958 106.6 32.8375C105.809 33.1792 104.959 33.35 104.05 33.35C102.842 33.35 101.8 33.0542 100.925 32.4625C100.059 31.8625 99.4002 31.075 98.9502 30.1V39.25ZM104.05 20.925C102.992 20.925 102.084 21.1875 101.325 21.7125C100.575 22.2292 100 22.9292 99.6002 23.8125C99.2002 24.6875 99.0002 25.6667 99.0002 26.75C99.0002 27.8167 99.196 28.7958 99.5877 29.6875C99.9794 30.5708 100.55 31.2792 101.3 31.8125C102.059 32.3375 102.975 32.6 104.05 32.6C105.092 32.6 106.054 32.3417 106.938 31.825C107.821 31.3083 108.529 30.6083 109.063 29.725C109.604 28.8417 109.875 27.85 109.875 26.75C109.875 25.6833 109.613 24.7083 109.088 23.825C108.571 22.9417 107.871 22.2375 106.988 21.7125C106.104 21.1875 105.125 20.925 104.05 20.925ZM114.623 28.0875V20.5H115.373V28.0875C115.373 28.9125 115.573 29.6667 115.973 30.35C116.381 31.025 116.923 31.5667 117.598 31.975C118.281 32.375 119.036 32.575 119.861 32.575C120.686 32.575 121.436 32.375 122.111 31.975C122.794 31.5667 123.336 31.025 123.736 30.35C124.144 29.6667 124.348 28.9125 124.348 28.0875V20.5H125.098V33H124.348V30.7875C123.89 31.5458 123.265 32.1583 122.473 32.625C121.681 33.0917 120.811 33.325 119.861 33.325C118.894 33.325 118.015 33.0917 117.223 32.625C116.431 32.15 115.798 31.5167 115.323 30.725C114.856 29.9333 114.623 29.0542 114.623 28.0875ZM130.117 33V14.25H130.867V33H130.117ZM136.127 20.5H136.877V33H136.127V20.5ZM136.514 17.875C136.356 17.875 136.219 17.825 136.102 17.725C135.994 17.6167 135.939 17.4833 135.939 17.325C135.939 17.1583 135.994 17.025 136.102 16.925C136.219 16.825 136.356 16.775 136.514 16.775C136.664 16.775 136.794 16.825 136.902 16.925C137.01 17.025 137.064 17.1542 137.064 17.3125C137.064 17.4792 137.01 17.6167 136.902 17.725C136.794 17.825 136.664 17.875 136.514 17.875ZM142.283 33V14.25H143.033V33H142.283ZM148.293 33V14.25H149.043V33H148.293ZM159.803 33.325C158.653 33.325 157.603 33.0292 156.653 32.4375C155.711 31.8458 154.957 31.0542 154.39 30.0625C153.832 29.0625 153.553 27.9583 153.553 26.75C153.553 25.8333 153.715 24.9792 154.04 24.1875C154.365 23.3875 154.811 22.6875 155.378 22.0875C155.953 21.4792 156.619 21.0042 157.378 20.6625C158.136 20.3208 158.944 20.15 159.803 20.15C160.694 20.15 161.515 20.3167 162.265 20.65C163.015 20.9833 163.669 21.4583 164.228 22.075C164.786 22.6917 165.219 23.4292 165.528 24.2875C165.844 25.1375 166.011 26.0833 166.028 27.125H154.303C154.386 28.1667 154.682 29.1 155.19 29.925C155.707 30.7417 156.365 31.3875 157.165 31.8625C157.965 32.3375 158.844 32.575 159.803 32.575C160.869 32.575 161.828 32.2917 162.678 31.725C163.528 31.1583 164.203 30.375 164.703 29.375L165.453 29.55C164.953 30.6583 164.199 31.5667 163.19 32.275C162.182 32.975 161.053 33.325 159.803 33.325ZM154.303 26.375H165.278C165.244 25.4 164.978 24.4958 164.478 23.6625C163.978 22.8292 163.319 22.1625 162.503 21.6625C161.686 21.1542 160.786 20.9 159.803 20.9C158.811 20.9 157.911 21.1458 157.103 21.6375C156.303 22.1292 155.653 22.7917 155.153 23.625C154.653 24.45 154.369 25.3667 154.303 26.375ZM63.5 57L66.875 39.5H67.2L72.575 53.65L77.925 39.5H78.25L81.65 57H80.875L77.9 41.65L72.75 55.275H72.375L67.225 41.65L64.25 57H63.5ZM91.6357 57.325C90.4857 57.325 89.4357 57.0292 88.4857 56.4375C87.5441 55.8458 86.7899 55.0542 86.2232 54.0625C85.6649 53.0625 85.3857 51.9583 85.3857 50.75C85.3857 49.8333 85.5482 48.9792 85.8732 48.1875C86.1982 47.3875 86.6441 46.6875 87.2107 46.0875C87.7857 45.4792 88.4524 45.0042 89.2107 44.6625C89.9691 44.3208 90.7774 44.15 91.6357 44.15C92.5274 44.15 93.3482 44.3167 94.0982 44.65C94.8482 44.9833 95.5024 45.4583 96.0607 46.075C96.6191 46.6917 97.0524 47.4292 97.3607 48.2875C97.6774 49.1375 97.8441 50.0833 97.8607 51.125H86.1357C86.2191 52.1667 86.5149 53.1 87.0232 53.925C87.5399 54.7417 88.1982 55.3875 88.9982 55.8625C89.7982 56.3375 90.6774 56.575 91.6357 56.575C92.7024 56.575 93.6607 56.2917 94.5107 55.725C95.3607 55.1583 96.0357 54.375 96.5357 53.375L97.2857 53.55C96.7857 54.6583 96.0316 55.5667 95.0232 56.275C94.0149 56.975 92.8857 57.325 91.6357 57.325ZM86.1357 50.375H97.1107C97.0774 49.4 96.8107 48.4958 96.3107 47.6625C95.8107 46.8292 95.1524 46.1625 94.3357 45.6625C93.5191 45.1542 92.6191 44.9 91.6357 44.9C90.6441 44.9 89.7441 45.1458 88.9357 45.6375C88.1357 46.1292 87.4857 46.7917 86.9857 47.625C86.4857 48.45 86.2024 49.3667 86.1357 50.375ZM113.031 38.25H113.781V57H113.031V54.075C112.581 55.05 111.923 55.8375 111.056 56.4375C110.19 57.0292 109.148 57.325 107.931 57.325C107.023 57.325 106.173 57.1542 105.381 56.8125C104.59 56.4708 103.89 56 103.281 55.4C102.681 54.7917 102.211 54.0917 101.869 53.3C101.527 52.5083 101.356 51.6583 101.356 50.75C101.356 49.8333 101.527 48.9792 101.869 48.1875C102.211 47.3875 102.681 46.6875 103.281 46.0875C103.89 45.4792 104.59 45.0042 105.381 44.6625C106.173 44.3208 107.023 44.15 107.931 44.15C109.148 44.15 110.19 44.45 111.056 45.05C111.923 45.6417 112.581 46.425 113.031 47.4V38.25ZM107.931 56.575C109.006 56.575 109.919 56.3125 110.669 55.7875C111.427 55.2625 112.002 54.5583 112.394 53.675C112.786 52.7917 112.981 51.8167 112.981 50.75C112.981 49.6583 112.781 48.6708 112.381 47.7875C111.981 46.9042 111.402 46.2042 110.644 45.6875C109.894 45.1625 108.99 44.9 107.931 44.9C106.865 44.9 105.89 45.1625 105.006 45.6875C104.123 46.2125 103.419 46.9208 102.894 47.8125C102.369 48.6958 102.106 49.675 102.106 50.75C102.106 51.8417 102.373 52.8292 102.906 53.7125C103.448 54.5875 104.161 55.2833 105.044 55.8C105.927 56.3167 106.89 56.575 107.931 56.575ZM124.529 57.325C123.379 57.325 122.329 57.0292 121.379 56.4375C120.438 55.8458 119.683 55.0542 119.117 54.0625C118.558 53.0625 118.279 51.9583 118.279 50.75C118.279 49.8333 118.442 48.9792 118.767 48.1875C119.092 47.3875 119.538 46.6875 120.104 46.0875C120.679 45.4792 121.346 45.0042 122.104 44.6625C122.863 44.3208 123.671 44.15 124.529 44.15C125.421 44.15 126.242 44.3167 126.992 44.65C127.742 44.9833 128.396 45.4583 128.954 46.075C129.513 46.6917 129.946 47.4292 130.254 48.2875C130.571 49.1375 130.738 50.0833 130.754 51.125H119.029C119.113 52.1667 119.408 53.1 119.917 53.925C120.433 54.7417 121.092 55.3875 121.892 55.8625C122.692 56.3375 123.571 56.575 124.529 56.575C125.596 56.575 126.554 56.2917 127.404 55.725C128.254 55.1583 128.929 54.375 129.429 53.375L130.179 53.55C129.679 54.6583 128.925 55.5667 127.917 56.275C126.908 56.975 125.779 57.325 124.529 57.325ZM119.029 50.375H130.004C129.971 49.4 129.704 48.4958 129.204 47.6625C128.704 46.8292 128.046 46.1625 127.229 45.6625C126.413 45.1542 125.513 44.9 124.529 44.9C123.538 44.9 122.638 45.1458 121.829 45.6375C121.029 46.1292 120.379 46.7917 119.879 47.625C119.379 48.45 119.096 49.3667 119.029 50.375ZM135.244 44.5H135.994V57H135.244V44.5ZM135.632 41.875C135.473 41.875 135.336 41.825 135.219 41.725C135.111 41.6167 135.057 41.4833 135.057 41.325C135.057 41.1583 135.111 41.025 135.219 40.925C135.336 40.825 135.473 40.775 135.632 40.775C135.782 40.775 135.911 40.825 136.019 40.925C136.127 41.025 136.182 41.1542 136.182 41.3125C136.182 41.4792 136.127 41.6167 136.019 41.725C135.911 41.825 135.782 41.875 135.632 41.875ZM141.254 57V44.5H142.004V46.6875C142.462 45.9208 143.087 45.3083 143.879 44.85C144.671 44.3833 145.541 44.15 146.491 44.15C146.983 44.15 147.454 44.2125 147.904 44.3375L147.579 45.0375C147.212 44.9458 146.85 44.9 146.491 44.9C145.666 44.9 144.912 45.1042 144.229 45.5125C143.554 45.9125 143.012 46.45 142.604 47.125C142.204 47.8 142.004 48.5542 142.004 49.3875V57H141.254ZM156.67 57.325C155.52 57.325 154.47 57.0292 153.52 56.4375C152.578 55.8458 151.824 55.0542 151.257 54.0625C150.699 53.0625 150.42 51.9583 150.42 50.75C150.42 49.8333 150.582 48.9792 150.907 48.1875C151.232 47.3875 151.678 46.6875 152.245 46.0875C152.82 45.4792 153.487 45.0042 154.245 44.6625C155.003 44.3208 155.812 44.15 156.67 44.15C157.82 44.15 158.866 44.4458 159.807 45.0375C160.757 45.6292 161.512 46.425 162.07 47.425C162.637 48.425 162.92 49.5333 162.92 50.75C162.92 51.6583 162.757 52.5083 162.432 53.3C162.107 54.0917 161.657 54.7917 161.082 55.4C160.516 56 159.853 56.4708 159.095 56.8125C158.345 57.1542 157.537 57.325 156.67 57.325ZM156.67 56.575C157.703 56.575 158.632 56.3083 159.457 55.775C160.291 55.2333 160.949 54.5208 161.432 53.6375C161.924 52.7542 162.17 51.7917 162.17 50.75C162.17 49.7 161.924 48.7333 161.432 47.85C160.949 46.9583 160.291 46.2458 159.457 45.7125C158.632 45.1708 157.703 44.9 156.67 44.9C155.628 44.9 154.691 45.1708 153.857 45.7125C153.032 46.2458 152.378 46.9583 151.895 47.85C151.412 48.7333 151.17 49.7 151.17 50.75C151.17 51.8333 151.42 52.8167 151.92 53.7C152.42 54.575 153.087 55.275 153.92 55.8C154.753 56.3167 155.67 56.575 156.67 56.575ZM171.409 57.25C170.693 57.25 169.993 57.1292 169.309 56.8875C168.634 56.6458 168.047 56.3208 167.547 55.9125C167.047 55.5042 166.709 55.05 166.534 54.55L167.234 54.25C167.393 54.7 167.701 55.0958 168.159 55.4375C168.626 55.7708 169.151 56.0333 169.734 56.225C170.326 56.4083 170.884 56.5 171.409 56.5C172.059 56.5 172.668 56.3875 173.234 56.1625C173.801 55.9292 174.259 55.6083 174.609 55.2C174.959 54.7917 175.134 54.3167 175.134 53.775C175.134 53.2083 174.951 52.7625 174.584 52.4375C174.226 52.1042 173.759 51.8333 173.184 51.625C172.618 51.4167 172.026 51.2167 171.409 51.025C170.451 50.725 169.634 50.4417 168.959 50.175C168.293 49.9083 167.784 49.5792 167.434 49.1875C167.084 48.7875 166.909 48.2417 166.909 47.55C166.909 46.8417 167.122 46.2292 167.547 45.7125C167.972 45.1875 168.526 44.7833 169.209 44.5C169.893 44.2167 170.626 44.075 171.409 44.075C172.451 44.075 173.388 44.3083 174.222 44.775C175.063 45.2333 175.634 45.825 175.934 46.55L175.284 46.925C175.109 46.4833 174.813 46.1083 174.397 45.8C173.988 45.4833 173.518 45.2417 172.984 45.075C172.459 44.9083 171.934 44.825 171.409 44.825C170.751 44.825 170.134 44.9375 169.559 45.1625C168.993 45.3792 168.534 45.6917 168.184 46.1C167.834 46.5083 167.659 46.9917 167.659 47.55C167.659 48.125 167.805 48.5667 168.097 48.875C168.397 49.175 168.826 49.4208 169.384 49.6125C169.943 49.8042 170.618 50.025 171.409 50.275C172.193 50.525 172.922 50.7875 173.597 51.0625C174.28 51.3375 174.83 51.6875 175.247 52.1125C175.672 52.5292 175.884 53.0833 175.884 53.775C175.884 54.4833 175.672 55.1 175.247 55.625C174.83 56.1417 174.28 56.5417 173.597 56.825C172.913 57.1083 172.184 57.25 171.409 57.25Z" fill="black"/>
<path d="M183.098 33.325C182.132 33.325 181.286 33.0958 180.561 32.6375C179.836 32.1708 179.273 31.5667 178.873 30.825C178.473 30.0833 178.273 29.3 178.273 28.475C178.273 27.925 178.332 27.4542 178.448 27.0625C178.573 26.6625 178.79 26.2583 179.098 25.85C179.407 25.4417 179.84 24.9583 180.398 24.4C180.965 23.8333 181.69 23.1083 182.573 22.225C182.032 21.675 181.59 21.225 181.248 20.875C180.907 20.525 180.644 20.225 180.461 19.975C180.278 19.725 180.148 19.475 180.073 19.225C180.007 18.975 179.973 18.675 179.973 18.325C179.973 17.75 180.115 17.225 180.398 16.75C180.682 16.2667 181.061 15.8833 181.536 15.6C182.011 15.3167 182.532 15.175 183.098 15.175C183.673 15.175 184.198 15.3167 184.673 15.6C185.157 15.8833 185.54 16.2625 185.823 16.7375C186.107 17.2125 186.248 17.7417 186.248 18.325C186.248 18.6833 186.211 18.9958 186.136 19.2625C186.061 19.5208 185.928 19.7792 185.736 20.0375C185.544 20.2875 185.278 20.5833 184.936 20.925C184.603 21.2667 184.173 21.7 183.648 22.225L189.373 27.95L191.823 25.525V26.575L189.873 28.525L193.848 32.475L193.323 33L189.373 29.075C188.482 29.9667 187.753 30.6917 187.186 31.25C186.628 31.8083 186.144 32.2375 185.736 32.5375C185.336 32.8375 184.936 33.0417 184.536 33.15C184.144 33.2667 183.665 33.325 183.098 33.325ZM183.098 32.575C183.607 32.575 184.036 32.5208 184.386 32.4125C184.744 32.3042 185.103 32.1083 185.461 31.825C185.828 31.5333 186.273 31.1208 186.798 30.5875C187.323 30.0542 188.007 29.3583 188.848 28.5L183.098 22.75C182.232 23.625 181.528 24.3292 180.986 24.8625C180.453 25.3958 180.044 25.8458 179.761 26.2125C179.486 26.5708 179.298 26.925 179.198 27.275C179.098 27.6167 179.048 28.0333 179.048 28.525C179.048 29.275 179.228 29.9583 179.586 30.575C179.944 31.1833 180.428 31.6708 181.036 32.0375C181.653 32.3958 182.34 32.575 183.098 32.575ZM183.098 21.7C183.765 21.0417 184.269 20.5375 184.611 20.1875C184.961 19.8375 185.194 19.5375 185.311 19.2875C185.436 19.0292 185.498 18.7083 185.498 18.325C185.498 17.6583 185.265 17.0917 184.798 16.625C184.332 16.1583 183.765 15.925 183.098 15.925C182.415 15.925 181.848 16.1708 181.398 16.6625C180.948 17.1458 180.723 17.7 180.723 18.325C180.723 18.7167 180.786 19.0417 180.911 19.3C181.044 19.5583 181.282 19.8625 181.623 20.2125C181.965 20.5542 182.457 21.05 183.098 21.7Z" fill="#814A97"/>
<path d="M4.00001 67L4.00002 39.42V12L27.1075 42.4112L49 12V25.4607L47.9818 67L45.6928 38.4229V24.3617L28.6349 43.9069C27.1075 45.901 26.5984 44.904 25.5801 43.9069L8.40318 24.4378L4.00001 67Z" fill="#5A5A5A"/>
<path d="M6 62L6.00001 35.4229V9L27.5 43.001L49 9V21.9712L48.027 62L45.8398 34.462V20.9122L27.5 43.001H26.4762L10.2075 20.9855L6 62Z" fill="#5A5A5A" fill-opacity="0.2"/>
<path d="M66.0918 70.0322C66.2546 70.4163 66.4548 70.8867 66.6924 71.4434C66.9333 72 67.1807 72.5729 67.4346 73.1621C67.6917 73.7513 67.9391 74.3242 68.1768 74.8809C68.4176 75.4375 68.6211 75.9062 68.7871 76.2871C68.8359 76.4076 68.932 76.5166 69.0752 76.6143C69.1501 76.6631 69.2233 76.7038 69.2949 76.7363C69.3698 76.7689 69.43 76.7998 69.4756 76.8291C69.5081 76.8519 69.5293 76.8747 69.5391 76.8975C69.5456 76.9105 69.5488 76.9235 69.5488 76.9365C69.5488 76.9463 69.5456 76.9577 69.5391 76.9707C69.5293 76.9902 69.5098 77 69.4805 77H67.8301C67.8008 77 67.7715 76.9902 67.7422 76.9707C67.7096 76.9479 67.6901 76.9235 67.6836 76.8975C67.6771 76.8877 67.6738 76.8779 67.6738 76.8682C67.6738 76.8389 67.6934 76.8079 67.7324 76.7754C67.7617 76.7461 67.7975 76.7152 67.8398 76.6826C67.8822 76.6501 67.9131 76.6061 67.9326 76.5508C67.9424 76.5247 67.9473 76.4954 67.9473 76.4629C67.9473 76.4076 67.9342 76.3473 67.9082 76.2822L67.1855 74.6123H64.3389C64.2217 74.8923 64.1045 75.1722 63.9873 75.4521C63.8734 75.7288 63.7578 76.0055 63.6406 76.2822C63.6113 76.3473 63.5951 76.4059 63.5918 76.458C63.5885 76.4808 63.5869 76.5036 63.5869 76.5264C63.5869 76.5589 63.5918 76.5898 63.6016 76.6191C63.6113 76.6615 63.6276 76.6973 63.6504 76.7266C63.6732 76.7526 63.6895 76.7803 63.6992 76.8096C63.7025 76.8356 63.7041 76.8535 63.7041 76.8633C63.7041 76.873 63.7008 76.8844 63.6943 76.8975C63.6715 76.9658 63.6357 77 63.5869 77H62.3271C62.2946 77 62.2718 76.9902 62.2588 76.9707C62.2588 76.9674 62.2555 76.9593 62.249 76.9463C62.249 76.9398 62.2523 76.9235 62.2588 76.8975C62.2783 76.8551 62.3337 76.8128 62.4248 76.7705C62.4736 76.7477 62.5257 76.7233 62.5811 76.6973C62.6396 76.668 62.6982 76.6338 62.7568 76.5947C62.8773 76.5101 62.9652 76.4076 63.0205 76.2871L65.7891 70.0322H66.0918ZM67.0146 74.2168L65.7402 71.2432C65.5319 71.7412 65.3236 72.2376 65.1152 72.7324C64.9102 73.2272 64.7051 73.722 64.5 74.2168H67.0146ZM79.9574 73.1377C79.9639 73.2451 79.9672 73.3493 79.9672 73.4502C79.9672 73.9906 79.8679 74.4756 79.6693 74.9053C79.4285 75.4196 79.0932 75.8428 78.6635 76.1748C77.9343 76.7347 77.0456 77.0212 75.9975 77.0342H75.6068C75.418 77.0342 75.2406 77.0326 75.0746 77.0293H74.5033C74.2331 77.0293 74.0281 77.0244 73.8881 77.0146H73.7709C73.6407 77.0146 73.4714 77.0244 73.2631 77.0439C73.1947 77.0439 73.1605 77.0081 73.1605 76.9365C73.1605 76.8551 73.2419 76.7852 73.4047 76.7266C73.5674 76.668 73.6488 76.5329 73.6488 76.3213V70.8379C73.6488 70.6296 73.5674 70.4977 73.4047 70.4424C73.2419 70.3838 73.1605 70.3122 73.1605 70.2275C73.1605 70.1592 73.1947 70.125 73.2631 70.125C73.3998 70.1283 73.5382 70.1299 73.6781 70.1299C73.8148 70.1299 73.9548 70.1283 74.098 70.125C74.378 70.1152 74.6514 70.1071 74.9184 70.1006H75.2064C75.7045 70.1006 76.2058 70.1136 76.7104 70.1396C77.3061 70.1755 77.8432 70.2959 78.3217 70.501C78.7709 70.6995 79.1436 71.0055 79.4398 71.4189C79.7361 71.8291 79.9086 72.402 79.9574 73.1377ZM74.5814 70.5889V76.5117C74.9851 76.5866 75.3725 76.624 75.7436 76.624C75.8868 76.624 76.0268 76.6191 76.1635 76.6094C76.6615 76.5703 77.1026 76.4499 77.4867 76.248C77.9457 76.0072 78.307 75.6393 78.5707 75.1445C78.8116 74.6888 78.932 74.1094 78.932 73.4062V73.2451C78.919 72.7178 78.8246 72.2767 78.6488 71.9219C78.4763 71.5638 78.2468 71.2773 77.9604 71.0625C77.5404 70.75 77.031 70.5661 76.432 70.5107C76.227 70.4945 76.0202 70.4863 75.8119 70.4863C75.4115 70.4863 75.0014 70.5205 74.5814 70.5889ZM85.1414 70.833L87.2117 76.1357L89.4285 71.5947C89.4708 71.5101 89.492 71.4336 89.492 71.3652C89.492 71.3066 89.4773 71.2546 89.448 71.209C89.3862 71.1113 89.2902 70.9844 89.16 70.8281L88.9207 70.5498L89.5262 70.0908C89.5522 70.068 89.5799 70.0566 89.6092 70.0566C89.6417 70.0566 89.6775 70.0729 89.7166 70.1055L90.117 70.5156C90.2016 70.6035 90.2439 70.7109 90.2439 70.8379C90.2439 70.9095 90.2309 70.986 90.2049 71.0674C90.1268 71.2985 90.0112 71.5703 89.8582 71.8828L87.4656 76.8438C87.4428 76.8991 87.4201 76.9414 87.3973 76.9707C87.3712 76.9902 87.3452 77 87.3191 77H86.5818C86.5493 77 86.5232 76.987 86.5037 76.9609C86.4939 76.9512 86.476 76.9137 86.45 76.8486C86.4272 76.7835 86.4109 76.7363 86.4012 76.707L84.5555 71.5801C84.4253 71.235 84.3309 70.9941 84.2723 70.8574C84.2137 70.737 84.1176 70.6279 83.9842 70.5303C83.9061 70.4814 83.8296 70.4424 83.7547 70.4131C83.6831 70.3805 83.6245 70.348 83.5789 70.3154C83.5496 70.2992 83.5301 70.2764 83.5203 70.2471C83.5105 70.234 83.5057 70.2194 83.5057 70.2031C83.5057 70.1934 83.5089 70.1836 83.5154 70.1738C83.5285 70.1543 83.548 70.1445 83.574 70.1445H85.2293C85.2586 70.1445 85.2879 70.1543 85.3172 70.1738C85.3465 70.1999 85.366 70.2243 85.3758 70.2471C85.379 70.2568 85.3807 70.265 85.3807 70.2715C85.3807 70.304 85.3628 70.3366 85.327 70.3691C85.2944 70.3984 85.257 70.431 85.2146 70.4668C85.1756 70.4993 85.1463 70.54 85.1268 70.5889C85.1137 70.6214 85.1072 70.6556 85.1072 70.6914C85.1072 70.737 85.1186 70.7842 85.1414 70.833ZM97.2492 70.3691C96.2499 70.3724 95.5516 70.6882 95.1545 71.3164C94.7574 71.9414 94.5588 72.6934 94.5588 73.5723C94.5588 74.4544 94.8078 75.208 95.3059 75.833C95.8039 76.4548 96.4517 76.7689 97.2492 76.7754H97.2736C98.0516 76.7754 98.6913 76.4434 99.1926 75.7793C99.6874 75.1217 99.9348 74.3958 99.9348 73.6016V73.5723C99.9283 72.7617 99.7167 72.026 99.3 71.3652C98.8833 70.7012 98.1997 70.3691 97.2492 70.3691ZM97.2492 69.9395H97.298C98.3495 69.9395 99.2365 70.2617 99.9592 70.9062C100.633 71.5085 100.97 72.3027 100.97 73.2891C100.97 73.377 100.967 73.4665 100.96 73.5576C100.892 74.6774 100.503 75.5465 99.7932 76.165C99.0868 76.7803 98.2355 77.1156 97.2395 77.1709C97.1646 77.1742 97.0897 77.1758 97.0148 77.1758C96.1099 77.1758 95.3091 76.8633 94.6125 76.2383C93.8964 75.6003 93.5383 74.7653 93.5383 73.7334C93.5383 73.6748 93.5399 73.6162 93.5432 73.5576C93.5822 72.4476 93.9403 71.5703 94.6174 70.9258C95.2977 70.2812 96.175 69.9525 97.2492 69.9395ZM108.156 77.1807C107.157 77.1807 106.271 76.8617 105.5 76.2236C104.728 75.5856 104.342 74.7035 104.342 73.5771C104.342 72.4801 104.717 71.6012 105.465 70.9404C106.217 70.2764 107.114 69.9443 108.156 69.9443C108.53 69.9443 108.927 69.9867 109.347 70.0713C109.77 70.1527 110.172 70.3154 110.553 70.5596L110.436 71.585C110.423 71.6436 110.391 71.6729 110.338 71.6729H110.324C110.285 71.6696 110.242 71.624 110.197 71.5361C109.985 71.0837 109.722 70.7826 109.406 70.6328C109.093 70.4831 108.677 70.4082 108.156 70.4082C107.43 70.4082 106.784 70.6605 106.217 71.165C105.651 71.6696 105.368 72.4736 105.368 73.5771C105.368 74.2868 105.631 74.972 106.159 75.6328C106.689 76.2936 107.355 76.6436 108.156 76.6826C108.234 76.6859 108.309 76.6875 108.38 76.6875C108.752 76.6875 109.064 76.6387 109.318 76.541C109.621 76.4238 109.875 76.1862 110.08 75.8281V74.9102C110.073 74.8092 110.021 74.7311 109.923 74.6758C109.836 74.6302 109.707 74.5732 109.538 74.5049C109.368 74.4333 109.284 74.3633 109.284 74.2949C109.284 74.2266 109.318 74.1924 109.386 74.1924H111.344C111.413 74.1924 111.447 74.2266 111.447 74.2949C111.447 74.3796 111.365 74.4512 111.203 74.5098C111.04 74.5684 110.959 74.7018 110.959 74.9102V76.8096C110.457 76.8324 109.974 76.9023 109.508 77.0195C109.274 77.0814 109.043 77.1237 108.815 77.1465C108.587 77.1693 108.367 77.1807 108.156 77.1807ZM118.594 70.0322C118.757 70.4163 118.957 70.8867 119.194 71.4434C119.435 72 119.683 72.5729 119.937 73.1621C120.194 73.7513 120.441 74.3242 120.679 74.8809C120.92 75.4375 121.123 75.9062 121.289 76.2871C121.338 76.4076 121.434 76.5166 121.577 76.6143C121.652 76.6631 121.725 76.7038 121.797 76.7363C121.872 76.7689 121.932 76.7998 121.978 76.8291C122.01 76.8519 122.031 76.8747 122.041 76.8975C122.048 76.9105 122.051 76.9235 122.051 76.9365C122.051 76.9463 122.048 76.9577 122.041 76.9707C122.031 76.9902 122.012 77 121.982 77H120.332C120.303 77 120.273 76.9902 120.244 76.9707C120.212 76.9479 120.192 76.9235 120.186 76.8975C120.179 76.8877 120.176 76.8779 120.176 76.8682C120.176 76.8389 120.195 76.8079 120.234 76.7754C120.264 76.7461 120.299 76.7152 120.342 76.6826C120.384 76.6501 120.415 76.6061 120.435 76.5508C120.444 76.5247 120.449 76.4954 120.449 76.4629C120.449 76.4076 120.436 76.3473 120.41 76.2822L119.688 74.6123H116.841C116.724 74.8923 116.606 75.1722 116.489 75.4521C116.375 75.7288 116.26 76.0055 116.143 76.2822C116.113 76.3473 116.097 76.4059 116.094 76.458C116.09 76.4808 116.089 76.5036 116.089 76.5264C116.089 76.5589 116.094 76.5898 116.104 76.6191C116.113 76.6615 116.13 76.6973 116.152 76.7266C116.175 76.7526 116.191 76.7803 116.201 76.8096C116.204 76.8356 116.206 76.8535 116.206 76.8633C116.206 76.873 116.203 76.8844 116.196 76.8975C116.174 76.9658 116.138 77 116.089 77H114.829C114.797 77 114.774 76.9902 114.761 76.9707C114.761 76.9674 114.757 76.9593 114.751 76.9463C114.751 76.9398 114.754 76.9235 114.761 76.8975C114.78 76.8551 114.836 76.8128 114.927 76.7705C114.976 76.7477 115.028 76.7233 115.083 76.6973C115.142 76.668 115.2 76.6338 115.259 76.5947C115.379 76.5101 115.467 76.4076 115.522 76.2871L118.291 70.0322H118.594ZM119.517 74.2168L118.242 71.2432C118.034 71.7412 117.826 72.2376 117.617 72.7324C117.412 73.2272 117.207 73.722 117.002 74.2168H119.517ZM132.459 73.1377C132.466 73.2451 132.469 73.3493 132.469 73.4502C132.469 73.9906 132.37 74.4756 132.171 74.9053C131.93 75.4196 131.595 75.8428 131.165 76.1748C130.436 76.7347 129.548 77.0212 128.499 77.0342H128.109C127.92 77.0342 127.743 77.0326 127.577 77.0293H127.005C126.735 77.0293 126.53 77.0244 126.39 77.0146H126.273C126.143 77.0146 125.973 77.0244 125.765 77.0439C125.697 77.0439 125.662 77.0081 125.662 76.9365C125.662 76.8551 125.744 76.7852 125.907 76.7266C126.069 76.668 126.151 76.5329 126.151 76.3213V70.8379C126.151 70.6296 126.069 70.4977 125.907 70.4424C125.744 70.3838 125.662 70.3122 125.662 70.2275C125.662 70.1592 125.697 70.125 125.765 70.125C125.902 70.1283 126.04 70.1299 126.18 70.1299C126.317 70.1299 126.457 70.1283 126.6 70.125C126.88 70.1152 127.153 70.1071 127.42 70.1006H127.708C128.206 70.1006 128.708 70.1136 129.212 70.1396C129.808 70.1755 130.345 70.2959 130.824 70.501C131.273 70.6995 131.646 71.0055 131.942 71.4189C132.238 71.8291 132.411 72.402 132.459 73.1377ZM127.083 70.5889V76.5117C127.487 76.5866 127.874 76.624 128.246 76.624C128.389 76.624 128.529 76.6191 128.665 76.6094C129.163 76.5703 129.605 76.4499 129.989 76.248C130.448 76.0072 130.809 75.6393 131.073 75.1445C131.314 74.6888 131.434 74.1094 131.434 73.4062V73.2451C131.421 72.7178 131.327 72.2767 131.151 71.9219C130.978 71.5638 130.749 71.2773 130.462 71.0625C130.042 70.75 129.533 70.5661 128.934 70.5107C128.729 70.4945 128.522 70.4863 128.314 70.4863C127.913 70.4863 127.503 70.5205 127.083 70.5889ZM139.821 70.0322C139.984 70.4163 140.184 70.8867 140.422 71.4434C140.663 72 140.91 72.5729 141.164 73.1621C141.421 73.7513 141.668 74.3242 141.906 74.8809C142.147 75.4375 142.35 75.9062 142.516 76.2871C142.565 76.4076 142.661 76.5166 142.804 76.6143C142.879 76.6631 142.953 76.7038 143.024 76.7363C143.099 76.7689 143.159 76.7998 143.205 76.8291C143.237 76.8519 143.259 76.8747 143.268 76.8975C143.275 76.9105 143.278 76.9235 143.278 76.9365C143.278 76.9463 143.275 76.9577 143.268 76.9707C143.259 76.9902 143.239 77 143.21 77H141.559C141.53 77 141.501 76.9902 141.471 76.9707C141.439 76.9479 141.419 76.9235 141.413 76.8975C141.406 76.8877 141.403 76.8779 141.403 76.8682C141.403 76.8389 141.423 76.8079 141.462 76.7754C141.491 76.7461 141.527 76.7152 141.569 76.6826C141.611 76.6501 141.642 76.6061 141.662 76.5508C141.672 76.5247 141.677 76.4954 141.677 76.4629C141.677 76.4076 141.664 76.3473 141.637 76.2822L140.915 74.6123H138.068C137.951 74.8923 137.834 75.1722 137.717 75.4521C137.603 75.7288 137.487 76.0055 137.37 76.2822C137.341 76.3473 137.324 76.4059 137.321 76.458C137.318 76.4808 137.316 76.5036 137.316 76.5264C137.316 76.5589 137.321 76.5898 137.331 76.6191C137.341 76.6615 137.357 76.6973 137.38 76.7266C137.402 76.7526 137.419 76.7803 137.429 76.8096C137.432 76.8356 137.433 76.8535 137.433 76.8633C137.433 76.873 137.43 76.8844 137.424 76.8975C137.401 76.9658 137.365 77 137.316 77H136.056C136.024 77 136.001 76.9902 135.988 76.9707C135.988 76.9674 135.985 76.9593 135.978 76.9463C135.978 76.9398 135.982 76.9235 135.988 76.8975C136.008 76.8551 136.063 76.8128 136.154 76.7705C136.203 76.7477 136.255 76.7233 136.31 76.6973C136.369 76.668 136.428 76.6338 136.486 76.5947C136.607 76.5101 136.694 76.4076 136.75 76.2871L139.518 70.0322H139.821ZM140.744 74.2168L139.47 71.2432C139.261 71.7412 139.053 72.2376 138.845 72.7324C138.639 73.2272 138.434 73.722 138.229 74.2168H140.744ZM148.975 76.7314C149.238 76.7152 149.491 76.6468 149.732 76.5264C149.976 76.4027 150.171 76.2236 150.318 75.9893C150.471 75.7451 150.547 75.4505 150.547 75.1055V75.0518C150.537 74.6839 150.397 74.4023 150.127 74.207C150.003 74.1159 149.854 74.0443 149.678 73.9922C149.333 73.8978 148.98 73.8311 148.618 73.792C148.26 73.7529 147.92 73.6553 147.598 73.499C147.308 73.3623 147.092 73.1621 146.948 72.8984C146.805 72.6315 146.734 72.3418 146.734 72.0293C146.734 71.4173 146.947 70.9176 147.373 70.5303C147.809 70.1266 148.36 69.9248 149.024 69.9248H149.17C149.896 69.9574 150.513 70.138 151.021 70.4668L150.904 71.4922C150.897 71.5508 150.866 71.5801 150.811 71.5801H150.791C150.749 71.5768 150.708 71.5312 150.669 71.4434C150.529 71.1504 150.326 70.9014 150.059 70.6963C149.792 70.488 149.504 70.3773 149.195 70.3643H149.116C148.817 70.3643 148.55 70.418 148.316 70.5254C148.163 70.6035 148.041 70.6898 147.949 70.7842C147.865 70.8753 147.79 70.9876 147.725 71.1211C147.673 71.2285 147.632 71.3538 147.603 71.4971C147.58 71.6012 147.569 71.7005 147.569 71.7949C147.569 71.9219 147.588 72.0391 147.627 72.1465C147.696 72.3646 147.813 72.5322 147.979 72.6494C148.106 72.7438 148.244 72.8089 148.394 72.8447C148.475 72.8675 148.574 72.8903 148.692 72.9131C148.809 72.9326 148.931 72.9521 149.058 72.9717C149.243 73.001 149.439 73.0319 149.644 73.0645C149.852 73.0938 150.054 73.1377 150.249 73.1963C150.575 73.3005 150.817 73.4388 150.977 73.6113C151.094 73.7448 151.19 73.8913 151.265 74.0508C151.353 74.2656 151.397 74.5016 151.397 74.7588C151.397 75.4554 151.113 76.0348 150.547 76.4971C150.254 76.738 149.93 76.9154 149.575 77.0293C149.289 77.1204 148.983 77.1725 148.657 77.1855C148.586 77.1888 148.516 77.1904 148.447 77.1904C147.995 77.1904 147.562 77.127 147.149 77L146.685 75.7109C146.678 75.6947 146.675 75.6784 146.675 75.6621C146.675 75.6296 146.686 75.597 146.709 75.5645C146.735 75.5221 146.769 75.501 146.812 75.501C146.851 75.5107 146.891 75.5579 146.934 75.6426C147.142 76.0951 147.404 76.3978 147.72 76.5508C147.98 76.6777 148.311 76.7412 148.711 76.7412C148.796 76.7412 148.884 76.738 148.975 76.7314Z" fill="black"/>
<line y1="-0.5" x2="117.501" y2="-0.5" transform="matrix(0.999964 0.00851056 -0.00873159 0.999962 60.7744 66)" stroke="#814A97" stroke-opacity="0.66"/>
<path d="M8 4C8 6.20914 6.20914 8 4 8C1.79086 8 0 6.20914 0 4C0 1.79086 1.79086 0 4 0C6.20914 0 8 1.79086 8 4Z" fill="#A981B9" fill-opacity="0.8"/>
<path d="M54 4C54 6.20914 52.2091 8 50 8C47.7909 8 46 6.20914 46 4C46 1.79086 47.7909 0 50 0C52.2091 0 54 1.79086 54 4Z" fill="#A981B9" fill-opacity="0.8"/>
<path d="M10 4C10 6.20914 8.20914 8 6 8C3.79086 8 2 6.20914 2 4C2 1.79086 3.79086 0 6 0C8.20914 0 10 1.79086 10 4Z" fill="#A981B9" fill-opacity="0.2"/>
<path d="M52 4C52 6.20914 50.2091 8 48 8C45.7909 8 44 6.20914 44 4C44 1.79086 45.7909 0 48 0C50.2091 0 52 1.79086 52 4Z" fill="#A981B9" fill-opacity="0.2"/>
<path d="M4.00001 67L4.00002 39.42V12L27.1075 42.4112L49 12V25.4607L47.9818 67L45.6928 38.4229V24.3617L28.6349 43.9069C27.1075 45.901 26.5984 44.904 25.5801 43.9069L8.40318 24.4378L4.00001 67Z" fill="#5A5A5A"/>
<path d="M6 62L6.00001 35.4229V9L27.5 43.001L49 9V21.9712L48.027 62L45.8398 34.462V20.9122L27.5 43.001H26.4762L10.2075 20.9855L6 62Z" fill="#5A5A5A" fill-opacity="0.2"/>
<path d="M8 4C8 6.20914 6.20914 8 4 8C1.79086 8 0 6.20914 0 4C0 1.79086 1.79086 0 4 0C6.20914 0 8 1.79086 8 4Z" fill="#A981B9" fill-opacity="0.8"/>
<path d="M54 4C54 6.20914 52.2091 8 50 8C47.7909 8 46 6.20914 46 4C46 1.79086 47.7909 0 50 0C52.2091 0 54 1.79086 54 4Z" fill="#A981B9" fill-opacity="0.8"/>
<path d="M10 4C10 6.20914 8.20914 8 6 8C3.79086 8 2 6.20914 2 4C2 1.79086 3.79086 0 6 0C8.20914 0 10 1.79086 10 4Z" fill="#A981B9" fill-opacity="0.2"/>
<path d="M52 4C52 6.20914 50.2091 8 48 8C45.7909 8 44 6.20914 44 4C44 1.79086 45.7909 0 48 0C50.2091 0 52 1.79086 52 4Z" fill="#A981B9" fill-opacity="0.2"/>
</svg>
