<svg width="526" height="101" viewBox="0 0 526 101" fill="none" xmlns="http://www.w3.org/2000/svg">
<path d="M125.616 75H127.156V86H125.616L125.561 83.954C125.202 84.6507 124.7 85.2153 124.054 85.648C123.409 86.0733 122.639 86.286 121.744 86.286C120.938 86.286 120.182 86.1357 119.478 85.835C118.774 85.527 118.155 85.1053 117.619 84.57C117.084 84.0347 116.666 83.415 116.365 82.711C116.065 82.007 115.914 81.2517 115.914 80.445C115.914 79.653 116.061 78.9087 116.354 78.212C116.655 77.5153 117.066 76.903 117.586 76.375C118.114 75.847 118.723 75.4363 119.412 75.143C120.109 74.8423 120.853 74.692 121.645 74.692C122.562 74.692 123.361 74.912 124.043 75.352C124.725 75.7847 125.268 76.353 125.671 77.057L125.616 75ZM121.711 84.79C122.496 84.79 123.171 84.5993 123.735 84.218C124.3 83.8293 124.733 83.3087 125.033 82.656C125.341 82.0033 125.495 81.2847 125.495 80.5C125.495 79.6933 125.341 78.9673 125.033 78.322C124.725 77.6693 124.289 77.1523 123.724 76.771C123.16 76.3897 122.489 76.199 121.711 76.199C120.934 76.199 120.223 76.3933 119.577 76.782C118.939 77.1633 118.43 77.6803 118.048 78.333C117.674 78.9857 117.487 79.708 117.487 80.5C117.487 81.2993 117.682 82.0253 118.07 82.678C118.459 83.3233 118.972 83.8367 119.61 84.218C120.256 84.5993 120.956 84.79 121.711 84.79ZM145.346 69.5H146.886V86H145.346V83.943C144.965 84.647 144.44 85.2153 143.773 85.648C143.113 86.0733 142.328 86.286 141.419 86.286C140.62 86.286 139.872 86.1357 139.175 85.835C138.478 85.5343 137.862 85.12 137.327 84.592C136.799 84.0567 136.385 83.4407 136.084 82.744C135.783 82.0473 135.633 81.2993 135.633 80.5C135.633 79.7007 135.783 78.9527 136.084 78.256C136.385 77.552 136.799 76.936 137.327 76.408C137.862 75.8727 138.478 75.4547 139.175 75.154C139.872 74.8533 140.62 74.703 141.419 74.703C142.328 74.703 143.113 74.9193 143.773 75.352C144.44 75.7773 144.965 76.3383 145.346 77.035V69.5ZM141.43 84.79C142.215 84.79 142.889 84.5993 143.454 84.218C144.019 83.8293 144.451 83.3087 144.752 82.656C145.06 82.0033 145.214 81.2847 145.214 80.5C145.214 79.6933 145.06 78.9673 144.752 78.322C144.444 77.6693 144.008 77.1523 143.443 76.771C142.878 76.3897 142.207 76.199 141.43 76.199C140.653 76.199 139.945 76.3933 139.307 76.782C138.669 77.1633 138.159 77.6803 137.778 78.333C137.397 78.9857 137.206 79.708 137.206 80.5C137.206 81.2993 137.4 82.0253 137.789 82.678C138.178 83.3233 138.691 83.8367 139.329 84.218C139.974 84.5993 140.675 84.79 141.43 84.79ZM161.883 86H159.925L155.91 74.967H157.549L160.904 84.196L164.259 74.967H165.898L161.883 86ZM179.281 86.286C178.269 86.286 177.345 86.0257 176.509 85.505C175.68 84.9843 175.016 84.2877 174.518 83.415C174.026 82.535 173.781 81.5633 173.781 80.5C173.781 79.6933 173.924 78.9417 174.21 78.245C174.496 77.541 174.888 76.925 175.387 76.397C175.893 75.8617 176.479 75.4437 177.147 75.143C177.814 74.8423 178.525 74.692 179.281 74.692C180.293 74.692 181.213 74.9523 182.042 75.473C182.878 75.9937 183.541 76.694 184.033 77.574C184.531 78.454 184.781 79.4293 184.781 80.5C184.781 81.2993 184.638 82.0473 184.352 82.744C184.066 83.4407 183.67 84.0567 183.164 84.592C182.665 85.12 182.082 85.5343 181.415 85.835C180.755 86.1357 180.043 86.286 179.281 86.286ZM179.281 84.746C180.029 84.746 180.7 84.5517 181.294 84.163C181.895 83.767 182.368 83.2463 182.713 82.601C183.065 81.9557 183.241 81.2553 183.241 80.5C183.241 79.73 183.065 79.0223 182.713 78.377C182.361 77.7243 181.884 77.2037 181.283 76.815C180.689 76.4263 180.021 76.232 179.281 76.232C178.533 76.232 177.858 76.43 177.257 76.826C176.663 77.2147 176.19 77.7317 175.838 78.377C175.493 79.0223 175.321 79.73 175.321 80.5C175.321 81.292 175.5 82.0107 175.86 82.656C176.219 83.294 176.699 83.8037 177.301 84.185C177.902 84.559 178.562 84.746 179.281 84.746ZM202.431 75H203.971V86.407C203.971 87.111 203.817 87.771 203.509 88.387C203.209 89.003 202.798 89.542 202.277 90.004C201.764 90.4733 201.177 90.84 200.517 91.104C199.857 91.368 199.172 91.5 198.46 91.5C197.698 91.5 196.961 91.324 196.249 90.972C195.538 90.6273 194.918 90.1653 194.39 89.586C193.87 89.0067 193.499 88.365 193.279 87.661L194.698 87.012C194.838 87.562 195.098 88.057 195.479 88.497C195.868 88.9443 196.323 89.2963 196.843 89.553C197.371 89.817 197.91 89.949 198.46 89.949C198.966 89.949 199.454 89.8537 199.923 89.663C200.4 89.4797 200.825 89.2267 201.199 88.904C201.581 88.5813 201.881 88.2037 202.101 87.771C202.321 87.3457 202.431 86.891 202.431 86.407V83.976C202.05 84.6653 201.533 85.2227 200.88 85.648C200.235 86.0733 199.483 86.286 198.625 86.286C197.855 86.286 197.129 86.1357 196.447 85.835C195.773 85.5343 195.179 85.12 194.665 84.592C194.152 84.0567 193.749 83.4407 193.455 82.744C193.169 82.0473 193.026 81.2993 193.026 80.5C193.026 79.7007 193.169 78.9527 193.455 78.256C193.749 77.552 194.152 76.936 194.665 76.408C195.179 75.8727 195.773 75.4547 196.447 75.154C197.129 74.8533 197.855 74.703 198.625 74.703C199.483 74.703 200.235 74.9157 200.88 75.341C201.533 75.759 202.05 76.3163 202.431 77.013V75ZM198.636 84.79C199.399 84.79 200.055 84.592 200.605 84.196C201.163 83.8 201.592 83.2757 201.892 82.623C202.193 81.9703 202.343 81.2627 202.343 80.5C202.343 79.7153 202.189 79.0003 201.881 78.355C201.581 77.7023 201.152 77.1817 200.594 76.793C200.037 76.397 199.384 76.199 198.636 76.199C197.888 76.199 197.206 76.3933 196.59 76.782C195.982 77.1633 195.498 77.6803 195.138 78.333C194.779 78.9857 194.599 79.708 194.599 80.5C194.599 81.292 194.783 82.0143 195.149 82.667C195.516 83.3123 196.004 83.8293 196.612 84.218C197.228 84.5993 197.903 84.79 198.636 84.79ZM222.704 75H224.244V86H222.704L222.649 83.954C222.29 84.6507 221.788 85.2153 221.142 85.648C220.497 86.0733 219.727 86.286 218.832 86.286C218.026 86.286 217.27 86.1357 216.566 85.835C215.862 85.527 215.243 85.1053 214.707 84.57C214.172 84.0347 213.754 83.415 213.453 82.711C213.153 82.007 213.002 81.2517 213.002 80.445C213.002 79.653 213.149 78.9087 213.442 78.212C213.743 77.5153 214.154 76.903 214.674 76.375C215.202 75.847 215.811 75.4363 216.5 75.143C217.197 74.8423 217.941 74.692 218.733 74.692C219.65 74.692 220.449 74.912 221.131 75.352C221.813 75.7847 222.356 76.353 222.759 77.057L222.704 75ZM218.799 84.79C219.584 84.79 220.259 84.5993 220.823 84.218C221.388 83.8293 221.821 83.3087 222.121 82.656C222.429 82.0033 222.583 81.2847 222.583 80.5C222.583 79.6933 222.429 78.9673 222.121 78.322C221.813 77.6693 221.377 77.1523 220.812 76.771C220.248 76.3897 219.577 76.199 218.799 76.199C218.022 76.199 217.311 76.3933 216.665 76.782C216.027 77.1633 215.518 77.6803 215.136 78.333C214.762 78.9857 214.575 79.708 214.575 80.5C214.575 81.2993 214.77 82.0253 215.158 82.678C215.547 83.3233 216.06 83.8367 216.698 84.218C217.344 84.5993 218.044 84.79 218.799 84.79ZM242.434 69.5H243.974V86H242.434V83.943C242.052 84.647 241.528 85.2153 240.861 85.648C240.201 86.0733 239.416 86.286 238.507 86.286C237.707 86.286 236.959 86.1357 236.263 85.835C235.566 85.5343 234.95 85.12 234.415 84.592C233.887 84.0567 233.472 83.4407 233.172 82.744C232.871 82.0473 232.721 81.2993 232.721 80.5C232.721 79.7007 232.871 78.9527 233.172 78.256C233.472 77.552 233.887 76.936 234.415 76.408C234.95 75.8727 235.566 75.4547 236.263 75.154C236.959 74.8533 237.707 74.703 238.507 74.703C239.416 74.703 240.201 74.9193 240.861 75.352C241.528 75.7773 242.052 76.3383 242.434 77.035V69.5ZM238.518 84.79C239.302 84.79 239.977 84.5993 240.542 84.218C241.106 83.8293 241.539 83.3087 241.84 82.656C242.148 82.0033 242.302 81.2847 242.302 80.5C242.302 79.6933 242.148 78.9673 241.84 78.322C241.532 77.6693 241.095 77.1523 240.531 76.771C239.966 76.3897 239.295 76.199 238.518 76.199C237.74 76.199 237.033 76.3933 236.395 76.782C235.757 77.1633 235.247 77.6803 234.866 78.333C234.484 78.9857 234.294 79.708 234.294 80.5C234.294 81.2993 234.488 82.0253 234.877 82.678C235.265 83.3233 235.779 83.8367 236.417 84.218C237.062 84.5993 237.762 84.79 238.518 84.79ZM262.721 75H264.261V86H262.721L262.666 83.954C262.307 84.6507 261.805 85.2153 261.159 85.648C260.514 86.0733 259.744 86.286 258.849 86.286C258.043 86.286 257.287 86.1357 256.583 85.835C255.879 85.527 255.26 85.1053 254.724 84.57C254.189 84.0347 253.771 83.415 253.47 82.711C253.17 82.007 253.019 81.2517 253.019 80.445C253.019 79.653 253.166 78.9087 253.459 78.212C253.76 77.5153 254.171 76.903 254.691 76.375C255.219 75.847 255.828 75.4363 256.517 75.143C257.214 74.8423 257.958 74.692 258.75 74.692C259.667 74.692 260.466 74.912 261.148 75.352C261.83 75.7847 262.373 76.353 262.776 77.057L262.721 75ZM258.816 84.79C259.601 84.79 260.276 84.5993 260.84 84.218C261.405 83.8293 261.838 83.3087 262.138 82.656C262.446 82.0033 262.6 81.2847 262.6 80.5C262.6 79.6933 262.446 78.9673 262.138 78.322C261.83 77.6693 261.394 77.1523 260.829 76.771C260.265 76.3897 259.594 76.199 258.816 76.199C258.039 76.199 257.328 76.3933 256.682 76.782C256.044 77.1633 255.535 77.6803 255.153 78.333C254.779 78.9857 254.592 79.708 254.592 80.5C254.592 81.2993 254.787 82.0253 255.175 82.678C255.564 83.3233 256.077 83.8367 256.715 84.218C257.361 84.5993 258.061 84.79 258.816 84.79ZM277.011 86.209C276.41 86.1943 275.823 86.0843 275.251 85.879C274.679 85.6737 274.181 85.395 273.755 85.043C273.33 84.691 273.026 84.2913 272.842 83.844L274.173 83.272C274.291 83.558 274.507 83.822 274.822 84.064C275.145 84.2987 275.512 84.4893 275.922 84.636C276.333 84.7753 276.74 84.845 277.143 84.845C277.591 84.845 278.009 84.7717 278.397 84.625C278.786 84.4783 279.101 84.2693 279.343 83.998C279.593 83.7193 279.717 83.393 279.717 83.019C279.717 82.6157 279.585 82.3003 279.321 82.073C279.057 81.8383 278.724 81.655 278.32 81.523C277.917 81.3837 277.503 81.2517 277.077 81.127C276.3 80.9143 275.614 80.6797 275.02 80.423C274.426 80.1663 273.961 79.84 273.623 79.444C273.293 79.0407 273.128 78.5237 273.128 77.893C273.128 77.2257 273.315 76.65 273.689 76.166C274.071 75.6747 274.566 75.297 275.174 75.033C275.79 74.7617 276.447 74.626 277.143 74.626C278.038 74.626 278.852 74.8203 279.585 75.209C280.326 75.5977 280.861 76.1147 281.191 76.76L279.948 77.497C279.816 77.1963 279.607 76.936 279.321 76.716C279.035 76.496 278.709 76.3237 278.342 76.199C277.983 76.0743 277.616 76.0083 277.242 76.001C276.773 75.9937 276.337 76.0633 275.933 76.21C275.53 76.3493 275.204 76.5583 274.954 76.837C274.712 77.1157 274.591 77.4567 274.591 77.86C274.591 78.2633 274.712 78.5713 274.954 78.784C275.196 78.9893 275.523 79.158 275.933 79.29C276.351 79.4147 276.821 79.5613 277.341 79.73C278.009 79.9427 278.636 80.1847 279.222 80.456C279.809 80.7273 280.282 81.0647 280.641 81.468C281.001 81.8713 281.177 82.381 281.169 82.997C281.169 83.657 280.971 84.2327 280.575 84.724C280.179 85.2153 279.666 85.593 279.035 85.857C278.405 86.1137 277.73 86.231 277.011 86.209Z" fill="#828282"/>
<path d="M130.962 52.5742C128.871 52.5742 126.905 52.162 125.065 51.3374C123.224 50.4982 121.605 49.3497 120.206 47.8921C118.822 46.4197 117.732 44.7117 116.937 42.7682C116.157 40.8246 115.767 38.7486 115.767 36.54C115.767 34.3314 116.157 32.2554 116.937 30.3118C117.732 28.3683 118.822 26.6677 120.206 25.21C121.605 23.7377 123.224 22.5892 125.065 21.7647C126.905 20.9254 128.871 20.5058 130.962 20.5058C133.465 20.5058 135.769 21.0874 137.875 22.2506C139.98 23.4137 141.725 24.9597 143.109 26.8886L140.37 28.3683C139.281 26.9106 137.897 25.7548 136.218 24.9008C134.554 24.0321 132.802 23.5978 130.962 23.5978C129.269 23.5978 127.686 23.9438 126.213 24.6358C124.756 25.3131 123.475 26.2481 122.37 27.4407C121.266 28.6333 120.405 30.01 119.786 31.5707C119.168 33.1314 118.859 34.7879 118.859 36.54C118.859 38.3216 119.168 39.9927 119.786 41.5535C120.42 43.1142 121.288 44.4909 122.393 45.6835C123.512 46.8761 124.8 47.8111 126.258 48.4884C127.73 49.1509 129.298 49.4822 130.962 49.4822C132.876 49.4822 134.65 49.0479 136.284 48.1792C137.934 47.2957 139.295 46.1473 140.37 44.7338L143.109 46.2135C141.725 48.1424 139.98 49.6884 137.875 50.8515C135.769 52 133.465 52.5742 130.962 52.5742ZM147.8 43.5412V29.9143H150.892V42.9228C150.892 44.1301 151.186 45.2271 151.775 46.2135C152.364 47.2 153.152 47.9878 154.138 48.5767C155.14 49.1657 156.236 49.4601 157.429 49.4601C158.636 49.4601 159.726 49.1657 160.698 48.5767C161.684 47.9878 162.472 47.2 163.061 46.2135C163.65 45.2271 163.944 44.1301 163.944 42.9228V29.9143H167.036L167.058 52H163.966L163.944 48.908C163.164 50.027 162.148 50.9178 160.897 51.5804C159.66 52.2429 158.305 52.5742 156.833 52.5742C155.169 52.5742 153.652 52.1693 152.283 51.3595C150.914 50.5497 149.824 49.4601 149.014 48.0908C148.205 46.7215 147.8 45.205 147.8 43.5412ZM175.224 63.0429H172.132V29.9143H175.224V34.0443C175.99 32.6456 177.035 31.5118 178.36 30.6431C179.685 29.7744 181.261 29.3401 183.086 29.3401C184.691 29.3401 186.193 29.6419 187.592 30.2456C189.005 30.8493 190.242 31.6885 191.302 32.7634C192.362 33.8235 193.194 35.0529 193.798 36.4517C194.402 37.8504 194.704 39.3523 194.704 40.9571C194.704 42.562 194.402 44.0712 193.798 45.4847C193.194 46.8982 192.362 48.1424 191.302 49.2172C190.242 50.2773 189.005 51.1092 187.592 51.7129C186.193 52.3166 184.691 52.6184 183.086 52.6184C181.261 52.6184 179.685 52.184 178.36 51.3153C177.035 50.4466 175.99 49.3129 175.224 47.9141V63.0429ZM183.064 32.3437C181.518 32.3437 180.171 32.7339 179.023 33.5143C177.889 34.2799 177.013 35.3106 176.395 36.6063C175.776 37.902 175.467 39.3523 175.467 40.9571C175.467 42.5326 175.769 43.9755 176.372 45.2859C176.991 46.5964 177.867 47.6418 179.001 48.4221C180.149 49.2025 181.504 49.5927 183.064 49.5927C184.596 49.5927 186.002 49.2098 187.283 48.4442C188.578 47.6786 189.616 46.6479 190.397 45.3522C191.177 44.0418 191.567 42.5768 191.567 40.9571C191.567 39.3817 191.185 37.9461 190.419 36.6504C189.653 35.34 188.63 34.2946 187.349 33.5143C186.068 32.7339 184.64 32.3437 183.064 32.3437ZM198.45 43.5412V29.9143H201.542V42.9228C201.542 44.1301 201.837 45.2271 202.426 46.2135C203.015 47.2 203.802 47.9878 204.789 48.5767C205.79 49.1657 206.887 49.4601 208.08 49.4601C209.287 49.4601 210.376 49.1657 211.348 48.5767C212.335 47.9878 213.122 47.2 213.711 46.2135C214.3 45.2271 214.595 44.1301 214.595 42.9228V29.9143H217.687L217.709 52H214.617L214.595 48.908C213.814 50.027 212.799 50.9178 211.547 51.5804C210.31 52.2429 208.956 52.5742 207.483 52.5742C205.819 52.5742 204.303 52.1693 202.934 51.3595C201.564 50.5497 200.475 49.4601 199.665 48.0908C198.855 46.7215 198.45 45.205 198.45 43.5412ZM223.516 52V18.8714H226.608V52H223.516ZM233.032 29.9143H236.124V52H233.032V29.9143ZM234.6 26.0493C234.099 26.0493 233.672 25.8873 233.319 25.5634C232.98 25.2248 232.811 24.8051 232.811 24.3045C232.811 23.8039 232.98 23.3917 233.319 23.0677C233.672 22.7291 234.099 22.5598 234.6 22.5598C235.086 22.5598 235.498 22.7291 235.836 23.0677C236.19 23.3917 236.367 23.8039 236.367 24.3045C236.367 24.8051 236.197 25.2248 235.859 25.5634C235.52 25.8873 235.1 26.0493 234.6 26.0493ZM242.72 52V18.8714H245.812V52H242.72ZM252.236 52V18.8714H255.328V52H252.236ZM271.297 52.5742C269.265 52.5742 267.41 52.0515 265.731 51.0061C264.067 49.9608 262.735 48.562 261.734 46.8099C260.747 45.043 260.254 43.0921 260.254 40.9571C260.254 39.3375 260.541 37.8283 261.115 36.4296C261.69 35.0161 262.477 33.7793 263.478 32.7192C264.494 31.6443 265.672 30.8051 267.012 30.2014C268.352 29.5977 269.78 29.2959 271.297 29.2959C272.931 29.2959 274.433 29.6198 275.802 30.2677C277.186 30.9155 278.372 31.821 279.358 32.9842C280.359 34.1474 281.11 35.5093 281.611 37.0701C282.126 38.6308 282.34 40.3167 282.251 42.1277H263.523C263.699 43.5265 264.141 44.778 264.848 45.8823C265.569 46.9865 266.482 47.8626 267.586 48.5105C268.705 49.1436 269.942 49.4675 271.297 49.4822C272.769 49.4822 274.094 49.0994 275.272 48.3338C276.465 47.5681 277.422 46.5154 278.143 45.1755L281.28 45.9043C280.396 47.8626 279.064 49.4675 277.282 50.719C275.5 51.9558 273.505 52.5742 271.297 52.5742ZM263.434 39.632H279.137C279.034 38.2627 278.615 37.0112 277.878 35.8774C277.157 34.729 276.222 33.8161 275.073 33.1388C273.925 32.4468 272.666 32.1008 271.297 32.1008C269.927 32.1008 268.676 32.4394 267.542 33.1167C266.408 33.7793 265.481 34.6848 264.759 35.8333C264.038 36.967 263.596 38.2332 263.434 39.632ZM307.134 52.5742C305.382 52.5742 303.829 52.1546 302.474 51.3153C301.134 50.4614 300.082 49.3497 299.316 47.9804C298.565 46.6111 298.19 45.1461 298.19 43.5853C298.19 42.6283 298.285 41.7964 298.477 41.0897C298.683 40.3829 299.029 39.6835 299.515 38.9915C300.015 38.2995 300.707 37.4971 301.591 36.5842C302.474 35.6713 303.601 34.5302 304.97 33.1609C304.16 32.3364 303.49 31.6443 302.96 31.0848C302.445 30.5253 302.04 30.0247 301.745 29.583C301.451 29.1266 301.245 28.6701 301.127 28.2137C301.009 27.7425 300.95 27.1978 300.95 26.5794C300.95 25.4162 301.23 24.3634 301.79 23.4211C302.364 22.4788 303.122 21.7352 304.064 21.1904C305.007 20.6309 306.03 20.3512 307.134 20.3512C308.283 20.3512 309.328 20.6309 310.27 21.1904C311.213 21.7499 311.964 22.5009 312.523 23.4432C313.083 24.3708 313.362 25.4162 313.362 26.5794C313.362 27.2125 313.296 27.772 313.164 28.2579C313.046 28.729 312.832 29.1928 312.523 29.6493C312.229 30.1057 311.816 30.6137 311.286 31.1732C310.771 31.718 310.123 32.3805 309.343 33.1609L317.603 41.4209L322.462 36.5621V40.9351L319.745 43.6516L325.951 49.8135L323.765 52L317.603 45.8602C316.219 47.2442 315.063 48.3779 314.135 49.2614C313.223 50.1301 312.42 50.8074 311.728 51.2933C311.036 51.7791 310.337 52.1104 309.63 52.2871C308.938 52.4785 308.106 52.5742 307.134 52.5742ZM307.134 49.4822C307.87 49.4822 308.496 49.4012 309.012 49.2393C309.527 49.0773 310.05 48.7902 310.58 48.3779C311.124 47.951 311.765 47.3546 312.501 46.589C313.252 45.8234 314.224 44.8369 315.416 43.6295L307.134 35.3474C305.912 36.5842 304.918 37.5854 304.153 38.351C303.387 39.1167 302.798 39.7645 302.386 40.2946C301.974 40.8099 301.686 41.3252 301.525 41.8406C301.377 42.3412 301.304 42.9449 301.304 43.6516C301.304 44.7412 301.569 45.7277 302.099 46.6111C302.629 47.4945 303.336 48.1939 304.219 48.7092C305.102 49.2246 306.074 49.4822 307.134 49.4822ZM307.134 31.3278C308.091 30.3855 308.813 29.6714 309.299 29.1855C309.785 28.6996 310.116 28.28 310.293 27.9266C310.469 27.5585 310.558 27.0947 310.558 26.5352C310.558 25.5634 310.212 24.7536 309.52 24.1058C308.842 23.4579 308.047 23.134 307.134 23.134C306.192 23.134 305.39 23.4726 304.727 24.1499C304.079 24.8272 303.755 25.6223 303.755 26.5352C303.755 27.0947 303.851 27.5659 304.042 27.9487C304.234 28.3168 304.572 28.7438 305.058 29.2296C305.544 29.7155 306.236 30.4149 307.134 31.3278ZM343.167 52L349.152 21.08H351.405L360.062 43.8283L368.676 21.08H370.928L376.936 52H373.778L369.206 28.3462L361.034 49.9681H359.046L350.875 28.3462L346.303 52H343.167ZM391.301 52.5742C389.27 52.5742 387.414 52.0515 385.736 51.0061C384.072 49.9608 382.74 48.562 381.738 46.8099C380.752 45.043 380.259 43.0921 380.259 40.9571C380.259 39.3375 380.546 37.8283 381.12 36.4296C381.694 35.0161 382.482 33.7793 383.483 32.7192C384.499 31.6443 385.677 30.8051 387.017 30.2014C388.357 29.5977 389.785 29.2959 391.301 29.2959C392.936 29.2959 394.438 29.6198 395.807 30.2677C397.191 30.9155 398.376 31.821 399.363 32.9842C400.364 34.1474 401.115 35.5093 401.616 37.0701C402.131 38.6308 402.344 40.3167 402.256 42.1277H383.527C383.704 43.5265 384.146 44.778 384.852 45.8823C385.574 46.9865 386.487 47.8626 387.591 48.5105C388.71 49.1436 389.947 49.4675 391.301 49.4822C392.774 49.4822 394.099 49.0994 395.277 48.3338C396.47 47.5681 397.427 46.5154 398.148 45.1755L401.284 45.9043C400.401 47.8626 399.068 49.4675 397.287 50.719C395.505 51.9558 393.51 52.5742 391.301 52.5742ZM383.439 39.632H399.142C399.039 38.2627 398.619 37.0112 397.883 35.8774C397.162 34.729 396.227 33.8161 395.078 33.1388C393.93 32.4468 392.671 32.1008 391.301 32.1008C389.932 32.1008 388.681 32.4394 387.547 33.1167C386.413 33.7793 385.486 34.6848 384.764 35.8333C384.043 36.967 383.601 38.2332 383.439 39.632ZM425.107 18.8714H428.199V52H425.107V47.87C424.341 49.2835 423.289 50.4246 421.949 51.2933C420.624 52.1472 419.048 52.5742 417.223 52.5742C415.618 52.5742 414.116 52.2724 412.717 51.6687C411.318 51.065 410.081 50.2331 409.007 49.173C407.947 48.0982 407.115 46.8614 406.511 45.4626C405.907 44.0639 405.605 42.562 405.605 40.9571C405.605 39.3523 405.907 37.8504 406.511 36.4517C407.115 35.0382 407.947 33.8014 409.007 32.7413C410.081 31.6664 411.318 30.8272 412.717 30.2235C414.116 29.6198 415.618 29.318 417.223 29.318C419.048 29.318 420.624 29.7523 421.949 30.621C423.289 31.475 424.341 32.6014 425.107 34.0002V18.8714ZM417.245 49.5706C418.82 49.5706 420.175 49.1878 421.308 48.4221C422.442 47.6418 423.311 46.5964 423.914 45.2859C424.533 43.9755 424.842 42.5326 424.842 40.9571C424.842 39.3375 424.533 37.8799 423.914 36.5842C423.296 35.2738 422.42 34.2357 421.286 33.4701C420.153 32.7045 418.805 32.3216 417.245 32.3216C415.684 32.3216 414.263 32.7118 412.982 33.4922C411.701 34.2578 410.678 35.2958 409.912 36.6063C409.147 37.9167 408.764 39.367 408.764 40.9571C408.764 42.562 409.154 44.0197 409.934 45.3301C410.715 46.6258 411.745 47.6565 413.026 48.4221C414.322 49.1878 415.728 49.5706 417.245 49.5706ZM444.152 52.5742C442.12 52.5742 440.265 52.0515 438.586 51.0061C436.923 49.9608 435.59 48.562 434.589 46.8099C433.602 45.043 433.109 43.0921 433.109 40.9571C433.109 39.3375 433.396 37.8283 433.97 36.4296C434.545 35.0161 435.332 33.7793 436.334 32.7192C437.35 31.6443 438.527 30.8051 439.867 30.2014C441.207 29.5977 442.635 29.2959 444.152 29.2959C445.786 29.2959 447.288 29.6198 448.657 30.2677C450.041 30.9155 451.227 31.821 452.213 32.9842C453.214 34.1474 453.965 35.5093 454.466 37.0701C454.981 38.6308 455.195 40.3167 455.106 42.1277H436.378C436.554 43.5265 436.996 44.778 437.703 45.8823C438.424 46.9865 439.337 47.8626 440.442 48.5105C441.561 49.1436 442.797 49.4675 444.152 49.4822C445.624 49.4822 446.949 49.0994 448.127 48.3338C449.32 47.5681 450.277 46.5154 450.998 45.1755L454.135 45.9043C453.251 47.8626 451.919 49.4675 450.137 50.719C448.356 51.9558 446.36 52.5742 444.152 52.5742ZM436.289 39.632H451.992C451.889 38.2627 451.47 37.0112 450.733 35.8774C450.012 34.729 449.077 33.8161 447.929 33.1388C446.78 32.4468 445.521 32.1008 444.152 32.1008C442.783 32.1008 441.531 32.4394 440.397 33.1167C439.264 33.7793 438.336 34.6848 437.615 35.8333C436.893 36.967 436.451 38.2332 436.289 39.632ZM459.781 29.9143H462.873V52H459.781V29.9143ZM461.349 26.0493C460.848 26.0493 460.421 25.8873 460.068 25.5634C459.729 25.2248 459.56 24.8051 459.56 24.3045C459.56 23.8039 459.729 23.3917 460.068 23.0677C460.421 22.7291 460.848 22.5598 461.349 22.5598C461.835 22.5598 462.247 22.7291 462.586 23.0677C462.939 23.3917 463.116 23.8039 463.116 24.3045C463.116 24.8051 462.947 25.2248 462.608 25.5634C462.269 25.8873 461.85 26.0493 461.349 26.0493ZM469.211 52V29.9143H472.303V32.9621C473.083 31.8431 474.099 30.9523 475.35 30.2898C476.602 29.6272 477.964 29.2959 479.436 29.2959C480.29 29.2959 481.115 29.4063 481.91 29.6272L480.651 32.6971C480.033 32.5057 479.429 32.41 478.84 32.41C477.647 32.41 476.55 32.7045 475.549 33.2934C474.563 33.8824 473.775 34.6701 473.186 35.6566C472.597 36.6431 472.303 37.74 472.303 38.9474V52H469.211ZM494.354 52.5742C492.322 52.5742 490.467 52.0515 488.788 51.0061C487.124 49.9608 485.792 48.562 484.791 46.8099C483.804 45.043 483.311 43.0921 483.311 40.9571C483.311 39.3375 483.598 37.8283 484.172 36.4296C484.746 35.0161 485.534 33.7793 486.535 32.7192C487.551 31.6443 488.729 30.8051 490.069 30.2014C491.409 29.5977 492.837 29.2959 494.354 29.2959C496.386 29.2959 498.233 29.8186 499.897 30.864C501.576 31.9094 502.908 33.3155 503.895 35.0824C504.896 36.8492 505.397 38.8075 505.397 40.9571C505.397 42.562 505.109 44.0639 504.535 45.4626C503.961 46.8614 503.166 48.0982 502.15 49.173C501.149 50.2331 499.978 51.065 498.638 51.6687C497.313 52.2724 495.885 52.5742 494.354 52.5742ZM494.354 49.4822C495.856 49.4822 497.203 49.092 498.395 48.3117C499.603 47.5166 500.552 46.4712 501.244 45.1755C501.951 43.8798 502.305 42.4737 502.305 40.9571C502.305 39.4112 501.951 37.9903 501.244 36.6946C500.538 35.3842 499.581 34.3388 498.373 33.5584C497.181 32.7781 495.841 32.3879 494.354 32.3879C492.852 32.3879 491.497 32.7854 490.29 33.5805C489.097 34.3609 488.148 35.3989 487.441 36.6946C486.749 37.9903 486.403 39.4112 486.403 40.9571C486.403 42.5473 486.764 43.9903 487.485 45.2859C488.207 46.5669 489.171 47.5902 490.378 48.3559C491.586 49.1068 492.911 49.4822 494.354 49.4822ZM517.109 52.4196C515.902 52.3902 514.724 52.1693 513.576 51.7571C512.427 51.3448 511.426 50.7853 510.572 50.0785C509.718 49.3718 509.107 48.5694 508.739 47.6712L511.411 46.5227C511.647 47.097 512.081 47.627 512.714 48.1129C513.362 48.5841 514.098 48.9669 514.923 49.2614C515.747 49.5411 516.564 49.681 517.374 49.681C518.272 49.681 519.112 49.5338 519.892 49.2393C520.672 48.9448 521.306 48.5252 521.791 47.9804C522.292 47.4209 522.542 46.7657 522.542 46.0148C522.542 45.205 522.277 44.5718 521.747 44.1154C521.217 43.6442 520.547 43.2761 519.737 43.0111C518.928 42.7314 518.096 42.4663 517.242 42.216C515.681 41.789 514.304 41.3179 513.112 40.8025C511.919 40.2872 510.984 39.632 510.307 38.8369C509.644 38.0271 509.313 36.9891 509.313 35.7228C509.313 34.383 509.688 33.2272 510.439 32.2554C511.205 31.2689 512.199 30.5106 513.421 29.9806C514.658 29.4358 515.976 29.1634 517.374 29.1634C519.171 29.1634 520.805 29.5536 522.277 30.3339C523.764 31.1143 524.839 32.1523 525.502 33.448L523.006 34.9278C522.741 34.3241 522.321 33.8014 521.747 33.3597C521.173 32.918 520.518 32.5719 519.782 32.3216C519.06 32.0713 518.324 31.9388 517.573 31.9241C516.631 31.9094 515.755 32.0492 514.945 32.3437C514.135 32.6235 513.48 33.0431 512.979 33.6026C512.493 34.1621 512.25 34.8468 512.25 35.6566C512.25 36.4664 512.493 37.0848 512.979 37.5118C513.465 37.924 514.12 38.2627 514.945 38.5277C515.784 38.778 516.726 39.0725 517.772 39.4111C519.112 39.8381 520.371 40.324 521.548 40.8688C522.726 41.4136 523.676 42.0909 524.398 42.9007C525.119 43.7105 525.472 44.7338 525.458 45.9706C525.458 47.2957 525.06 48.4516 524.265 49.4381C523.47 50.4246 522.439 51.1828 521.173 51.7129C519.907 52.2282 518.552 52.4638 517.109 52.4196Z" fill="#494949"/>
<path d="M71.3962 29.8079C71.3962 32.2282 69.4342 34.1901 67.014 34.1901C64.5938 34.1901 62.6318 32.2282 62.6318 29.8079C62.6318 27.3877 64.5938 25.4258 67.014 25.4258C69.4342 25.4258 71.3962 27.3877 71.3962 29.8079Z" fill="#AE8FAF"/>
<path d="M35.1638 29.8079C35.1638 32.2282 33.2018 34.1901 30.7816 34.1901C28.3614 34.1901 26.3994 32.2282 26.3994 29.8079C26.3994 27.3877 28.3614 25.4258 30.7816 25.4258C33.2018 25.4258 35.1638 27.3877 35.1638 29.8079Z" fill="#AE8FAF"/>
<path d="M27.5635 81.5153L27.5635 62.2943V44.3586C27.5635 42.1155 30.4227 41.1686 31.7616 42.9681C36.8583 49.8182 40.7732 55.0798 46.2711 62.469C47.2101 63.7311 49.1063 63.7215 50.0287 62.4473L63.6835 43.5854C65.0403 41.7112 68.0038 42.7474 67.8972 45.0586L67.6885 49.583L67.2595 81.5153L66.6734 76.8269L65.7943 67.4501L64.8574 54.3764C64.7079 52.2904 62.0983 51.443 60.7518 53.0432L49.5296 66.38C48.1677 68.1959 47.7137 67.2879 46.8057 66.38L34.9392 52.6444C33.6161 51.1129 31.1038 51.8813 30.8637 53.8909L27.5635 81.5153Z" fill="#494949"/>
<path d="M30.5208 9.13436L30.5181 9.13562C25.1787 11.5704 20.4788 14.903 16.4207 19.1319L16.4207 19.1319L16.4175 19.1354C12.4025 23.4066 9.24295 28.339 6.93859 33.9292L6.93857 33.9292L6.937 33.9331C4.67234 39.5734 3.54168 45.6163 3.54168 52.0574C3.54168 58.4566 4.67248 64.4576 6.93745 70.0559L6.93812 70.0576C9.24236 75.6901 12.402 80.6442 16.4175 84.916L16.4191 84.9178C20.4774 89.1897 25.1783 92.5233 30.5192 94.9162C35.8672 97.3548 41.5781 98.5731 47.6467 98.5731C54.9108 98.5731 61.6064 96.8844 67.725 93.5042C73.8296 90.1318 79.0353 85.5944 83.0528 79.9527L83.0735 79.9237L83.0894 79.8918L83.4099 79.2508L82.6759 78.7218L82.1952 79.2025L82.1713 79.2263L82.1513 79.2534C78.2023 84.5736 72.5599 88.1412 67.0352 91.5378C61.4814 94.4572 53.7473 96.2307 47.6467 96.2307C42.1199 96.2307 36.2224 95.0878 31.4706 92.8786C26.7045 90.6628 21.2929 86.6893 17.6952 82.7987L17.6935 82.7969C14.0945 78.9468 10.9667 74.0852 8.9583 69.0222L8.95782 69.021C6.95347 64.0102 5.93529 57.6785 5.93529 52.0574C5.93529 46.2844 7.24457 40.1434 9.29631 35.0766C11.3527 30.0407 14.442 24.8007 18.0321 20.9598C21.6691 17.114 26.7396 13.5414 31.4667 11.3657C36.2324 9.23408 42.2176 7.86445 47.6467 7.86445C54.0581 7.86445 61.2972 9.37269 66.7573 12.332L66.7586 12.3326C72.3176 15.3228 78.5788 19.7972 81.987 24.5354L82.1241 24.7261H82.359H82.5193H83.4083L82.8926 24.0019C78.8768 18.3627 73.8319 13.8782 67.7229 10.546C61.6046 7.20874 54.9098 5.54168 47.6467 5.54168C41.5789 5.54168 35.8686 6.73856 30.5208 9.13436Z" fill="#494949" stroke="#494949" stroke-width="0.916636"/>
</svg>
