<svg width="20" height="20" viewBox="0 0 20 20" fill="none" xmlns="http://www.w3.org/2000/svg">
<g clip-path="url(#clip0_885_227)">
<path d="M17.7188 2.44336C18.7307 2.44336 19.5517 3.264 19.5517 4.27633C19.5517 4.85296 19.2806 5.39521 18.8185 5.74271L10.5091 11.9748C10.0737 12.2994 9.478 12.2994 9.04267 11.9748L0.73319 5.74271C0.271624 5.39521 0 4.85296 0 4.27633C0 3.264 0.820638 2.44336 1.83297 2.44336H17.7188ZM8.30948 12.9524C9.18015 13.6054 10.3716 13.6054 11.2422 12.9524L19.5517 6.7203V14.6632C19.5517 16.0112 18.4558 17.1072 17.1078 17.1072H2.44397C1.09406 17.1072 0 16.0112 0 14.6632V6.7203L8.30948 12.9524Z" fill="#AE8FAF"/>
</g>
<defs>
<clipPath id="clip0_885_227">
<rect width="19.5517" height="19.5517" fill="white"/>
</clipPath>
</defs>
</svg>
