<svg width="20" height="20" viewBox="0 0 20 20" fill="none" xmlns="http://www.w3.org/2000/svg">
<g clip-path="url(#clip0_885_229)">
<path d="M9.77586 19.5517C4.37623 19.5517 0 15.1755 0 9.77586C0 4.37623 4.37623 0 9.77586 0C15.1755 0 19.5517 4.37623 19.5517 9.77586C19.5517 15.1755 15.1755 19.5517 9.77586 19.5517ZM8.85938 9.77586C8.85938 10.0814 9.01212 10.3678 9.26797 10.5052L12.9339 12.9492C13.354 13.2623 13.923 13.1478 14.1712 12.7277C14.4843 12.3077 14.3698 11.7387 13.9497 11.4561L10.6923 9.28707V4.58244C10.6923 4.07455 10.2837 3.66595 9.74149 3.66595C9.26798 3.66595 8.82501 4.07455 8.82501 4.58244L8.85938 9.77586Z" fill="#AE8FAF"/>
</g>
<defs>
<clipPath id="clip0_885_229">
<rect width="19.5517" height="19.5517" fill="white"/>
</clipPath>
</defs>
</svg>
