<svg width="52" height="70" viewBox="0 0 52 70" fill="none" xmlns="http://www.w3.org/2000/svg">
<g clip-path="url(#clip0_238_17)">
<path d="M26.0003 47.6667C33.1815 47.6667 39.0003 41.8478 39.0003 34.6667V13C39.0003 5.81885 33.1815 0 26.0003 0C18.8192 0 13.0003 5.81885 13.0003 13V34.6667C13.0003 41.8438 18.7014 47.6667 26.0003 47.6667ZM46.5837 26C44.7826 26 43.3337 27.449 43.3337 29.1281V34.6667C43.3337 44.5968 34.9419 52.5958 24.8764 51.9594C15.928 51.3948 8.66699 42.942 8.66699 33.976V29.1281C8.66699 27.449 7.21126 26 5.41699 26C3.62272 26 2.16699 27.449 2.16699 29.1281V33.4818C2.16699 45.6232 10.8296 56.4484 22.7503 58.087V62.8333H17.3337C14.8704 62.8333 12.8866 64.889 13.0057 67.3793C13.0586 68.4938 14.0566 69.3333 15.167 69.3333H36.8337C37.9471 69.3333 38.9421 68.4916 38.9949 67.3793C39.1087 64.8917 37.1316 62.8333 34.667 62.8333H29.2503V58.2603C40.8555 56.6719 49.8337 46.7052 49.8337 34.6667V29.1281C49.8337 27.449 48.3847 26 46.5837 26Z" fill="#AE8FAF"/>
</g>
<defs>
<clipPath id="clip0_238_17">
<rect width="52" height="69.3333" fill="white"/>
</clipPath>
</defs>
</svg>
