<svg width="42" height="43" viewBox="0 0 42 43" fill="none" xmlns="http://www.w3.org/2000/svg">
<g clip-path="url(#clip0_1044_170)">
<path d="M37.9128 6.13574C40.0623 6.13574 41.8062 7.87882 41.8062 10.0291C41.8062 11.2538 41.2303 12.4056 40.2488 13.1437L22.5991 26.381C21.6744 27.0705 20.4091 27.0705 19.4844 26.381L1.83467 13.1437C0.854286 12.4056 0.277344 11.2538 0.277344 10.0291C0.277344 7.87882 2.02042 6.13574 4.17067 6.13574H37.9128ZM17.9271 28.4575C19.7764 29.8445 22.3071 29.8445 24.1564 28.4575L41.8062 15.2202V32.0913C41.8062 34.9545 39.4783 37.2824 36.6151 37.2824H5.46845C2.60117 37.2824 0.277344 34.9545 0.277344 32.0913V15.2202L17.9271 28.4575Z" fill="#AE8FAF"/>
</g>
<defs>
<clipPath id="clip0_1044_170">
<rect width="41.5288" height="41.5288" fill="white" transform="translate(0.277344 0.943359)"/>
</clipPath>
</defs>
</svg>
