<svg width="430" height="85" viewBox="0 0 430 85" fill="none" xmlns="http://www.w3.org/2000/svg">
<g clip-path="url(#clip0_803_139)">
<path d="M145.467 60.1793H146.112V67.6758H145.467L145.452 66.0415C145.192 66.5863 144.815 67.0286 144.32 67.3684C143.826 67.7033 143.233 67.8707 142.544 67.8707C141.999 67.8707 141.487 67.7682 141.007 67.5633C140.532 67.3584 140.112 67.0736 139.747 66.7087C139.388 66.3439 139.105 65.9241 138.9 65.4493C138.695 64.9745 138.593 64.4623 138.593 63.9125C138.593 63.3678 138.695 62.858 138.9 62.3832C139.105 61.9035 139.388 61.4837 139.747 61.1238C140.107 60.764 140.525 60.4816 140.999 60.2767C141.474 60.0718 141.981 59.9694 142.521 59.9694C143.221 59.9694 143.821 60.1393 144.32 60.4791C144.82 60.814 145.207 61.2563 145.482 61.806L145.467 60.1793ZM142.536 67.2335C143.146 67.2335 143.666 67.0861 144.095 66.7912C144.525 66.4913 144.853 66.0915 145.077 65.5918C145.307 65.087 145.422 64.5322 145.422 63.9275C145.422 63.3078 145.307 62.7481 145.077 62.2483C144.848 61.7435 144.515 61.3437 144.08 61.0489C143.651 60.754 143.136 60.6066 142.536 60.6066C141.931 60.6066 141.379 60.7565 140.879 61.0564C140.38 61.3512 139.982 61.751 139.687 62.2558C139.393 62.7606 139.245 63.3178 139.245 63.9275C139.245 64.5472 139.398 65.107 139.702 65.6067C140.007 66.1065 140.407 66.5038 140.902 66.7987C141.402 67.0886 141.946 67.2335 142.536 67.2335ZM158.759 56.431H159.404V67.6758H158.759V66.034C158.494 66.5838 158.112 67.0286 157.612 67.3684C157.117 67.7033 156.522 67.8707 155.828 67.8707C155.283 67.8707 154.773 67.7682 154.299 67.5633C153.824 67.3584 153.404 67.0761 153.039 66.7162C152.679 66.3514 152.397 65.9316 152.192 65.4568C151.987 64.982 151.885 64.4723 151.885 63.9275C151.885 63.3778 151.987 62.8655 152.192 62.3907C152.397 61.911 152.679 61.4912 153.039 61.1313C153.404 60.7665 153.824 60.4816 154.299 60.2767C154.773 60.0718 155.283 59.9694 155.828 59.9694C156.522 59.9694 157.117 60.1393 157.612 60.4791C158.112 60.814 158.494 61.2563 158.759 61.806V56.431ZM155.828 67.2335C156.438 67.2335 156.957 67.0861 157.387 66.7912C157.817 66.4913 158.144 66.0915 158.369 65.5918C158.599 65.087 158.714 64.5322 158.714 63.9275C158.714 63.3078 158.599 62.7481 158.369 62.2483C158.139 61.7435 157.807 61.3437 157.372 61.0489C156.942 60.754 156.428 60.6066 155.828 60.6066C155.223 60.6066 154.671 60.7565 154.171 61.0564C153.676 61.3512 153.279 61.751 152.979 62.2558C152.684 62.7606 152.537 63.3178 152.537 63.9275C152.537 64.5472 152.689 65.107 152.994 65.6067C153.299 66.1065 153.699 66.5038 154.194 66.7987C154.693 67.0886 155.238 67.2335 155.828 67.2335ZM169.139 67.6758H168.345L165.601 60.1493H166.291L168.742 66.9036L171.193 60.1493H171.883L169.139 67.6758ZM181.06 67.8707C180.37 67.8707 179.74 67.6933 179.17 67.3384C178.606 66.9836 178.153 66.5088 177.814 65.9141C177.479 65.3144 177.311 64.6522 177.311 63.9275C177.311 63.3778 177.409 62.8655 177.604 62.3907C177.799 61.911 178.066 61.4912 178.406 61.1313C178.751 60.7665 179.15 60.4816 179.605 60.2767C180.06 60.0718 180.545 59.9694 181.06 59.9694C181.749 59.9694 182.376 60.1468 182.941 60.5016C183.511 60.8565 183.963 61.3337 184.298 61.9335C184.638 62.5332 184.808 63.1979 184.808 63.9275C184.808 64.4723 184.71 64.982 184.515 65.4568C184.321 65.9316 184.051 66.3514 183.706 66.7162C183.366 67.0761 182.969 67.3584 182.514 67.5633C182.064 67.7682 181.579 67.8707 181.06 67.8707ZM181.06 67.226C181.644 67.226 182.169 67.0736 182.634 66.7687C183.104 66.4638 183.476 66.0615 183.751 65.5618C184.026 65.062 184.163 64.5173 184.163 63.9275C184.163 63.3328 184.026 62.7856 183.751 62.2858C183.476 61.781 183.104 61.3762 182.634 61.0714C182.169 60.7665 181.644 60.6141 181.06 60.6141C180.47 60.6141 179.94 60.7665 179.47 61.0714C179.006 61.3762 178.636 61.781 178.361 62.2858C178.091 62.7856 177.956 63.3328 177.956 63.9275C177.956 64.5422 178.096 65.0995 178.376 65.5992C178.661 66.094 179.038 66.4888 179.508 66.7837C179.978 67.0786 180.495 67.226 181.06 67.226ZM197.047 60.1793H197.691V68.0206C197.691 68.4704 197.589 68.8977 197.384 69.3025C197.184 69.7123 196.914 70.0772 196.574 70.397C196.24 70.7169 195.857 70.9668 195.427 71.1467C195.003 71.3316 194.56 71.424 194.101 71.424C193.581 71.424 193.079 71.2991 192.594 71.0492C192.114 70.8043 191.699 70.477 191.349 70.0672C191 69.6624 190.762 69.2176 190.637 68.7328L191.229 68.4554C191.319 68.8802 191.512 69.2675 191.807 69.6174C192.101 69.9722 192.451 70.2546 192.856 70.4645C193.266 70.6744 193.681 70.7793 194.101 70.7793C194.47 70.7793 194.83 70.7019 195.18 70.5469C195.535 70.397 195.852 70.1921 196.132 69.9322C196.412 69.6774 196.634 69.385 196.799 69.0551C196.964 68.7253 197.047 68.3805 197.047 68.0206V66.0565C196.777 66.5963 196.397 67.0336 195.907 67.3684C195.417 67.7033 194.848 67.8707 194.198 67.8707C193.678 67.8707 193.188 67.7682 192.729 67.5633C192.274 67.3584 191.874 67.0761 191.529 66.7162C191.184 66.3514 190.915 65.9316 190.72 65.4568C190.525 64.982 190.427 64.4723 190.427 63.9275C190.427 63.3778 190.525 62.8655 190.72 62.3907C190.915 61.911 191.184 61.4912 191.529 61.1313C191.874 60.7665 192.274 60.4816 192.729 60.2767C193.188 60.0718 193.678 59.9694 194.198 59.9694C194.848 59.9694 195.417 60.1368 195.907 60.4716C196.397 60.8065 196.777 61.2463 197.047 61.791V60.1793ZM194.198 67.2335C194.788 67.2335 195.293 67.0811 195.712 66.7762C196.132 66.4663 196.454 66.0615 196.679 65.5618C196.904 65.057 197.017 64.5123 197.017 63.9275C197.017 63.3278 196.902 62.7756 196.672 62.2708C196.447 61.766 196.122 61.3637 195.697 61.0639C195.278 60.759 194.778 60.6066 194.198 60.6066C193.618 60.6066 193.091 60.7565 192.616 61.0564C192.146 61.3512 191.772 61.751 191.492 62.2558C191.217 62.7606 191.079 63.3178 191.079 63.9275C191.079 64.5422 191.219 65.0995 191.499 65.5992C191.784 66.099 192.164 66.4963 192.639 66.7912C193.114 67.0861 193.633 67.2335 194.198 67.2335ZM210.754 60.1793H211.399V67.6758H210.754L210.739 66.0415C210.479 66.5863 210.102 67.0286 209.607 67.3684C209.113 67.7033 208.52 67.8707 207.831 67.8707C207.286 67.8707 206.774 67.7682 206.294 67.5633C205.819 67.3584 205.399 67.0736 205.034 66.7087C204.675 66.3439 204.392 65.9241 204.187 65.4493C203.982 64.9745 203.88 64.4623 203.88 63.9125C203.88 63.3678 203.982 62.858 204.187 62.3832C204.392 61.9035 204.675 61.4837 205.034 61.1238C205.394 60.764 205.812 60.4816 206.286 60.2767C206.761 60.0718 207.268 59.9694 207.808 59.9694C208.508 59.9694 209.108 60.1393 209.607 60.4791C210.107 60.814 210.494 61.2563 210.769 61.806L210.754 60.1793ZM207.823 67.2335C208.433 67.2335 208.953 67.0861 209.382 66.7912C209.812 66.4913 210.14 66.0915 210.364 65.5918C210.594 65.087 210.709 64.5322 210.709 63.9275C210.709 63.3078 210.594 62.7481 210.364 62.2483C210.135 61.7435 209.802 61.3437 209.367 61.0489C208.938 60.754 208.423 60.6066 207.823 60.6066C207.218 60.6066 206.666 60.7565 206.166 61.0564C205.667 61.3512 205.269 61.751 204.974 62.2558C204.68 62.7606 204.532 63.3178 204.532 63.9275C204.532 64.5472 204.685 65.107 204.989 65.6067C205.294 66.1065 205.694 66.5038 206.189 66.7987C206.689 67.0886 207.233 67.2335 207.823 67.2335ZM224.046 56.431H224.691V67.6758H224.046V66.034C223.781 66.5838 223.399 67.0286 222.899 67.3684C222.404 67.7033 221.81 67.8707 221.115 67.8707C220.57 67.8707 220.06 67.7682 219.586 67.5633C219.111 67.3584 218.691 67.0761 218.326 66.7162C217.966 66.3514 217.684 65.9316 217.479 65.4568C217.274 64.982 217.172 64.4723 217.172 63.9275C217.172 63.3778 217.274 62.8655 217.479 62.3907C217.684 61.911 217.966 61.4912 218.326 61.1313C218.691 60.7665 219.111 60.4816 219.586 60.2767C220.06 60.0718 220.57 59.9694 221.115 59.9694C221.81 59.9694 222.404 60.1393 222.899 60.4791C223.399 60.814 223.781 61.2563 224.046 61.806V56.431ZM221.115 67.2335C221.725 67.2335 222.244 67.0861 222.674 66.7912C223.104 66.4913 223.431 66.0915 223.656 65.5918C223.886 65.087 224.001 64.5322 224.001 63.9275C224.001 63.3078 223.886 62.7481 223.656 62.2483C223.426 61.7435 223.094 61.3437 222.659 61.0489C222.229 60.754 221.715 60.6066 221.115 60.6066C220.51 60.6066 219.958 60.7565 219.458 61.0564C218.963 61.3512 218.566 61.751 218.266 62.2558C217.971 62.7606 217.824 63.3178 217.824 63.9275C217.824 64.5472 217.976 65.107 218.281 65.6067C218.586 66.1065 218.986 66.5038 219.481 66.7987C219.98 67.0886 220.525 67.2335 221.115 67.2335ZM237.762 60.1793H238.407V67.6758H237.762L237.747 66.0415C237.487 66.5863 237.11 67.0286 236.615 67.3684C236.121 67.7033 235.528 67.8707 234.839 67.8707C234.294 67.8707 233.782 67.7682 233.302 67.5633C232.827 67.3584 232.407 67.0736 232.042 66.7087C231.683 66.3439 231.4 65.9241 231.195 65.4493C230.99 64.9745 230.888 64.4623 230.888 63.9125C230.888 63.3678 230.99 62.858 231.195 62.3832C231.4 61.9035 231.683 61.4837 232.042 61.1238C232.402 60.764 232.82 60.4816 233.294 60.2767C233.769 60.0718 234.276 59.9694 234.816 59.9694C235.516 59.9694 236.116 60.1393 236.615 60.4791C237.115 60.814 237.502 61.2563 237.777 61.806L237.762 60.1793ZM234.831 67.2335C235.441 67.2335 235.961 67.0861 236.39 66.7912C236.82 66.4913 237.148 66.0915 237.372 65.5918C237.602 65.087 237.717 64.5322 237.717 63.9275C237.717 63.3078 237.602 62.7481 237.372 62.2483C237.143 61.7435 236.81 61.3437 236.375 61.0489C235.946 60.754 235.431 60.6066 234.831 60.6066C234.226 60.6066 233.674 60.7565 233.174 61.0564C232.675 61.3512 232.277 61.751 231.982 62.2558C231.688 62.7606 231.54 63.3178 231.54 63.9275C231.54 64.5472 231.693 65.107 231.997 65.6067C232.302 66.1065 232.702 66.5038 233.197 66.7987C233.697 67.0886 234.241 67.2335 234.831 67.2335ZM247.145 67.8257C246.725 67.8207 246.313 67.7482 245.908 67.6083C245.508 67.4634 245.158 67.2685 244.858 67.0236C244.563 66.7787 244.361 66.5063 244.251 66.2065L244.828 65.9591C244.918 66.204 245.091 66.4214 245.346 66.6113C245.605 66.8012 245.9 66.9511 246.23 67.0611C246.56 67.166 246.875 67.2185 247.175 67.2185C247.54 67.2185 247.879 67.156 248.194 67.0311C248.509 66.9061 248.764 66.7312 248.959 66.5063C249.159 66.2764 249.259 66.0116 249.259 65.7117C249.259 65.3918 249.154 65.1395 248.944 64.9545C248.739 64.7696 248.477 64.6197 248.157 64.5048C247.837 64.3898 247.505 64.2799 247.16 64.1749C246.6 64.01 246.118 63.8451 245.713 63.6801C245.313 63.5152 245.006 63.3078 244.791 63.0579C244.576 62.808 244.468 62.4732 244.468 62.0534C244.468 61.6186 244.596 61.2438 244.851 60.9289C245.106 60.6091 245.438 60.3617 245.848 60.1868C246.263 60.0118 246.705 59.9244 247.175 59.9244C247.794 59.9244 248.354 60.0618 248.854 60.3367C249.359 60.6066 249.709 60.9614 249.903 61.4012L249.364 61.7161C249.264 61.4712 249.099 61.2613 248.869 61.0863C248.639 60.9114 248.377 60.7765 248.082 60.6815C247.787 60.5816 247.492 60.5316 247.197 60.5316C246.827 60.5316 246.483 60.5916 246.163 60.7115C245.843 60.8315 245.583 61.0064 245.383 61.2363C245.188 61.4612 245.091 61.731 245.091 62.0459C245.091 62.3707 245.178 62.6181 245.353 62.7881C245.528 62.953 245.773 63.0904 246.088 63.2004C246.408 63.3053 246.785 63.4278 247.22 63.5677C247.684 63.7126 248.119 63.8725 248.524 64.0475C248.929 64.2174 249.256 64.4323 249.506 64.6922C249.756 64.952 249.881 65.2894 249.881 65.7042C249.881 66.139 249.751 66.5163 249.491 66.8362C249.236 67.156 248.899 67.4034 248.479 67.5783C248.064 67.7482 247.62 67.8307 247.145 67.8257ZM270.946 56.431H271.591V67.6758H270.946V66.034C270.681 66.5838 270.299 67.0286 269.799 67.3684C269.304 67.7033 268.71 67.8707 268.015 67.8707C267.47 67.8707 266.96 67.7682 266.486 67.5633C266.011 67.3584 265.591 67.0761 265.226 66.7162C264.866 66.3514 264.584 65.9316 264.379 65.4568C264.174 64.982 264.072 64.4723 264.072 63.9275C264.072 63.3778 264.174 62.8655 264.379 62.3907C264.584 61.911 264.866 61.4912 265.226 61.1313C265.591 60.7665 266.011 60.4816 266.486 60.2767C266.96 60.0718 267.47 59.9694 268.015 59.9694C268.71 59.9694 269.304 60.1393 269.799 60.4791C270.299 60.814 270.681 61.2563 270.946 61.806V56.431ZM268.015 67.2335C268.625 67.2335 269.144 67.0861 269.574 66.7912C270.004 66.4913 270.331 66.0915 270.556 65.5918C270.786 65.087 270.901 64.5322 270.901 63.9275C270.901 63.3078 270.786 62.7481 270.556 62.2483C270.326 61.7435 269.994 61.3437 269.559 61.0489C269.129 60.754 268.615 60.6066 268.015 60.6066C267.41 60.6066 266.858 60.7565 266.358 61.0564C265.863 61.3512 265.466 61.751 265.166 62.2558C264.871 62.7606 264.724 63.3178 264.724 63.9275C264.724 64.5472 264.876 65.107 265.181 65.6067C265.486 66.1065 265.886 66.5038 266.381 66.7987C266.88 67.0886 267.425 67.2335 268.015 67.2335ZM281.536 67.8707C280.847 67.8707 280.217 67.6933 279.647 67.3384C279.082 66.9836 278.63 66.5088 278.29 65.9141C277.955 65.3144 277.788 64.6522 277.788 63.9275C277.788 63.3778 277.885 62.8655 278.08 62.3907C278.275 61.911 278.543 61.4912 278.883 61.1313C279.227 60.7665 279.627 60.4816 280.082 60.2767C280.537 60.0718 281.022 59.9694 281.536 59.9694C282.076 59.9694 282.573 60.0743 283.028 60.2842C283.488 60.4891 283.885 60.7815 284.22 61.1613C284.555 61.5361 284.812 61.9834 284.992 62.5032C285.177 63.0179 285.267 63.5852 285.262 64.2049H278.455C278.505 64.7846 278.673 65.3019 278.957 65.7567C279.247 66.2065 279.615 66.5638 280.059 66.8287C280.504 67.0936 280.997 67.226 281.536 67.226C282.131 67.226 282.666 67.0686 283.141 66.7537C283.615 66.4389 283.993 66.0066 284.273 65.4568L284.925 65.6067C284.625 66.2714 284.173 66.8162 283.568 67.241C282.963 67.6608 282.286 67.8707 281.536 67.8707ZM278.44 63.6277H284.617C284.592 63.0829 284.437 62.5807 284.153 62.1209C283.873 61.6561 283.503 61.2838 283.043 61.0039C282.588 60.724 282.086 60.5841 281.536 60.5841C280.982 60.5841 280.479 60.7215 280.029 60.9964C279.58 61.2663 279.212 61.6336 278.927 62.0984C278.648 62.5582 278.485 63.0679 278.44 63.6277ZM301.212 58.0278V60.1793H303.573V60.824H301.212V67.6758H300.567V60.824H299.435V60.1793H300.567V58.0278C300.567 57.6979 300.647 57.4006 300.807 57.1357C300.967 56.8658 301.182 56.6509 301.452 56.491C301.722 56.3311 302.019 56.2511 302.344 56.2511C302.584 56.2511 302.811 56.2986 303.026 56.3935C303.246 56.4835 303.441 56.6159 303.611 56.7908L303.154 57.2406C303.054 57.1307 302.931 57.0457 302.786 56.9858C302.646 56.9258 302.499 56.8958 302.344 56.8958C302.034 56.8958 301.767 57.0057 301.542 57.2256C301.322 57.4455 301.212 57.7129 301.212 58.0278ZM315.855 60.1793H316.5V67.6758H315.855L315.84 66.0415C315.58 66.5863 315.203 67.0286 314.708 67.3684C314.213 67.7033 313.621 67.8707 312.931 67.8707C312.386 67.8707 311.874 67.7682 311.394 67.5633C310.92 67.3584 310.5 67.0736 310.135 66.7087C309.775 66.3439 309.493 65.9241 309.288 65.4493C309.083 64.9745 308.981 64.4623 308.981 63.9125C308.981 63.3678 309.083 62.858 309.288 62.3832C309.493 61.9035 309.775 61.4837 310.135 61.1238C310.495 60.764 310.912 60.4816 311.387 60.2767C311.862 60.0718 312.369 59.9694 312.909 59.9694C313.608 59.9694 314.208 60.1393 314.708 60.4791C315.208 60.814 315.595 61.2563 315.87 61.806L315.855 60.1793ZM312.924 67.2335C313.533 67.2335 314.053 67.0861 314.483 66.7912C314.913 66.4913 315.24 66.0915 315.465 65.5918C315.695 65.087 315.81 64.5322 315.81 63.9275C315.81 63.3078 315.695 62.7481 315.465 62.2483C315.235 61.7435 314.903 61.3437 314.468 61.0489C314.038 60.754 313.523 60.6066 312.924 60.6066C312.319 60.6066 311.767 60.7565 311.267 61.0564C310.767 61.3512 310.37 61.751 310.075 62.2558C309.78 62.7606 309.633 63.3178 309.633 63.9275C309.633 64.5472 309.785 65.107 310.09 65.6067C310.395 66.1065 310.795 66.5038 311.289 66.7987C311.789 67.0886 312.334 67.2335 312.924 67.2335ZM322.868 67.6758V60.1793H323.513V61.4012C323.788 60.9664 324.153 60.6191 324.608 60.3592C325.067 60.0993 325.57 59.9694 326.114 59.9694C326.704 59.9694 327.241 60.1168 327.726 60.4117C328.211 60.7065 328.586 61.0963 328.851 61.5811C329.116 61.0963 329.488 60.7065 329.968 60.4117C330.452 60.1168 330.987 59.9694 331.572 59.9694C332.147 59.9694 332.669 60.1093 333.139 60.3892C333.613 60.669 333.991 61.0464 334.271 61.5211C334.55 61.9909 334.69 62.5132 334.69 63.0879V67.6758H334.046V63.1854C334.046 62.7256 333.933 62.3008 333.708 61.911C333.488 61.5211 333.191 61.2088 332.816 60.9739C332.446 60.734 332.032 60.6141 331.572 60.6141C331.122 60.6141 330.71 60.724 330.335 60.9439C329.96 61.1638 329.66 61.4662 329.435 61.851C329.215 62.2358 329.106 62.6806 329.106 63.1854V67.6758H328.461V63.1854C328.461 62.6806 328.348 62.2358 328.123 61.851C327.904 61.4662 327.606 61.1638 327.231 60.9439C326.857 60.724 326.442 60.6141 325.987 60.6141C325.532 60.6141 325.117 60.734 324.743 60.9739C324.368 61.2088 324.068 61.5211 323.843 61.911C323.623 62.3008 323.513 62.7256 323.513 63.1854V67.6758H322.868ZM341.065 60.1793H341.71V67.6758H341.065V60.1793ZM341.252 59.3547L341.852 57.1957H342.497L341.687 59.3547H341.252ZM348.456 67.6758V56.431H349.101V67.6758H348.456ZM355.774 60.1793H356.419V67.6758H355.774V60.1793ZM356.104 58.6875C355.989 58.6875 355.889 58.65 355.804 58.575C355.719 58.4951 355.677 58.3951 355.677 58.2752C355.677 58.1502 355.719 58.0503 355.804 57.9753C355.889 57.9003 355.989 57.8628 356.104 57.8628C356.219 57.8628 356.316 57.9003 356.396 57.9753C356.481 58.0503 356.524 58.1477 356.524 58.2677C356.524 58.3926 356.484 58.4951 356.404 58.575C356.324 58.65 356.224 58.6875 356.104 58.6875ZM369.487 60.1793H370.132V67.6758H369.487L369.472 66.0415C369.212 66.5863 368.835 67.0286 368.34 67.3684C367.845 67.7033 367.253 67.8707 366.563 67.8707C366.019 67.8707 365.506 67.7682 365.027 67.5633C364.552 67.3584 364.132 67.0736 363.767 66.7087C363.407 66.3439 363.125 65.9241 362.92 65.4493C362.715 64.9745 362.613 64.4623 362.613 63.9125C362.613 63.3678 362.715 62.858 362.92 62.3832C363.125 61.9035 363.407 61.4837 363.767 61.1238C364.127 60.764 364.544 60.4816 365.019 60.2767C365.494 60.0718 366.001 59.9694 366.541 59.9694C367.241 59.9694 367.84 60.1393 368.34 60.4791C368.84 60.814 369.227 61.2563 369.502 61.806L369.487 60.1793ZM366.556 67.2335C367.166 67.2335 367.685 67.0861 368.115 66.7912C368.545 66.4913 368.872 66.0915 369.097 65.5918C369.327 65.087 369.442 64.5322 369.442 63.9275C369.442 63.3078 369.327 62.7481 369.097 62.2483C368.867 61.7435 368.535 61.3437 368.1 61.0489C367.67 60.754 367.156 60.6066 366.556 60.6066C365.951 60.6066 365.399 60.7565 364.899 61.0564C364.399 61.3512 364.002 61.751 363.707 62.2558C363.412 62.7606 363.265 63.3178 363.265 63.9275C363.265 64.5472 363.417 65.107 363.722 65.6067C364.027 66.1065 364.427 66.5038 364.922 66.7987C365.422 67.0886 365.966 67.2335 366.556 67.2335Z" fill="#3E3E3E"/>
<path d="M26.1738 67.9482L26.1738 43.8754V19.9424L45.1811 50.7902L63.7646 19.9424L63.3251 32.2341L63.0135 49.995L62.0787 67.7559L59.8976 30.7985L45.1811 50.7902L29.9372 30.7985L26.1738 67.9482Z" fill="#5A5A5A" fill-opacity="0.2"/>
<path d="M59.155 52.2654C59.155 60.3969 52.5631 66.9887 44.4316 66.9887C36.3001 66.9887 29.7083 60.3969 29.7083 52.2654C29.7083 44.1339 36.3001 37.542 44.4316 37.542C52.5631 37.542 59.155 44.1339 59.155 52.2654Z" fill="#A981B9" fill-opacity="0.3"/>
<path d="M30.2401 14.3708C30.2401 17.5048 27.6996 20.0453 24.5656 20.0453C21.4317 20.0453 18.8911 17.5048 18.8911 14.3708C18.8911 11.2369 21.4317 8.69629 24.5656 8.69629C27.6996 8.69629 30.2401 11.2369 30.2401 14.3708Z" fill="#A981B9" fill-opacity="0.8"/>
<path d="M70.4621 14.3708C70.4621 17.5048 67.9215 20.0453 64.7876 20.0453C61.6536 20.0453 59.113 17.5048 59.113 14.3708C59.113 11.2369 61.6536 8.69629 64.7876 8.69629C67.9215 8.69629 70.4621 11.2369 70.4621 14.3708Z" fill="#A981B9" fill-opacity="0.8"/>
<path d="M33.0746 14.3708C33.0746 17.5048 30.5341 20.0453 27.4001 20.0453C24.2662 20.0453 21.7256 17.5048 21.7256 14.3708C21.7256 11.2369 24.2662 8.69629 27.4001 8.69629C30.5341 8.69629 33.0746 11.2369 33.0746 14.3708Z" fill="#A981B9" fill-opacity="0.2"/>
<path d="M67.6276 14.3708C67.6276 17.5048 65.087 20.0453 61.9531 20.0453C58.8191 20.0453 56.2786 17.5048 56.2786 14.3708C56.2786 11.2369 58.8191 8.69629 61.9531 8.69629C65.087 8.69629 67.6276 11.2369 67.6276 14.3708Z" fill="#A981B9" fill-opacity="0.2"/>
<path d="M23.2232 68.8622L23.2231 48.4231V21.8724L45.133 51.3196L66.4949 21.8115L65.8909 34.9064L65.4347 68.8622L64.8115 63.8767L63.8767 53.9057L62.4441 33.9159L46.5812 52.7678C45.133 54.6987 44.6503 53.7333 43.6848 52.7678L27.3981 33.9159L23.2232 68.8622Z" fill="#494949"/>
<path d="M102.291 45.373C100.549 45.373 98.9113 45.0295 97.3779 44.3425C95.8444 43.6433 94.495 42.6864 93.3296 41.4719C92.1765 40.2452 91.2687 38.8283 90.6063 37.2213C89.9561 35.602 89.631 33.8662 89.631 32.0138C89.631 30.1737 89.9561 28.4501 90.6063 26.8431C91.2687 25.2238 92.1765 23.8008 93.3296 22.574C94.495 21.3473 95.8444 20.3905 97.3779 19.7035C98.9113 19.0042 100.549 18.6546 102.291 18.6546C104.376 18.6546 106.296 19.1392 108.05 20.1083C109.805 21.0774 111.258 22.3716 112.412 23.9909L111.455 24.5062C110.412 23.0463 109.069 21.8932 107.425 21.0468C105.793 20.188 104.082 19.7587 102.291 19.7587C100.672 19.7587 99.1628 20.0838 97.7643 20.7339C96.3658 21.3841 95.1391 22.2796 94.0841 23.4205C93.0291 24.5491 92.2072 25.8556 91.6183 27.3399C91.0295 28.812 90.7351 30.37 90.7351 32.0138C90.7351 33.7067 91.0356 35.2953 91.6367 36.7797C92.2378 38.2517 93.0659 39.5521 94.1209 40.6807C95.1881 41.8093 96.4149 42.6925 97.8011 43.3304C99.1996 43.9561 100.696 44.2689 102.291 44.2689C104.168 44.2689 105.91 43.8334 107.517 42.9624C109.136 42.0914 110.449 40.9567 111.455 39.5582L112.412 40.0735C111.258 41.6927 109.805 42.9808 108.05 43.9377C106.296 44.8945 104.376 45.373 102.291 45.373ZM116.643 37.6629V26.4935H117.747V37.6629C117.747 38.8774 118.042 39.9876 118.631 40.9935C119.232 41.9872 120.029 42.7845 121.023 43.3856C122.029 43.9745 123.139 44.2689 124.353 44.2689C125.568 44.2689 126.672 43.9745 127.665 43.3856C128.671 42.7845 129.469 41.9872 130.058 40.9935C130.659 39.9876 130.959 38.8774 130.959 37.6629V26.4935H132.063V44.8945H130.959V41.6375C130.285 42.7539 129.364 43.6555 128.199 44.3425C127.034 45.0295 125.752 45.373 124.353 45.373C122.93 45.373 121.636 45.0295 120.471 44.3425C119.305 43.6433 118.373 42.7109 117.674 41.5455C116.987 40.3801 116.643 39.0859 116.643 37.6629ZM137.768 54.0951H136.664V26.4935H137.768V30.7993C138.431 29.364 139.4 28.2109 140.676 27.3399C141.964 26.4567 143.497 26.015 145.276 26.015C146.613 26.015 147.865 26.2665 149.03 26.7695C150.195 27.2725 151.22 27.9717 152.103 28.8672C152.998 29.7505 153.698 30.7748 154.201 31.9402C154.704 33.1056 154.955 34.3569 154.955 35.694C154.955 37.0311 154.704 38.2886 154.201 39.4662C153.698 40.6439 152.998 41.6805 152.103 42.576C151.22 43.4592 150.195 44.1524 149.03 44.6553C147.865 45.1583 146.613 45.4098 145.276 45.4098C143.497 45.4098 141.964 44.9743 140.676 44.1033C139.4 43.22 138.431 42.0608 137.768 40.6255V54.0951ZM145.276 27.1191C143.718 27.1191 142.381 27.5055 141.265 28.2784C140.161 29.039 139.314 30.0694 138.725 31.3698C138.136 32.6578 137.842 34.0992 137.842 35.694C137.842 37.2642 138.13 38.7056 138.707 40.0183C139.283 41.3186 140.124 42.3613 141.228 43.1464C142.344 43.9193 143.694 44.3057 145.276 44.3057C146.81 44.3057 148.226 43.9254 149.527 43.1648C150.827 42.4043 151.87 41.3738 152.655 40.0735C153.452 38.7731 153.851 37.3133 153.851 35.694C153.851 34.1238 153.465 32.6885 152.692 31.3882C151.931 30.0878 150.901 29.0512 149.6 28.2784C148.3 27.5055 146.859 27.1191 145.276 27.1191ZM158.448 37.6629V26.4935H159.552V37.6629C159.552 38.8774 159.847 39.9876 160.435 40.9935C161.037 41.9872 161.834 42.7845 162.828 43.3856C163.833 43.9745 164.944 44.2689 166.158 44.2689C167.373 44.2689 168.477 43.9745 169.47 43.3856C170.476 42.7845 171.274 41.9872 171.862 40.9935C172.464 39.9876 172.764 38.8774 172.764 37.6629V26.4935H173.868V44.8945H172.764V41.6375C172.089 42.7539 171.169 43.6555 170.004 44.3425C168.839 45.0295 167.557 45.373 166.158 45.373C164.735 45.373 163.441 45.0295 162.276 44.3425C161.11 43.6433 160.178 42.7109 159.479 41.5455C158.792 40.3801 158.448 39.0859 158.448 37.6629ZM178.865 44.8945V17.2929H179.969V44.8945H178.865ZM185.319 26.4935H186.423V44.8945H185.319V26.4935ZM185.89 22.6293C185.657 22.6293 185.454 22.5556 185.283 22.4084C185.123 22.249 185.043 22.0527 185.043 21.8196C185.043 21.5743 185.123 21.378 185.283 21.2308C185.454 21.0836 185.657 21.01 185.89 21.01C186.111 21.01 186.301 21.0836 186.46 21.2308C186.62 21.378 186.699 21.5681 186.699 21.8012C186.699 22.0466 186.62 22.249 186.46 22.4084C186.301 22.5556 186.111 22.6293 185.89 22.6293ZM191.99 44.8945V17.2929H193.094V44.8945H191.99ZM198.445 44.8945V17.2929H199.549V44.8945H198.445ZM212.996 45.373C211.303 45.373 209.757 44.9375 208.359 44.0665C206.972 43.1955 205.862 42.0301 205.028 40.5703C204.206 39.0982 203.795 37.4728 203.795 35.694C203.795 34.3446 204.034 33.0872 204.513 31.9218C204.991 30.7441 205.648 29.7137 206.482 28.8304C207.328 27.9349 208.31 27.2357 209.426 26.7327C210.542 26.2297 211.732 25.9782 212.996 25.9782C214.308 25.9782 215.517 26.2236 216.621 26.7143C217.725 27.205 218.688 27.9042 219.51 28.812C220.332 29.7198 220.97 30.8055 221.423 32.069C221.89 33.3203 222.135 34.7126 222.159 36.246H204.899C205.022 37.7795 205.457 39.1534 206.206 40.3679C206.966 41.5701 207.935 42.5208 209.113 43.22C210.291 43.9193 211.585 44.2689 212.996 44.2689C214.566 44.2689 215.977 43.8518 217.228 43.0176C218.479 42.1834 219.473 41.0303 220.209 39.5582L221.313 39.8158C220.577 41.4474 219.467 42.7845 217.982 43.8273C216.498 44.8577 214.836 45.373 212.996 45.373ZM204.899 35.142H221.055C221.006 33.7067 220.614 32.3757 219.878 31.1489C219.142 29.9222 218.173 28.9408 216.97 28.2048C215.768 27.4565 214.443 27.0823 212.996 27.0823C211.536 27.0823 210.211 27.4442 209.021 28.168C207.843 28.8917 206.887 29.867 206.151 31.0937C205.414 32.3082 204.997 33.6576 204.899 35.142ZM242.505 45.373C241.082 45.373 239.837 45.0356 238.769 44.3609C237.702 43.6739 236.874 42.7845 236.285 41.6927C235.696 40.601 235.402 39.4478 235.402 38.2333C235.402 37.4237 235.488 36.7306 235.66 36.154C235.844 35.5652 236.162 34.9702 236.616 34.3691C237.07 33.768 237.708 33.0565 238.53 32.2346C239.364 31.4004 240.432 30.3332 241.732 29.0328C240.934 28.2232 240.284 27.5607 239.781 27.0455C239.278 26.5303 238.892 26.0887 238.622 25.7206C238.352 25.3526 238.162 24.9846 238.052 24.6166C237.954 24.2485 237.904 23.8069 237.904 23.2917C237.904 22.4452 238.113 21.6724 238.53 20.9732C238.947 20.2616 239.505 19.6974 240.205 19.2803C240.904 18.8632 241.671 18.6546 242.505 18.6546C243.351 18.6546 244.124 18.8632 244.823 19.2803C245.535 19.6974 246.099 20.2555 246.516 20.9548C246.933 21.654 247.142 22.433 247.142 23.2917C247.142 23.8192 247.087 24.2792 246.976 24.6718C246.866 25.0521 246.669 25.4323 246.387 25.8126C246.105 26.1807 245.713 26.6161 245.21 27.1191C244.719 27.6221 244.087 28.26 243.314 29.0328L251.742 37.4605L255.349 33.8907V35.4364L252.478 38.307L258.33 44.1217L257.557 44.8945L251.742 39.1166C250.429 40.4292 249.356 41.4965 248.522 42.3184C247.7 43.1403 246.988 43.7721 246.387 44.2137C245.798 44.6553 245.21 44.9559 244.621 45.1153C244.044 45.2871 243.339 45.373 242.505 45.373ZM242.505 44.2689C243.253 44.2689 243.885 44.1892 244.4 44.0297C244.928 43.8702 245.455 43.5819 245.983 43.1648C246.522 42.7355 247.179 42.1282 247.951 41.3431C248.724 40.558 249.73 39.5337 250.969 38.2702L242.505 29.8057C241.229 31.0937 240.192 32.1303 239.395 32.9154C238.61 33.7006 238.009 34.363 237.592 34.9028C237.187 35.4303 236.911 35.9516 236.764 36.4668C236.616 36.9698 236.543 37.5832 236.543 38.307C236.543 39.411 236.807 40.4169 237.334 41.3247C237.862 42.2202 238.573 42.9379 239.469 43.4776C240.376 44.0051 241.388 44.2689 242.505 44.2689ZM242.505 28.26C243.486 27.2909 244.228 26.5487 244.731 26.0334C245.246 25.5182 245.59 25.0766 245.762 24.7086C245.946 24.3283 246.038 23.856 246.038 23.2917C246.038 22.3103 245.694 21.4761 245.007 20.7891C244.32 20.1022 243.486 19.7587 242.505 19.7587C241.499 19.7587 240.665 20.1206 240.002 20.8443C239.34 21.5559 239.009 22.3716 239.009 23.2917C239.009 23.8683 239.101 24.3467 239.285 24.727C239.481 25.1073 239.83 25.555 240.333 26.0703C240.836 26.5732 241.56 27.3031 242.505 28.26ZM272.696 44.8945L277.664 19.1331H278.142L286.055 39.963L293.93 19.1331H294.409L299.414 44.8945H298.273L293.894 22.298L286.312 42.3552H285.76L278.179 22.298L273.8 44.8945H272.696ZM311.722 45.373C310.029 45.373 308.483 44.9375 307.085 44.0665C305.698 43.1955 304.588 42.0301 303.754 40.5703C302.932 39.0982 302.521 37.4728 302.521 35.694C302.521 34.3446 302.76 33.0872 303.239 31.9218C303.717 30.7441 304.374 29.7137 305.208 28.8304C306.054 27.9349 307.036 27.2357 308.152 26.7327C309.268 26.2297 310.458 25.9782 311.722 25.9782C313.034 25.9782 314.243 26.2236 315.347 26.7143C316.451 27.205 317.414 27.9042 318.236 28.812C319.058 29.7198 319.695 30.8055 320.149 32.069C320.616 33.3203 320.861 34.7126 320.885 36.246H303.625C303.748 37.7795 304.183 39.1534 304.932 40.3679C305.692 41.5701 306.661 42.5208 307.839 43.22C309.017 43.9193 310.311 44.2689 311.722 44.2689C313.292 44.2689 314.703 43.8518 315.954 43.0176C317.205 42.1834 318.199 41.0303 318.935 39.5582L320.039 39.8158C319.303 41.4474 318.193 42.7845 316.708 43.8273C315.224 44.8577 313.562 45.373 311.722 45.373ZM303.625 35.142H319.781C319.732 33.7067 319.34 32.3757 318.604 31.1489C317.868 29.9222 316.899 28.9408 315.696 28.2048C314.494 27.4565 313.169 27.0823 311.722 27.0823C310.262 27.0823 308.937 27.4442 307.747 28.168C306.569 28.8917 305.613 29.867 304.877 31.0937C304.14 32.3082 303.723 33.6576 303.625 35.142ZM340.826 17.2929H341.93V44.8945H340.826V40.5887C340.163 42.024 339.194 43.1832 337.918 44.0665C336.643 44.9375 335.109 45.373 333.318 45.373C331.981 45.373 330.73 45.1215 329.564 44.6185C328.399 44.1156 327.369 43.4224 326.473 42.5392C325.59 41.6437 324.897 40.6132 324.394 39.4478C323.891 38.2824 323.639 37.0311 323.639 35.694C323.639 34.3446 323.891 33.0872 324.394 31.9218C324.897 30.7441 325.59 29.7137 326.473 28.8304C327.369 27.9349 328.399 27.2357 329.564 26.7327C330.73 26.2297 331.981 25.9782 333.318 25.9782C335.109 25.9782 336.643 26.4199 337.918 27.3031C339.194 28.1741 340.163 29.3272 340.826 30.7625V17.2929ZM333.318 44.2689C334.901 44.2689 336.244 43.8825 337.348 43.1096C338.464 42.3368 339.311 41.3002 339.887 39.9999C340.464 38.6995 340.752 37.2642 340.752 35.694C340.752 34.087 340.458 32.6333 339.869 31.333C339.28 30.0326 338.428 29.0022 337.311 28.2416C336.207 27.4687 334.876 27.0823 333.318 27.0823C331.748 27.0823 330.313 27.4687 329.012 28.2416C327.712 29.0144 326.675 30.0571 325.903 31.3698C325.13 32.6701 324.743 34.1115 324.743 35.694C324.743 37.301 325.136 38.7547 325.921 40.0551C326.718 41.3431 327.767 42.3675 329.068 43.128C330.368 43.8886 331.785 44.2689 333.318 44.2689ZM355.36 45.373C353.667 45.373 352.121 44.9375 350.722 44.0665C349.336 43.1955 348.226 42.0301 347.392 40.5703C346.57 39.0982 346.159 37.4728 346.159 35.694C346.159 34.3446 346.398 33.0872 346.877 31.9218C347.355 30.7441 348.011 29.7137 348.846 28.8304C349.692 27.9349 350.673 27.2357 351.79 26.7327C352.906 26.2297 354.096 25.9782 355.36 25.9782C356.672 25.9782 357.88 26.2236 358.985 26.7143C360.089 27.205 361.052 27.9042 361.873 28.812C362.695 29.7198 363.333 30.8055 363.787 32.069C364.253 33.3203 364.499 34.7126 364.523 36.246H347.263C347.386 37.7795 347.821 39.1534 348.57 40.3679C349.33 41.5701 350.299 42.5208 351.477 43.22C352.655 43.9193 353.949 44.2689 355.36 44.2689C356.93 44.2689 358.34 43.8518 359.592 43.0176C360.843 42.1834 361.837 41.0303 362.573 39.5582L363.677 39.8158C362.941 41.4474 361.831 42.7845 360.346 43.8273C358.862 44.8577 357.2 45.373 355.36 45.373ZM347.263 35.142H363.419C363.37 33.7067 362.978 32.3757 362.242 31.1489C361.505 29.9222 360.536 28.9408 359.334 28.2048C358.132 27.4565 356.807 27.0823 355.36 27.0823C353.9 27.0823 352.575 27.4442 351.385 28.168C350.207 28.8917 349.25 29.867 348.514 31.0937C347.778 32.3082 347.361 33.6576 347.263 35.142ZM368.741 26.4935H369.845V44.8945H368.741V26.4935ZM369.311 22.6293C369.078 22.6293 368.875 22.5556 368.704 22.4084C368.544 22.249 368.465 22.0527 368.465 21.8196C368.465 21.5743 368.544 21.378 368.704 21.2308C368.875 21.0836 369.078 21.01 369.311 21.01C369.532 21.01 369.722 21.0836 369.881 21.2308C370.041 21.378 370.121 21.5681 370.121 21.8012C370.121 22.0466 370.041 22.249 369.881 22.4084C369.722 22.5556 369.532 22.6293 369.311 22.6293ZM375.195 44.8945V26.4935H376.299V29.7137C376.974 28.5851 377.894 27.6834 379.06 27.0087C380.225 26.3217 381.507 25.9782 382.905 25.9782C383.629 25.9782 384.322 26.0703 384.985 26.2543L384.506 27.2847C383.966 27.1498 383.433 27.0823 382.905 27.0823C381.691 27.0823 380.581 27.3829 379.575 27.984C378.581 28.5728 377.784 29.364 377.183 30.3577C376.594 31.3514 376.299 32.4616 376.299 33.6883V44.8945H375.195ZM395.497 45.373C393.804 45.373 392.258 44.9375 390.86 44.0665C389.474 43.1955 388.363 42.0301 387.529 40.5703C386.707 39.0982 386.296 37.4728 386.296 35.694C386.296 34.3446 386.536 33.0872 387.014 31.9218C387.492 30.7441 388.149 29.7137 388.983 28.8304C389.829 27.9349 390.811 27.2357 391.927 26.7327C393.043 26.2297 394.233 25.9782 395.497 25.9782C397.19 25.9782 398.729 26.4137 400.115 27.2847C401.514 28.1557 402.624 29.3272 403.446 30.7993C404.28 32.2714 404.697 33.903 404.697 35.694C404.697 37.0311 404.458 38.2824 403.98 39.4478C403.501 40.6132 402.839 41.6437 401.992 42.5392C401.158 43.4224 400.183 44.1156 399.067 44.6185C397.963 45.1215 396.773 45.373 395.497 45.373ZM395.497 44.2689C397.018 44.2689 398.386 43.8763 399.6 43.0912C400.827 42.2938 401.796 41.245 402.508 39.9446C403.231 38.6443 403.593 37.2274 403.593 35.694C403.593 34.1483 403.231 32.7253 402.508 31.425C401.796 30.1123 400.827 29.0635 399.6 28.2784C398.386 27.481 397.018 27.0823 395.497 27.0823C393.963 27.0823 392.583 27.481 391.357 28.2784C390.142 29.0635 389.179 30.1123 388.468 31.425C387.756 32.7253 387.4 34.1483 387.4 35.694C387.4 37.2888 387.768 38.7363 388.504 40.0367C389.24 41.3247 390.222 42.3552 391.449 43.128C392.675 43.8886 394.025 44.2689 395.497 44.2689ZM414.802 45.2626C413.747 45.2626 412.717 45.0847 411.711 44.7289C410.717 44.3732 409.852 43.8947 409.116 43.2936C408.38 42.6925 407.883 42.024 407.626 41.2879L408.656 40.8463C408.889 41.5087 409.343 42.0914 410.018 42.5944C410.705 43.0851 411.478 43.4715 412.336 43.7537C413.207 44.0235 414.029 44.1585 414.802 44.1585C415.759 44.1585 416.654 43.9929 417.489 43.6617C418.323 43.3182 418.998 42.8459 419.513 42.2448C420.028 41.6437 420.286 40.9444 420.286 40.1471C420.286 39.3129 420.016 38.6566 419.476 38.1781C418.948 37.6875 418.262 37.2888 417.415 36.9821C416.581 36.6754 415.71 36.381 414.802 36.0988C413.391 35.6572 412.189 35.2401 411.196 34.8476C410.214 34.455 409.466 33.9704 408.951 33.3939C408.435 32.805 408.178 32.0015 408.178 30.9833C408.178 29.9406 408.491 29.039 409.116 28.2784C409.742 27.5055 410.558 26.9106 411.564 26.4935C412.569 26.0764 413.649 25.8678 414.802 25.8678C416.336 25.8678 417.716 26.2113 418.942 26.8983C420.181 27.573 421.022 28.444 421.463 29.5112L420.506 30.0633C420.249 29.4131 419.813 28.8611 419.2 28.4072C418.599 27.941 417.906 27.5853 417.121 27.3399C416.348 27.0946 415.575 26.9719 414.802 26.9719C413.833 26.9719 412.925 27.1375 412.079 27.4687C411.245 27.7877 410.57 28.2477 410.055 28.8488C409.539 29.4499 409.282 30.1614 409.282 30.9833C409.282 31.8298 409.496 32.48 409.926 32.9338C410.367 33.3755 410.999 33.7374 411.821 34.0195C412.643 34.3017 413.637 34.6267 414.802 34.9948C415.955 35.3628 417.029 35.7492 418.022 36.154C419.028 36.5589 419.838 37.0741 420.451 37.6997C421.077 38.3131 421.39 39.1289 421.39 40.1471C421.39 41.1898 421.077 42.0976 420.451 42.8704C419.838 43.631 419.028 44.2198 418.022 44.6369C417.016 45.054 415.943 45.2626 414.802 45.2626Z" fill="#2E2E2E"/>
</g>
<defs>
<clipPath id="clip0_803_139">
<rect width="430" height="84.8605" fill="white"/>
</clipPath>
</defs>
</svg>
