<svg width="168" height="41" viewBox="0 0 168 41" fill="none" xmlns="http://www.w3.org/2000/svg">
<path d="M78.1551 33.2344L77.5966 31.7834H75.8733L75.3036 33.2344H75.0089L76.6227 29.1171H76.8865L78.4582 33.2344H78.1551ZM77.504 31.5223L76.937 29.9843C76.9221 29.945 76.9033 29.8945 76.8809 29.8328C76.8603 29.771 76.8379 29.7055 76.8135 29.6363C76.7911 29.5671 76.7686 29.5016 76.7462 29.4398C76.7275 29.5053 76.7069 29.5708 76.6844 29.6363C76.662 29.7018 76.6405 29.7654 76.6199 29.8271C76.5993 29.887 76.5796 29.9413 76.5609 29.9899L75.9715 31.5223H77.504ZM84.0282 31.1434C84.0282 31.6019 83.9468 31.9864 83.784 32.297C83.6231 32.6076 83.3836 32.8414 83.0655 32.9986C82.7493 33.1558 82.3573 33.2344 81.8896 33.2344H80.9073V29.1311H82.0187C82.4565 29.1311 82.8242 29.2078 83.1217 29.3612C83.4192 29.5147 83.6446 29.7411 83.7981 30.0404C83.9515 30.338 84.0282 30.7056 84.0282 31.1434ZM83.7251 31.1547C83.7251 30.7636 83.6615 30.4371 83.5342 30.1752C83.407 29.9132 83.2124 29.7168 82.9505 29.5858C82.6885 29.4529 82.3564 29.3865 81.9541 29.3865H81.1963V32.979H81.8755C82.4949 32.979 82.958 32.8274 83.2648 32.5243C83.5717 32.2193 83.7251 31.7628 83.7251 31.1547ZM89.573 29.1311L88.0574 33.2344H87.7711L86.2555 29.1311H86.5587L87.6813 32.1679C87.7131 32.2558 87.743 32.3419 87.7711 32.4261C87.7992 32.5084 87.8254 32.5879 87.8497 32.6646C87.874 32.7413 87.8955 32.8153 87.9142 32.8864C87.933 32.8153 87.9535 32.7432 87.976 32.6702C88.0003 32.5954 88.0265 32.5168 88.0546 32.4345C88.0826 32.3503 88.1135 32.2605 88.1472 32.1651L89.267 29.1311H89.573ZM95.4713 31.1771C95.4713 31.4896 95.433 31.7749 95.3563 32.0331C95.2796 32.2914 95.1645 32.514 95.0111 32.7011C94.8576 32.8882 94.6658 33.0332 94.4357 33.1361C94.2074 33.2391 93.9408 33.2905 93.6358 33.2905C93.329 33.2905 93.0605 33.2391 92.8303 33.1361C92.6002 33.0332 92.4084 32.8882 92.255 32.7011C92.1034 32.5121 91.9893 32.2885 91.9126 32.0303C91.8358 31.7703 91.7975 31.484 91.7975 31.1715C91.7975 30.7561 91.8676 30.3903 92.008 30.0741C92.1502 29.7579 92.3588 29.5109 92.6339 29.3332C92.9108 29.1554 93.2522 29.0666 93.6583 29.0666C94.0474 29.0666 94.3768 29.1517 94.6462 29.322C94.9175 29.4904 95.1224 29.7327 95.2608 30.0489C95.4012 30.3632 95.4713 30.7393 95.4713 31.1771ZM92.1006 31.1743C92.1006 31.5411 92.1558 31.8647 92.2662 32.1454C92.3766 32.4242 92.5459 32.6422 92.7742 32.7993C93.0025 32.9565 93.2906 33.0351 93.6386 33.0351C93.9904 33.0351 94.2795 32.9575 94.5059 32.8022C94.7323 32.6469 94.8997 32.4298 95.0082 32.151C95.1168 31.8722 95.171 31.5476 95.171 31.1771C95.171 30.5915 95.0429 30.1368 94.7865 29.8131C94.5321 29.4894 94.156 29.3276 93.6583 29.3276C93.3084 29.3276 93.0174 29.4052 92.7854 29.5605C92.5553 29.7158 92.3831 29.9319 92.269 30.2088C92.1567 30.4858 92.1006 30.8076 92.1006 31.1743ZM99.9019 31.1631H101.409V33.0463C101.213 33.1287 101.003 33.1904 100.78 33.2316C100.558 33.2709 100.321 33.2905 100.07 33.2905C99.6343 33.2905 99.2666 33.2082 98.9673 33.0435C98.6698 32.877 98.4443 32.6366 98.2909 32.3222C98.1374 32.0079 98.0607 31.6299 98.0607 31.1884C98.0607 30.7767 98.144 30.4109 98.3105 30.091C98.4789 29.771 98.7193 29.5203 99.0318 29.3388C99.3443 29.1573 99.7185 29.0666 100.154 29.0666C100.379 29.0666 100.59 29.0871 100.789 29.1283C100.989 29.1695 101.179 29.2312 101.358 29.3135L101.243 29.5717C101.066 29.4894 100.884 29.4277 100.699 29.3865C100.516 29.3453 100.329 29.3248 100.14 29.3248C99.7699 29.3248 99.4509 29.4043 99.1834 29.5633C98.9177 29.7205 98.7137 29.9394 98.5715 30.2201C98.4312 30.4989 98.361 30.8207 98.361 31.1855C98.361 31.5991 98.4293 31.9424 98.5659 32.2156C98.7025 32.4888 98.9018 32.6936 99.1637 32.8302C99.4275 32.9668 99.7475 33.0351 100.124 33.0351C100.329 33.0351 100.514 33.0201 100.676 32.9902C100.841 32.9603 100.99 32.921 101.123 32.8723V31.4269H99.9019V31.1631ZM106.878 33.2344L106.319 31.7834H104.596L104.026 33.2344H103.732L105.346 29.1171H105.609L107.181 33.2344H106.878ZM106.227 31.5223L105.66 29.9843C105.645 29.945 105.626 29.8945 105.604 29.8328C105.583 29.771 105.561 29.7055 105.536 29.6363C105.514 29.5671 105.492 29.5016 105.469 29.4398C105.45 29.5053 105.43 29.5708 105.407 29.6363C105.385 29.7018 105.363 29.7654 105.343 29.8271C105.322 29.887 105.303 29.9413 105.284 29.9899L104.694 31.5223H106.227ZM112.751 31.1434C112.751 31.6019 112.67 31.9864 112.507 32.297C112.346 32.6076 112.107 32.8414 111.788 32.9986C111.472 33.1558 111.08 33.2344 110.612 33.2344H109.63V29.1311H110.742C111.179 29.1311 111.547 29.2078 111.845 29.3612C112.142 29.5147 112.368 29.7411 112.521 30.0404C112.674 30.338 112.751 30.7056 112.751 31.1434ZM112.448 31.1547C112.448 30.7636 112.384 30.4371 112.257 30.1752C112.13 29.9132 111.935 29.7168 111.673 29.5858C111.411 29.4529 111.079 29.3865 110.677 29.3865H109.919V32.979H110.598C111.218 32.979 111.681 32.8274 111.988 32.5243C112.295 32.2193 112.448 31.7628 112.448 31.1547ZM118.125 33.2344L117.566 31.7834H115.843L115.273 33.2344H114.978L116.592 29.1171H116.856L118.428 33.2344H118.125ZM117.473 31.5223L116.907 29.9843C116.892 29.945 116.873 29.8945 116.85 29.8328C116.83 29.771 116.807 29.7055 116.783 29.6363C116.761 29.5671 116.738 29.5016 116.716 29.4398C116.697 29.5053 116.676 29.5708 116.654 29.6363C116.632 29.7018 116.61 29.7654 116.589 29.8271C116.569 29.887 116.549 29.9413 116.53 29.9899L115.941 31.5223H117.473ZM123.136 32.1763C123.136 32.4214 123.074 32.6272 122.951 32.7937C122.827 32.9584 122.66 33.0828 122.449 33.167C122.237 33.2493 121.998 33.2905 121.73 33.2905C121.563 33.2905 121.412 33.2821 121.275 33.2652C121.141 33.2503 121.018 33.2297 120.908 33.2035C120.799 33.1773 120.7 33.1474 120.61 33.1137V32.8246C120.756 32.8807 120.925 32.9303 121.115 32.9734C121.308 33.0145 121.518 33.0351 121.744 33.0351C121.957 33.0351 122.146 33.0042 122.311 32.9425C122.478 32.8807 122.608 32.7872 122.704 32.6618C122.799 32.5365 122.847 32.3784 122.847 32.1875C122.847 32.0191 122.807 31.8816 122.726 31.7749C122.648 31.6664 122.529 31.5738 122.37 31.4971C122.211 31.4185 122.011 31.339 121.769 31.2585C121.601 31.2005 121.447 31.1397 121.309 31.0761C121.172 31.0106 121.055 30.9358 120.958 30.8516C120.861 30.7655 120.786 30.6626 120.734 30.5428C120.683 30.4212 120.658 30.2781 120.658 30.1134C120.658 29.887 120.715 29.6971 120.829 29.5437C120.945 29.3884 121.101 29.2714 121.298 29.1929C121.496 29.1124 121.719 29.0722 121.966 29.0722C122.162 29.0722 122.348 29.0909 122.524 29.1283C122.702 29.1639 122.873 29.2181 123.038 29.2911L122.937 29.5409C122.772 29.4698 122.608 29.4174 122.443 29.3837C122.278 29.35 122.115 29.3332 121.955 29.3332C121.762 29.3332 121.59 29.3622 121.438 29.4202C121.288 29.4763 121.17 29.5615 121.082 29.6756C120.994 29.7897 120.95 29.9338 120.95 30.1078C120.95 30.2874 120.99 30.4324 121.07 30.5428C121.153 30.6532 121.269 30.7449 121.418 30.8179C121.57 30.8909 121.749 30.962 121.955 31.0312C122.198 31.1135 122.407 31.2005 122.583 31.2922C122.759 31.382 122.895 31.4961 122.99 31.6346C123.087 31.7731 123.136 31.9536 123.136 32.1763Z" fill="#494949"/>
<path d="M40.5394 9.66225C40.915 9.66225 41.2905 9.70057 41.666 9.77721C42.0492 9.85385 42.3558 9.95731 42.5857 10.0876C42.647 10.1259 42.6853 10.1642 42.7006 10.2026C42.7236 10.2332 42.739 10.2869 42.7466 10.3635L42.8731 11.5706C42.8731 11.5936 42.8539 11.6089 42.8156 11.6165C42.7773 11.6165 42.7543 11.6051 42.7466 11.5821C42.4707 10.4631 41.5855 9.90366 40.0911 9.90366C39.4933 9.90366 38.9645 10.0339 38.5046 10.2945C38.0525 10.5474 37.6999 10.9076 37.447 11.3751C37.1941 11.8426 37.0677 12.3829 37.0677 12.9961C37.0677 13.7165 37.2248 14.3832 37.539 14.9963C37.8532 15.6018 38.2709 16.0846 38.792 16.4448C39.3132 16.7974 39.8765 16.9736 40.4819 16.9736C41.0491 16.9736 41.5357 16.8242 41.9419 16.5253C42.3558 16.2264 42.6585 15.7704 42.8501 15.1573C42.8501 15.1343 42.8654 15.1228 42.8961 15.1228C42.9191 15.1228 42.9382 15.1266 42.9536 15.1343C42.9765 15.142 42.988 15.1535 42.988 15.1688L42.8271 16.3988C42.8118 16.4908 42.7926 16.5521 42.7696 16.5828C42.7543 16.6058 42.7121 16.6326 42.6432 16.6632C41.9611 16.9621 41.2292 17.1116 40.4475 17.1116C39.5278 17.1116 38.7614 16.9276 38.1483 16.5598C37.5352 16.1842 37.083 15.7091 36.7918 15.1343C36.5005 14.5518 36.3549 13.9426 36.3549 13.3064C36.3549 12.609 36.5503 11.9844 36.9412 11.4326C37.3321 10.8731 37.8494 10.4401 38.4932 10.1336C39.1369 9.81936 39.819 9.66225 40.5394 9.66225ZM50.3448 10.9958C50.3448 10.6279 50.2643 10.3597 50.1034 10.1911C49.9501 10.0148 49.7048 9.92665 49.3676 9.92665C49.3446 9.92665 49.3331 9.90366 49.3331 9.85768C49.3331 9.81169 49.3446 9.7887 49.3676 9.7887L49.8505 9.8002C50.111 9.81553 50.3218 9.82319 50.4827 9.82319C50.6207 9.82319 50.8046 9.81553 51.0345 9.8002L51.5059 9.7887C51.5212 9.7887 51.5289 9.81169 51.5289 9.85768C51.5289 9.90366 51.5212 9.92665 51.5059 9.92665C51.1916 9.92665 50.9617 10.0148 50.8161 10.1911C50.6705 10.3597 50.5977 10.6279 50.5977 10.9958V14.2836C50.5977 15.1803 50.3563 15.8777 49.8735 16.3758C49.3906 16.874 48.7392 17.1231 47.9192 17.1231C47.352 17.1231 46.8577 17.012 46.4362 16.7897C46.0147 16.5598 45.6889 16.2379 45.459 15.824C45.2291 15.4102 45.1142 14.9312 45.1142 14.3871V10.7199C45.1142 10.49 45.0873 10.3213 45.0337 10.2141C44.9877 10.1068 44.8919 10.0339 44.7463 9.99563C44.6083 9.94964 44.3899 9.92665 44.091 9.92665C44.0757 9.92665 44.068 9.90366 44.068 9.85768C44.068 9.81169 44.0757 9.7887 44.091 9.7887L44.6428 9.8002C44.9647 9.81553 45.2214 9.82319 45.413 9.82319C45.62 9.82319 45.8844 9.81553 46.2063 9.8002L46.7351 9.7887C46.7581 9.7887 46.7696 9.81169 46.7696 9.85768C46.7696 9.90366 46.7581 9.92665 46.7351 9.92665C46.4362 9.92665 46.2178 9.94964 46.0798 9.99563C45.9419 10.0416 45.8461 10.1221 45.7924 10.237C45.7464 10.3443 45.7234 10.5129 45.7234 10.7429V13.9847C45.7234 14.8814 45.9342 15.575 46.3557 16.0655C46.7772 16.5483 47.3673 16.7897 48.1261 16.7897C48.8235 16.7897 49.3676 16.5713 49.7585 16.1344C50.1494 15.6899 50.3448 15.0768 50.3448 14.2951V10.9958ZM54.2105 15.9965C54.2105 16.2417 54.2449 16.4218 54.3139 16.5368C54.3829 16.6441 54.5132 16.7207 54.7048 16.7667C54.904 16.8127 55.2183 16.8357 55.6474 16.8357C55.6704 16.8357 55.6819 16.8587 55.6819 16.9047C55.6819 16.9506 55.6704 16.9736 55.6474 16.9736C55.3332 16.9736 55.088 16.9698 54.9117 16.9621L53.9116 16.9506L53.1528 16.9621C53.0149 16.9698 52.8233 16.9736 52.578 16.9736C52.5627 16.9736 52.555 16.9506 52.555 16.9047C52.555 16.8587 52.5627 16.8357 52.578 16.8357C52.8769 16.8357 53.0954 16.8165 53.2333 16.7782C53.3789 16.7399 53.4747 16.6671 53.5207 16.5598C53.5743 16.4448 53.6012 16.2724 53.6012 16.0425V10.7199C53.6012 10.49 53.5743 10.3213 53.5207 10.2141C53.4747 10.1068 53.3789 10.0339 53.2333 9.99563C53.0954 9.94964 52.8769 9.92665 52.578 9.92665C52.5627 9.92665 52.555 9.90366 52.555 9.85768C52.555 9.81169 52.5627 9.7887 52.578 9.7887L53.1413 9.8002C53.4632 9.81553 53.7161 9.82319 53.9001 9.82319C54.084 9.82319 54.2948 9.81169 54.5323 9.7887C55.1301 9.76571 55.4558 9.75422 55.5095 9.75422C56.1839 9.75422 56.7319 9.91133 57.1534 10.2255C57.5749 10.5321 57.7857 11.0034 57.7857 11.6395C57.7857 12.153 57.6592 12.586 57.4063 12.9386C57.1534 13.2835 56.8315 13.5402 56.4407 13.7088C56.0575 13.8774 55.6589 13.9617 55.2451 13.9617C55.0152 13.9617 54.8274 13.9426 54.6818 13.9042C54.6588 13.9042 54.6473 13.8851 54.6473 13.8468C54.6473 13.8238 54.6511 13.8008 54.6588 13.7778C54.6741 13.7548 54.6895 13.7471 54.7048 13.7548C54.8274 13.7854 54.9654 13.8008 55.1186 13.8008C55.6628 13.8008 56.1226 13.636 56.4981 13.3064C56.8813 12.9769 57.0729 12.4979 57.0729 11.8695C57.0729 11.4633 56.9925 11.1146 56.8315 10.8233C56.6706 10.5244 56.4483 10.2984 56.1648 10.1451C55.8889 9.98413 55.5823 9.90366 55.2451 9.90366C54.9309 9.90366 54.7086 9.91899 54.5783 9.94965C54.448 9.9803 54.3522 10.0531 54.2909 10.1681C54.2373 10.2754 54.2105 10.467 54.2105 10.7429V15.9965ZM65.1435 10.9958C65.1435 10.6279 65.063 10.3597 64.9021 10.1911C64.7488 10.0148 64.5036 9.92665 64.1663 9.92665C64.1434 9.92665 64.1319 9.90366 64.1319 9.85768C64.1319 9.81169 64.1434 9.7887 64.1663 9.7887L64.6492 9.8002C64.9097 9.81553 65.1205 9.82319 65.2814 9.82319C65.4194 9.82319 65.6033 9.81553 65.8332 9.8002L66.3046 9.7887C66.3199 9.7887 66.3276 9.81169 66.3276 9.85768C66.3276 9.90366 66.3199 9.92665 66.3046 9.92665C65.9904 9.92665 65.7604 10.0148 65.6148 10.1911C65.4692 10.3597 65.3964 10.6279 65.3964 10.9958V14.2836C65.3964 15.1803 65.155 15.8777 64.6722 16.3758C64.1893 16.874 63.5379 17.1231 62.7179 17.1231C62.1507 17.1231 61.6564 17.012 61.2349 16.7897C60.8134 16.5598 60.4877 16.2379 60.2577 15.824C60.0278 15.4102 59.9129 14.9312 59.9129 14.3871V10.7199C59.9129 10.49 59.886 10.3213 59.8324 10.2141C59.7864 10.1068 59.6906 10.0339 59.545 9.99563C59.407 9.94964 59.1886 9.92665 58.8897 9.92665C58.8744 9.92665 58.8667 9.90366 58.8667 9.85768C58.8667 9.81169 58.8744 9.7887 58.8897 9.7887L59.4415 9.8002C59.7634 9.81553 60.0202 9.82319 60.2118 9.82319C60.4187 9.82319 60.6831 9.81553 61.005 9.8002L61.5338 9.7887C61.5568 9.7887 61.5683 9.81169 61.5683 9.85768C61.5683 9.90366 61.5568 9.92665 61.5338 9.92665C61.2349 9.92665 61.0165 9.94964 60.8785 9.99563C60.7406 10.0416 60.6448 10.1221 60.5911 10.237C60.5451 10.3443 60.5221 10.5129 60.5221 10.7429V13.9847C60.5221 14.8814 60.7329 15.575 61.1544 16.0655C61.5759 16.5483 62.1661 16.7897 62.9248 16.7897C63.6222 16.7897 64.1663 16.5713 64.5572 16.1344C64.9481 15.6899 65.1435 15.0768 65.1435 14.2951V10.9958ZM68.9172 15.9965C68.9172 16.2187 68.9402 16.3835 68.9862 16.4908C69.0398 16.5904 69.1318 16.6594 69.2621 16.6977C69.4 16.7361 69.6146 16.7552 69.9058 16.7552H71.3773C72.136 16.7552 72.5844 16.2686 72.7223 15.2952C72.7223 15.2722 72.7415 15.2646 72.7798 15.2722C72.8258 15.2722 72.8488 15.2837 72.8488 15.3067C72.7798 15.9122 72.7453 16.4103 72.7453 16.8012C72.7453 16.8625 72.7338 16.9085 72.7108 16.9391C72.6878 16.9621 72.6419 16.9736 72.5729 16.9736H67.2848C67.2695 16.9736 67.2618 16.9506 67.2618 16.9047C67.2618 16.8587 67.2695 16.8357 67.2848 16.8357C67.5837 16.8357 67.8021 16.8165 67.94 16.7782C68.0857 16.7399 68.1815 16.6671 68.2274 16.5598C68.2811 16.4448 68.3079 16.2724 68.3079 16.0425V10.7199C68.3079 10.49 68.2811 10.3213 68.2274 10.2141C68.1815 10.1068 68.0857 10.0339 67.94 9.99563C67.8021 9.94964 67.5837 9.92665 67.2848 9.92665C67.2695 9.92665 67.2618 9.90366 67.2618 9.85768C67.2618 9.81169 67.2695 9.7887 67.2848 9.7887L67.8481 9.8002C68.17 9.81553 68.4229 9.82319 68.6068 9.82319C68.8137 9.82319 69.0781 9.81553 69.4 9.8002L69.9403 9.7887C69.9557 9.7887 69.9633 9.81169 69.9633 9.85768C69.9633 9.90366 69.9557 9.92665 69.9403 9.92665C69.6414 9.92665 69.4192 9.94964 69.2736 9.99563C69.1356 10.0339 69.0398 10.1106 68.9862 10.2255C68.9402 10.3328 68.9172 10.5014 68.9172 10.7314V15.9965ZM75.4615 16.0425C75.4615 16.28 75.4845 16.4525 75.5305 16.5598C75.5841 16.6671 75.6799 16.7399 75.8179 16.7782C75.9558 16.8165 76.1781 16.8357 76.4846 16.8357C76.5 16.8357 76.5076 16.8587 76.5076 16.9047C76.5076 16.9506 76.5 16.9736 76.4846 16.9736C76.2547 16.9736 76.0746 16.9698 75.9443 16.9621L75.1396 16.9506L74.3694 16.9621C74.2314 16.9698 74.0437 16.9736 73.8061 16.9736C73.7831 16.9736 73.7716 16.9506 73.7716 16.9047C73.7716 16.8587 73.7831 16.8357 73.8061 16.8357C74.105 16.8357 74.3234 16.8165 74.4614 16.7782C74.607 16.7399 74.7066 16.6671 74.7603 16.5598C74.8139 16.4448 74.8407 16.2724 74.8407 16.0425V10.7199C74.8407 10.49 74.8139 10.3213 74.7603 10.2141C74.7066 10.1068 74.607 10.0339 74.4614 9.99563C74.3234 9.94964 74.105 9.92665 73.8061 9.92665C73.7831 9.92665 73.7716 9.90366 73.7716 9.85768C73.7716 9.81169 73.7831 9.7887 73.8061 9.7887L74.3694 9.8002C74.6913 9.81553 74.948 9.82319 75.1396 9.82319C75.3542 9.82319 75.6224 9.81553 75.9443 9.8002L76.4846 9.7887C76.5 9.7887 76.5076 9.81169 76.5076 9.85768C76.5076 9.90366 76.5 9.92665 76.4846 9.92665C76.1857 9.92665 75.9635 9.94964 75.8179 9.99563C75.6799 10.0416 75.5841 10.1221 75.5305 10.237C75.4845 10.3443 75.4615 10.5129 75.4615 10.7429V16.0425ZM79.3825 15.9965C79.3825 16.2187 79.4055 16.3835 79.4515 16.4908C79.5051 16.5904 79.5971 16.6594 79.7274 16.6977C79.8653 16.7361 80.0799 16.7552 80.3711 16.7552H81.8426C82.6013 16.7552 83.0497 16.2686 83.1876 15.2952C83.1876 15.2722 83.2068 15.2646 83.2451 15.2722C83.2911 15.2722 83.3141 15.2837 83.3141 15.3067C83.2451 15.9122 83.2106 16.4103 83.2106 16.8012C83.2106 16.8625 83.1991 16.9085 83.1761 16.9391C83.1532 16.9621 83.1072 16.9736 83.0382 16.9736H77.7501C77.7348 16.9736 77.7271 16.9506 77.7271 16.9047C77.7271 16.8587 77.7348 16.8357 77.7501 16.8357C78.049 16.8357 78.2674 16.8165 78.4053 16.7782C78.551 16.7399 78.6468 16.6671 78.6927 16.5598C78.7464 16.4448 78.7732 16.2724 78.7732 16.0425V10.7199C78.7732 10.49 78.7464 10.3213 78.6927 10.2141C78.6468 10.1068 78.551 10.0339 78.4053 9.99563C78.2674 9.94964 78.049 9.92665 77.7501 9.92665C77.7348 9.92665 77.7271 9.90366 77.7271 9.85768C77.7271 9.81169 77.7348 9.7887 77.7501 9.7887L78.3134 9.8002C78.6353 9.81553 78.8882 9.82319 79.0721 9.82319C79.279 9.82319 79.5434 9.81553 79.8653 9.8002L80.4056 9.7887C80.421 9.7887 80.4286 9.81169 80.4286 9.85768C80.4286 9.90366 80.421 9.92665 80.4056 9.92665C80.1067 9.92665 79.8845 9.94964 79.7389 9.99563C79.6009 10.0339 79.5051 10.1106 79.4515 10.2255C79.4055 10.3328 79.3825 10.5014 79.3825 10.7314V15.9965ZM85.7659 15.9965C85.7659 16.2187 85.7888 16.3835 85.8348 16.4908C85.8885 16.5904 85.9804 16.6594 86.1107 16.6977C86.2487 16.7361 86.4633 16.7552 86.7545 16.7552H88.226C88.9847 16.7552 89.433 16.2686 89.571 15.2952C89.571 15.2722 89.5902 15.2646 89.6285 15.2722C89.6745 15.2722 89.6975 15.2837 89.6975 15.3067C89.6285 15.9122 89.594 16.4103 89.594 16.8012C89.594 16.8625 89.5825 16.9085 89.5595 16.9391C89.5365 16.9621 89.4905 16.9736 89.4215 16.9736H84.1334C84.1181 16.9736 84.1104 16.9506 84.1104 16.9047C84.1104 16.8587 84.1181 16.8357 84.1334 16.8357C84.4323 16.8357 84.6508 16.8165 84.7887 16.7782C84.9343 16.7399 85.0301 16.6671 85.0761 16.5598C85.1298 16.4448 85.1566 16.2724 85.1566 16.0425V10.7199C85.1566 10.49 85.1298 10.3213 85.0761 10.2141C85.0301 10.1068 84.9343 10.0339 84.7887 9.99563C84.6508 9.94964 84.4323 9.92665 84.1334 9.92665C84.1181 9.92665 84.1104 9.90366 84.1104 9.85768C84.1104 9.81169 84.1181 9.7887 84.1334 9.7887L84.6967 9.8002C85.0186 9.81553 85.2715 9.82319 85.4555 9.82319C85.6624 9.82319 85.9268 9.81553 86.2487 9.8002L86.789 9.7887C86.8043 9.7887 86.812 9.81169 86.812 9.85768C86.812 9.90366 86.8043 9.92665 86.789 9.92665C86.4901 9.92665 86.2678 9.94964 86.1222 9.99563C85.9843 10.0339 85.8885 10.1106 85.8348 10.2255C85.7888 10.3328 85.7659 10.5014 85.7659 10.7314V15.9965ZM95.506 15.2952C95.506 15.2722 95.529 15.2646 95.575 15.2722C95.621 15.2722 95.644 15.2837 95.644 15.3067C95.575 15.7896 95.5405 16.2877 95.5405 16.8012C95.5405 16.8625 95.5252 16.9085 95.4945 16.9391C95.4715 16.9621 95.4255 16.9736 95.3566 16.9736H90.6088C90.5934 16.9736 90.5858 16.9506 90.5858 16.9047C90.5858 16.8587 90.5934 16.8357 90.6088 16.8357C90.9077 16.8357 91.1261 16.8165 91.264 16.7782C91.4097 16.7399 91.5054 16.6671 91.5514 16.5598C91.6051 16.4448 91.6319 16.2724 91.6319 16.0425V10.7199C91.6319 10.49 91.6051 10.3213 91.5514 10.2141C91.5054 10.1068 91.4097 10.0339 91.264 9.99563C91.1261 9.94964 90.9077 9.92665 90.6088 9.92665C90.5934 9.92665 90.5858 9.90366 90.5858 9.85768C90.5858 9.81169 90.5934 9.7887 90.6088 9.7887H95.1611C95.2301 9.7887 95.2646 9.82319 95.2646 9.89217L95.2876 11.2832C95.2876 11.3062 95.2646 11.3177 95.2186 11.3177C95.1803 11.3177 95.1611 11.3062 95.1611 11.2832C95.1611 10.8923 95.0577 10.5819 94.8508 10.352C94.6438 10.1221 94.3718 10.0071 94.0345 10.0071H93.2413C92.9501 10.0071 92.7355 10.0263 92.5976 10.0646C92.4596 10.1029 92.3638 10.1757 92.3102 10.283C92.2642 10.3903 92.2412 10.5589 92.2412 10.7888V13.1225H93.7586C94.1112 13.1225 94.3564 13.065 94.4944 12.9501C94.6323 12.8274 94.7013 12.6205 94.7013 12.3293C94.7013 12.314 94.7243 12.3063 94.7703 12.3063C94.8163 12.3063 94.8393 12.314 94.8393 12.3293L94.8278 13.2375C94.8278 13.4597 94.8316 13.6245 94.8393 13.7318L94.8508 14.2721C94.8508 14.2874 94.8278 14.2951 94.7818 14.2951C94.7358 14.2951 94.7128 14.2874 94.7128 14.2721C94.7128 13.9272 94.64 13.6858 94.4944 13.5479C94.3488 13.4099 94.092 13.3409 93.7242 13.3409H92.2412V15.9965C92.2412 16.2187 92.2642 16.3835 92.3102 16.4908C92.3638 16.5904 92.4558 16.6594 92.5861 16.6977C92.724 16.7361 92.9424 16.7552 93.2413 16.7552H94.299C94.6055 16.7552 94.8661 16.6211 95.0807 16.3529C95.3029 16.0846 95.4447 15.7321 95.506 15.2952ZM107.434 16.8357C107.465 16.8433 107.476 16.8702 107.468 16.9162C107.468 16.9545 107.457 16.9736 107.434 16.9736H106.353C105.97 16.9736 105.403 16.6747 104.652 16.077C104.031 16.7667 103.249 17.1116 102.307 17.1116C101.847 17.1116 101.46 17.0311 101.146 16.8702C100.839 16.7092 100.609 16.4985 100.456 16.2379C100.31 15.9697 100.237 15.6823 100.237 15.3757C100.237 14.9235 100.375 14.5288 100.651 14.1916C100.927 13.8544 101.322 13.5019 101.835 13.134C101.697 12.9194 101.586 12.724 101.502 12.5477C101.287 12.0572 101.18 11.6395 101.18 11.2947C101.18 10.9881 101.257 10.7007 101.41 10.4325C101.571 10.1642 101.789 9.94965 102.065 9.7887C102.341 9.62776 102.655 9.54729 103.008 9.54729C103.353 9.54729 103.656 9.63159 103.916 9.8002C104.177 9.9688 104.307 10.2639 104.307 10.6854C104.307 10.9843 104.23 11.2563 104.077 11.5016C103.931 11.7392 103.748 11.9461 103.525 12.1224C103.311 12.2986 103.012 12.5171 102.629 12.7776L102.387 12.9386C102.954 13.8276 103.782 14.686 104.87 15.5137C105.2 14.9772 105.365 14.41 105.365 13.8123C105.365 13.5747 105.311 13.3984 105.204 13.2835C105.104 13.1608 104.893 13.0995 104.571 13.0995C104.548 13.0995 104.533 13.0765 104.525 13.0305C104.525 12.9846 104.541 12.9616 104.571 12.9616L106.894 12.9501C106.924 12.9501 106.94 12.9731 106.94 13.019C106.94 13.065 106.924 13.088 106.894 13.088C106.625 13.088 106.422 13.111 106.284 13.157C106.154 13.203 106.062 13.2681 106.008 13.3524C105.955 13.4367 105.905 13.5594 105.859 13.7203C105.652 14.456 105.372 15.0883 105.02 15.6171C105.472 15.9467 105.909 16.2187 106.33 16.4333C106.752 16.6403 107.12 16.7744 107.434 16.8357ZM101.732 10.9383C101.732 11.5131 101.924 12.1339 102.307 12.8006C102.774 12.4711 103.131 12.1607 103.376 11.8695C103.629 11.5782 103.755 11.241 103.755 10.8578C103.755 10.5129 103.663 10.2447 103.479 10.0531C103.295 9.86151 103.042 9.76571 102.721 9.76571C102.406 9.76571 102.161 9.86151 101.985 10.0531C101.816 10.2447 101.732 10.5398 101.732 10.9383ZM102.732 16.8242C103.077 16.8242 103.403 16.7514 103.709 16.6058C104.016 16.4525 104.288 16.2417 104.525 15.9735L104.399 15.87C103.924 15.4945 103.468 15.0806 103.031 14.6285C102.602 14.1763 102.234 13.7241 101.927 13.272C101.59 13.5249 101.326 13.7931 101.134 14.0767C100.95 14.3526 100.858 14.6745 100.858 15.0423C100.858 15.3719 100.939 15.6746 101.1 15.9505C101.268 16.2187 101.494 16.4333 101.778 16.5943C102.061 16.7475 102.38 16.8242 102.732 16.8242ZM120.008 16.8357C120.031 16.8357 120.042 16.8587 120.042 16.9047C120.042 16.9506 120.031 16.9736 120.008 16.9736C119.77 16.9736 119.582 16.9698 119.444 16.9621L118.674 16.9506L117.961 16.9621C117.846 16.9698 117.685 16.9736 117.479 16.9736C117.463 16.9736 117.456 16.9506 117.456 16.9047C117.456 16.8587 117.463 16.8357 117.479 16.8357C117.747 16.8357 117.942 16.8165 118.065 16.7782C118.195 16.7322 118.279 16.6556 118.318 16.5483C118.364 16.441 118.379 16.2724 118.364 16.0425L118.168 10.6969L115.478 16.8932C115.463 16.9238 115.432 16.9391 115.386 16.9391C115.348 16.9391 115.313 16.9238 115.283 16.8932L112.478 10.7429L112.466 10.7199L112.374 15.7781C112.367 16.1766 112.432 16.4525 112.57 16.6058C112.708 16.759 112.964 16.8357 113.34 16.8357C113.355 16.8357 113.363 16.8587 113.363 16.9047C113.363 16.9506 113.355 16.9736 113.34 16.9736C113.125 16.9736 112.961 16.9698 112.846 16.9621L112.225 16.9506L111.662 16.9621C111.562 16.9698 111.413 16.9736 111.213 16.9736C111.198 16.9736 111.19 16.9506 111.19 16.9047C111.19 16.8587 111.198 16.8357 111.213 16.8357C111.535 16.8357 111.761 16.759 111.892 16.6058C112.029 16.4448 112.102 16.1689 112.11 15.7781L112.225 10.329C111.987 10.0608 111.677 9.92665 111.294 9.92665C111.278 9.92665 111.271 9.90366 111.271 9.85768C111.271 9.81169 111.278 9.7887 111.294 9.7887L111.685 9.8002C111.761 9.80786 111.861 9.81169 111.983 9.81169C112.106 9.81169 112.21 9.80786 112.294 9.8002C112.378 9.79253 112.443 9.7887 112.489 9.7887C112.597 9.7887 112.681 9.82702 112.742 9.90366C112.804 9.97264 112.895 10.1336 113.018 10.3865L115.605 15.9735L118.18 10.0761C118.218 9.9918 118.268 9.92282 118.329 9.86917C118.398 9.81553 118.463 9.7887 118.525 9.7887C118.555 9.7887 118.605 9.79253 118.674 9.8002C118.743 9.80786 118.839 9.81169 118.961 9.81169L119.479 9.8002C119.555 9.79253 119.674 9.7887 119.835 9.7887C119.851 9.7887 119.858 9.81169 119.858 9.85768C119.858 9.90366 119.851 9.92665 119.835 9.92665C119.437 9.92665 119.153 9.9803 118.984 10.0876C118.824 10.1872 118.747 10.3903 118.755 10.6969L118.973 16.0425C118.981 16.28 119.007 16.4525 119.053 16.5598C119.107 16.6671 119.203 16.7399 119.341 16.7782C119.486 16.8165 119.709 16.8357 120.008 16.8357ZM125.963 15.2952C125.963 15.2722 125.986 15.2646 126.032 15.2722C126.078 15.2722 126.101 15.2837 126.101 15.3067C126.032 15.7896 125.998 16.2877 125.998 16.8012C125.998 16.8625 125.983 16.9085 125.952 16.9391C125.929 16.9621 125.883 16.9736 125.814 16.9736H121.066C121.051 16.9736 121.043 16.9506 121.043 16.9047C121.043 16.8587 121.051 16.8357 121.066 16.8357C121.365 16.8357 121.583 16.8165 121.721 16.7782C121.867 16.7399 121.963 16.6671 122.009 16.5598C122.062 16.4448 122.089 16.2724 122.089 16.0425V10.7199C122.089 10.49 122.062 10.3213 122.009 10.2141C121.963 10.1068 121.867 10.0339 121.721 9.99563C121.583 9.94964 121.365 9.92665 121.066 9.92665C121.051 9.92665 121.043 9.90366 121.043 9.85768C121.043 9.81169 121.051 9.7887 121.066 9.7887H125.619C125.687 9.7887 125.722 9.82319 125.722 9.89217L125.745 11.2832C125.745 11.3062 125.722 11.3177 125.676 11.3177C125.638 11.3177 125.619 11.3062 125.619 11.2832C125.619 10.8923 125.515 10.5819 125.308 10.352C125.101 10.1221 124.829 10.0071 124.492 10.0071H123.699C123.407 10.0071 123.193 10.0263 123.055 10.0646C122.917 10.1029 122.821 10.1757 122.768 10.283C122.722 10.3903 122.699 10.5589 122.699 10.7888V13.1225H124.216C124.569 13.1225 124.814 13.065 124.952 12.9501C125.09 12.8274 125.159 12.6205 125.159 12.3293C125.159 12.314 125.182 12.3063 125.228 12.3063C125.274 12.3063 125.297 12.314 125.297 12.3293L125.285 13.2375C125.285 13.4597 125.289 13.6245 125.297 13.7318L125.308 14.2721C125.308 14.2874 125.285 14.2951 125.239 14.2951C125.193 14.2951 125.17 14.2874 125.17 14.2721C125.17 13.9272 125.097 13.6858 124.952 13.5479C124.806 13.4099 124.549 13.3409 124.182 13.3409H122.699V15.9965C122.699 16.2187 122.722 16.3835 122.768 16.4908C122.821 16.5904 122.913 16.6594 123.043 16.6977C123.181 16.7361 123.4 16.7552 123.699 16.7552H124.756C125.063 16.7552 125.323 16.6211 125.538 16.3529C125.76 16.0846 125.902 15.7321 125.963 15.2952ZM130.392 17.0196C130.169 17.0196 129.92 17.0081 129.644 16.9851C129.537 16.9775 129.403 16.9698 129.242 16.9621C129.089 16.9545 128.916 16.9506 128.725 16.9506L127.966 16.9621C127.828 16.9698 127.636 16.9736 127.391 16.9736C127.376 16.9736 127.368 16.9506 127.368 16.9047C127.368 16.8587 127.376 16.8357 127.391 16.8357C127.69 16.8357 127.909 16.8165 128.046 16.7782C128.192 16.7399 128.292 16.6671 128.345 16.5598C128.399 16.4448 128.426 16.2724 128.426 16.0425V10.7199C128.426 10.49 128.399 10.3213 128.345 10.2141C128.299 10.1068 128.204 10.0339 128.058 9.99563C127.92 9.94964 127.702 9.92665 127.403 9.92665C127.387 9.92665 127.38 9.90366 127.38 9.85768C127.38 9.81169 127.387 9.7887 127.403 9.7887L127.966 9.8002C128.288 9.81553 128.541 9.82319 128.725 9.82319C128.993 9.82319 129.265 9.81169 129.541 9.7887C129.878 9.77337 130.108 9.76571 130.231 9.76571C131.035 9.76571 131.748 9.91899 132.369 10.2255C132.99 10.5321 133.469 10.9498 133.806 11.4786C134.151 12.0074 134.323 12.6014 134.323 13.2605C134.323 14.0039 134.143 14.663 133.783 15.2378C133.43 15.8049 132.955 16.2456 132.357 16.5598C131.76 16.8663 131.104 17.0196 130.392 17.0196ZM130.277 16.8702C130.92 16.8702 131.491 16.7399 131.99 16.4793C132.488 16.2187 132.875 15.8355 133.151 15.3297C133.434 14.8239 133.576 14.2185 133.576 13.5134C133.576 12.8389 133.442 12.2297 133.174 11.6855C132.913 11.1414 132.534 10.7122 132.036 10.398C131.545 10.0761 130.978 9.91516 130.334 9.91516C129.997 9.91516 129.736 9.93432 129.552 9.97264C129.376 10.011 129.246 10.0914 129.162 10.2141C129.077 10.329 129.035 10.5053 129.035 10.7429V15.916C129.035 16.1459 129.07 16.3299 129.139 16.4678C129.208 16.6058 129.33 16.7092 129.506 16.7782C129.683 16.8395 129.939 16.8702 130.277 16.8702ZM140.582 15.2952C140.582 15.2722 140.605 15.2646 140.651 15.2722C140.697 15.2722 140.72 15.2837 140.72 15.3067C140.651 15.7896 140.617 16.2877 140.617 16.8012C140.617 16.8625 140.602 16.9085 140.571 16.9391C140.548 16.9621 140.502 16.9736 140.433 16.9736H135.685C135.67 16.9736 135.662 16.9506 135.662 16.9047C135.662 16.8587 135.67 16.8357 135.685 16.8357C135.984 16.8357 136.203 16.8165 136.34 16.7782C136.486 16.7399 136.582 16.6671 136.628 16.5598C136.682 16.4448 136.708 16.2724 136.708 16.0425V10.7199C136.708 10.49 136.682 10.3213 136.628 10.2141C136.582 10.1068 136.486 10.0339 136.34 9.99563C136.203 9.94964 135.984 9.92665 135.685 9.92665C135.67 9.92665 135.662 9.90366 135.662 9.85768C135.662 9.81169 135.67 9.7887 135.685 9.7887H140.238C140.307 9.7887 140.341 9.82319 140.341 9.89217L140.364 11.2832C140.364 11.3062 140.341 11.3177 140.295 11.3177C140.257 11.3177 140.238 11.3062 140.238 11.2832C140.238 10.8923 140.134 10.5819 139.927 10.352C139.72 10.1221 139.448 10.0071 139.111 10.0071H138.318C138.027 10.0071 137.812 10.0263 137.674 10.0646C137.536 10.1029 137.44 10.1757 137.387 10.283C137.341 10.3903 137.318 10.5589 137.318 10.7888V13.1225H138.835C139.188 13.1225 139.433 13.065 139.571 12.9501C139.709 12.8274 139.778 12.6205 139.778 12.3293C139.778 12.314 139.801 12.3063 139.847 12.3063C139.893 12.3063 139.916 12.314 139.916 12.3293L139.904 13.2375C139.904 13.4597 139.908 13.6245 139.916 13.7318L139.927 14.2721C139.927 14.2874 139.904 14.2951 139.858 14.2951C139.812 14.2951 139.789 14.2874 139.789 14.2721C139.789 13.9272 139.716 13.6858 139.571 13.5479C139.425 13.4099 139.168 13.3409 138.801 13.3409H137.318V15.9965C137.318 16.2187 137.341 16.3835 137.387 16.4908C137.44 16.5904 137.532 16.6594 137.663 16.6977C137.8 16.7361 138.019 16.7552 138.318 16.7552H139.375C139.682 16.7552 139.943 16.6211 140.157 16.3529C140.379 16.0846 140.521 15.7321 140.582 15.2952ZM143.804 16.0425C143.804 16.28 143.827 16.4525 143.873 16.5598C143.926 16.6671 144.022 16.7399 144.16 16.7782C144.298 16.8165 144.52 16.8357 144.827 16.8357C144.842 16.8357 144.85 16.8587 144.85 16.9047C144.85 16.9506 144.842 16.9736 144.827 16.9736C144.597 16.9736 144.417 16.9698 144.286 16.9621L143.482 16.9506L142.712 16.9621C142.574 16.9698 142.386 16.9736 142.148 16.9736C142.125 16.9736 142.114 16.9506 142.114 16.9047C142.114 16.8587 142.125 16.8357 142.148 16.8357C142.447 16.8357 142.666 16.8165 142.804 16.7782C142.949 16.7399 143.049 16.6671 143.102 16.5598C143.156 16.4448 143.183 16.2724 143.183 16.0425V10.7199C143.183 10.49 143.156 10.3213 143.102 10.2141C143.049 10.1068 142.949 10.0339 142.804 9.99563C142.666 9.94964 142.447 9.92665 142.148 9.92665C142.125 9.92665 142.114 9.90366 142.114 9.85768C142.114 9.81169 142.125 9.7887 142.148 9.7887L142.712 9.8002C143.033 9.81553 143.29 9.82319 143.482 9.82319C143.696 9.82319 143.965 9.81553 144.286 9.8002L144.827 9.7887C144.842 9.7887 144.85 9.81169 144.85 9.85768C144.85 9.90366 144.842 9.92665 144.827 9.92665C144.528 9.92665 144.306 9.94964 144.16 9.99563C144.022 10.0416 143.926 10.1221 143.873 10.237C143.827 10.3443 143.804 10.5129 143.804 10.7429V16.0425ZM153.45 16.8357C153.473 16.8357 153.484 16.8587 153.484 16.9047C153.484 16.9506 153.473 16.9736 153.45 16.9736H152.116C151.917 16.9736 151.545 16.6441 151.001 15.985C150.457 15.3182 149.798 14.3986 149.024 13.226C148.794 13.2873 148.56 13.3179 148.322 13.3179C148.192 13.3179 148.027 13.3103 147.828 13.2949V16.0425C147.828 16.28 147.851 16.4525 147.897 16.5598C147.951 16.6671 148.047 16.7399 148.184 16.7782C148.322 16.8165 148.545 16.8357 148.851 16.8357C148.874 16.8357 148.886 16.8587 148.886 16.9047C148.886 16.9506 148.874 16.9736 148.851 16.9736C148.621 16.9736 148.437 16.9698 148.299 16.9621L147.518 16.9506L146.759 16.9621C146.621 16.9698 146.429 16.9736 146.184 16.9736C146.169 16.9736 146.161 16.9506 146.161 16.9047C146.161 16.8587 146.169 16.8357 146.184 16.8357C146.491 16.8357 146.713 16.8165 146.851 16.7782C146.997 16.7399 147.096 16.6671 147.15 16.5598C147.204 16.4448 147.23 16.2724 147.23 16.0425V10.7199C147.23 10.49 147.204 10.3213 147.15 10.2141C147.104 10.1068 147.008 10.0339 146.862 9.99563C146.725 9.94964 146.506 9.92665 146.207 9.92665C146.184 9.92665 146.173 9.90366 146.173 9.85768C146.173 9.81169 146.184 9.7887 146.207 9.7887L146.759 9.8002C147.066 9.81553 147.318 9.82319 147.518 9.82319C147.656 9.82319 147.786 9.81936 147.909 9.81169C148.031 9.80403 148.139 9.79637 148.23 9.7887C148.468 9.76571 148.679 9.75422 148.863 9.75422C149.468 9.75422 149.932 9.88067 150.254 10.1336C150.576 10.3865 150.737 10.739 150.737 11.1912C150.737 11.5591 150.629 11.9078 150.415 12.2373C150.2 12.5592 149.917 12.816 149.564 13.0076C150.231 13.9885 150.786 14.7511 151.231 15.2952C151.675 15.8394 152.07 16.2341 152.415 16.4793C152.768 16.7169 153.112 16.8357 153.45 16.8357ZM147.828 13.019C148.119 13.0497 148.349 13.065 148.518 13.065C149.077 13.065 149.48 12.9501 149.725 12.7202C149.97 12.4826 150.093 12.1032 150.093 11.5821C150.093 10.9996 149.955 10.5743 149.679 10.306C149.411 10.0378 149.051 9.90366 148.598 9.90366C148.384 9.90366 148.227 9.91899 148.127 9.94965C148.027 9.9803 147.951 10.0531 147.897 10.1681C147.851 10.283 147.828 10.4746 147.828 10.7429V13.019ZM157.302 17.1116C156.589 17.1116 155.953 16.9468 155.394 16.6173C154.842 16.28 154.413 15.8279 154.106 15.2607C153.807 14.686 153.658 14.0613 153.658 13.3869C153.658 12.5975 153.857 11.9231 154.256 11.3636C154.654 10.7965 155.164 10.3712 155.785 10.0876C156.413 9.80403 157.053 9.66225 157.704 9.66225C158.433 9.66225 159.072 9.83469 159.624 10.1796C160.176 10.5168 160.598 10.9651 160.889 11.5246C161.188 12.084 161.337 12.678 161.337 13.3064C161.337 14.0039 161.153 14.6438 160.785 15.2263C160.417 15.8087 159.923 16.2686 159.302 16.6058C158.689 16.943 158.022 17.1116 157.302 17.1116ZM157.716 16.8817C158.26 16.8817 158.751 16.7552 159.187 16.5023C159.624 16.2494 159.969 15.8777 160.222 15.3872C160.475 14.8967 160.601 14.3104 160.601 13.6283C160.601 12.9079 160.46 12.268 160.176 11.7085C159.9 11.1414 159.505 10.7007 158.992 10.3865C158.486 10.0723 157.896 9.91516 157.222 9.91516C156.333 9.91516 155.639 10.1911 155.141 10.7429C154.643 11.2947 154.394 12.0457 154.394 12.9961C154.394 13.7088 154.532 14.3641 154.807 14.9619C155.091 15.552 155.486 16.0195 155.992 16.3644C156.497 16.7092 157.072 16.8817 157.716 16.8817ZM163.77 11.1797C163.77 11.4863 163.843 11.7507 163.988 11.9729C164.134 12.1952 164.31 12.3829 164.517 12.5362C164.732 12.6818 165.027 12.8658 165.402 13.088C165.801 13.3256 166.107 13.5249 166.322 13.6858C166.544 13.8391 166.732 14.0383 166.885 14.2836C167.046 14.5288 167.127 14.8239 167.127 15.1688C167.127 15.529 167.039 15.8585 166.862 16.1574C166.686 16.4487 166.422 16.6824 166.069 16.8587C165.724 17.0273 165.299 17.1116 164.793 17.1116C164.525 17.1116 164.268 17.0809 164.023 17.0196C163.785 16.966 163.521 16.8663 163.23 16.7207C163.191 16.6977 163.164 16.6709 163.149 16.6403C163.142 16.6096 163.134 16.5636 163.126 16.5023L162.954 15.0078V14.9963C162.954 14.9657 162.973 14.9504 163.011 14.9504C163.05 14.9427 163.073 14.9542 163.08 14.9848C163.157 15.5137 163.36 15.9735 163.689 16.3644C164.019 16.7552 164.471 16.9506 165.046 16.9506C165.452 16.9506 165.793 16.8395 166.069 16.6173C166.353 16.395 166.494 16.0463 166.494 15.5711C166.494 15.2263 166.418 14.9312 166.265 14.686C166.111 14.433 165.924 14.2261 165.701 14.0652C165.487 13.8966 165.192 13.7011 164.816 13.4789C164.448 13.2643 164.157 13.0765 163.942 12.9156C163.735 12.7546 163.555 12.5554 163.402 12.3178C163.256 12.0726 163.184 11.7813 163.184 11.4441C163.184 11.0609 163.279 10.7352 163.471 10.467C163.67 10.1987 163.927 9.99946 164.241 9.86917C164.556 9.73122 164.893 9.66225 165.253 9.66225C165.674 9.66225 166.111 9.75421 166.563 9.93815C166.678 9.98413 166.736 10.0493 166.736 10.1336L166.839 11.3521C166.839 11.3828 166.816 11.3981 166.77 11.3981C166.732 11.3981 166.709 11.3828 166.701 11.3521C166.671 10.9536 166.521 10.5972 166.253 10.283C165.985 9.9688 165.602 9.81169 165.103 9.81169C164.644 9.81169 164.306 9.94581 164.092 10.2141C163.877 10.4823 163.77 10.8042 163.77 11.1797Z" fill="#494949"/>
<line x1="36.2148" y1="23.0672" x2="167.414" y2="23.0672" stroke="#494949" stroke-width="0.287397"/>
<path d="M22.8156 12.7555C22.8156 13.0821 22.5508 13.3469 22.2242 13.3469C21.8976 13.3469 21.6328 13.0821 21.6328 12.7555C21.6328 12.4288 21.8976 12.1641 22.2242 12.1641C22.5508 12.1641 22.8156 12.4288 22.8156 12.7555Z" fill="#494949"/>
<path d="M9.22577 12.773C9.22577 13.0997 8.96099 13.3644 8.63437 13.3644C8.30775 13.3644 8.04297 13.0997 8.04297 12.773C8.04297 12.4464 8.30775 12.1816 8.63437 12.1816C8.96099 12.1816 9.22577 12.4464 9.22577 12.773Z" fill="#494949"/>
<path d="M15.3227 3.95508C13.2143 3.95508 11.2322 4.37081 9.37622 5.20227C7.52028 6.04858 5.88705 7.20669 4.47653 8.67659C3.08086 10.1613 1.98215 11.8762 1.18038 13.8213C0.39346 15.7811 0 17.8821 0 20.124C0 22.3512 0.39346 24.4373 1.18038 26.3823C1.98215 28.3422 3.08086 30.0645 4.47653 31.5492C5.88705 33.034 7.52028 34.1921 9.37622 35.0236C11.2322 35.8699 13.2143 36.293 15.3227 36.293C17.8467 36.293 20.1704 35.7065 22.2936 34.5336C24.4168 33.3606 26.2257 31.7835 27.6213 29.8237L27.7338 29.5986L27.5651 29.7674C26.1565 31.6651 24.1468 32.9326 22.2089 34.124C20.2341 35.1633 17.4904 35.7925 15.3227 35.7925C13.3628 35.7925 11.2686 35.3876 9.57602 34.6007C7.8834 33.8138 5.96662 32.4062 4.68973 31.0254C3.41284 29.6594 2.30379 27.9356 1.59111 26.1391C0.878426 24.3574 0.518508 22.1136 0.518508 20.124C0.518508 18.0751 0.982756 15.8987 1.71029 14.1021C2.43781 12.3204 3.53202 10.4626 4.80891 9.09665C6.10064 7.73068 7.89825 6.46431 9.57602 5.69224C11.2686 4.93502 13.3925 4.44872 15.3227 4.44872C17.5943 4.44872 20.1633 4.98235 22.1083 6.03652C24.0682 7.0907 26.2913 8.67556 27.5088 10.3682H27.5651C26.1694 8.4083 24.4168 6.85035 22.2936 5.69224C20.1704 4.53413 17.8467 3.95508 15.3227 3.95508Z" fill="#494949"/>
<path d="M8.12109 30.149V23.1095V16.612C8.12109 15.7998 9.14973 15.463 9.62157 16.1241C11.4759 18.7221 12.9094 20.9052 14.8996 23.6372C15.2404 24.105 15.9409 24.0927 16.2681 23.6152L21.2902 16.2859C21.7585 15.6025 22.8284 15.9339 22.8284 16.7623V18.5193V24.296V29.9824L22.5483 23.1095L22.3251 18.3699C22.288 17.582 21.2857 17.2721 20.8105 17.9017L19.0023 20.2968L16.0601 24.59C15.5915 25.2165 15.4203 24.9483 15.1218 24.6372C15.0914 24.6056 15.0627 24.5722 15.0369 24.5367L12.0545 20.4287L10.1691 17.9227C9.69332 17.2902 8.68698 17.603 8.65345 18.3937L8.4535 23.1095L8.12109 29.9824V30.149Z" fill="#494949"/>
</svg>
