<svg width="433" height="105" viewBox="0 0 433 105" fill="none" xmlns="http://www.w3.org/2000/svg">
<path d="M200.473 85.8613L199.037 82.13H194.606L193.141 85.8613H192.383L196.533 75.2737H197.211L201.253 85.8613H200.473ZM198.799 81.4588L197.341 77.5038C197.302 77.4028 197.254 77.2729 197.197 77.1141C197.144 76.9553 197.086 76.7869 197.023 76.6089C196.966 76.4309 196.908 76.2625 196.85 76.1037C196.802 76.2721 196.749 76.4405 196.691 76.6089C196.634 76.7773 196.578 76.9409 196.525 77.0996C196.473 77.2536 196.422 77.3931 196.374 77.5182L194.858 81.4588H198.799ZM215.576 80.4845C215.576 81.6633 215.367 82.6521 214.948 83.4508C214.534 84.2495 213.918 84.8509 213.1 85.2551C212.287 85.6592 211.279 85.8613 210.076 85.8613H207.55V75.3098H210.408C211.534 75.3098 212.48 75.507 213.245 75.9016C214.01 76.2961 214.59 76.8783 214.984 77.6482C215.379 78.4132 215.576 79.3586 215.576 80.4845ZM214.796 80.5134C214.796 79.5078 214.633 78.6682 214.306 77.9946C213.979 77.321 213.478 76.8158 212.805 76.479C212.131 76.1374 211.277 75.9665 210.242 75.9665H208.294V85.2046H210.04C211.633 85.2046 212.824 84.8148 213.613 84.0354C214.402 83.2511 214.796 82.0771 214.796 80.5134ZM229.834 75.3098L225.937 85.8613H225.201L221.304 75.3098H222.083L224.97 83.1188C225.052 83.3449 225.129 83.5663 225.201 83.7828C225.273 83.9945 225.34 84.199 225.403 84.3962C225.465 84.5935 225.521 84.7836 225.569 84.9664C225.617 84.7836 225.67 84.5983 225.728 84.4107C225.79 84.2182 225.858 84.0161 225.93 83.8044C226.002 83.5879 226.081 83.357 226.168 83.1116L229.048 75.3098H229.834ZM245.002 80.5711C245.002 81.3746 244.903 82.1084 244.706 82.7724C244.509 83.4363 244.213 84.0089 243.818 84.4901C243.424 84.9712 242.931 85.3441 242.339 85.6087C241.752 85.8734 241.066 86.0057 240.282 86.0057C239.493 86.0057 238.802 85.8734 238.211 85.6087C237.619 85.3441 237.126 84.9712 236.731 84.4901C236.341 84.0041 236.048 83.4291 235.851 82.7651C235.653 82.0964 235.555 81.3602 235.555 80.5567C235.555 79.4885 235.735 78.5479 236.096 77.7348C236.462 76.9216 236.998 76.2865 237.705 75.8294C238.417 75.3723 239.296 75.1438 240.34 75.1438C241.34 75.1438 242.187 75.3627 242.88 75.8005C243.578 76.2336 244.105 76.8567 244.461 77.6698C244.821 78.4781 245.002 79.4452 245.002 80.5711ZM236.334 80.5639C236.334 81.5069 236.476 82.3393 236.76 83.0611C237.044 83.778 237.479 84.3385 238.066 84.7427C238.653 85.1468 239.394 85.3489 240.289 85.3489C241.194 85.3489 241.937 85.1492 242.519 84.7499C243.101 84.3505 243.532 83.7924 243.811 83.0755C244.09 82.3586 244.23 81.5238 244.23 80.5711C244.23 79.0651 243.9 77.8959 243.241 77.0636C242.587 76.2312 241.619 75.815 240.34 75.815C239.44 75.815 238.692 76.0147 238.095 76.414C237.503 76.8134 237.061 77.3691 236.767 78.0812C236.478 78.7933 236.334 79.6209 236.334 80.5639ZM256.395 80.535H260.271V85.3778C259.765 85.5895 259.227 85.7483 258.654 85.8541C258.081 85.9552 257.473 86.0057 256.828 86.0057C255.707 86.0057 254.762 85.794 253.992 85.3706C253.227 84.9423 252.647 84.3241 252.252 83.5157C251.858 82.7074 251.661 81.7355 251.661 80.6C251.661 79.5415 251.875 78.6008 252.303 77.7781C252.736 76.9553 253.354 76.3106 254.158 75.8439C254.961 75.3771 255.923 75.1438 257.045 75.1438C257.622 75.1438 258.166 75.1967 258.676 75.3026C259.19 75.4084 259.679 75.5672 260.141 75.7789L259.845 76.4429C259.388 76.2312 258.921 76.0724 258.445 75.9665C257.973 75.8607 257.494 75.8078 257.008 75.8078C256.056 75.8078 255.235 76.0123 254.547 76.4212C253.864 76.8254 253.34 77.3883 252.974 78.1101C252.613 78.827 252.433 79.6545 252.433 80.5928C252.433 81.6561 252.608 82.539 252.96 83.2415C253.311 83.944 253.823 84.4708 254.497 84.8221C255.175 85.1733 255.998 85.3489 256.965 85.3489C257.494 85.3489 257.968 85.3104 258.387 85.2334C258.81 85.1564 259.193 85.0554 259.534 84.9303V81.2135H256.395V80.535ZM274.334 85.8613L272.898 82.13H268.466L267.001 85.8613H266.244L270.393 75.2737H271.072L275.114 85.8613H274.334ZM272.66 81.4588L271.202 77.5038C271.163 77.4028 271.115 77.2729 271.057 77.1141C271.005 76.9553 270.947 76.7869 270.884 76.6089C270.827 76.4309 270.769 76.2625 270.711 76.1037C270.663 76.2721 270.61 76.4405 270.552 76.6089C270.495 76.7773 270.439 76.9409 270.386 77.0996C270.333 77.2536 270.283 77.3931 270.235 77.5182L268.719 81.4588H272.66ZM289.437 80.4845C289.437 81.6633 289.227 82.6521 288.809 83.4508C288.395 84.2495 287.779 84.8509 286.961 85.2551C286.148 85.6592 285.14 85.8613 283.937 85.8613H281.411V75.3098H284.269C285.395 75.3098 286.341 75.507 287.106 75.9016C287.871 76.2961 288.45 76.8783 288.845 77.6482C289.24 78.4132 289.437 79.3586 289.437 80.4845ZM288.657 80.5134C288.657 79.5078 288.494 78.6682 288.167 77.9946C287.839 77.321 287.339 76.8158 286.665 76.479C285.992 76.1374 285.138 75.9665 284.103 75.9665H282.155V85.2046H283.901C285.494 85.2046 286.685 84.8148 287.474 84.0354C288.263 83.2511 288.657 82.0771 288.657 80.5134ZM303.255 85.8613L301.819 82.13H297.387L295.922 85.8613H295.164L299.314 75.2737H299.993L304.034 85.8613H303.255ZM301.58 81.4588L300.123 77.5038C300.084 77.4028 300.036 77.2729 299.978 77.1141C299.925 76.9553 299.868 76.7869 299.805 76.6089C299.747 76.4309 299.69 76.2625 299.632 76.1037C299.584 76.2721 299.531 76.4405 299.473 76.6089C299.415 76.7773 299.36 76.9409 299.307 77.0996C299.254 77.2536 299.204 77.3931 299.155 77.5182L297.64 81.4588H301.58ZM316.142 83.1404C316.142 83.7707 315.983 84.3 315.666 84.7282C315.348 85.1516 314.917 85.4716 314.374 85.6881C313.83 85.8998 313.214 86.0057 312.526 86.0057C312.098 86.0057 311.708 85.984 311.357 85.9407C311.01 85.9022 310.695 85.8493 310.411 85.7819C310.132 85.7146 309.877 85.6376 309.646 85.551V84.8076C310.022 84.952 310.455 85.0795 310.945 85.1901C311.441 85.296 311.98 85.3489 312.562 85.3489C313.111 85.3489 313.597 85.2695 314.02 85.1107C314.448 84.952 314.785 84.7114 315.03 84.389C315.276 84.0667 315.399 83.6601 315.399 83.1693C315.399 82.7363 315.295 82.3826 315.088 82.1084C314.886 81.8293 314.581 81.5912 314.172 81.3939C313.763 81.1918 313.248 80.9873 312.627 80.7804C312.194 80.6313 311.8 80.4749 311.443 80.3113C311.092 80.1429 310.792 79.9504 310.541 79.7339C310.291 79.5126 310.099 79.248 309.964 78.94C309.834 78.6273 309.769 78.2592 309.769 77.8358C309.769 77.2536 309.916 76.7652 310.209 76.3707C310.508 75.9714 310.909 75.6706 311.415 75.4686C311.925 75.2617 312.497 75.1582 313.132 75.1582C313.638 75.1582 314.116 75.2063 314.569 75.3026C315.026 75.394 315.466 75.5335 315.889 75.7212L315.629 76.3635C315.206 76.1807 314.783 76.0459 314.359 75.9593C313.936 75.8727 313.517 75.8294 313.103 75.8294C312.608 75.8294 312.165 75.904 311.775 76.0532C311.391 76.1975 311.085 76.4164 310.859 76.7099C310.633 77.0034 310.52 77.3739 310.52 77.8214C310.52 78.2833 310.623 78.6562 310.83 78.94C311.042 79.2239 311.34 79.4597 311.725 79.6473C312.115 79.835 312.574 80.0178 313.103 80.1958C313.729 80.4075 314.268 80.6313 314.72 80.867C315.172 81.098 315.521 81.3915 315.767 81.7475C316.017 82.1036 316.142 82.5679 316.142 83.1404Z" fill="#494949"/>
<path d="M104.539 23.9586C105.504 23.9586 106.47 24.0571 107.436 24.2542C108.421 24.4512 109.209 24.7173 109.8 25.0523C109.958 25.1509 110.057 25.2494 110.096 25.3479C110.155 25.4268 110.195 25.5647 110.214 25.7618L110.54 28.8658C110.54 28.9249 110.49 28.9643 110.392 28.984C110.293 28.984 110.234 28.9545 110.214 28.8953C109.505 26.018 107.229 24.5793 103.386 24.5793C101.848 24.5793 100.489 24.9144 99.3061 25.5844C98.1433 26.2348 97.2368 27.1611 96.5864 28.3632C95.9361 29.5654 95.6109 30.9548 95.6109 32.5314C95.6109 34.384 96.0149 36.0985 96.8229 37.6752C97.6309 39.2321 98.705 40.4737 100.045 41.3999C101.385 42.3065 102.834 42.7598 104.391 42.7598C105.849 42.7598 107.101 42.3755 108.145 41.6069C109.209 40.8383 109.988 39.6656 110.48 38.089C110.48 38.0299 110.52 38.0003 110.599 38.0003C110.658 38.0003 110.707 38.0102 110.746 38.0299C110.806 38.0496 110.835 38.0792 110.835 38.1186L110.421 41.2817C110.382 41.5182 110.333 41.6758 110.273 41.7547C110.234 41.8138 110.126 41.8828 109.948 41.9616C108.194 42.7302 106.312 43.1145 104.302 43.1145C101.937 43.1145 99.9663 42.6415 98.3897 41.6955C96.8131 40.7299 95.6503 39.508 94.9014 38.0299C94.1525 36.5321 93.7781 34.9653 93.7781 33.3296C93.7781 31.5362 94.2806 29.93 95.2857 28.511C96.2908 27.0724 97.6211 25.9589 99.2765 25.1706C100.932 24.3626 102.686 23.9586 104.539 23.9586ZM129.753 27.3877C129.753 26.4417 129.546 25.752 129.132 25.3184C128.738 24.8651 128.107 24.6385 127.24 24.6385C127.181 24.6385 127.152 24.5793 127.152 24.4611C127.152 24.3429 127.181 24.2837 127.24 24.2837L128.482 24.3133C129.152 24.3527 129.694 24.3724 130.108 24.3724C130.462 24.3724 130.935 24.3527 131.527 24.3133L132.739 24.2837C132.778 24.2837 132.798 24.3429 132.798 24.4611C132.798 24.5793 132.778 24.6385 132.739 24.6385C131.931 24.6385 131.339 24.8651 130.965 25.3184C130.591 25.752 130.403 26.4417 130.403 27.3877V35.8423C130.403 38.1481 129.783 39.9416 128.541 41.2226C127.299 42.5036 125.624 43.1441 123.515 43.1441C122.057 43.1441 120.786 42.8583 119.702 42.2868C118.618 41.6955 117.781 40.8678 117.189 39.8036C116.598 38.7394 116.302 37.5076 116.302 36.1084V26.6782C116.302 26.087 116.233 25.6534 116.096 25.3775C115.977 25.1016 115.731 24.9144 115.356 24.8158C115.002 24.6976 114.44 24.6385 113.671 24.6385C113.632 24.6385 113.612 24.5793 113.612 24.4611C113.612 24.3429 113.632 24.2837 113.671 24.2837L115.09 24.3133C115.918 24.3527 116.578 24.3724 117.071 24.3724C117.603 24.3724 118.283 24.3527 119.111 24.3133L120.471 24.2837C120.53 24.2837 120.559 24.3429 120.559 24.4611C120.559 24.5793 120.53 24.6385 120.471 24.6385C119.702 24.6385 119.14 24.6976 118.786 24.8158C118.431 24.9341 118.185 25.141 118.047 25.4366C117.928 25.7125 117.869 26.1461 117.869 26.7373V35.0737C117.869 37.3795 118.411 39.1631 119.495 40.4244C120.579 41.666 122.097 42.2868 124.048 42.2868C125.841 42.2868 127.24 41.7251 128.245 40.6018C129.25 39.4587 129.753 37.8821 129.753 35.8719V27.3877ZM139.694 40.247C139.694 40.8777 139.782 41.3408 139.96 41.6364C140.137 41.9123 140.472 42.1094 140.965 42.2277C141.477 42.3459 142.285 42.405 143.389 42.405C143.448 42.405 143.477 42.4641 143.477 42.5824C143.477 42.7006 143.448 42.7598 143.389 42.7598C142.581 42.7598 141.95 42.7499 141.497 42.7302L138.925 42.7006L136.974 42.7302C136.619 42.7499 136.126 42.7598 135.496 42.7598C135.456 42.7598 135.437 42.7006 135.437 42.5824C135.437 42.4641 135.456 42.405 135.496 42.405C136.264 42.405 136.826 42.3558 137.181 42.2572C137.555 42.1587 137.802 41.9715 137.92 41.6955C138.058 41.3999 138.127 40.9565 138.127 40.3653V26.6782C138.127 26.087 138.058 25.6534 137.92 25.3775C137.802 25.1016 137.555 24.9144 137.181 24.8158C136.826 24.6976 136.264 24.6385 135.496 24.6385C135.456 24.6385 135.437 24.5793 135.437 24.4611C135.437 24.3429 135.456 24.2837 135.496 24.2837L136.944 24.3133C137.772 24.3527 138.422 24.3724 138.895 24.3724C139.368 24.3724 139.91 24.3429 140.521 24.2837C142.058 24.2246 142.896 24.195 143.034 24.195C144.768 24.195 146.177 24.5991 147.261 25.4071C148.345 26.1954 148.887 27.4074 148.887 29.0432C148.887 30.3636 148.562 31.4771 147.912 32.3836C147.261 33.2705 146.434 33.9307 145.429 34.3643C144.443 34.7978 143.418 35.0146 142.354 35.0146C141.763 35.0146 141.28 34.9653 140.906 34.8668C140.846 34.8668 140.817 34.8175 140.817 34.719C140.817 34.6599 140.827 34.6007 140.846 34.5416C140.886 34.4825 140.925 34.4628 140.965 34.4825C141.28 34.5613 141.635 34.6007 142.029 34.6007C143.428 34.6007 144.611 34.177 145.576 33.3296C146.562 32.4822 147.054 31.2504 147.054 29.6344C147.054 28.5899 146.847 27.6932 146.434 26.9443C146.02 26.1757 145.448 25.5943 144.719 25.2001C144.01 24.7863 143.221 24.5793 142.354 24.5793C141.546 24.5793 140.975 24.6188 140.64 24.6976C140.304 24.7764 140.058 24.9636 139.9 25.2593C139.763 25.5352 139.694 26.0279 139.694 26.7373V40.247ZM167.808 27.3877C167.808 26.4417 167.601 25.752 167.187 25.3184C166.793 24.8651 166.162 24.6385 165.295 24.6385C165.236 24.6385 165.206 24.5793 165.206 24.4611C165.206 24.3429 165.236 24.2837 165.295 24.2837L166.537 24.3133C167.207 24.3527 167.749 24.3724 168.163 24.3724C168.517 24.3724 168.99 24.3527 169.582 24.3133L170.794 24.2837C170.833 24.2837 170.853 24.3429 170.853 24.4611C170.853 24.5793 170.833 24.6385 170.794 24.6385C169.986 24.6385 169.394 24.8651 169.02 25.3184C168.645 25.752 168.458 26.4417 168.458 27.3877V35.8423C168.458 38.1481 167.837 39.9416 166.596 41.2226C165.354 42.5036 163.679 43.1441 161.57 43.1441C160.112 43.1441 158.841 42.8583 157.757 42.2868C156.673 41.6955 155.835 40.8678 155.244 39.8036C154.653 38.7394 154.357 37.5076 154.357 36.1084V26.6782C154.357 26.087 154.288 25.6534 154.15 25.3775C154.032 25.1016 153.786 24.9144 153.411 24.8158C153.057 24.6976 152.495 24.6385 151.726 24.6385C151.687 24.6385 151.667 24.5793 151.667 24.4611C151.667 24.3429 151.687 24.2837 151.726 24.2837L153.145 24.3133C153.973 24.3527 154.633 24.3724 155.126 24.3724C155.658 24.3724 156.338 24.3527 157.166 24.3133L158.525 24.2837C158.585 24.2837 158.614 24.3429 158.614 24.4611C158.614 24.5793 158.585 24.6385 158.525 24.6385C157.757 24.6385 157.195 24.6976 156.84 24.8158C156.486 24.9341 156.239 25.141 156.101 25.4366C155.983 25.7125 155.924 26.1461 155.924 26.7373V35.0737C155.924 37.3795 156.466 39.1631 157.55 40.4244C158.634 41.666 160.151 42.2868 162.102 42.2868C163.896 42.2868 165.295 41.7251 166.3 40.6018C167.305 39.4587 167.808 37.8821 167.808 35.8719V27.3877ZM177.512 40.247C177.512 40.8186 177.571 41.2423 177.689 41.5182C177.827 41.7744 178.064 41.9517 178.399 42.0503C178.754 42.1488 179.305 42.1981 180.054 42.1981H183.838C185.789 42.1981 186.942 40.9467 187.297 38.4438C187.297 38.3846 187.346 38.3649 187.445 38.3846C187.563 38.3846 187.622 38.4142 187.622 38.4733C187.445 40.0302 187.356 41.3112 187.356 42.3163C187.356 42.474 187.326 42.5922 187.267 42.6711C187.208 42.7302 187.09 42.7598 186.913 42.7598H173.314C173.275 42.7598 173.255 42.7006 173.255 42.5824C173.255 42.4641 173.275 42.405 173.314 42.405C174.083 42.405 174.644 42.3558 174.999 42.2572C175.374 42.1587 175.62 41.9715 175.738 41.6955C175.876 41.3999 175.945 40.9565 175.945 40.3653V26.6782C175.945 26.087 175.876 25.6534 175.738 25.3775C175.62 25.1016 175.374 24.9144 174.999 24.8158C174.644 24.6976 174.083 24.6385 173.314 24.6385C173.275 24.6385 173.255 24.5793 173.255 24.4611C173.255 24.3429 173.275 24.2837 173.314 24.2837L174.763 24.3133C175.59 24.3527 176.241 24.3724 176.714 24.3724C177.246 24.3724 177.926 24.3527 178.754 24.3133L180.143 24.2837C180.182 24.2837 180.202 24.3429 180.202 24.4611C180.202 24.5793 180.182 24.6385 180.143 24.6385C179.374 24.6385 178.803 24.6976 178.428 24.8158C178.074 24.9144 177.827 25.1115 177.689 25.4071C177.571 25.683 177.512 26.1166 177.512 26.7078V40.247ZM194.341 40.3653C194.341 40.9762 194.4 41.4196 194.518 41.6955C194.656 41.9715 194.902 42.1587 195.257 42.2572C195.612 42.3558 196.183 42.405 196.972 42.405C197.011 42.405 197.031 42.4641 197.031 42.5824C197.031 42.7006 197.011 42.7598 196.972 42.7598C196.38 42.7598 195.917 42.7499 195.582 42.7302L193.513 42.7006L191.532 42.7302C191.177 42.7499 190.695 42.7598 190.084 42.7598C190.025 42.7598 189.995 42.7006 189.995 42.5824C189.995 42.4641 190.025 42.405 190.084 42.405C190.852 42.405 191.414 42.3558 191.769 42.2572C192.143 42.1587 192.399 41.9715 192.537 41.6955C192.675 41.3999 192.744 40.9565 192.744 40.3653V26.6782C192.744 26.087 192.675 25.6534 192.537 25.3775C192.399 25.1016 192.143 24.9144 191.769 24.8158C191.414 24.6976 190.852 24.6385 190.084 24.6385C190.025 24.6385 189.995 24.5793 189.995 24.4611C189.995 24.3429 190.025 24.2837 190.084 24.2837L191.532 24.3133C192.36 24.3527 193.02 24.3724 193.513 24.3724C194.065 24.3724 194.754 24.3527 195.582 24.3133L196.972 24.2837C197.011 24.2837 197.031 24.3429 197.031 24.4611C197.031 24.5793 197.011 24.6385 196.972 24.6385C196.203 24.6385 195.631 24.6976 195.257 24.8158C194.902 24.9341 194.656 25.141 194.518 25.4366C194.4 25.7125 194.341 26.1461 194.341 26.7373V40.3653ZM204.423 40.247C204.423 40.8186 204.483 41.2423 204.601 41.5182C204.739 41.7744 204.975 41.9517 205.31 42.0503C205.665 42.1488 206.217 42.1981 206.966 42.1981H210.75C212.701 42.1981 213.854 40.9467 214.208 38.4438C214.208 38.3846 214.258 38.3649 214.356 38.3846C214.474 38.3846 214.534 38.4142 214.534 38.4733C214.356 40.0302 214.267 41.3112 214.267 42.3163C214.267 42.474 214.238 42.5922 214.179 42.6711C214.12 42.7302 214.001 42.7598 213.824 42.7598H200.226C200.186 42.7598 200.167 42.7006 200.167 42.5824C200.167 42.4641 200.186 42.405 200.226 42.405C200.994 42.405 201.556 42.3558 201.911 42.2572C202.285 42.1587 202.531 41.9715 202.65 41.6955C202.788 41.3999 202.857 40.9565 202.857 40.3653V26.6782C202.857 26.087 202.788 25.6534 202.65 25.3775C202.531 25.1016 202.285 24.9144 201.911 24.8158C201.556 24.6976 200.994 24.6385 200.226 24.6385C200.186 24.6385 200.167 24.5793 200.167 24.4611C200.167 24.3429 200.186 24.2837 200.226 24.2837L201.674 24.3133C202.502 24.3527 203.152 24.3724 203.625 24.3724C204.157 24.3724 204.837 24.3527 205.665 24.3133L207.054 24.2837C207.094 24.2837 207.114 24.3429 207.114 24.4611C207.114 24.5793 207.094 24.6385 207.054 24.6385C206.286 24.6385 205.714 24.6976 205.34 24.8158C204.985 24.9144 204.739 25.1115 204.601 25.4071C204.483 25.683 204.423 26.1166 204.423 26.7078V40.247ZM220.838 40.247C220.838 40.8186 220.897 41.2423 221.016 41.5182C221.154 41.7744 221.39 41.9517 221.725 42.0503C222.08 42.1488 222.632 42.1981 223.381 42.1981H227.164C229.115 42.1981 230.268 40.9467 230.623 38.4438C230.623 38.3846 230.672 38.3649 230.771 38.3846C230.889 38.3846 230.948 38.4142 230.948 38.4733C230.771 40.0302 230.682 41.3112 230.682 42.3163C230.682 42.474 230.653 42.5922 230.594 42.6711C230.534 42.7302 230.416 42.7598 230.239 42.7598H216.64C216.601 42.7598 216.581 42.7006 216.581 42.5824C216.581 42.4641 216.601 42.405 216.64 42.405C217.409 42.405 217.971 42.3558 218.325 42.2572C218.7 42.1587 218.946 41.9715 219.065 41.6955C219.202 41.3999 219.271 40.9565 219.271 40.3653V26.6782C219.271 26.087 219.202 25.6534 219.065 25.3775C218.946 25.1016 218.7 24.9144 218.325 24.8158C217.971 24.6976 217.409 24.6385 216.64 24.6385C216.601 24.6385 216.581 24.5793 216.581 24.4611C216.581 24.3429 216.601 24.2837 216.64 24.2837L218.089 24.3133C218.917 24.3527 219.567 24.3724 220.04 24.3724C220.572 24.3724 221.252 24.3527 222.08 24.3133L223.469 24.2837C223.509 24.2837 223.528 24.3429 223.528 24.4611C223.528 24.5793 223.509 24.6385 223.469 24.6385C222.701 24.6385 222.129 24.6976 221.755 24.8158C221.4 24.9144 221.154 25.1115 221.016 25.4071C220.897 25.683 220.838 26.1166 220.838 26.7078V40.247ZM245.885 38.4438C245.885 38.3846 245.944 38.3649 246.062 38.3846C246.181 38.3846 246.24 38.4142 246.24 38.4733C246.062 39.7149 245.974 40.9959 245.974 42.3163C245.974 42.474 245.934 42.5922 245.855 42.6711C245.796 42.7302 245.678 42.7598 245.501 42.7598H233.292C233.252 42.7598 233.233 42.7006 233.233 42.5824C233.233 42.4641 233.252 42.405 233.292 42.405C234.06 42.405 234.622 42.3558 234.977 42.2572C235.351 42.1587 235.598 41.9715 235.716 41.6955C235.854 41.3999 235.923 40.9565 235.923 40.3653V26.6782C235.923 26.087 235.854 25.6534 235.716 25.3775C235.598 25.1016 235.351 24.9144 234.977 24.8158C234.622 24.6976 234.06 24.6385 233.292 24.6385C233.252 24.6385 233.233 24.5793 233.233 24.4611C233.233 24.3429 233.252 24.2837 233.292 24.2837H244.998C245.176 24.2837 245.264 24.3724 245.264 24.5498L245.323 28.1267C245.323 28.1859 245.264 28.2154 245.146 28.2154C245.047 28.2154 244.998 28.1859 244.998 28.1267C244.998 27.1216 244.732 26.3235 244.2 25.7323C243.668 25.141 242.968 24.8454 242.101 24.8454H240.061C239.312 24.8454 238.761 24.8947 238.406 24.9932C238.051 25.0917 237.805 25.279 237.667 25.5549C237.549 25.8308 237.49 26.2644 237.49 26.8556V32.8566H241.392C242.298 32.8566 242.929 32.7088 243.284 32.4132C243.638 32.0979 243.816 31.5658 243.816 30.8169C243.816 30.7774 243.875 30.7577 243.993 30.7577C244.111 30.7577 244.17 30.7774 244.17 30.8169L244.141 33.1522C244.141 33.7238 244.151 34.1475 244.17 34.4234L244.2 35.8128C244.2 35.8522 244.141 35.8719 244.023 35.8719C243.904 35.8719 243.845 35.8522 243.845 35.8128C243.845 34.9259 243.658 34.3051 243.284 33.9504C242.909 33.5957 242.249 33.4183 241.303 33.4183H237.49V40.247C237.49 40.8186 237.549 41.2423 237.667 41.5182C237.805 41.7744 238.041 41.9517 238.376 42.0503C238.731 42.1488 239.293 42.1981 240.061 42.1981H242.781C243.569 42.1981 244.239 41.8532 244.791 41.1634C245.363 40.4737 245.727 39.5671 245.885 38.4438ZM276.558 42.405C276.636 42.4247 276.666 42.4937 276.646 42.612C276.646 42.7105 276.617 42.7598 276.558 42.7598H273.779C272.793 42.7598 271.335 41.9912 269.404 40.454C267.807 42.2277 265.797 43.1145 263.373 43.1145C262.191 43.1145 261.195 42.9076 260.387 42.4937C259.599 42.0798 259.008 41.5379 258.614 40.8678C258.239 40.178 258.052 39.439 258.052 38.6507C258.052 37.4879 258.407 36.473 259.116 35.6058C259.826 34.7387 260.841 33.8321 262.161 32.8862C261.806 32.3344 261.521 31.8318 261.304 31.3785C260.752 30.1172 260.476 29.0432 260.476 28.1563C260.476 27.368 260.673 26.629 261.067 25.9392C261.481 25.2494 262.043 24.6976 262.752 24.2837C263.462 23.8699 264.27 23.6629 265.176 23.6629C266.063 23.6629 266.842 23.8797 267.512 24.3133C268.182 24.7469 268.517 25.5056 268.517 26.5895C268.517 27.3581 268.32 28.0578 267.926 28.6884C267.551 29.2994 267.078 29.8315 266.507 30.2847C265.955 30.738 265.186 31.2997 264.201 31.9698L263.58 32.3836C265.038 34.6697 267.167 36.877 269.965 39.0054C270.813 37.6259 271.236 36.1675 271.236 34.6303C271.236 34.0194 271.099 33.5661 270.823 33.2705C270.566 32.9551 270.024 32.7975 269.197 32.7975C269.138 32.7975 269.098 32.7384 269.078 32.6201C269.078 32.5019 269.118 32.4427 269.197 32.4427L275.168 32.4132C275.247 32.4132 275.286 32.4723 275.286 32.5906C275.286 32.7088 275.247 32.7679 275.168 32.7679C274.478 32.7679 273.956 32.827 273.601 32.9453C273.266 33.0635 273.03 33.2311 272.892 33.4478C272.754 33.6646 272.626 33.98 272.508 34.3938C271.976 36.2858 271.256 37.9117 270.35 39.2715C271.512 40.1189 272.636 40.8186 273.72 41.3704C274.804 41.9025 275.75 42.2474 276.558 42.405ZM261.895 27.2399C261.895 28.718 262.388 30.3143 263.373 32.0289C264.575 31.1814 265.492 30.3833 266.122 29.6344C266.773 28.8855 267.098 28.0184 267.098 27.033C267.098 26.1461 266.861 25.4563 266.388 24.9636C265.915 24.471 265.265 24.2246 264.437 24.2246C263.629 24.2246 262.999 24.471 262.545 24.9636C262.112 25.4563 261.895 26.2151 261.895 27.2399ZM264.467 42.3755C265.354 42.3755 266.191 42.1882 266.98 41.8138C267.768 41.4196 268.468 40.8777 269.078 40.1879L268.753 39.9218C267.531 38.9562 266.359 37.8919 265.235 36.7292C264.132 35.5664 263.186 34.4037 262.398 33.2409C261.53 33.8913 260.85 34.581 260.358 35.3102C259.885 36.0197 259.648 36.8474 259.648 37.7934C259.648 38.6408 259.855 39.4193 260.269 40.1288C260.703 40.8186 261.284 41.3704 262.013 41.7842C262.742 42.1784 263.56 42.3755 264.467 42.3755ZM308.891 42.405C308.95 42.405 308.98 42.4641 308.98 42.5824C308.98 42.7006 308.95 42.7598 308.891 42.7598C308.28 42.7598 307.797 42.7499 307.442 42.7302L305.462 42.7006L303.629 42.7302C303.333 42.7499 302.919 42.7598 302.387 42.7598C302.348 42.7598 302.328 42.7006 302.328 42.5824C302.328 42.4641 302.348 42.405 302.387 42.405C303.077 42.405 303.58 42.3558 303.895 42.2572C304.23 42.139 304.447 41.9419 304.545 41.666C304.664 41.3901 304.703 40.9565 304.664 40.3653L304.161 26.6191L297.244 42.5528C297.204 42.6317 297.125 42.6711 297.007 42.6711C296.909 42.6711 296.82 42.6317 296.741 42.5528L289.528 26.7373L289.498 26.6782L289.262 39.6854C289.242 40.7102 289.41 41.4196 289.764 41.8138C290.119 42.2079 290.779 42.405 291.745 42.405C291.785 42.405 291.804 42.4641 291.804 42.5824C291.804 42.7006 291.785 42.7598 291.745 42.7598C291.193 42.7598 290.77 42.7499 290.474 42.7302L288.878 42.7006L287.429 42.7302C287.173 42.7499 286.789 42.7598 286.276 42.7598C286.237 42.7598 286.217 42.7006 286.217 42.5824C286.217 42.4641 286.237 42.405 286.276 42.405C287.104 42.405 287.685 42.2079 288.02 41.8138C288.375 41.3999 288.562 40.6904 288.582 39.6854L288.878 25.6731C288.267 24.9834 287.469 24.6385 286.483 24.6385C286.444 24.6385 286.424 24.5793 286.424 24.4611C286.424 24.3429 286.444 24.2837 286.483 24.2837L287.488 24.3133C287.685 24.333 287.941 24.3429 288.257 24.3429C288.572 24.3429 288.838 24.333 289.055 24.3133C289.272 24.2936 289.439 24.2837 289.558 24.2837C289.833 24.2837 290.05 24.3823 290.208 24.5793C290.366 24.7567 290.602 25.1706 290.917 25.8209L297.569 40.1879L304.191 25.0228C304.289 24.806 304.417 24.6286 304.575 24.4907C304.752 24.3527 304.92 24.2837 305.077 24.2837C305.156 24.2837 305.284 24.2936 305.462 24.3133C305.639 24.333 305.885 24.3429 306.201 24.3429L307.531 24.3133C307.728 24.2936 308.034 24.2837 308.447 24.2837C308.487 24.2837 308.507 24.3429 308.507 24.4611C308.507 24.5793 308.487 24.6385 308.447 24.6385C307.423 24.6385 306.693 24.7764 306.26 25.0523C305.846 25.3085 305.649 25.8308 305.669 26.6191L306.23 40.3653C306.25 40.9762 306.319 41.4196 306.437 41.6955C306.575 41.9715 306.822 42.1587 307.176 42.2572C307.551 42.3558 308.122 42.405 308.891 42.405ZM324.206 38.4438C324.206 38.3846 324.265 38.3649 324.383 38.3846C324.502 38.3846 324.561 38.4142 324.561 38.4733C324.383 39.7149 324.295 40.9959 324.295 42.3163C324.295 42.474 324.255 42.5922 324.177 42.6711C324.117 42.7302 323.999 42.7598 323.822 42.7598H311.613C311.573 42.7598 311.554 42.7006 311.554 42.5824C311.554 42.4641 311.573 42.405 311.613 42.405C312.381 42.405 312.943 42.3558 313.298 42.2572C313.672 42.1587 313.919 41.9715 314.037 41.6955C314.175 41.3999 314.244 40.9565 314.244 40.3653V26.6782C314.244 26.087 314.175 25.6534 314.037 25.3775C313.919 25.1016 313.672 24.9144 313.298 24.8158C312.943 24.6976 312.381 24.6385 311.613 24.6385C311.573 24.6385 311.554 24.5793 311.554 24.4611C311.554 24.3429 311.573 24.2837 311.613 24.2837H323.319C323.497 24.2837 323.585 24.3724 323.585 24.5498L323.644 28.1267C323.644 28.1859 323.585 28.2154 323.467 28.2154C323.369 28.2154 323.319 28.1859 323.319 28.1267C323.319 27.1216 323.053 26.3235 322.521 25.7323C321.989 25.141 321.289 24.8454 320.422 24.8454H318.382C317.634 24.8454 317.082 24.8947 316.727 24.9932C316.372 25.0917 316.126 25.279 315.988 25.5549C315.87 25.8308 315.811 26.2644 315.811 26.8556V32.8566H319.713C320.619 32.8566 321.25 32.7088 321.605 32.4132C321.959 32.0979 322.137 31.5658 322.137 30.8169C322.137 30.7774 322.196 30.7577 322.314 30.7577C322.432 30.7577 322.492 30.7774 322.492 30.8169L322.462 33.1522C322.462 33.7238 322.472 34.1475 322.492 34.4234L322.521 35.8128C322.521 35.8522 322.462 35.8719 322.344 35.8719C322.225 35.8719 322.166 35.8522 322.166 35.8128C322.166 34.9259 321.979 34.3051 321.605 33.9504C321.23 33.5957 320.57 33.4183 319.624 33.4183H315.811V40.247C315.811 40.8186 315.87 41.2423 315.988 41.5182C316.126 41.7744 316.362 41.9517 316.697 42.0503C317.052 42.1488 317.614 42.1981 318.382 42.1981H321.102C321.89 42.1981 322.56 41.8532 323.112 41.1634C323.684 40.4737 324.048 39.5671 324.206 38.4438ZM335.593 42.878C335.022 42.878 334.381 42.8485 333.672 42.7893C333.396 42.7696 333.051 42.7499 332.637 42.7302C332.243 42.7105 331.8 42.7006 331.307 42.7006L329.356 42.7302C329.001 42.7499 328.508 42.7598 327.878 42.7598C327.838 42.7598 327.819 42.7006 327.819 42.5824C327.819 42.4641 327.838 42.405 327.878 42.405C328.646 42.405 329.208 42.3558 329.563 42.2572C329.937 42.1587 330.193 41.9715 330.331 41.6955C330.469 41.3999 330.538 40.9565 330.538 40.3653V26.6782C330.538 26.087 330.469 25.6534 330.331 25.3775C330.213 25.1016 329.967 24.9144 329.592 24.8158C329.238 24.6976 328.676 24.6385 327.907 24.6385C327.868 24.6385 327.848 24.5793 327.848 24.4611C327.848 24.3429 327.868 24.2837 327.907 24.2837L329.356 24.3133C330.184 24.3527 330.834 24.3724 331.307 24.3724C331.997 24.3724 332.696 24.3429 333.406 24.2837C334.273 24.2443 334.864 24.2246 335.179 24.2246C337.249 24.2246 339.082 24.6188 340.678 25.4071C342.274 26.1954 343.506 27.2695 344.373 28.6293C345.26 29.9891 345.703 31.5165 345.703 33.2114C345.703 35.123 345.24 36.8179 344.314 38.296C343.407 39.7543 342.186 40.8875 340.648 41.6955C339.111 42.4839 337.426 42.878 335.593 42.878ZM335.298 42.4937C336.953 42.4937 338.421 42.1587 339.702 41.4886C340.983 40.8185 341.979 39.8332 342.688 38.5324C343.417 37.2317 343.782 35.6748 343.782 33.8617C343.782 32.1274 343.437 30.5607 342.747 29.1614C342.077 27.7622 341.102 26.6585 339.821 25.8505C338.559 25.0228 337.101 24.6089 335.446 24.6089C334.578 24.6089 333.908 24.6582 333.435 24.7567C332.982 24.8553 332.647 25.0622 332.43 25.3775C332.213 25.6731 332.105 26.1264 332.105 26.7373V40.0401C332.105 40.6313 332.194 41.1043 332.371 41.4591C332.548 41.8138 332.864 42.0798 333.317 42.2572C333.77 42.4149 334.431 42.4937 335.298 42.4937ZM361.799 38.4438C361.799 38.3846 361.858 38.3649 361.976 38.3846C362.095 38.3846 362.154 38.4142 362.154 38.4733C361.976 39.7149 361.888 40.9959 361.888 42.3163C361.888 42.474 361.848 42.5922 361.769 42.6711C361.71 42.7302 361.592 42.7598 361.415 42.7598H349.206C349.166 42.7598 349.147 42.7006 349.147 42.5824C349.147 42.4641 349.166 42.405 349.206 42.405C349.974 42.405 350.536 42.3558 350.891 42.2572C351.265 42.1587 351.512 41.9715 351.63 41.6955C351.768 41.3999 351.837 40.9565 351.837 40.3653V26.6782C351.837 26.087 351.768 25.6534 351.63 25.3775C351.512 25.1016 351.265 24.9144 350.891 24.8158C350.536 24.6976 349.974 24.6385 349.206 24.6385C349.166 24.6385 349.147 24.5793 349.147 24.4611C349.147 24.3429 349.166 24.2837 349.206 24.2837H360.912C361.09 24.2837 361.178 24.3724 361.178 24.5498L361.237 28.1267C361.237 28.1859 361.178 28.2154 361.06 28.2154C360.961 28.2154 360.912 28.1859 360.912 28.1267C360.912 27.1216 360.646 26.3235 360.114 25.7323C359.582 25.141 358.882 24.8454 358.015 24.8454H355.975C355.227 24.8454 354.675 24.8947 354.32 24.9932C353.965 25.0917 353.719 25.279 353.581 25.5549C353.463 25.8308 353.404 26.2644 353.404 26.8556V32.8566H357.306C358.212 32.8566 358.843 32.7088 359.198 32.4132C359.552 32.0979 359.73 31.5658 359.73 30.8169C359.73 30.7774 359.789 30.7577 359.907 30.7577C360.025 30.7577 360.084 30.7774 360.084 30.8169L360.055 33.1522C360.055 33.7238 360.065 34.1475 360.084 34.4234L360.114 35.8128C360.114 35.8522 360.055 35.8719 359.937 35.8719C359.818 35.8719 359.759 35.8522 359.759 35.8128C359.759 34.9259 359.572 34.3051 359.198 33.9504C358.823 33.5957 358.163 33.4183 357.217 33.4183H353.404V40.247C353.404 40.8186 353.463 41.2423 353.581 41.5182C353.719 41.7744 353.955 41.9517 354.29 42.0503C354.645 42.1488 355.207 42.1981 355.975 42.1981H358.695C359.483 42.1981 360.153 41.8532 360.705 41.1634C361.277 40.4737 361.641 39.5671 361.799 38.4438ZM370.082 40.3653C370.082 40.9762 370.141 41.4196 370.26 41.6955C370.398 41.9715 370.644 42.1587 370.999 42.2572C371.353 42.3558 371.925 42.405 372.713 42.405C372.753 42.405 372.772 42.4641 372.772 42.5824C372.772 42.7006 372.753 42.7598 372.713 42.7598C372.122 42.7598 371.659 42.7499 371.324 42.7302L369.255 42.7006L367.274 42.7302C366.919 42.7499 366.436 42.7598 365.825 42.7598C365.766 42.7598 365.737 42.7006 365.737 42.5824C365.737 42.4641 365.766 42.405 365.825 42.405C366.594 42.405 367.156 42.3558 367.51 42.2572C367.885 42.1587 368.141 41.9715 368.279 41.6955C368.417 41.3999 368.486 40.9565 368.486 40.3653V26.6782C368.486 26.087 368.417 25.6534 368.279 25.3775C368.141 25.1016 367.885 24.9144 367.51 24.8158C367.156 24.6976 366.594 24.6385 365.825 24.6385C365.766 24.6385 365.737 24.5793 365.737 24.4611C365.737 24.3429 365.766 24.2837 365.825 24.2837L367.274 24.3133C368.102 24.3527 368.762 24.3724 369.255 24.3724C369.806 24.3724 370.496 24.3527 371.324 24.3133L372.713 24.2837C372.753 24.2837 372.772 24.3429 372.772 24.4611C372.772 24.5793 372.753 24.6385 372.713 24.6385C371.945 24.6385 371.373 24.6976 370.999 24.8158C370.644 24.9341 370.398 25.141 370.26 25.4366C370.141 25.7125 370.082 26.1461 370.082 26.7373V40.3653ZM394.887 42.405C394.946 42.405 394.976 42.4641 394.976 42.5824C394.976 42.7006 394.946 42.7598 394.887 42.7598H391.458C390.945 42.7598 389.989 41.9123 388.59 40.2175C387.191 38.5029 385.496 36.138 383.506 33.1227C382.914 33.2803 382.313 33.3592 381.702 33.3592C381.367 33.3592 380.944 33.3395 380.431 33.3V40.3653C380.431 40.9762 380.49 41.4196 380.609 41.6955C380.747 41.9715 380.993 42.1587 381.348 42.2572C381.702 42.3558 382.274 42.405 383.062 42.405C383.121 42.405 383.151 42.4641 383.151 42.5824C383.151 42.7006 383.121 42.7598 383.062 42.7598C382.471 42.7598 381.998 42.7499 381.643 42.7302L379.633 42.7006L377.682 42.7302C377.327 42.7499 376.835 42.7598 376.204 42.7598C376.164 42.7598 376.145 42.7006 376.145 42.5824C376.145 42.4641 376.164 42.405 376.204 42.405C376.992 42.405 377.564 42.3558 377.918 42.2572C378.293 42.1587 378.549 41.9715 378.687 41.6955C378.825 41.3999 378.894 40.9565 378.894 40.3653V26.6782C378.894 26.087 378.825 25.6534 378.687 25.3775C378.569 25.1016 378.322 24.9144 377.948 24.8158C377.593 24.6976 377.032 24.6385 376.263 24.6385C376.204 24.6385 376.174 24.5793 376.174 24.4611C376.174 24.3429 376.204 24.2837 376.263 24.2837L377.682 24.3133C378.47 24.3527 379.121 24.3724 379.633 24.3724C379.988 24.3724 380.323 24.3626 380.638 24.3429C380.953 24.3231 381.229 24.3034 381.466 24.2837C382.077 24.2246 382.619 24.195 383.092 24.195C384.649 24.195 385.841 24.5202 386.669 25.1706C387.496 25.8209 387.91 26.7275 387.91 27.8903C387.91 28.8362 387.634 29.7329 387.083 30.5804C386.531 31.4081 385.802 32.0683 384.895 32.561C386.61 35.0836 388.038 37.0445 389.181 38.4438C390.325 39.843 391.339 40.858 392.226 41.4886C393.133 42.0996 394.02 42.405 394.887 42.405ZM380.431 32.5906C381.18 32.6694 381.771 32.7088 382.205 32.7088C383.644 32.7088 384.678 32.4132 385.309 31.822C385.94 31.211 386.255 30.2355 386.255 28.8953C386.255 27.3976 385.9 26.3038 385.191 25.614C384.501 24.9242 383.575 24.5793 382.412 24.5793C381.86 24.5793 381.456 24.6188 381.2 24.6976C380.944 24.7764 380.747 24.9636 380.609 25.2593C380.49 25.5549 380.431 26.0476 380.431 26.7373V32.5906ZM404.794 43.1145C402.961 43.1145 401.325 42.6908 399.886 41.8434C398.467 40.9762 397.364 39.8135 396.575 38.3551C395.807 36.877 395.422 35.2708 395.422 33.5365C395.422 31.5066 395.935 29.7723 396.96 28.3337C397.984 26.8753 399.295 25.7815 400.891 25.0523C402.507 24.3231 404.153 23.9586 405.828 23.9586C407.7 23.9586 409.346 24.402 410.765 25.2888C412.184 26.156 413.268 27.3089 414.017 28.7475C414.785 30.1862 415.17 31.7136 415.17 33.3296C415.17 35.123 414.697 36.7686 413.751 38.2664C412.805 39.7642 411.534 40.9467 409.937 41.8138C408.361 42.6809 406.646 43.1145 404.794 43.1145ZM405.858 42.5233C407.257 42.5233 408.518 42.1981 409.642 41.5477C410.765 40.8974 411.652 39.9416 412.302 38.6803C412.953 37.419 413.278 35.9113 413.278 34.1573C413.278 32.3048 412.913 30.6592 412.184 29.2205C411.474 27.7622 410.459 26.629 409.139 25.8209C407.838 25.0129 406.321 24.6089 404.587 24.6089C402.3 24.6089 400.517 25.3184 399.236 26.7373C397.955 28.1563 397.314 30.0877 397.314 32.5314C397.314 34.3643 397.669 36.0493 398.379 37.5865C399.108 39.104 400.123 40.3061 401.423 41.193C402.724 42.0798 404.202 42.5233 405.858 42.5233ZM421.426 27.8607C421.426 28.649 421.613 29.3289 421.987 29.9004C422.362 30.472 422.815 30.9548 423.347 31.349C423.899 31.7234 424.658 32.1964 425.623 32.7679C426.648 33.3789 427.437 33.8913 427.988 34.3051C428.56 34.6993 429.043 35.2117 429.437 35.8423C429.851 36.473 430.058 37.2317 430.058 38.1186C430.058 39.0449 429.831 39.8923 429.378 40.6609C428.924 41.4098 428.245 42.0109 427.338 42.4641C426.451 42.8977 425.357 43.1145 424.057 43.1145C423.367 43.1145 422.707 43.0357 422.076 42.878C421.465 42.7401 420.785 42.4839 420.036 42.1094C419.938 42.0503 419.869 41.9813 419.829 41.9025C419.81 41.8236 419.79 41.7054 419.77 41.5477L419.327 37.7047V37.6752C419.327 37.5963 419.376 37.5569 419.475 37.5569C419.573 37.5372 419.632 37.5668 419.652 37.6456C419.849 39.0054 420.371 40.1879 421.219 41.193C422.066 42.1981 423.229 42.7006 424.707 42.7006C425.751 42.7006 426.628 42.4149 427.338 41.8434C428.067 41.2718 428.432 40.3751 428.432 39.1532C428.432 38.2664 428.235 37.5076 427.841 36.877C427.446 36.2266 426.964 35.6945 426.392 35.2807C425.84 34.8471 425.081 34.3445 424.116 33.773C423.17 33.2212 422.421 32.7384 421.869 32.3245C421.337 31.9106 420.874 31.3982 420.48 30.7873C420.105 30.1566 419.918 29.4078 419.918 28.5406C419.918 27.5552 420.164 26.7176 420.657 26.0279C421.169 25.3381 421.83 24.8257 422.638 24.4907C423.446 24.1359 424.313 23.9586 425.239 23.9586C426.323 23.9586 427.446 24.195 428.609 24.668C428.905 24.7863 429.053 24.9538 429.053 25.1706L429.319 28.3041C429.319 28.3829 429.259 28.4224 429.141 28.4224C429.043 28.4224 428.984 28.3829 428.964 28.3041C428.885 27.2793 428.501 26.3629 427.811 25.5549C427.121 24.7469 426.136 24.3429 424.855 24.3429C423.672 24.3429 422.805 24.6877 422.253 25.3775C421.702 26.0673 421.426 26.895 421.426 27.8607Z" fill="#494949"/>
<line x1="93.1211" y1="59.1461" x2="430.499" y2="59.1461" stroke="#494949" stroke-width="0.739041"/>
<path d="M58.6705 32.6311C58.6705 33.4711 57.9896 34.1519 57.1497 34.1519C56.3098 34.1519 55.6289 33.4711 55.6289 32.6311C55.6289 31.7912 56.3098 31.1104 57.1497 31.1104C57.9896 31.1104 58.6705 31.7912 58.6705 32.6311Z" fill="#494949"/>
<path d="M23.733 32.6761C23.733 33.516 23.0521 34.1969 22.2122 34.1969C21.3723 34.1969 20.6914 33.516 20.6914 32.6761C20.6914 31.8362 21.3723 31.1553 22.2122 31.1553C23.0521 31.1553 23.733 31.8362 23.733 32.6761Z" fill="#494949"/>
<path d="M39.4022 10C33.9806 10 28.8835 11.069 24.1109 13.2072C19.3384 15.3834 15.1385 18.3615 11.5114 22.1414C7.92243 25.9594 5.09708 30.3692 3.03534 35.3709C1.01178 40.4107 0 45.8132 0 51.5785C0 57.3055 1.01178 62.6699 3.03534 67.6715C5.09708 72.7113 7.92243 77.1403 11.5114 80.9583C15.1385 84.7763 19.3384 87.7544 24.1109 89.8925C28.8835 92.0688 33.9806 93.1569 39.4022 93.1569C45.8928 93.1569 51.8681 91.6488 57.3279 88.6326C62.7877 85.6163 67.4392 81.5608 71.0282 76.521L71.3175 75.9424L70.8835 76.3764C67.2613 81.2563 62.0934 84.5156 57.11 87.5793C52.032 90.2519 44.9765 91.8698 39.4022 91.8698C34.3624 91.8698 28.9773 90.8287 24.6247 88.8051C20.2721 86.7816 15.3431 83.162 12.0596 79.6112C8.77611 76.0986 5.92419 71.6659 4.09153 67.0461C2.25887 62.4645 1.33334 56.6946 1.33334 51.5785C1.33334 46.3096 2.52716 40.7129 4.398 36.0931C6.26884 31.5114 9.08258 26.7341 12.3661 23.2215C15.6878 19.7089 20.3103 16.4525 24.6247 14.4671C28.9773 12.5199 34.4387 11.2694 39.4022 11.2694C45.2438 11.2694 51.8498 12.6416 56.8515 15.3524C61.8913 18.0632 67.6081 22.1387 70.7389 26.4913H70.8835C67.2946 21.4515 62.7877 17.4452 57.3279 14.4671C51.8681 11.489 45.8928 10 39.4022 10Z" fill="#494949"/>
<path d="M20.8906 77.3563V59.2541V42.5458C20.8906 40.4572 23.5358 39.5913 24.7491 41.2913C29.5175 47.9721 33.2038 53.5859 38.3214 60.6111C39.1978 61.8142 40.9993 61.7824 41.8406 60.5545L54.755 41.7072C55.9592 39.9499 58.7105 40.8021 58.7105 42.9324V47.4505V62.3052V76.9278L57.9901 59.2541L57.4163 47.0662C57.3209 45.0401 54.7435 44.2434 53.5213 45.8622L48.8715 52.0212L41.3058 63.0613C40.1008 64.6722 39.6605 63.9827 38.8929 63.1827C38.8148 63.1013 38.741 63.0154 38.6747 62.9241L31.0054 52.3604L26.1572 45.9162C24.9336 44.2899 22.3458 45.0941 22.2596 47.1275L21.7454 59.2541L20.8906 76.9278V77.3563Z" fill="#494949"/>
</svg>
