<svg width="422" height="187" viewBox="0 0 422 187" fill="none" xmlns="http://www.w3.org/2000/svg">
<g clip-path="url(#clip0_519_315)">
<path d="M181.354 150.53H182.069V162.441H181.354V159.654C180.926 160.583 180.298 161.334 179.472 161.905C178.646 162.469 177.654 162.751 176.494 162.751C175.629 162.751 174.819 162.588 174.064 162.263C173.31 161.937 172.643 161.488 172.063 160.917C171.491 160.337 171.043 159.67 170.717 158.916C170.392 158.161 170.229 157.351 170.229 156.486C170.229 155.612 170.392 154.798 170.717 154.044C171.043 153.281 171.491 152.614 172.063 152.042C172.643 151.463 173.31 151.01 174.064 150.684C174.819 150.359 175.629 150.196 176.494 150.196C177.654 150.196 178.646 150.482 179.472 151.054C180.298 151.618 180.926 152.364 181.354 153.293V150.53ZM176.494 162.036C177.519 162.036 178.388 161.786 179.103 161.286C179.826 160.786 180.374 160.115 180.747 159.273C181.12 158.431 181.307 157.502 181.307 156.486C181.307 155.445 181.116 154.504 180.735 153.662C180.354 152.821 179.802 152.154 179.079 151.661C178.365 151.161 177.503 150.911 176.494 150.911C175.47 150.911 174.537 151.161 173.695 151.661C172.853 152.162 172.182 152.837 171.682 153.686C171.19 154.528 170.944 155.461 170.944 156.486C170.944 157.526 171.198 158.467 171.706 159.309C172.222 160.142 172.901 160.806 173.743 161.298C174.585 161.79 175.502 162.036 176.494 162.036ZM209.052 144.574H209.767V162.441H209.052V159.654C208.623 160.583 207.996 161.334 207.17 161.905C206.344 162.469 205.351 162.751 204.192 162.751C203.326 162.751 202.516 162.588 201.762 162.263C201.008 161.937 200.341 161.488 199.761 160.917C199.189 160.337 198.74 159.67 198.415 158.916C198.089 158.161 197.926 157.351 197.926 156.486C197.926 155.612 198.089 154.798 198.415 154.044C198.74 153.281 199.189 152.614 199.761 152.042C200.341 151.463 201.008 151.01 201.762 150.684C202.516 150.359 203.326 150.196 204.192 150.196C205.351 150.196 206.344 150.482 207.17 151.054C207.996 151.618 208.623 152.364 209.052 153.293V144.574ZM204.192 162.036C205.216 162.036 206.086 161.786 206.801 161.286C207.523 160.786 208.071 160.115 208.445 159.273C208.818 158.431 209.004 157.502 209.004 156.486C209.004 155.445 208.814 154.504 208.433 153.662C208.051 152.821 207.5 152.154 206.777 151.661C206.062 151.161 205.201 150.911 204.192 150.911C203.176 150.911 202.246 151.161 201.405 151.661C200.563 152.162 199.892 152.837 199.392 153.686C198.891 154.528 198.641 155.461 198.641 156.486C198.641 157.526 198.895 158.467 199.404 159.309C199.92 160.142 200.599 160.806 201.44 161.298C202.282 161.79 203.199 162.036 204.192 162.036ZM231.539 162.441H230.682L226.322 150.482H227.084L231.111 161.56L235.137 150.482H235.899L231.539 162.441ZM257.23 162.751C256.134 162.751 255.134 162.469 254.229 161.905C253.331 161.342 252.613 160.587 252.073 159.642C251.54 158.689 251.274 157.637 251.274 156.486C251.274 155.612 251.429 154.798 251.739 154.044C252.049 153.281 252.474 152.614 253.014 152.042C253.561 151.463 254.197 151.01 254.919 150.684C255.642 150.359 256.412 150.196 257.23 150.196C258.326 150.196 259.323 150.478 260.22 151.042C261.125 151.606 261.844 152.364 262.376 153.317C262.916 154.27 263.186 155.326 263.186 156.486C263.186 157.351 263.031 158.161 262.722 158.916C262.412 159.67 261.983 160.337 261.435 160.917C260.895 161.488 260.264 161.937 259.541 162.263C258.826 162.588 258.056 162.751 257.23 162.751ZM257.23 162.036C258.215 162.036 259.1 161.782 259.887 161.274C260.681 160.758 261.308 160.079 261.769 159.237C262.237 158.395 262.471 157.478 262.471 156.486C262.471 155.485 262.237 154.564 261.769 153.722C261.308 152.872 260.681 152.193 259.887 151.685C259.1 151.169 258.215 150.911 257.23 150.911C256.238 150.911 255.344 151.169 254.55 151.685C253.764 152.193 253.141 152.872 252.68 153.722C252.219 154.564 251.989 155.485 251.989 156.486C251.989 157.518 252.227 158.455 252.704 159.297C253.18 160.131 253.816 160.798 254.61 161.298C255.404 161.79 256.277 162.036 257.23 162.036ZM289.459 150.53H290.174V163.037C290.174 163.728 290.015 164.391 289.697 165.026C289.387 165.669 288.967 166.245 288.434 166.753C287.91 167.262 287.315 167.663 286.648 167.957C285.989 168.25 285.306 168.397 284.599 168.397C283.773 168.397 282.975 168.195 282.205 167.79C281.442 167.393 280.787 166.865 280.239 166.206C279.691 165.546 279.326 164.832 279.143 164.061L279.81 163.752C279.945 164.466 280.259 165.122 280.751 165.717C281.244 166.313 281.831 166.789 282.514 167.147C283.197 167.504 283.892 167.683 284.599 167.683C285.21 167.683 285.806 167.552 286.386 167.289C286.965 167.035 287.486 166.69 287.946 166.253C288.407 165.816 288.772 165.32 289.042 164.764C289.32 164.208 289.459 163.633 289.459 163.037V159.678C289.022 160.591 288.399 161.334 287.589 161.905C286.779 162.469 285.83 162.751 284.742 162.751C283.924 162.751 283.154 162.588 282.431 162.263C281.708 161.937 281.073 161.488 280.525 160.917C279.985 160.337 279.56 159.67 279.251 158.916C278.941 158.161 278.786 157.351 278.786 156.486C278.786 155.612 278.941 154.798 279.251 154.044C279.56 153.281 279.985 152.614 280.525 152.042C281.073 151.463 281.708 151.01 282.431 150.684C283.154 150.359 283.924 150.196 284.742 150.196C285.83 150.196 286.779 150.478 287.589 151.042C288.399 151.606 289.022 152.348 289.459 153.269V150.53ZM284.742 162.036C285.727 162.036 286.568 161.778 287.267 161.262C287.966 160.746 288.502 160.067 288.875 159.225C289.248 158.383 289.435 157.47 289.435 156.486C289.435 155.477 289.244 154.552 288.863 153.71C288.49 152.86 287.95 152.181 287.243 151.673C286.544 151.165 285.711 150.911 284.742 150.911C283.765 150.911 282.88 151.161 282.086 151.661C281.299 152.162 280.672 152.837 280.203 153.686C279.735 154.528 279.501 155.461 279.501 156.486C279.501 157.518 279.739 158.455 280.215 159.297C280.692 160.131 281.327 160.798 282.121 161.298C282.915 161.79 283.789 162.036 284.742 162.036ZM317.865 150.53H318.58V162.441H317.865V159.654C317.436 160.583 316.809 161.334 315.983 161.905C315.157 162.469 314.164 162.751 313.005 162.751C312.139 162.751 311.329 162.588 310.575 162.263C309.821 161.937 309.154 161.488 308.574 160.917C308.002 160.337 307.553 159.67 307.228 158.916C306.902 158.161 306.739 157.351 306.739 156.486C306.739 155.612 306.902 154.798 307.228 154.044C307.553 153.281 308.002 152.614 308.574 152.042C309.154 151.463 309.821 151.01 310.575 150.684C311.329 150.359 312.139 150.196 313.005 150.196C314.164 150.196 315.157 150.482 315.983 151.054C316.809 151.618 317.436 152.364 317.865 153.293V150.53ZM313.005 162.036C314.029 162.036 314.899 161.786 315.614 161.286C316.336 160.786 316.884 160.115 317.258 159.273C317.631 158.431 317.817 157.502 317.817 156.486C317.817 155.445 317.627 154.504 317.246 153.662C316.864 152.821 316.313 152.154 315.59 151.661C314.875 151.161 314.014 150.911 313.005 150.911C311.981 150.911 311.048 151.161 310.206 151.661C309.364 152.162 308.693 152.837 308.193 153.686C307.7 154.528 307.454 155.461 307.454 156.486C307.454 157.526 307.708 158.467 308.217 159.309C308.733 160.142 309.412 160.806 310.253 161.298C311.095 161.79 312.012 162.036 313.005 162.036ZM345.563 144.574H346.277V162.441H345.563V159.654C345.134 160.583 344.507 161.334 343.681 161.905C342.855 162.469 341.862 162.751 340.703 162.751C339.837 162.751 339.027 162.588 338.273 162.263C337.518 161.937 336.851 161.488 336.272 160.917C335.7 160.337 335.251 159.67 334.926 158.916C334.6 158.161 334.437 157.351 334.437 156.486C334.437 155.612 334.6 154.798 334.926 154.044C335.251 153.281 335.7 152.614 336.272 152.042C336.851 151.463 337.518 151.01 338.273 150.684C339.027 150.359 339.837 150.196 340.703 150.196C341.862 150.196 342.855 150.482 343.681 151.054C344.507 151.618 345.134 152.364 345.563 153.293V144.574ZM340.703 162.036C341.727 162.036 342.597 161.786 343.311 161.286C344.034 160.786 344.582 160.115 344.955 159.273C345.328 158.431 345.515 157.502 345.515 156.486C345.515 155.445 345.325 154.504 344.943 153.662C344.562 152.821 344.01 152.154 343.288 151.661C342.573 151.161 341.711 150.911 340.703 150.911C339.686 150.911 338.757 151.161 337.915 151.661C337.074 152.162 336.403 152.837 335.902 153.686C335.402 154.528 335.152 155.461 335.152 156.486C335.152 157.526 335.406 158.467 335.914 159.309C336.43 160.142 337.109 160.806 337.951 161.298C338.793 161.79 339.71 162.036 340.703 162.036ZM373.958 150.53H374.673V162.441H373.958V159.654C373.53 160.583 372.902 161.334 372.076 161.905C371.25 162.469 370.258 162.751 369.098 162.751C368.233 162.751 367.423 162.588 366.668 162.263C365.914 161.937 365.247 161.488 364.667 160.917C364.095 160.337 363.647 159.67 363.321 158.916C362.996 158.161 362.833 157.351 362.833 156.486C362.833 155.612 362.996 154.798 363.321 154.044C363.647 153.281 364.095 152.614 364.667 152.042C365.247 151.463 365.914 151.01 366.668 150.684C367.423 150.359 368.233 150.196 369.098 150.196C370.258 150.196 371.25 150.482 372.076 151.054C372.902 151.618 373.53 152.364 373.958 153.293V150.53ZM369.098 162.036C370.123 162.036 370.992 161.786 371.707 161.286C372.43 160.786 372.978 160.115 373.351 159.273C373.724 158.431 373.911 157.502 373.911 156.486C373.911 155.445 373.72 154.504 373.339 153.662C372.958 152.821 372.406 152.154 371.683 151.661C370.968 151.161 370.107 150.911 369.098 150.911C368.074 150.911 367.141 151.161 366.299 151.661C365.457 152.162 364.786 152.837 364.286 153.686C363.794 154.528 363.547 155.461 363.547 156.486C363.547 157.526 363.802 158.467 364.31 159.309C364.826 160.142 365.505 160.806 366.347 161.298C367.188 161.79 368.106 162.036 369.098 162.036ZM395.29 162.68C394.607 162.68 393.94 162.564 393.288 162.334C392.645 162.104 392.085 161.794 391.609 161.405C391.132 161.016 390.811 160.583 390.644 160.107L391.311 159.821C391.462 160.25 391.756 160.627 392.192 160.952C392.637 161.27 393.137 161.52 393.693 161.703C394.257 161.878 394.789 161.965 395.29 161.965C395.909 161.965 396.489 161.858 397.029 161.643C397.569 161.421 398.005 161.115 398.339 160.726C398.672 160.337 398.839 159.884 398.839 159.368C398.839 158.828 398.665 158.403 398.315 158.094C397.974 157.776 397.529 157.518 396.981 157.319C396.441 157.121 395.877 156.93 395.29 156.748C394.376 156.462 393.598 156.192 392.955 155.938C392.32 155.683 391.835 155.37 391.502 154.997C391.168 154.615 391.001 154.095 391.001 153.436C391.001 152.761 391.204 152.177 391.609 151.685C392.014 151.185 392.542 150.8 393.193 150.53C393.844 150.26 394.543 150.125 395.29 150.125C396.282 150.125 397.176 150.347 397.97 150.792C398.772 151.228 399.316 151.792 399.602 152.483L398.982 152.841C398.815 152.42 398.533 152.062 398.136 151.768C397.747 151.467 397.299 151.236 396.79 151.078C396.29 150.919 395.79 150.839 395.29 150.839C394.662 150.839 394.075 150.947 393.527 151.161C392.987 151.367 392.55 151.665 392.216 152.054C391.883 152.443 391.716 152.904 391.716 153.436C391.716 153.984 391.855 154.405 392.133 154.699C392.419 154.985 392.828 155.219 393.36 155.402C393.892 155.584 394.535 155.795 395.29 156.033C396.036 156.271 396.731 156.521 397.374 156.783C398.025 157.045 398.549 157.379 398.946 157.784C399.351 158.181 399.554 158.709 399.554 159.368C399.554 160.043 399.351 160.631 398.946 161.131C398.549 161.623 398.025 162.005 397.374 162.275C396.723 162.545 396.028 162.68 395.29 162.68Z" fill="#3E3E3E"/>
<path d="M31.7056 156.492L31.7056 103.474V50.7646L74.0585 118.592L116.411 50.7646V76.6403L114.495 156.492L110.186 101.558V74.5277L74.0585 118.592H72.0417L39.9939 74.6739L31.7056 156.492Z" fill="#5A5A5A" fill-opacity="0.2"/>
<path d="M104.5 121.573C104.5 139.482 89.9821 154 72.0734 154C54.1648 154 39.647 139.482 39.647 121.573C39.647 103.665 54.1648 89.147 72.0734 89.147C89.9821 89.147 104.5 103.665 104.5 121.573Z" fill="#A981B9" fill-opacity="0.2"/>
<path d="M40.8186 38.1151C40.8186 45.0173 35.2233 50.6126 28.3212 50.6126C21.419 50.6126 15.8237 45.0173 15.8237 38.1151C15.8237 31.213 21.419 25.6177 28.3212 25.6177C35.2233 25.6177 40.8186 31.213 40.8186 38.1151Z" fill="#A981B9" fill-opacity="0.8"/>
<path d="M136.265 38.1151C136.265 45.0173 130.67 50.6126 123.767 50.6126C116.865 50.6126 111.27 45.0173 111.27 38.1151C111.27 31.213 116.865 25.6177 123.767 25.6177C130.67 25.6177 136.265 31.213 136.265 38.1151Z" fill="#A981B9" fill-opacity="0.8"/>
<path d="M47.0608 38.1151C47.0608 45.0173 41.4655 50.6126 34.5634 50.6126C27.6612 50.6126 22.0659 45.0173 22.0659 38.1151C22.0659 31.213 27.6612 25.6177 34.5634 25.6177C41.4655 25.6177 47.0608 31.213 47.0608 38.1151Z" fill="#A981B9" fill-opacity="0.2"/>
<path d="M130.022 38.1151C130.022 45.0173 124.427 50.6126 117.525 50.6126C110.623 50.6126 105.027 45.0173 105.027 38.1151C105.027 31.213 110.623 25.6177 117.525 25.6177C124.427 25.6177 130.022 31.213 130.022 38.1151Z" fill="#A981B9" fill-opacity="0.2"/>
<path d="M40.8186 38.1151C40.8186 45.0173 35.2233 50.6126 28.3212 50.6126C21.419 50.6126 15.8237 45.0173 15.8237 38.1151C15.8237 31.213 21.419 25.6177 28.3212 25.6177C35.2233 25.6177 40.8186 31.213 40.8186 38.1151Z" fill="#C5A8D0" fill-opacity="0.8"/>
<path d="M136.265 38.1151C136.265 45.0173 130.67 50.6126 123.767 50.6126C116.865 50.6126 111.27 45.0173 111.27 38.1151C111.27 31.213 116.865 25.6177 123.767 25.6177C130.67 25.6177 136.265 31.213 136.265 38.1151Z" fill="#C5A8D0" fill-opacity="0.8"/>
<path d="M47.0608 38.1151C47.0608 45.0173 41.4655 50.6126 34.5634 50.6126C27.6612 50.6126 22.0659 45.0173 22.0659 38.1151C22.0659 31.213 27.6612 25.6177 34.5634 25.6177C41.4655 25.6177 47.0608 31.213 47.0608 38.1151Z" fill="#A981B9" fill-opacity="0.2"/>
<path d="M130.022 38.1151C130.022 45.0173 124.427 50.6126 117.525 50.6126C110.623 50.6126 105.027 45.0173 105.027 38.1151C105.027 31.213 110.623 25.6177 117.525 25.6177C124.427 25.6177 130.022 31.213 130.022 38.1151Z" fill="#A981B9" fill-opacity="0.2"/>
<path d="M25.0884 174.673L25.0884 115.857V57.3823L73.3423 122.236L119.059 57.3823V86.0881L116.933 174.673L112.153 113.731V83.7444L76.5319 125.426C73.3423 129.678 72.2791 127.552 70.1528 125.426L34.2833 83.9066L25.0884 174.673Z" fill="#494949"/>
<path d="M187.535 71.6275C185.25 71.6275 183.102 71.177 181.091 70.276C179.08 69.3589 177.31 68.1039 175.782 66.5111C174.269 64.9022 173.079 63.0438 172.21 60.9361C171.357 58.8124 170.931 56.5357 170.931 54.1062C170.931 51.6928 171.357 49.4323 172.21 47.3246C173.079 45.2008 174.269 43.3345 175.782 41.7255C177.31 40.1166 179.08 38.8616 181.091 37.9606C183.102 37.0435 185.25 36.585 187.535 36.585C190.27 36.585 192.788 37.2205 195.089 38.4916C197.39 39.7626 199.296 41.4601 200.809 43.5838L199.554 44.2596C198.186 42.345 196.424 40.8326 194.268 39.7224C192.128 38.5962 189.884 38.033 187.535 38.033C185.411 38.033 183.432 38.4594 181.598 39.3121C179.764 40.1649 178.155 41.3394 176.771 42.8357C175.387 44.3159 174.309 46.0294 173.537 47.9762C172.765 49.9069 172.379 51.9503 172.379 54.1062C172.379 56.3266 172.773 58.4101 173.561 60.3569C174.35 62.2876 175.436 63.9931 176.819 65.4733C178.219 66.9535 179.828 68.112 181.646 68.9486C183.48 69.7692 185.443 70.1794 187.535 70.1794C189.997 70.1794 192.281 69.6083 194.389 68.4659C196.513 67.3236 198.234 65.8353 199.554 64.0012L200.809 64.6769C199.296 66.8007 197.39 68.4901 195.089 69.745C192.788 71 190.27 71.6275 187.535 71.6275ZM206.359 61.5154V46.8661H207.807V61.5154C207.807 63.1082 208.193 64.5643 208.965 65.8836C209.753 67.1868 210.799 68.2326 212.102 69.021C213.422 69.7933 214.878 70.1794 216.471 70.1794C218.064 70.1794 219.512 69.7933 220.815 69.021C222.134 68.2326 223.18 67.1868 223.952 65.8836C224.741 64.5643 225.135 63.1082 225.135 61.5154V46.8661H226.583V71H225.135V66.7283C224.25 68.1924 223.043 69.375 221.515 70.276C219.986 71.177 218.305 71.6275 216.471 71.6275C214.604 71.6275 212.907 71.177 211.378 70.276C209.85 69.3589 208.627 68.1361 207.71 66.6076C206.809 65.0791 206.359 63.3817 206.359 61.5154ZM234.065 83.067H232.617V46.8661H234.065V52.5134C234.934 50.631 236.205 49.1186 237.879 47.9762C239.568 46.8178 241.579 46.2386 243.912 46.2386C245.666 46.2386 247.307 46.5684 248.835 47.2281C250.364 47.8877 251.707 48.8048 252.866 49.9793C254.04 51.1378 254.957 52.4812 255.617 54.0097C256.277 55.5382 256.607 57.1793 256.607 58.933C256.607 60.6868 256.277 62.3359 255.617 63.8805C254.957 65.4251 254.04 66.7846 252.866 67.9591C251.707 69.1176 250.364 70.0266 248.835 70.6863C247.307 71.3459 245.666 71.6758 243.912 71.6758C241.579 71.6758 239.568 71.1046 237.879 69.9622C236.205 68.8038 234.934 67.2834 234.065 65.4009V83.067ZM243.912 47.6866C241.869 47.6866 240.115 48.1934 238.651 49.207C237.203 50.2046 236.093 51.5561 235.32 53.2616C234.548 54.9509 234.162 56.8414 234.162 58.933C234.162 60.9925 234.54 62.883 235.296 64.6045C236.053 66.31 237.155 67.6776 238.603 68.7073C240.067 69.7209 241.837 70.2277 243.912 70.2277C245.923 70.2277 247.782 69.7289 249.487 68.7314C251.193 67.7339 252.56 66.3824 253.59 64.6769C254.636 62.9714 255.159 61.0568 255.159 58.933C255.159 56.8736 254.652 54.9912 253.638 53.2857C252.641 51.5802 251.289 50.2207 249.584 49.207C247.878 48.1934 245.988 47.6866 243.912 47.6866ZM261.188 61.5154V46.8661H262.636V61.5154C262.636 63.1082 263.022 64.5643 263.794 65.8836C264.583 67.1868 265.629 68.2326 266.932 69.021C268.251 69.7933 269.707 70.1794 271.3 70.1794C272.893 70.1794 274.341 69.7933 275.644 69.021C276.963 68.2326 278.009 67.1868 278.782 65.8836C279.57 64.5643 279.964 63.1082 279.964 61.5154V46.8661H281.412V71H279.964V66.7283C279.079 68.1924 277.872 69.375 276.344 70.276C274.816 71.177 273.134 71.6275 271.3 71.6275C269.434 71.6275 267.736 71.177 266.208 70.276C264.679 69.3589 263.456 68.1361 262.539 66.6076C261.638 65.0791 261.188 63.3817 261.188 61.5154ZM287.965 71V34.7991H289.413V71H287.965ZM296.431 46.8661H297.879V71H296.431V46.8661ZM297.179 41.7979C296.873 41.7979 296.608 41.7014 296.383 41.5083C296.174 41.2992 296.069 41.0417 296.069 40.736C296.069 40.4142 296.174 40.1568 296.383 39.9637C296.608 39.7707 296.873 39.6741 297.179 39.6741C297.469 39.6741 297.718 39.7707 297.927 39.9637C298.136 40.1568 298.241 40.4062 298.241 40.7119C298.241 41.0337 298.136 41.2992 297.927 41.5083C297.718 41.7014 297.469 41.7979 297.179 41.7979ZM305.18 71V34.7991H306.628V71H305.18ZM313.645 71V34.7991H315.093V71H313.645ZM332.73 71.6275C330.51 71.6275 328.482 71.0563 326.648 69.914C324.83 68.7716 323.374 67.2431 322.28 65.3285C321.202 63.3978 320.663 61.266 320.663 58.933C320.663 57.1632 320.977 55.5141 321.604 53.9856C322.232 52.441 323.092 51.0895 324.187 49.9311C325.297 48.7565 326.584 47.8395 328.048 47.1798C329.512 46.5201 331.073 46.1903 332.73 46.1903C334.451 46.1903 336.036 46.5121 337.484 47.1557C338.932 47.7992 340.195 48.7163 341.273 49.9069C342.351 51.0975 343.188 52.5214 343.783 54.1786C344.395 55.8197 344.716 57.6459 344.749 59.657H322.111C322.272 61.6682 322.843 63.4702 323.825 65.063C324.822 66.6398 326.093 67.8867 327.638 68.8038C329.182 69.7209 330.88 70.1794 332.73 70.1794C334.789 70.1794 336.64 69.6324 338.281 68.5383C339.922 67.4443 341.225 65.9319 342.19 64.0012L343.638 64.339C342.673 66.4789 341.217 68.2326 339.27 69.6002C337.323 70.9517 335.143 71.6275 332.73 71.6275ZM322.111 58.209H343.301C343.236 56.3266 342.721 54.5809 341.756 52.9719C340.791 51.363 339.52 50.0759 337.943 49.1105C336.366 48.1291 334.628 47.6383 332.73 47.6383C330.815 47.6383 329.078 48.113 327.517 49.0622C325.972 50.0115 324.717 51.2906 323.752 52.8995C322.787 54.4924 322.24 56.2622 322.111 58.209ZM371.432 71.6275C369.566 71.6275 367.933 71.185 366.533 70.3001C365.134 69.3991 364.048 68.2326 363.275 66.8007C362.503 65.3687 362.117 63.8564 362.117 62.2635C362.117 61.2016 362.229 60.2926 362.455 59.5364C362.696 58.7641 363.114 57.9838 363.71 57.1954C364.305 56.407 365.142 55.4738 366.22 54.3958C367.314 53.3018 368.713 51.902 370.419 50.1965C369.373 49.1346 368.52 48.2658 367.861 47.5901C367.201 46.9143 366.694 46.3351 366.34 45.8524C365.986 45.3698 365.737 44.8871 365.592 44.4044C365.463 43.9217 365.399 43.3425 365.399 42.6667C365.399 41.5566 365.673 40.543 366.22 39.6259C366.767 38.6927 367.499 37.9526 368.416 37.4055C369.333 36.8585 370.338 36.585 371.432 36.585C372.543 36.585 373.556 36.8585 374.473 37.4055C375.407 37.9526 376.147 38.6846 376.694 39.6017C377.241 40.5188 377.514 41.5405 377.514 42.6667C377.514 43.3586 377.442 43.9619 377.297 44.4768C377.152 44.9756 376.895 45.4743 376.525 45.9731C376.155 46.4558 375.64 47.0269 374.98 47.6866C374.337 48.3463 373.508 49.1829 372.494 50.1965L383.548 61.2499L388.278 56.5679V58.5952L384.513 62.36L392.188 69.9864L391.174 71L383.548 63.4219C381.826 65.1435 380.418 66.5433 379.324 67.6212C378.246 68.6992 377.313 69.5278 376.525 70.107C375.752 70.6863 374.98 71.0804 374.208 71.2896C373.452 71.5149 372.527 71.6275 371.432 71.6275ZM371.432 70.1794C372.414 70.1794 373.243 70.0749 373.918 69.8657C374.61 69.6565 375.302 69.2784 375.994 68.7314C376.702 68.1683 377.563 67.3719 378.576 66.3421C379.59 65.3124 380.909 63.969 382.534 62.3118L371.432 51.2102C369.759 52.8995 368.4 54.2591 367.354 55.2888C366.324 56.3185 365.536 57.1873 364.989 57.8953C364.458 58.5871 364.096 59.2709 363.903 59.9467C363.71 60.6063 363.613 61.4108 363.613 62.36C363.613 63.8081 363.959 65.1274 364.651 66.318C365.343 67.4925 366.276 68.4338 367.45 69.1417C368.641 69.8335 369.968 70.1794 371.432 70.1794ZM371.432 49.1829C372.72 47.9119 373.693 46.9385 374.353 46.2627C375.028 45.587 375.479 45.0077 375.704 44.5251C375.946 44.0263 376.066 43.4069 376.066 42.6667C376.066 41.3796 375.616 40.2855 374.715 39.3845C373.814 38.4835 372.72 38.033 371.432 38.033C370.113 38.033 369.019 38.5077 368.15 39.4569C367.281 40.3901 366.847 41.4601 366.847 42.6667C366.847 43.4229 366.968 44.0504 367.209 44.5492C367.466 45.048 367.925 45.6352 368.585 46.311C369.244 46.9706 370.194 47.9279 371.432 49.1829ZM171.896 122L178.412 88.2125H179.04L189.417 115.532L199.747 88.2125H200.374L206.939 122H205.442L199.698 92.3635L189.755 118.67H189.031L179.088 92.3635L173.344 122H171.896ZM223.081 122.627C220.86 122.627 218.833 122.056 216.999 120.914C215.181 119.772 213.725 118.243 212.631 116.329C211.553 114.398 211.014 112.266 211.014 109.933C211.014 108.163 211.328 106.514 211.955 104.986C212.583 103.441 213.443 102.089 214.537 100.931C215.648 99.7565 216.935 98.8395 218.399 98.1798C219.863 97.5201 221.424 97.1903 223.081 97.1903C224.802 97.1903 226.387 97.5121 227.835 98.1557C229.283 98.7992 230.546 99.7163 231.624 100.907C232.702 102.098 233.539 103.521 234.134 105.179C234.746 106.82 235.067 108.646 235.099 110.657H212.462C212.623 112.668 213.194 114.47 214.175 116.063C215.173 117.64 216.444 118.887 217.989 119.804C219.533 120.721 221.231 121.179 223.081 121.179C225.14 121.179 226.99 120.632 228.632 119.538C230.273 118.444 231.576 116.932 232.541 115.001L233.989 115.339C233.024 117.479 231.568 119.233 229.621 120.6C227.674 121.952 225.494 122.627 223.081 122.627ZM212.462 109.209H233.651C233.587 107.327 233.072 105.581 232.107 103.972C231.142 102.363 229.87 101.076 228.294 100.111C226.717 99.1291 224.979 98.6383 223.081 98.6383C221.166 98.6383 219.429 99.113 217.868 100.062C216.323 101.012 215.068 102.291 214.103 103.9C213.138 105.492 212.591 107.262 212.462 109.209ZM261.252 85.7991H262.7V122H261.252V116.353C260.384 118.235 259.113 119.756 257.439 120.914C255.766 122.056 253.755 122.627 251.406 122.627C249.652 122.627 248.011 122.298 246.482 121.638C244.954 120.978 243.602 120.069 242.428 118.911C241.269 117.736 240.36 116.385 239.701 114.856C239.041 113.328 238.711 111.687 238.711 109.933C238.711 108.163 239.041 106.514 239.701 104.986C240.36 103.441 241.269 102.089 242.428 100.931C243.602 99.7565 244.954 98.8395 246.482 98.1798C248.011 97.5201 249.652 97.1903 251.406 97.1903C253.755 97.1903 255.766 97.7695 257.439 98.9279C259.113 100.07 260.384 101.583 261.252 103.465V85.7991ZM251.406 121.179C253.481 121.179 255.243 120.673 256.691 119.659C258.155 118.645 259.265 117.286 260.022 115.58C260.778 113.875 261.156 111.992 261.156 109.933C261.156 107.825 260.77 105.919 259.997 104.213C259.225 102.508 258.107 101.156 256.643 100.159C255.195 99.1452 253.449 98.6383 251.406 98.6383C249.346 98.6383 247.464 99.1452 245.758 100.159C244.053 101.172 242.693 102.54 241.68 104.262C240.666 105.967 240.159 107.858 240.159 109.933C240.159 112.041 240.674 113.947 241.704 115.653C242.75 117.342 244.125 118.686 245.831 119.683C247.536 120.681 249.395 121.179 251.406 121.179ZM280.314 122.627C278.094 122.627 276.066 122.056 274.232 120.914C272.414 119.772 270.958 118.243 269.864 116.329C268.786 114.398 268.247 112.266 268.247 109.933C268.247 108.163 268.561 106.514 269.188 104.986C269.816 103.441 270.677 102.089 271.771 100.931C272.881 99.7565 274.168 98.8395 275.632 98.1798C277.096 97.5201 278.657 97.1903 280.314 97.1903C282.036 97.1903 283.62 97.5121 285.068 98.1557C286.516 98.7992 287.779 99.7163 288.857 100.907C289.935 102.098 290.772 103.521 291.367 105.179C291.979 106.82 292.301 108.646 292.333 110.657H269.695C269.856 112.668 270.427 114.47 271.409 116.063C272.406 117.64 273.677 118.887 275.222 119.804C276.766 120.721 278.464 121.179 280.314 121.179C282.373 121.179 284.224 120.632 285.865 119.538C287.506 118.444 288.809 116.932 289.775 115.001L291.223 115.339C290.257 117.479 288.801 119.233 286.854 120.6C284.908 121.952 282.727 122.627 280.314 122.627ZM269.695 109.209H290.885C290.82 107.327 290.305 105.581 289.34 103.972C288.375 102.363 287.104 101.076 285.527 100.111C283.95 99.1291 282.213 98.6383 280.314 98.6383C278.399 98.6383 276.662 99.113 275.101 100.062C273.557 101.012 272.302 102.291 271.336 103.9C270.371 105.492 269.824 107.262 269.695 109.209ZM297.864 97.8661H299.312V122H297.864V97.8661ZM298.612 92.7979C298.306 92.7979 298.041 92.7014 297.816 92.5083C297.607 92.2992 297.502 92.0417 297.502 91.736C297.502 91.4142 297.607 91.1568 297.816 90.9637C298.041 90.7707 298.306 90.6741 298.612 90.6741C298.902 90.6741 299.151 90.7707 299.36 90.9637C299.569 91.1568 299.674 91.4062 299.674 91.7119C299.674 92.0337 299.569 92.2992 299.36 92.5083C299.151 92.7014 298.902 92.7979 298.612 92.7979ZM306.33 122V97.8661H307.778V102.089C308.663 100.609 309.869 99.4267 311.398 98.5418C312.926 97.6408 314.608 97.1903 316.442 97.1903C317.391 97.1903 318.3 97.311 319.169 97.5523L318.541 98.9038C317.834 98.7268 317.134 98.6383 316.442 98.6383C314.849 98.6383 313.393 99.0325 312.074 99.8209C310.77 100.593 309.725 101.631 308.936 102.934C308.164 104.237 307.778 105.693 307.778 107.302V122H306.33ZM332.956 122.627C330.736 122.627 328.709 122.056 326.874 120.914C325.056 119.772 323.6 118.243 322.506 116.329C321.428 114.398 320.889 112.266 320.889 109.933C320.889 108.163 321.203 106.514 321.83 104.986C322.458 103.441 323.319 102.089 324.413 100.931C325.523 99.7565 326.81 98.8395 328.274 98.1798C329.738 97.5201 331.299 97.1903 332.956 97.1903C335.177 97.1903 337.196 97.7615 339.014 98.9038C340.848 100.046 342.304 101.583 343.382 103.513C344.476 105.444 345.023 107.584 345.023 109.933C345.023 111.687 344.709 113.328 344.082 114.856C343.454 116.385 342.586 117.736 341.475 118.911C340.381 120.069 339.102 120.978 337.638 121.638C336.19 122.298 334.629 122.627 332.956 122.627ZM332.956 121.179C334.951 121.179 336.745 120.665 338.338 119.635C339.947 118.589 341.218 117.213 342.151 115.508C343.101 113.803 343.575 111.944 343.575 109.933C343.575 107.906 343.101 106.039 342.151 104.334C341.218 102.612 339.947 101.237 338.338 100.207C336.745 99.1612 334.951 98.6383 332.956 98.6383C330.945 98.6383 329.135 99.1612 327.526 100.207C325.933 101.237 324.67 102.612 323.737 104.334C322.804 106.039 322.337 107.906 322.337 109.933C322.337 112.025 322.82 113.923 323.785 115.629C324.751 117.318 326.038 118.67 327.647 119.683C329.256 120.681 331.025 121.179 332.956 121.179ZM358.276 122.483C356.892 122.483 355.541 122.249 354.222 121.783C352.918 121.316 351.784 120.689 350.819 119.9C349.853 119.112 349.202 118.235 348.864 117.27L350.215 116.691C350.521 117.559 351.116 118.324 352.001 118.983C352.902 119.627 353.916 120.134 355.042 120.504C356.185 120.858 357.262 121.035 358.276 121.035C359.531 121.035 360.706 120.817 361.8 120.383C362.894 119.933 363.779 119.313 364.454 118.525C365.13 117.736 365.468 116.819 365.468 115.773C365.468 114.679 365.114 113.819 364.406 113.191C363.714 112.548 362.813 112.025 361.703 111.622C360.609 111.22 359.467 110.834 358.276 110.464C356.426 109.885 354.849 109.338 353.546 108.823C352.259 108.308 351.277 107.672 350.602 106.916C349.926 106.144 349.588 105.09 349.588 103.755C349.588 102.387 349.998 101.205 350.819 100.207C351.639 99.1934 352.709 98.4131 354.029 97.8661C355.348 97.319 356.764 97.0455 358.276 97.0455C360.287 97.0455 362.097 97.496 363.706 98.397C365.331 99.2819 366.433 100.424 367.013 101.824L365.758 102.548C365.42 101.695 364.849 100.971 364.044 100.376C363.256 99.7646 362.347 99.298 361.317 98.9762C360.303 98.6544 359.29 98.4935 358.276 98.4935C357.005 98.4935 355.814 98.7107 354.704 99.1452C353.61 99.5635 352.725 100.167 352.05 100.955C351.374 101.744 351.036 102.677 351.036 103.755C351.036 104.865 351.317 105.718 351.881 106.313C352.46 106.892 353.288 107.367 354.366 107.737C355.444 108.107 356.748 108.533 358.276 109.016C359.789 109.499 361.196 110.005 362.5 110.536C363.819 111.067 364.881 111.743 365.685 112.564C366.506 113.368 366.916 114.438 366.916 115.773C366.916 117.141 366.506 118.332 365.685 119.345C364.881 120.343 363.819 121.115 362.5 121.662C361.18 122.209 359.772 122.483 358.276 122.483Z" fill="#2E2E2E"/>
</g>
<defs>
<clipPath id="clip0_519_315">
<rect width="422" height="187" fill="white"/>
</clipPath>
</defs>
</svg>
