<svg width="109" height="87" viewBox="0 0 109 87" fill="none" xmlns="http://www.w3.org/2000/svg">
<g clip-path="url(#clip0_901_48)">
<path d="M58.3267 13.0624L107.21 40.2196C109.823 41.6793 110.774 44.9891 109.314 47.6029C107.855 50.2168 104.545 51.1673 101.931 49.7076L55.6958 24.0271L9.44374 49.7246C6.82986 51.1843 3.52008 50.2338 2.06038 47.6199C0.600685 45.006 1.55119 41.6963 4.16506 40.2366L53.065 13.0624C54.7114 12.1459 56.6972 12.1459 58.3436 13.0624H58.3267ZM55.6958 39.5407C57.4964 39.5407 59.2233 40.256 60.4966 41.5292C61.7698 42.8024 62.4851 44.5293 62.4851 46.33C62.4851 48.1306 61.7698 49.8575 60.4966 51.1307C59.2233 52.4039 57.4964 53.1192 55.6958 53.1192C53.8952 53.1192 52.1683 52.4039 50.8951 51.1307C49.6218 49.8575 48.9065 48.1306 48.9065 46.33C48.9065 44.5293 49.6218 42.8024 50.8951 41.5292C52.1683 40.256 53.8952 39.5407 55.6958 39.5407ZM25.8229 55.835C27.6235 55.835 29.3504 56.5503 30.6237 57.8235C31.8969 59.0967 32.6122 60.8236 32.6122 62.6242C32.6122 64.4249 31.8969 66.1518 30.6237 67.425C29.3504 68.6982 27.6235 69.4135 25.8229 69.4135C24.0223 69.4135 22.2954 68.6982 21.0222 67.425C19.7489 66.1518 19.0336 64.4249 19.0336 62.6242C19.0336 60.8236 19.7489 59.0967 21.0222 57.8235C22.2954 56.5503 24.0223 55.835 25.8229 55.835ZM78.7794 62.6242C78.7794 60.8236 79.4947 59.0967 80.7679 57.8235C82.0412 56.5503 83.7681 55.835 85.5687 55.835C87.3693 55.835 89.0962 56.5503 90.3695 57.8235C91.6427 59.0967 92.358 60.8236 92.358 62.6242C92.358 64.4249 91.6427 66.1518 90.3695 67.425C89.0962 68.6982 87.3693 69.4135 85.5687 69.4135C83.7681 69.4135 82.0412 68.6982 80.7679 67.425C79.4947 66.1518 78.7794 64.4249 78.7794 62.6242ZM39.8937 95.7899L35.3279 87.3203V93.855C35.3279 96.8593 32.9007 99.2864 29.8965 99.2864H21.7493C18.7451 99.2864 16.3179 96.8593 16.3179 93.855V87.3203L11.7521 95.7899C10.6828 97.7758 8.22167 98.5057 6.2358 97.4533C4.24993 96.401 3.52008 93.9229 4.57242 91.937L11.0053 80.0048C13.6022 75.1675 18.6602 72.1462 24.1595 72.1462H27.4693C30.236 72.1462 32.8838 72.91 35.1752 74.2849L40.8782 63.7105C43.4751 58.8732 48.5331 55.8519 54.0324 55.8519H57.3422C62.8415 55.8519 67.8826 58.8732 70.4965 63.7105L76.1995 74.2849C78.4909 72.91 81.1387 72.1462 83.9053 72.1462H87.2151C92.7144 72.1462 97.7555 75.1675 100.369 80.0048L106.802 91.937C107.872 93.9229 107.125 96.384 105.139 97.4533C103.153 98.5226 100.692 97.7758 99.6225 95.7899L95.0737 87.3203V93.855C95.0737 96.8593 92.6465 99.2864 89.6423 99.2864H81.4951C78.4909 99.2864 76.0637 96.8593 76.0637 93.855V87.3203L71.4979 95.7899C70.4286 97.7758 67.9675 98.5057 65.9816 97.4533C63.9957 96.401 63.2659 93.9229 64.3182 91.937L70.4795 80.4801C70.1909 80.1915 69.9363 79.8691 69.7496 79.4956L65.2008 71.026V80.2764C65.2008 83.2807 62.7736 85.7078 59.7694 85.7078H51.6222C48.618 85.7078 46.1908 83.2807 46.1908 80.2764V71.026L41.625 79.4956C41.4213 79.8691 41.1837 80.1915 40.8951 80.4801L47.0564 91.937C48.1257 93.9229 47.3789 96.384 45.393 97.4533C43.4072 98.5226 40.9461 97.7758 39.8767 95.7899H39.8937Z" fill="#AE8FAF"/>
</g>
<defs>
<clipPath id="clip0_901_48">
<rect width="108.629" height="86.903" fill="white"/>
</clipPath>
</defs>
</svg>
