<svg width="19" height="21" viewBox="0 0 19 21" fill="none" xmlns="http://www.w3.org/2000/svg">
<g clip-path="url(#clip0_885_225)">
<path d="M15.6688 1.30469H2.61146C1.16904 1.30469 0 2.47373 0 3.91615V16.9735C0 18.4159 1.16904 19.5849 2.61146 19.5849H15.6688C17.1112 19.5849 18.2802 18.4159 18.2802 16.9735V3.91615C18.2802 2.47373 17.1092 1.30469 15.6688 1.30469ZM14.3467 13.1175L13.8726 15.1736C13.8059 15.4643 13.5502 15.6677 13.2507 15.6677C8.10533 15.6677 3.91883 11.4812 3.91883 6.33175C3.91883 6.03274 4.12219 5.77723 4.41296 5.71071L6.46868 5.23616C6.76834 5.16667 7.07584 5.32222 7.20029 5.60593L8.1498 7.82078C8.26075 8.08156 8.18583 8.3851 7.96651 8.56423L6.86733 9.46551C7.56059 10.8777 8.70923 12.026 10.1223 12.7196L11.0208 11.6216C11.198 11.4016 11.5043 11.3258 11.765 11.4386L13.9783 12.3873C14.261 12.5095 14.4161 12.8196 14.3467 13.1175Z" fill="#AE8FAF"/>
</g>
<defs>
<clipPath id="clip0_885_225">
<rect width="18.2802" height="20.8917" fill="white"/>
</clipPath>
</defs>
</svg>
