<svg width="71" height="78" viewBox="0 0 71 78" fill="none" xmlns="http://www.w3.org/2000/svg">
<g clip-path="url(#clip0_1044_97)">
<path d="M68.3419 24.2374C69.3764 24.2374 70.2229 23.4194 70.2229 22.4196V16.3602C70.2229 15.3604 69.3764 14.5424 68.3419 14.5424H65.207V7.27121C65.207 3.2569 61.8369 0 57.6831 0H7.52388C3.37007 0 0 3.2569 0 7.27121V70.2884C0 74.3027 3.37007 77.5596 7.52388 77.5596H57.6831C61.8369 77.5596 65.207 74.3027 65.207 70.2884V63.0172H68.3419C69.3764 63.0172 70.2229 62.1992 70.2229 61.1994V55.14C70.2229 54.1402 69.3764 53.3222 68.3419 53.3222H65.207V43.6273H68.3419C69.3764 43.6273 70.2229 42.8093 70.2229 41.8095V35.7501C70.2229 34.7503 69.3764 33.9323 68.3419 33.9323H65.207V24.2374H68.3419ZM32.6035 19.3899C38.1367 19.3899 42.6353 23.7375 42.6353 29.0849C42.6353 34.4322 38.1367 38.7798 32.6035 38.7798C27.0703 38.7798 22.5716 34.4322 22.5716 29.0849C22.5716 23.7375 27.0703 19.3899 32.6035 19.3899ZM50.1592 55.2612C50.1592 56.8669 48.5917 58.1697 46.6481 58.1697H18.5589C16.6152 58.1697 15.0478 56.8669 15.0478 55.2612V52.3527C15.0478 47.5356 19.7659 43.6273 25.5812 43.6273H26.3649C28.2929 44.3998 30.3933 44.8391 32.6035 44.8391C34.8136 44.8391 36.9297 44.3998 38.842 43.6273H39.6258C45.4411 43.6273 50.1592 47.5356 50.1592 52.3527V55.2612Z" fill="#AE8FAF"/>
</g>
<defs>
<clipPath id="clip0_1044_97">
<rect width="70.2229" height="77.5596" fill="white"/>
</clipPath>
</defs>
</svg>
