<svg width="93" height="83" viewBox="0 0 93 83" fill="none" xmlns="http://www.w3.org/2000/svg">
<g clip-path="url(#clip0_1044_103)">
<path d="M44.1455 40.1683C45.268 41.3549 47.096 41.3549 48.2345 40.1683L65.6971 21.8558C70.7643 16.5321 70.4757 7.71259 64.7991 2.80575C59.8602 -1.47571 52.5 -0.706009 47.978 4.04048L46.182 5.91662L44.4021 4.05651C39.8801 -0.706009 32.5198 -1.47571 27.5809 2.80575C21.9204 7.71259 21.6157 16.5321 26.6829 21.8558L44.1455 40.1683ZM90.6482 52.6118C88.7561 50.896 85.8055 51.0082 83.8171 52.6118L69.0004 64.4619C67.1884 65.9212 64.9274 66.7069 62.5862 66.7069H43.6163C42.2052 66.7069 41.0507 65.5524 41.0507 64.1412C41.0507 62.7301 42.2052 61.5756 43.6163 61.5756H56.1721C58.7217 61.5756 61.095 59.8277 61.5119 57.3101C62.041 54.1031 59.5716 51.3129 56.4447 51.3129H30.788C26.4584 51.3129 22.2732 52.8042 18.9058 55.5302L11.4493 61.5756H2.56567C1.15455 61.5756 0 62.7301 0 64.1412V79.5352C0 80.9464 1.15455 82.1009 2.56567 82.1009H59.78C62.1052 82.1009 64.3662 81.3152 66.1942 79.8559L90.4398 60.4531C92.8772 58.5128 93.0696 54.7926 90.6482 52.6118Z" fill="#AE8FAF"/>
</g>
<defs>
<clipPath id="clip0_1044_103">
<rect width="92.364" height="82.1014" fill="white"/>
</clipPath>
</defs>
</svg>
