<svg width="98" height="98" viewBox="0 0 98 98" fill="none" xmlns="http://www.w3.org/2000/svg">
<g clip-path="url(#clip0_939_42)">
<path d="M87.2309 29.3505C87.2925 30.2124 87.2925 31.0744 87.2925 31.9362C87.2925 58.2236 67.2846 88.5128 30.7159 88.5128C19.4498 88.5128 8.98412 85.2499 0.180542 79.5863C1.78124 79.7709 3.32017 79.8324 4.98246 79.8324C14.2784 79.8324 22.8358 76.6928 29.6693 71.3368C20.9273 71.152 13.6013 65.4267 11.0771 57.5465C12.3085 57.7311 13.5397 57.8543 14.8326 57.8543C16.6179 57.8543 18.4034 57.6079 20.0655 57.1772C10.9542 55.3301 4.12043 47.327 4.12043 37.6616V37.4154C6.76755 38.893 9.84597 39.8164 13.1086 39.9394C7.75256 36.3686 4.2436 30.2739 4.2436 23.3788C4.2436 19.6851 5.22843 16.2991 6.95231 13.3441C16.7409 25.4104 31.4546 33.2904 47.9534 34.1524C47.6456 32.6749 47.4609 31.136 47.4609 29.5969C47.4609 18.6385 56.326 9.71191 67.3458 9.71191C73.0712 9.71191 78.2424 12.1129 81.8747 15.9914C86.3687 15.1295 90.6781 13.4672 94.4952 11.1894C93.0175 15.8068 89.8779 19.6853 85.7532 22.1476C89.7549 21.7169 93.6334 20.6085 97.2039 19.0696C94.4956 23.0095 91.1094 26.5184 87.2309 29.3505Z" fill="#AE8FAF"/>
</g>
<defs>
<clipPath id="clip0_939_42">
<rect width="97.0238" height="97.0238" fill="white" transform="translate(0.180542 0.601562)"/>
</clipPath>
</defs>
</svg>
