<svg width="74" height="59" viewBox="0 0 74 59" fill="none" xmlns="http://www.w3.org/2000/svg">
<g clip-path="url(#clip0_885_82)">
<path d="M71.5802 31.1833L58.3293 26.0072C57.8577 25.8232 56.88 25.5816 55.7757 26.0072L42.5248 31.1833C41.2941 31.6664 40.4889 32.7937 40.4889 34.0475C40.4889 46.8843 48.3911 55.7642 55.7757 58.6514C56.88 59.077 57.8462 58.8354 58.3293 58.6514C64.2301 56.3509 73.6161 48.3681 73.6161 34.0475C73.6161 32.7937 72.811 31.6664 71.5802 31.1833ZM57.0525 53.1877V31.4364L68.0374 35.7268C67.3933 45.7455 61.0324 51.3012 57.0525 53.1877ZM25.7656 29.4465C33.8979 29.4465 40.4889 22.8555 40.4889 14.7232C40.4889 6.59095 33.8979 0 25.7656 0C17.6334 0 11.0424 6.59095 11.0424 14.7232C11.0424 22.8555 17.6334 29.4465 25.7656 29.4465ZM36.8081 34.0475C36.8081 33.7599 36.9001 33.4953 36.9346 33.2193C36.647 33.2078 36.371 33.1273 36.0719 33.1273H34.151C31.5974 34.3005 28.7563 34.9677 25.7656 34.9677C22.775 34.9677 19.9454 34.3005 17.3803 33.1273H15.4594C6.92452 33.1273 0 40.0518 0 48.5866V53.3717C0 56.4199 2.47304 58.8929 5.52121 58.8929H46.0101C46.7923 58.8929 47.5399 58.7204 48.2186 58.4328C42.0072 53.4982 36.8081 45.0094 36.8081 34.0475Z" fill="#AE8FAF"/>
</g>
<defs>
<clipPath id="clip0_885_82">
<rect width="73.6161" height="58.8929" fill="white"/>
</clipPath>
</defs>
</svg>
