<svg width="63" height="84" viewBox="0 0 63 84" fill="none" xmlns="http://www.w3.org/2000/svg">
<g clip-path="url(#clip0_901_46)">
<path d="M10.4738 28.8031C10.4738 26.396 10.9479 24.0126 11.8691 21.7888C12.7902 19.565 14.1403 17.5444 15.8423 15.8423C17.5444 14.1403 19.565 12.7902 21.7888 11.8691C24.0126 10.9479 26.396 10.4738 28.8031 10.4738C31.2101 10.4738 33.5935 10.9479 35.8174 11.8691C38.0412 12.7902 40.0618 14.1403 41.7638 15.8423C43.4658 17.5444 44.8159 19.565 45.7371 21.7888C46.6582 24.0126 47.1323 26.396 47.1323 28.8031C47.1323 31.2101 46.6582 33.5936 45.7371 35.8174C44.8159 38.0412 43.4658 40.0618 41.7638 41.7638C40.0618 43.4658 38.0412 44.8159 35.8174 45.7371C33.5935 46.6582 31.2101 47.1323 28.8031 47.1323C26.396 47.1323 24.0126 46.6582 21.7888 45.7371C19.565 44.8159 17.5444 43.4658 15.8423 41.7638C14.1403 40.0618 12.7902 38.0412 11.8691 35.8174C10.9479 33.5936 10.4738 31.2101 10.4738 28.8031ZM34.04 57.1315C47.4432 54.6767 57.6061 42.9264 57.6061 28.8031C57.6061 12.8959 44.7102 0 28.8031 0C12.8959 0 0 12.8959 0 28.8031C0 42.9264 10.1629 54.6767 23.5661 57.1315V62.8431H18.3292C15.4325 62.8431 13.0923 65.1833 13.0923 68.08C13.0923 70.9766 15.4325 73.3169 18.3292 73.3169H23.5661V78.5538C23.5661 81.4505 25.9064 83.7907 28.8031 83.7907C31.6997 83.7907 34.04 81.4505 34.04 78.5538V73.3169H39.2769C42.1736 73.3169 44.5138 70.9766 44.5138 68.08C44.5138 65.1833 42.1736 62.8431 39.2769 62.8431H34.04V57.1315Z" fill="#AE8FAF"/>
</g>
<defs>
<clipPath id="clip0_901_46">
<rect width="62.843" height="83.7907" fill="white"/>
</clipPath>
</defs>
</svg>
