<svg width="124" height="124" viewBox="0 0 124 124" fill="none" xmlns="http://www.w3.org/2000/svg">
<g filter="url(#filter0_d_912_42)">
<circle cx="62" cy="58" r="58" fill="#61AF5A"/>
</g>
<path d="M84.2645 35.0879C78.1853 28.9941 70.0893 25.6426 61.4855 25.6426C43.7266 25.6426 29.2757 40.0935 29.2757 57.8524C29.2757 63.5254 30.7556 69.0678 33.5703 73.9573L29 90.6426L46.077 86.1593C50.7779 88.7274 56.0737 90.0767 61.471 90.0767H61.4855C79.2299 90.0767 94 75.6258 94 57.8669C94 49.2631 90.3437 41.1816 84.2645 35.0879V35.0879ZM61.4855 84.6504C56.6685 84.6504 51.9531 83.3591 47.8471 80.9216L46.875 80.3412L36.7478 82.9964L39.4464 73.1158L38.808 72.1002C36.1239 67.8345 34.7165 62.916 34.7165 57.8524C34.7165 43.0968 46.7299 31.0834 61.5 31.0834C68.6529 31.0834 75.3705 33.8691 80.4196 38.9328C85.4687 43.9964 88.5737 50.714 88.5592 57.8669C88.5592 72.637 76.2411 84.6504 61.4855 84.6504V84.6504ZM76.1685 64.5991C75.3705 64.1928 71.4096 62.2486 70.6696 61.9874C69.9297 61.7118 69.3929 61.5812 68.856 62.3937C68.3192 63.2062 66.7813 65.0053 66.3025 65.5566C65.8382 66.0935 65.3594 66.166 64.5614 65.7598C59.8315 63.3948 56.7266 61.5377 53.6071 56.1839C52.7801 54.762 54.4342 54.8636 55.9721 51.7877C56.2333 51.2508 56.1027 50.7866 55.8996 50.3803C55.6964 49.9741 54.0859 46.0131 53.4185 44.4026C52.7656 42.8357 52.0982 43.0533 51.6049 43.0243C51.1406 42.9953 50.6038 42.9953 50.067 42.9953C49.5301 42.9953 48.6596 43.1984 47.9196 43.9964C47.1797 44.8089 45.1049 46.7531 45.1049 50.714C45.1049 54.6749 47.9922 58.5053 48.3839 59.0421C48.7902 59.579 54.0569 67.704 62.1384 71.2006C67.2455 73.406 69.2478 73.5946 71.8013 73.2174C73.3538 72.9852 76.5603 71.2732 77.2277 69.387C77.8951 67.5008 77.8951 65.8903 77.692 65.5566C77.5033 65.1939 76.9665 64.9908 76.1685 64.5991Z" fill="white"/>
<defs>
<filter id="filter0_d_912_42" x="0" y="0" width="124" height="124" filterUnits="userSpaceOnUse" color-interpolation-filters="sRGB">
<feFlood flood-opacity="0" result="BackgroundImageFix"/>
<feColorMatrix in="SourceAlpha" type="matrix" values="0 0 0 0 0 0 0 0 0 0 0 0 0 0 0 0 0 0 127 0" result="hardAlpha"/>
<feOffset dy="4"/>
<feGaussianBlur stdDeviation="2"/>
<feComposite in2="hardAlpha" operator="out"/>
<feColorMatrix type="matrix" values="0 0 0 0 0 0 0 0 0 0 0 0 0 0 0 0 0 0 0.25 0"/>
<feBlend mode="normal" in2="BackgroundImageFix" result="effect1_dropShadow_912_42"/>
<feBlend mode="normal" in="SourceGraphic" in2="effect1_dropShadow_912_42" result="shape"/>
</filter>
</defs>
</svg>
